<?xml version="1.0" encoding="UTF-8"?>
<svg id="Layer_2" data-name="Layer 2" xmlns="http://www.w3.org/2000/svg" viewBox="0 0 542.2 140.83">
  <defs>
    <style>
      .cls-1 {
        fill: none;
      }

      .cls-2 {
        fill: #f2f2f2;
      }

      .cls-3 {
        fill: #f4b734;
      }

      .cls-4 {
        fill: #e75039;
      }

      .cls-5 {
        fill: #b71f43;
      }

      .cls-6 {
        fill: #fffbe8;
      }

      .cls-7 {
        fill: #232b5f;
      }
    </style>
  </defs>
  <g id="Layer_2-2" data-name="Layer 2">
    <g>
      <path class="cls-6" d="M538.41,51.02c-.31-.35-.64-.69-1-1-.31-.35-.64-.69-1-1-.31-.35-.64-.69-1-1-.31-.35-.64-.69-1-1-.31-.35-.64-.69-1-1-.31-.35-.64-.69-1-1-.31-.35-.64-.69-1-1-.31-.35-.64-.69-1-1-.31-.35-.64-.69-1-1-.31-.35-.64-.69-1-1-.31-.35-.64-.69-1-1-.31-.35-.64-.69-1-1-.31-.35-.64-.69-1-1-.31-.35-.64-.69-1-1-.31-.35-.64-.69-1-1-.31-.35-.64-.69-1-1-.31-.35-.64-.69-1-1-.31-.35-.64-.69-1-1-.31-.35-.64-.69-1-1-.31-.35-.64-.69-1-1-.31-.35-.64-.69-1-1-.31-.35-.64-.69-1-1-.31-.35-.64-.69-1-1-.31-.35-.64-.69-1-1-.31-.35-.64-.69-1-1-.31-.35-.64-.69-1-1-.31-.35-.64-.69-1-1-.31-.35-.64-.69-1-1-.31-.35-.64-.69-1-1-.31-.35-.64-.69-1-1-.31-.35-.64-.69-1-1-.31-.35-.64-.69-1-1-.31-.35-.64-.69-1-1-.31-.35-.64-.69-1-1-.31-.35-.64-.69-1-1-.31-.35-.64-.69-1-1-.31-.35-.64-.69-1-1-.31-.35-.64-.69-1-1-.31-.35-.64-.69-1-1-.31-.35-.64-.69-1-1-.31-.35-.64-.69-1-1-.31-.35-.64-.69-1-1-.31-.35-.64-.69-1-1-.31-.35-.64-.69-1-1-.31-.35-.64-.69-1-1-.31-.35-.64-.69-1-1-.74-.84-1.59-1.59-2.59-2.18-1.88-1.13-4.04-1.72-6.25-1.72h-35.55c-4.58,0-8.39,2.37-10.29,6.01-.07-.08-.14-.17-.21-.25-1.9-2.07-4.35-3.62-7.3-4.6-2.36-.78-5.1-1.17-8.36-1.17h-15.76c-4.74,0-7.62,2.08-9.21,3.82-1.29,1.41-2.23,3.01-2.81,4.75l-.11.32s-.47,1.82-.95,3.66c-.01-.01-.02-.02-.04-.04-.32-.35-.66-.68-1-1-.32-.35-.66-.68-1-1-.32-.35-.66-.68-1-1-.32-.35-.66-.68-1-1-.32-.35-.66-.68-1-1-.32-.35-.66-.68-1-1-1.61-1.73-3.49-3.14-5.61-4.2-3.08-1.54-6.76-2.32-10.93-2.32h-14.14c-2.13,0-4.2.58-6.16,1.72-3.48,2.04-5.56,5.7-5.56,9.79,0,.55,0,1.06-.01,1.52-.05-.04-.09-.08-.14-.12-.31-.35-.64-.69-1-1-.31-.35-.64-.69-1-1-.31-.35-.64-.69-1-1-.31-.35-.64-.69-1-1-.31-.35-.64-.69-1-1-.31-.35-.64-.69-1-1-.31-.35-.64-.69-1-1-.31-.35-.64-.69-1-1-.31-.35-.64-.69-1-1-.74-.84-1.59-1.59-2.59-2.18-1.88-1.13-4.04-1.72-6.25-1.72h-45.15c-2.72,0-5.21.54-7.4,1.59-1.12.54-2.15,1.18-3.09,1.93-1.48-1.03-3.17-1.87-5.11-2.46-2.29-.71-5.02-1.05-8.35-1.05h-5.55c-4.34,0-8.11,2.15-10.1,5.79-.69,1.26-1.06,2.57-1.27,3.86-.02-.02-.04-.03-.06-.05-.32-.35-.65-.69-1-1-.32-.35-.65-.69-1-1-.32-.35-.65-.69-1-1-.32-.35-.65-.69-1-1-3.42-3.7-8.57-5.6-15.37-5.6h-5.56c-3.75,0-7.14,1.7-9.3,4.68-1.68,2.31-2.17,4.86-2.34,6.96-.12-.12-.24-.24-.36-.35-.32-.34-.66-.67-1-1-.32-.34-.66-.67-1-1-3.11-3.3-6.94-5.87-11.42-7.64-4.66-1.83-10.14-2.77-16.29-2.77-8.56,0-15.99,1.57-22.1,4.67-5.65,2.86-10.35,6.67-14.02,11.32-.16-.16-.32-.3-.48-.46-.32-.34-.66-.67-1-1-.32-.34-.66-.67-1-1-.32-.34-.66-.67-1-1-.32-.34-.66-.67-1-1-.32-.34-.66-.67-1-1-1.27-1.34-2.7-2.57-4.31-3.66-3.35-2.26-7.37-3.92-12.31-5.05-4.45-1.02-9.49-1.51-15.41-1.51-2.23,0-4.86.07-7.81.21-2.79.14-6.19.34-10.11.6-3,.1-5.13,1.19-6.39,2.08-2.15,1.52-3.66,3.71-4.37,6.33-.3,1.1-.47,2.28-.54,3.68-.04.83-.06,1.86-.06,3.15,0,.42-.02.94-.04,1.53,0,.01,0,.03,0,.05-.07-.07-.14-.14-.22-.21-.33-.34-.65-.68-1-1-.33-.34-.65-.68-1-1-.33-.34-.65-.68-1-1-.33-.34-.65-.68-1-1-.33-.34-.65-.68-1-1-.33-.34-.65-.68-1-1-.33-.34-.65-.68-1-1-.33-.34-.65-.68-1-1-.33-.34-.65-.68-1-1-.33-.34-.65-.68-1-1-.33-.34-.65-.68-1-1-1.23-1.29-2.63-2.42-4.2-3.33-2.64-1.52-5.73-2.29-9.18-2.29h-9.59c-2.57,0-4.38.27-6.05.91-3.99,1.53-5.93,4.93-6.54,5.99-.96,1.65-2.13,4.09-3.69,7.68-1.43,3.28-3.02,7.08-4.7,11.27-1.71,4.24-3.48,8.76-5.27,13.46-1.83,4.79-3.5,9.43-4.97,13.79-1.5,4.42-2.76,8.45-3.74,11.97-1.23,4.4-1.78,7.48-1.78,9.97,0,3.3.97,6.39,2.79,8.92.73,1.01,1.55,1.92,2.46,2.75.32.34.65.68,1,1,.32.34.65.68,1,1,.32.34.65.68,1,1,.32.34.65.68,1,1,.32.34.65.68,1,1,.32.34.65.68,1,1,.32.34.65.68,1,1,.32.34.65.68,1,1,.32.34.65.68,1,1,.32.34.65.68,1,1,.32.34.65.68,1,1,.32.34.65.68,1,1,.32.34.65.68,1,1,.32.34.65.68,1,1,.32.34.65.68,1,1,.32.34.65.68,1,1,.32.34.65.68,1,1,.32.34.65.68,1,1,.32.34.65.68,1,1,.32.34.65.68,1,1,.32.34.65.68,1,1,.32.34.65.68,1,1,.32.34.65.68,1,1,.32.34.65.68,1,1,.32.34.65.68,1,1,.32.34.65.68,1,1,.32.34.65.68,1,1,.32.34.65.68,1,1,.32.34.65.68,1,1,.32.34.65.68,1,1,.32.34.65.68,1,1,.32.34.65.68,1,1,.32.34.65.68,1,1,.32.34.65.68,1,1,.32.34.65.68,1,1,.32.34.65.68,1,1,.32.34.65.68,1,1,.32.34.65.68,1,1,.32.34.65.68,1,1,.32.34.65.68,1,1,.32.34.65.68,1,1,.32.34.65.68,1,1,.32.34.65.68,1,1,.32.34.65.68,1,1,.32.34.65.68,1,1,.32.34.65.68,1,1,1.12,1.19,2.4,2.24,3.83,3.09,1.86,1.1,3.94,1.9,6.16,2.35,1.8.37,3.6.56,5.36.56h5.35c5.57,0,10.22-3.39,11.87-8.63l.1-.33.98-4.12c.21.21.41.42.63.62.32.35.65.68,1,1,.32.35.65.68,1,1,.32.35.65.68,1,1,.32.35.65.68,1,1,.32.35.65.68,1,1,.32.35.65.68,1,1,1.82,1.98,4.08,3.53,6.76,4.63,2.96,1.22,6.47,1.81,10.72,1.81h5.15c3.19,0,5.94-.87,8.17-2.58.25-.19.52-.42.8-.68,2.51,1.52,5.48,2.61,9.09,3.33,3.23.64,7.06.95,11.73.95,7.23,0,13.21-.73,18.28-2.23,5.39-1.59,9.91-3.87,13.43-6.77,1.95-1.61,3.63-3.39,5.02-5.32.19.2.4.38.6.57.32.34.66.67,1,1,.32.34.66.67,1,1,.32.34.66.67,1,1,2.85,2.99,6.33,5.45,10.4,7.32,4.97,2.28,11.05,3.43,18.05,3.43,6.22,0,11.81-.91,16.62-2.7,4.79-1.79,9.03-4.24,12.58-7.3,2.56-2.2,4.79-4.67,6.69-7.37.21.22.43.43.66.64.32.34.66.67,1,1,.32.34.66.67,1,1,.32.34.66.67,1,1,.32.34.66.67,1,1,.32.34.66.67,1,1,.32.34.66.67,1,1,.32.34.66.67,1,1,2.88,3.03,6.47,5.44,10.7,7.14,4.27,1.72,9.3,2.59,14.94,2.59s10.31-.75,14.51-2.24c4.24-1.5,7.97-3.59,11.08-6.18,3.08-2.56,5.64-5.54,7.63-8.85.55-.92,1.06-1.86,1.54-2.8.07.07.14.14.21.2.34.37.67.7,1,1,.34.37.67.7,1,1,.34.37.67.7,1,1,.34.37.67.7,1,1,.34.37.67.7,1,1,.34.37.67.7,1,1,.34.37.67.7,1,1,.34.37.67.7,1,1,.34.37.67.7,1,1,.34.37.67.7,1,1,.34.37.67.7,1,1,.34.37.67.7,1,1,.34.37.67.7,1,1,.34.37.69.71,1.02,1.02,3.51,3.22,8.5,4.85,14.84,4.85h5.55c5.15,0,10.61-3.72,11.09-10.83l1.59-23.17s.08.07.12.1c.27.3.55.59.82.84.06.06.12.1.18.16.27.3.55.59.82.84.06.06.12.1.18.16.27.3.55.59.82.84.06.06.12.1.18.16.27.3.55.59.82.84.06.06.12.1.18.16.27.3.55.59.82.84.06.06.12.1.18.16.27.3.55.59.82.84.06.06.12.1.18.16.27.3.55.59.82.84.06.06.12.1.18.16.27.3.55.59.82.84.06.06.12.1.18.16.27.3.55.59.82.84.06.06.12.1.18.16.27.3.55.59.82.84.06.06.12.1.18.16.27.3.55.59.82.84.06.06.12.1.18.16.27.3.55.59.82.84.06.06.12.1.18.16.27.3.55.59.82.84.06.06.12.1.18.16.27.3.55.59.82.84.06.06.12.1.18.16.27.3.55.59.82.84.06.06.12.1.18.16.27.3.55.59.82.84.06.06.12.1.18.16.27.3.55.59.82.84.06.06.12.1.18.16.27.3.55.59.82.84.06.06.12.1.18.16.27.3.55.59.82.84.06.06.12.1.18.16.27.3.55.59.82.84.06.06.12.1.18.16.27.3.55.59.82.84.06.06.12.1.18.16.27.3.55.59.82.84.06.06.12.1.18.16.27.3.55.59.82.84.06.06.12.1.18.16.27.3.55.59.82.84.06.06.12.1.18.16.27.3.55.59.82.84.06.06.12.1.18.16.27.3.55.59.82.84.06.06.12.1.18.16.27.3.55.59.82.84.06.06.12.1.18.16.27.3.55.59.82.84.06.06.12.1.18.16.27.3.55.59.82.84,3.5,3.35,8.56,5.05,15.05,5.05h5.55c3.73,0,7.07-1.72,9.18-4.63,1.52,1.22,3.24,2.21,5.14,2.94,1.85.71,3.83,1.19,5.88,1.42,1.57.18,3.13.26,4.65.26,3.05,0,5.39-.33,7.39-1.05,3.23-1.17,5.2-3.06,6.38-4.79.25.27.51.53.77.79,3.5,3.35,8.56,5.05,15.05,5.05h5.55c4.8,0,7.58-2.41,8.8-3.84.56-.65,1.01-1.37,1.4-2.13.03.03.07.07.1.1.34.37.69.71,1.02,1.02,3.51,3.22,8.5,4.85,14.84,4.85h23.23c6.25,0,10.92-1.92,13.88-5.7,2.23-2.85,3.5-6.34,3.77-10.39l.43-6.3v-.34c0-3.3-1.35-6.31-3.76-8.45-.31-.35-.64-.68-1-1-.31-.35-.64-.68-1-1-.31-.35-.64-.68-1-1-.31-.35-.64-.68-1-1-.31-.35-.64-.68-1-1-.08-.09-.16-.16-.24-.25,1.57-2.54,2.49-5.51,2.72-8.86l.43-6.3v-.34c0-2.72-.9-5.24-2.52-7.22,2.17-.95,3.98-2.33,5.39-4.13,2.23-2.85,3.5-6.35,3.77-10.39l.43-6.3v-.34c0-3.36-1.39-6.4-3.79-8.51Z"/>
      <path class="cls-3" d="M532.87,52.54c-.29-.37-.62-.71-1-1-.29-.37-.62-.71-1-1-.29-.37-.62-.71-1-1-.29-.37-.62-.71-1-1-.29-.37-.62-.71-1-1-.29-.37-.62-.71-1-1-.29-.37-.62-.71-1-1-.29-.37-.62-.71-1-1-.29-.37-.62-.71-1-1-.29-.37-.62-.71-1-1-.29-.37-.62-.71-1-1-.29-.37-.62-.71-1-1-.29-.37-.62-.71-1-1-.29-.37-.62-.71-1-1-.29-.37-.62-.71-1-1-.29-.37-.62-.71-1-1-.29-.37-.62-.71-1-1-.29-.37-.62-.71-1-1-.29-.37-.62-.71-1-1-.29-.37-.62-.71-1-1-.29-.37-.62-.71-1-1-.29-.37-.62-.71-1-1-.29-.37-.62-.71-1-1-.29-.37-.62-.71-1-1-.29-.37-.62-.71-1-1-.29-.37-.62-.71-1-1-.29-.37-.62-.71-1-1-.29-.37-.62-.71-1-1-.29-.37-.62-.71-1-1-.29-.37-.62-.71-1-1-.29-.37-.62-.71-1-1-.29-.37-.62-.71-1-1-.29-.37-.62-.71-1-1-.29-.37-.62-.71-1-1-.29-.37-.62-.71-1-1-.29-.37-.62-.71-1-1-.29-.37-.62-.71-1-1-.29-.37-.62-.71-1-1-.29-.37-.62-.71-1-1-.29-.37-.62-.71-1-1-.29-.37-.62-.71-1-1-.29-.37-.62-.71-1-1-.29-.37-.62-.71-1-1-.29-.37-.62-.71-1-1-.44-.55-.97-1.04-1.61-1.42-1.11-.66-2.38-1.01-3.68-1.01h-35.55c-3.83,0-6.62,2.74-6.62,6.51,0,.64-.04,2.04-.23,5.01-.06-.05-.11-.11-.17-.16-.06-.07-.11-.15-.17-.22-.26-.28-.54-.53-.83-.78-.06-.07-.11-.15-.17-.22-.26-.28-.54-.53-.83-.78-.06-.07-.11-.15-.17-.22-.26-.28-.54-.53-.83-.78-.06-.07-.11-.15-.17-.22-.26-.28-.54-.53-.83-.78-.06-.07-.11-.15-.17-.22-.26-.28-.54-.53-.83-.78-.06-.07-.11-.15-.17-.22-.26-.28-.54-.53-.83-.78-.06-.07-.11-.15-.17-.22-.26-.28-.54-.53-.83-.78-.06-.07-.11-.15-.17-.22-1.32-1.44-3.06-2.52-5.19-3.24-1.85-.61-4.06-.91-6.78-.91h-15.76c-2.91,0-4.61,1.19-5.51,2.19-.81.89-1.4,1.89-1.76,2.96l-.05.16-3.1,11.97c-.07-.07-.15-.14-.22-.2-.32-.35-.65-.68-1-1-.32-.35-.65-.68-1-1-.32-.35-.65-.68-1-1-.32-.35-.65-.68-1-1-.32-.35-.65-.68-1-1-.32-.35-.65-.68-1-1-.32-.35-.65-.68-1-1-.32-.35-.65-.68-1-1-.32-.35-.65-.68-1-1-.32-.35-.65-.68-1-1-.32-.35-.65-.68-1-1-.32-.35-.65-.68-1-1-1.24-1.36-2.68-2.46-4.31-3.28-2.38-1.19-5.3-1.79-8.7-1.79h-14.14c-1.23,0-2.45.35-3.63,1.04-1.93,1.13-3.08,3.18-3.08,5.48,0,1.2-.02,2.2-.05,2.98-.03.85-.07,1.75-.1,2.69-.03.88-.1,1.89-.19,3-.09,1.11-.2,2.55-.32,4.27-.01,0-.02-.02-.04-.02-.29-.37-.62-.71-1-1-.29-.37-.62-.71-1-1-.29-.37-.62-.71-1-1-.29-.37-.62-.71-1-1-.29-.37-.62-.71-1-1-.29-.37-.62-.71-1-1-.29-.37-.62-.71-1-1-.29-.37-.62-.71-1-1-.29-.37-.62-.71-1-1-.29-.37-.62-.71-1-1-.29-.37-.62-.71-1-1-.29-.37-.62-.71-1-1-.29-.37-.62-.71-1-1-.29-.37-.62-.71-1-1-.29-.37-.62-.71-1-1-.29-.37-.62-.71-1-1-.29-.37-.62-.71-1-1-.44-.55-.97-1.04-1.61-1.42-1.11-.66-2.38-1.01-3.68-1.01h-45.15c-1.96,0-3.73.37-5.24,1.1-1.52.73-2.8,1.74-3.81,3-.39.48-.72,1-1.02,1.54-.15-.15-.32-.28-.48-.42-.16-.18-.3-.37-.47-.54-.16-.16-.36-.31-.53-.46-.16-.18-.3-.37-.47-.54-1.26-1.25-2.95-2.21-5.04-2.85-1.81-.56-4.06-.83-6.88-.83h-5.55c-3.58,0-5.18,2.21-5.71,3.17-.64,1.19-.91,2.62-.91,4.96,0,.53-.03,1.76-.19,4.56-.06,1.04-.13,2.18-.21,3.38-.28-.3-.56-.6-.88-.87-.31-.36-.64-.69-1-1-.31-.36-.64-.69-1-1-.31-.36-.64-.69-1-1-.31-.36-.64-.69-1-1-.31-.36-.64-.69-1-1-.31-.36-.64-.69-1-1-.31-.36-.64-.69-1-1-.31-.36-.64-.69-1-1-.31-.36-.64-.69-1-1-.31-.36-.64-.69-1-1-.31-.36-.64-.69-1-1-2.46-2.82-6.35-4.2-11.91-4.2h-5.56c-2.13,0-4.05.95-5.26,2.62-.89,1.23-1.33,2.77-1.45,5.14-.06,1.15-.2,2.89-.39,5.15-.13,1.52-.27,3.18-.42,4.94-.03-.03-.07-.07-.1-.1-.32-.34-.66-.68-1-1-.32-.34-.66-.68-1-1-.32-.34-.66-.68-1-1-.32-.34-.66-.68-1-1-.32-.34-.66-.68-1-1-.32-.34-.66-.68-1-1-.32-.34-.66-.68-1-1-.32-.34-.66-.68-1-1-.32-.34-.66-.68-1-1-.32-.34-.66-.68-1-1-2.61-2.78-5.84-4.94-9.64-6.44-4.08-1.6-8.94-2.42-14.46-2.42-7.76,0-14.44,1.39-19.84,4.13-5.4,2.74-9.82,6.42-13.13,10.95-.87,1.19-1.68,2.44-2.42,3.73-.25-.26-.5-.51-.77-.75-.32-.34-.65-.68-1-1-.32-.34-.65-.68-1-1-.32-.34-.65-.68-1-1-.32-.34-.65-.68-1-1-.32-.34-.65-.68-1-1-.32-.34-.65-.68-1-1-.32-.34-.65-.68-1-1-.32-.34-.65-.68-1-1-.32-.34-.65-.68-1-1-1.04-1.12-2.22-2.14-3.56-3.04-2.79-1.89-6.36-3.34-10.62-4.32-4.02-.92-8.83-1.39-14.3-1.39-2.15,0-4.7.07-7.56.21-2.78.14-6.19.34-10.11.6-1.45.03-2.71.43-3.75,1.17-.83.59-1.92,1.68-2.44,3.57-.2.74-.32,1.58-.37,2.62-.04.74-.06,1.69-.06,2.89,0,.48-.02,1.07-.05,1.75-.03.75-.12,2.05-.24,3.91-.12,1.74-.3,4.15-.54,7.21-.26-.27-.52-.55-.8-.8-.32-.35-.65-.68-1-1-.32-.35-.65-.68-1-1-.32-.35-.65-.68-1-1-.32-.35-.65-.68-1-1-.32-.35-.65-.68-1-1-.32-.35-.65-.68-1-1-.32-.35-.65-.68-1-1-.32-.35-.65-.68-1-1-.32-.35-.65-.68-1-1-.32-.35-.65-.68-1-1-.32-.35-.65-.68-1-1-.32-.35-.65-.68-1-1-.32-.35-.65-.68-1-1-.32-.35-.65-.68-1-1-.32-.35-.65-.68-1-1-.32-.35-.65-.68-1-1-.32-.35-.65-.68-1-1-.32-.35-.65-.68-1-1-.96-1.06-2.07-1.96-3.33-2.69-1.88-1.08-4.12-1.62-6.68-1.62h-9.59c-1.92,0-3.2.17-4.26.58-2.08.8-3.29,2.58-4,3.83-.85,1.46-1.97,3.81-3.44,7.17-1.41,3.24-2.98,6.99-4.65,11.14-1.7,4.21-3.46,8.7-5.24,13.37-1.81,4.74-3.46,9.32-4.91,13.61-1.47,4.34-2.7,8.28-3.67,11.72-1.09,3.89-1.6,6.63-1.6,8.62,0,2.28.62,4.3,1.85,6,.53.73,1.13,1.39,1.79,1.99.31.35.65.68,1,1,.31.35.65.68,1,1,.31.35.65.68,1,1,.31.35.65.68,1,1,.31.35.65.68,1,1,.31.35.65.68,1,1,.31.35.65.68,1,1,.31.35.65.68,1,1,.31.35.65.68,1,1,.31.35.65.68,1,1,.31.35.65.68,1,1,.31.35.65.68,1,1,.31.35.65.68,1,1,.31.35.65.68,1,1,.31.35.65.68,1,1,.31.35.65.68,1,1,.31.35.65.68,1,1,.31.35.65.68,1,1,.31.35.65.68,1,1,.31.35.65.68,1,1,.31.35.65.68,1,1,.31.35.65.68,1,1,.31.35.65.68,1,1,.31.35.65.68,1,1,.31.35.65.68,1,1,.31.35.65.68,1,1,.31.35.65.68,1,1,.31.35.65.68,1,1,.31.35.65.68,1,1,.31.35.65.68,1,1,.31.35.65.68,1,1,.31.35.65.68,1,1,.31.35.65.68,1,1,.31.35.65.68,1,1,.31.35.65.68,1,1,.31.35.65.68,1,1,.31.35.65.68,1,1,.31.35.65.68,1,1,.31.35.65.68,1,1,.31.35.65.68,1,1,.31.35.65.68,1,1,.31.35.65.68,1,1,.31.35.65.68,1,1,.31.35.65.68,1,1,.86.97,1.86,1.79,2.99,2.46,1.38.82,2.94,1.41,4.62,1.76,1.47.3,2.93.46,4.34.46h5.35c3.39,0,6.1-1.96,7.09-5.12l.05-.16,2.46-10.27h2.94c.19.2.39.39.59.57.31.35.65.68,1,1,.31.35.65.68,1,1,.31.35.65.68,1,1,.31.35.65.68,1,1,.31.35.65.68,1,1,.31.35.65.68,1,1,.31.35.65.68,1,1,.31.35.65.68,1,1,.31.35.65.68,1,1,.31.35.65.68,1,1,1.35,1.51,3.06,2.7,5.11,3.55,2.35.97,5.24,1.44,8.82,1.44h5.15c2.07,0,3.79-.52,5.12-1.54.98-.76,2.11-2.11,2.48-4.36.26.27.52.53.81.79.79.87,1.71,1.66,2.77,2.35,2.07,1.33,4.63,2.29,7.85,2.93,2.9.57,6.42.85,10.76.85,6.65,0,12.32-.68,16.87-2.02,4.74-1.4,8.66-3.36,11.67-5.84,3.17-2.61,5.44-5.74,6.76-9.29.06-.17.12-.34.18-.51.13.13.27.26.41.39.32.34.66.67,1,1,.32.34.66.67,1,1,.32.34.66.67,1,1,.32.34.66.67,1,1,.32.34.66.67,1,1,.32.34.66.67,1,1,.32.34.66.67,1,1,.32.34.66.67,1,1,2.43,2.57,5.42,4.68,8.93,6.3,4.31,1.98,9.69,2.98,15.97,2.98,5.62,0,10.62-.8,14.88-2.38,4.24-1.58,7.96-3.73,11.06-6.4,3.08-2.65,5.64-5.75,7.6-9.2.46-.82.9-1.64,1.32-2.48.07.06.13.12.2.19.32.34.66.68,1,1,.32.34.66.68,1,1,.32.34.66.68,1,1,.32.34.66.68,1,1,.32.34.66.68,1,1,.32.34.66.68,1,1,.32.34.66.68,1,1,.32.34.66.68,1,1,.32.34.66.68,1,1,.32.34.66.68,1,1,.32.34.66.68,1,1,.32.34.66.68,1,1,2.4,2.56,5.44,4.6,9.05,6.05,3.68,1.48,8.08,2.23,13.08,2.23s9.18-.66,12.83-1.95c3.68-1.31,6.89-3.09,9.56-5.31,2.64-2.2,4.84-4.75,6.54-7.58,1.59-2.65,2.88-5.45,3.84-8.32.08-.25.15-.5.23-.75.12.12.25.26.37.37.05.04.1.08.15.12.29.32.57.62.85.88.05.04.1.08.15.12.29.32.57.62.85.88.05.04.1.08.15.12.29.32.57.62.85.88.05.04.1.08.15.12.29.32.57.62.85.88.05.04.1.08.15.12.29.32.57.62.85.88.05.04.1.08.15.12.29.32.57.62.85.88.05.04.1.08.15.12.29.32.57.62.85.88.05.04.1.08.15.12.29.32.57.62.85.88.05.04.1.08.15.12.29.32.57.62.85.88.05.04.1.08.15.12.29.32.57.62.85.88.05.04.1.08.15.12.29.32.57.62.85.88.05.04.1.08.15.12.29.32.57.62.85.88.05.04.1.08.15.12.29.32.57.62.85.88.05.04.1.08.15.12.29.32.57.62.85.88.05.04.1.08.15.12.29.32.57.62.85.88.05.04.1.08.15.12.29.32.57.62.85.88.05.04.1.08.15.12.29.32.57.62.85.88.05.04.1.08.15.12.29.32.57.62.85.88.05.04.1.08.15.12.29.32.57.62.85.88,2.6,2.38,6.34,3.54,11.46,3.54h5.55c2.74,0,5.81-1.93,6.1-6.17l2.34-34.17c.21.23.41.46.63.68.1.09.21.17.31.27.22.25.44.5.69.73.1.09.21.17.31.27.22.25.44.5.69.73.1.09.21.17.31.27.22.25.44.5.69.73.1.09.21.17.31.27.22.25.44.5.69.73.1.09.21.17.31.27.22.25.44.5.69.73.1.09.21.17.31.27.22.25.44.5.69.73.1.09.21.17.31.27.22.25.44.5.69.73.1.09.21.17.31.27.22.25.44.5.69.73.1.09.21.17.31.27.22.25.44.5.69.73.1.09.21.17.31.27.22.25.44.5.69.73.1.09.21.17.31.27.22.25.44.5.69.73.1.09.21.17.31.27.22.25.44.5.69.73.1.09.21.17.31.27.22.25.44.5.69.73.1.09.21.17.31.27.22.25.44.5.69.73.1.09.21.17.31.27.22.25.44.5.69.73.1.09.21.17.31.27.22.25.44.5.69.73.1.09.21.17.31.27.22.25.44.5.69.73.1.09.21.17.31.27.22.25.44.5.69.73.1.09.21.17.31.27.22.25.44.5.69.73.1.09.21.17.31.27.22.25.44.5.69.73.1.09.21.17.31.27.22.25.44.5.69.73.1.09.21.17.31.27.22.25.44.5.69.73.1.09.21.17.31.27.22.25.44.5.69.73.1.09.21.17.31.27.22.25.44.5.69.73.1.09.21.17.31.27.22.25.44.5.69.73.1.09.21.17.31.27.22.25.44.5.69.73.1.09.21.17.31.27.22.25.44.5.69.73.1.09.21.17.31.27.22.25.44.5.69.73.1.09.21.17.31.27.22.25.44.5.69.73.1.09.21.17.31.27.22.25.44.5.69.73.1.09.21.17.31.27.22.25.44.5.69.73.1.09.21.17.31.27.22.25.44.5.69.73.1.09.21.17.31.27.22.25.44.5.69.73.1.09.21.17.31.27.22.25.44.5.69.73.1.09.21.17.31.27.22.25.44.5.69.73.1.09.21.17.31.27.22.25.44.5.69.73,2.57,2.46,6.36,3.66,11.59,3.66h5.55c2.57,0,4.81-1.45,5.84-3.8.52-1.2.74-2.73.77-5.35.09.08.17.18.26.26.31.35.64.69,1,1,.31.35.64.69,1,1,.31.35.64.69,1,1,.31.35.64.69,1,1,.33.37.67.72,1.04,1.04,1.21,1.05,2.62,1.9,4.21,2.51,1.45.56,3.01.93,4.63,1.11,1.38.15,2.76.23,4.09.23,2.45,0,4.26-.24,5.69-.75,2.6-.94,3.85-2.55,4.44-3.73l.1-.2.08-.21c.56-1.42,1.16-3.01,1.79-4.7.06.06.13.1.19.16.23.26.46.52.72.76.09.08.19.16.28.24.23.26.46.52.72.76.09.08.19.16.28.24.23.26.46.52.72.76.09.08.19.16.28.24.23.26.46.52.72.76.09.08.19.16.28.24.23.26.46.52.72.76.09.08.19.16.28.24.23.26.46.52.72.76,2.57,2.46,6.36,3.66,11.59,3.66h5.55c2.66,0,4.19-1.14,5-2.1.85-.99,1.38-2.26,1.56-3.72.04-.27.13-.9.44-5.18,0-.07.01-.14.02-.21.23.25.45.47.68.68.05.04.1.08.15.12.29.32.57.62.85.88.05.04.1.08.15.12.29.32.57.62.85.88.05.04.1.08.15.12.29.32.57.62.85.88.05.04.1.08.15.12.29.32.57.62.85.88.05.04.1.08.15.12.29.32.57.62.85.88.05.04.1.08.15.12.29.32.57.62.85.88.05.04.1.08.15.12.29.32.57.62.85.88,2.6,2.38,6.34,3.54,11.46,3.54h23.23c4.7,0,7.95-1.24,9.95-3.78,1.6-2.04,2.52-4.62,2.72-7.64l.42-6.13v-.17c0-1.97-.85-3.73-2.35-4.92-.29-.37-.62-.7-1-1-.29-.37-.62-.7-1-1-.29-.37-.62-.7-1-1-.29-.37-.62-.7-1-1-.29-.37-.62-.7-1-1-.29-.37-.62-.7-1-1-.29-.37-.62-.7-1-1-.29-.37-.62-.7-1-1-.16-.2-.33-.39-.52-.57.71-.49,1.34-1.07,1.87-1.75,1.6-2.04,2.52-4.62,2.72-7.64l.42-6.13v-.17c0-2.05-.84-3.82-2.33-4.98-.29-.37-.62-.71-1-1-.29-.37-.62-.71-1-1-.29-.37-.62-.71-1-1-.29-.37-.62-.71-1-1-.29-.37-.62-.71-1-1-.19-.24-.4-.46-.63-.67h1.95c4.7,0,7.95-1.24,9.95-3.78,1.6-2.04,2.52-4.62,2.72-7.64l.42-6.13v-.17c0-2.05-.84-3.82-2.33-4.98Z"/>
      <path class="cls-4" d="M521.87,41.54c-.29-.37-.62-.71-1-1-.29-.37-.62-.71-1-1-.29-.37-.62-.71-1-1-.29-.37-.62-.71-1-1-.29-.37-.62-.71-1-1-.29-.37-.62-.71-1-1-.29-.37-.62-.71-1-1-.29-.37-.62-.71-1-1-.29-.37-.62-.71-1-1-.29-.37-.62-.71-1-1-.29-.37-.62-.71-1-1-.29-.37-.62-.71-1-1-.29-.37-.62-.71-1-1-.29-.37-.62-.71-1-1-.29-.37-.62-.71-1-1-.29-.37-.62-.71-1-1-.29-.37-.62-.71-1-1-.29-.37-.62-.71-1-1-.29-.37-.62-.71-1-1-.29-.37-.62-.71-1-1-.29-.37-.62-.71-1-1-.29-.37-.62-.71-1-1-.29-.37-.62-.71-1-1-.29-.37-.62-.71-1-1-.29-.37-.62-.71-1-1-.29-.37-.62-.71-1-1-.29-.37-.62-.71-1-1-.29-.37-.62-.71-1-1-.29-.37-.62-.71-1-1-.29-.37-.62-.71-1-1-.29-.37-.62-.71-1-1-.29-.37-.62-.71-1-1-.29-.37-.62-.71-1-1-.44-.55-.97-1.04-1.61-1.42-1.11-.66-2.38-1.01-3.68-1.01h-35.55c-3.83,0-6.62,2.74-6.62,6.51,0,.64-.04,2.04-.23,5.01-.06-.05-.11-.11-.17-.16-.06-.07-.11-.15-.17-.22-.26-.28-.54-.53-.83-.78-.06-.07-.11-.15-.17-.22-.26-.28-.54-.53-.83-.78-.06-.07-.11-.15-.17-.22-.26-.28-.54-.53-.83-.78-.06-.07-.11-.15-.17-.22-.26-.28-.54-.53-.83-.78-.06-.07-.11-.15-.17-.22-.26-.28-.54-.53-.83-.78-.06-.07-.11-.15-.17-.22-.26-.28-.54-.53-.83-.78-.06-.07-.11-.15-.17-.22-.26-.28-.54-.53-.83-.78-.06-.07-.11-.15-.17-.22-1.32-1.44-3.06-2.52-5.19-3.24-1.85-.61-4.06-.91-6.78-.91h-15.76c-2.91,0-4.61,1.19-5.51,2.19-.81.89-1.4,1.89-1.76,2.96l-.05.16-3.1,11.97c-.07-.07-.15-.14-.22-.2-.32-.35-.65-.68-1-1-.32-.35-.65-.68-1-1-.32-.35-.65-.68-1-1-.32-.35-.65-.68-1-1-.32-.35-.65-.68-1-1-.32-.35-.65-.68-1-1-.32-.35-.65-.68-1-1-.32-.35-.65-.68-1-1-.32-.35-.65-.68-1-1-.32-.35-.65-.68-1-1-.32-.35-.65-.68-1-1-.32-.35-.65-.68-1-1-1.24-1.36-2.68-2.46-4.31-3.28-2.38-1.19-5.3-1.79-8.7-1.79h-14.14c-1.23,0-2.45.35-3.63,1.04-1.93,1.13-3.08,3.18-3.08,5.48,0,1.2-.02,2.2-.05,2.98-.03.85-.07,1.75-.1,2.69-.03.88-.1,1.89-.19,3-.09,1.11-.2,2.55-.32,4.27-.01,0-.02-.02-.04-.02-.29-.37-.62-.71-1-1-.29-.37-.62-.71-1-1-.29-.37-.62-.71-1-1-.29-.37-.62-.71-1-1-.29-.37-.62-.71-1-1-.29-.37-.62-.71-1-1-.29-.37-.62-.71-1-1-.29-.37-.62-.71-1-1-.29-.37-.62-.71-1-1-.29-.37-.62-.71-1-1-.29-.37-.62-.71-1-1-.29-.37-.62-.71-1-1-.29-.37-.62-.71-1-1-.29-.37-.62-.71-1-1-.29-.37-.62-.71-1-1-.29-.37-.62-.71-1-1-.29-.37-.62-.71-1-1-.44-.55-.97-1.04-1.61-1.42-1.11-.66-2.38-1.01-3.68-1.01h-45.15c-1.96,0-3.73.37-5.24,1.1-1.52.73-2.8,1.74-3.81,3-.39.48-.72,1-1.02,1.54-.15-.15-.32-.28-.48-.42-.16-.18-.3-.37-.47-.54-.16-.16-.36-.31-.53-.46-.16-.18-.3-.37-.47-.54-1.26-1.25-2.95-2.21-5.04-2.85-1.81-.56-4.06-.83-6.88-.83h-5.55c-3.58,0-5.18,2.21-5.71,3.17-.64,1.19-.91,2.62-.91,4.96,0,.53-.03,1.76-.19,4.56-.06,1.04-.13,2.18-.21,3.38-.28-.3-.56-.6-.88-.87-.31-.36-.64-.69-1-1-.31-.36-.64-.69-1-1-.31-.36-.64-.69-1-1-.31-.36-.64-.69-1-1-.31-.36-.64-.69-1-1-.31-.36-.64-.69-1-1-.31-.36-.64-.69-1-1-.31-.36-.64-.69-1-1-.31-.36-.64-.69-1-1-.31-.36-.64-.69-1-1-.31-.36-.64-.69-1-1-2.46-2.82-6.35-4.2-11.91-4.2h-5.56c-2.13,0-4.05.95-5.26,2.62-.89,1.23-1.33,2.77-1.45,5.14-.06,1.15-.2,2.89-.39,5.15-.13,1.52-.27,3.18-.42,4.94-.03-.03-.07-.07-.1-.1-.32-.34-.66-.68-1-1-.32-.34-.66-.68-1-1-.32-.34-.66-.68-1-1-.32-.34-.66-.68-1-1-.32-.34-.66-.68-1-1-.32-.34-.66-.68-1-1-.32-.34-.66-.68-1-1-.32-.34-.66-.68-1-1-.32-.34-.66-.68-1-1-.32-.34-.66-.68-1-1-2.61-2.78-5.84-4.94-9.64-6.44-4.08-1.6-8.94-2.42-14.46-2.42-7.76,0-14.44,1.39-19.84,4.13-5.4,2.74-9.82,6.42-13.13,10.95-.87,1.19-1.68,2.44-2.42,3.73-.25-.26-.5-.51-.77-.75-.32-.34-.65-.68-1-1-.32-.34-.65-.68-1-1-.32-.34-.65-.68-1-1-.32-.34-.65-.68-1-1-.32-.34-.65-.68-1-1-.32-.34-.65-.68-1-1-.32-.34-.65-.68-1-1-.32-.34-.65-.68-1-1-.32-.34-.65-.68-1-1-1.04-1.12-2.22-2.14-3.56-3.04-2.79-1.89-6.36-3.34-10.62-4.32-4.02-.92-8.83-1.39-14.3-1.39-2.15,0-4.7.07-7.56.21-2.78.14-6.19.34-10.11.6-1.45.03-2.71.43-3.75,1.17-.83.59-1.92,1.68-2.44,3.57-.2.74-.32,1.58-.37,2.62-.04.74-.06,1.69-.06,2.89,0,.48-.02,1.07-.05,1.75-.03.75-.12,2.05-.24,3.91-.12,1.74-.3,4.15-.54,7.21-.26-.27-.52-.55-.8-.8-.32-.35-.65-.68-1-1-.32-.35-.65-.68-1-1-.32-.35-.65-.68-1-1-.32-.35-.65-.68-1-1-.32-.35-.65-.68-1-1-.32-.35-.65-.68-1-1-.32-.35-.65-.68-1-1-.32-.35-.65-.68-1-1-.32-.35-.65-.68-1-1-.32-.35-.65-.68-1-1-.32-.35-.65-.68-1-1-.32-.35-.65-.68-1-1-.32-.35-.65-.68-1-1-.32-.35-.65-.68-1-1-.32-.35-.65-.68-1-1-.32-.35-.65-.68-1-1-.32-.35-.65-.68-1-1-.32-.35-.65-.68-1-1-.96-1.06-2.07-1.96-3.33-2.69-1.88-1.08-4.12-1.62-6.68-1.62h-9.59c-1.92,0-3.2.17-4.26.58-2.08.8-3.29,2.58-4,3.83-.85,1.46-1.97,3.81-3.44,7.17-1.41,3.24-2.98,6.99-4.65,11.14-1.7,4.21-3.46,8.7-5.24,13.37-1.81,4.74-3.46,9.32-4.91,13.61-1.47,4.34-2.7,8.28-3.67,11.72-1.09,3.89-1.6,6.63-1.6,8.62,0,2.28.62,4.3,1.85,6,.53.73,1.13,1.39,1.79,1.99.31.35.65.68,1,1,.31.35.65.68,1,1,.31.35.65.68,1,1,.31.35.65.68,1,1,.31.35.65.68,1,1,.31.35.65.68,1,1,.31.35.65.68,1,1,.31.35.65.68,1,1,.31.35.65.68,1,1,.31.35.65.68,1,1,.31.35.65.68,1,1,.31.35.65.68,1,1,.31.35.65.68,1,1,.31.35.65.68,1,1,.31.35.65.68,1,1,.31.35.65.68,1,1,.31.35.65.68,1,1,.31.35.65.68,1,1,.31.35.65.68,1,1,.31.35.65.68,1,1,.31.35.65.68,1,1,.31.35.65.68,1,1,.31.35.65.68,1,1,.31.35.65.68,1,1,.31.35.65.68,1,1,.31.35.65.68,1,1,.31.35.65.68,1,1,.31.35.65.68,1,1,.31.35.65.68,1,1,.31.35.65.68,1,1,.31.35.65.68,1,1,.31.35.65.68,1,1,.31.35.65.68,1,1,.86.97,1.86,1.79,2.99,2.46,1.38.82,2.94,1.41,4.62,1.76,1.47.3,2.93.46,4.34.46h5.35c3.39,0,6.1-1.96,7.09-5.12l.05-.16,2.46-10.27h2.94c.19.2.39.39.59.57.31.35.65.68,1,1,.31.35.65.68,1,1,.31.35.65.68,1,1,.31.35.65.68,1,1,.31.35.65.68,1,1,.31.35.65.68,1,1,.31.35.65.68,1,1,.31.35.65.68,1,1,.31.35.65.68,1,1,.31.35.65.68,1,1,1.35,1.51,3.06,2.7,5.11,3.55,2.35.97,5.24,1.44,8.82,1.44h5.15c2.07,0,3.79-.52,5.12-1.54.98-.76,2.11-2.11,2.48-4.36.26.27.52.53.81.79.79.87,1.71,1.66,2.77,2.35,2.07,1.33,4.63,2.29,7.85,2.93,2.9.57,6.42.85,10.76.85,6.65,0,12.32-.68,16.87-2.02,4.74-1.4,8.66-3.36,11.67-5.84,3.17-2.61,5.44-5.74,6.76-9.29.06-.17.12-.34.18-.51.13.13.27.26.41.39.32.34.66.67,1,1,.32.34.66.67,1,1,.32.34.66.67,1,1,.32.34.66.67,1,1,.32.34.66.67,1,1,.32.34.66.67,1,1,.32.34.66.67,1,1,.32.34.66.67,1,1,2.43,2.57,5.42,4.68,8.93,6.3,4.31,1.98,9.69,2.98,15.97,2.98,5.62,0,10.62-.8,14.88-2.38,4.24-1.58,7.96-3.73,11.06-6.4,3.08-2.65,5.64-5.75,7.6-9.2.46-.82.9-1.64,1.32-2.48.07.06.13.12.2.19.32.34.66.68,1,1,.32.34.66.68,1,1,.32.34.66.68,1,1,.32.34.66.68,1,1,.32.34.66.68,1,1,.32.34.66.68,1,1,.32.34.66.68,1,1,.32.34.66.68,1,1,.32.34.66.68,1,1,.32.34.66.68,1,1,.32.34.66.68,1,1,.32.34.66.68,1,1,2.4,2.56,5.44,4.6,9.05,6.05,3.68,1.48,8.08,2.23,13.08,2.23s9.18-.66,12.83-1.95c3.68-1.31,6.89-3.09,9.56-5.31,2.64-2.2,4.84-4.75,6.54-7.58,1.59-2.65,2.88-5.45,3.84-8.32.08-.25.15-.5.23-.75.12.12.25.26.37.37.05.04.1.08.15.12.29.32.57.62.85.88.05.04.1.08.15.12.29.32.57.62.85.88.05.04.1.08.15.12.29.32.57.62.85.88.05.04.1.08.15.12.29.32.57.62.85.88.05.04.1.08.15.12.29.32.57.62.85.88.05.04.1.08.15.12.29.32.57.62.85.88.05.04.1.08.15.12.29.32.57.62.85.88.05.04.1.08.15.12.29.32.57.62.85.88.05.04.1.08.15.12.29.32.57.62.85.88.05.04.1.08.15.12.29.32.57.62.85.88.05.04.1.08.15.12.29.32.57.62.85.88.05.04.1.08.15.12.29.32.57.62.85.88.05.04.1.08.15.12.29.32.57.62.85.88.05.04.1.08.15.12.29.32.57.62.85.88.05.04.1.08.15.12.29.32.57.62.85.88.05.04.1.08.15.12.29.32.57.62.85.88.05.04.1.08.15.12.29.32.57.62.85.88.05.04.1.08.15.12.29.32.57.62.85.88.05.04.1.08.15.12.29.32.57.62.85.88,2.6,2.38,6.34,3.54,11.46,3.54h5.55c2.74,0,5.81-1.93,6.1-6.17l2.4-35.12c.64,1.38,1.48,2.6,2.57,3.63.1.09.21.17.31.27.22.25.44.5.69.73.1.09.21.17.31.27.22.25.44.5.69.73.1.09.21.17.31.27.22.25.44.5.69.73.1.09.21.17.31.27.22.25.44.5.69.73.1.09.21.17.31.27.22.25.44.5.69.73.1.09.21.17.31.27.22.25.44.5.69.73.1.09.21.17.31.27.22.25.44.5.69.73.1.09.21.17.31.27.22.25.44.5.69.73.1.09.21.17.31.27.22.25.44.5.69.73.1.09.21.17.31.27.22.25.44.5.69.73.1.09.21.17.31.27.22.25.44.5.69.73.1.09.21.17.31.27.22.25.44.5.69.73.1.09.21.17.31.27.22.25.44.5.69.73.1.09.21.17.31.27.22.25.44.5.69.73.1.09.21.17.31.27.22.25.44.5.69.73.1.09.21.17.31.27.22.25.44.5.69.73.1.09.21.17.31.27.22.25.44.5.69.73.1.09.21.17.31.27.22.25.44.5.69.73.1.09.21.17.31.27.22.25.44.5.69.73.1.09.21.17.31.27.22.25.44.5.69.73.1.09.21.17.31.27.22.25.44.5.69.73.1.09.21.17.31.27.22.25.44.5.69.73.1.09.21.17.31.27.22.25.44.5.69.73.1.09.21.17.31.27.22.25.44.5.69.73.1.09.21.17.31.27.22.25.44.5.69.73.1.09.21.17.31.27.22.25.44.5.69.73.1.09.21.17.31.27.22.25.44.5.69.73.1.09.21.17.31.27.22.25.44.5.69.73.1.09.21.17.31.27.22.25.44.5.69.73.1.09.21.17.31.27.22.25.44.5.69.73.1.09.21.17.31.27.22.25.44.5.69.73.1.09.21.17.31.27.22.25.44.5.69.73.1.09.21.17.31.27.22.25.44.5.69.73.1.09.21.17.31.27.22.25.44.5.69.73,2.57,2.46,6.36,3.66,11.59,3.66h5.55c2.57,0,4.81-1.45,5.84-3.8.52-1.2.74-2.73.77-5.35.09.08.17.18.26.26.31.35.64.69,1,1,.31.35.64.69,1,1,.31.35.64.69,1,1,.31.35.64.69,1,1,.33.37.67.72,1.04,1.04,1.21,1.05,2.62,1.9,4.21,2.51,1.45.56,3.01.93,4.63,1.11,1.38.15,2.76.23,4.09.23,2.45,0,4.26-.24,5.69-.75,2.6-.94,3.85-2.55,4.44-3.73l.1-.2.08-.21c.56-1.42,1.16-3.01,1.79-4.7.06.06.13.1.19.16.23.26.46.52.72.76.09.08.19.16.28.24.23.26.46.52.72.76.09.08.19.16.28.24.23.26.46.52.72.76.09.08.19.16.28.24.23.26.46.52.72.76.09.08.19.16.28.24.23.26.46.52.72.76.09.08.19.16.28.24.23.26.46.52.72.76,2.57,2.46,6.36,3.66,11.59,3.66h5.55c2.66,0,4.19-1.14,5-2.1.85-.99,1.38-2.26,1.56-3.72.04-.27.13-.9.44-5.18,0-.07.01-.14.02-.21.23.25.45.47.68.68.05.04.1.08.15.12.29.32.57.62.85.88.05.04.1.08.15.12.29.32.57.62.85.88.05.04.1.08.15.12.29.32.57.62.85.88.05.04.1.08.15.12.29.32.57.62.85.88.05.04.1.08.15.12.29.32.57.62.85.88.05.04.1.08.15.12.29.32.57.62.85.88.05.04.1.08.15.12.29.32.57.62.85.88,2.6,2.38,6.34,3.54,11.46,3.54h23.23c4.7,0,7.95-1.24,9.95-3.78,1.6-2.04,2.52-4.62,2.72-7.64l.42-6.13v-.17c0-1.97-.85-3.73-2.35-4.92-.29-.37-.62-.7-1-1-.29-.37-.62-.7-1-1-.29-.37-.62-.7-1-1-.29-.37-.62-.7-1-1-.29-.37-.62-.7-1-1-.29-.37-.62-.7-1-1-.29-.37-.62-.7-1-1-.29-.37-.62-.7-1-1-.16-.2-.33-.39-.52-.57.71-.49,1.34-1.07,1.87-1.75,1.6-2.04,2.52-4.62,2.72-7.64l.42-6.13v-.17c0-2.05-.84-3.82-2.33-4.98-.29-.37-.62-.71-1-1-.29-.37-.62-.71-1-1-.29-.37-.62-.71-1-1-.29-.37-.62-.71-1-1-.29-.37-.62-.71-1-1-.19-.24-.4-.46-.63-.67h1.95c4.7,0,7.95-1.24,9.95-3.78,1.6-2.04,2.52-4.62,2.72-7.64l.42-6.13v-.17c0-2.05-.84-3.82-2.33-4.98Z"/>
      <path class="cls-5" d="M510.87,30.54c-.29-.37-.62-.71-1-1-.29-.37-.62-.71-1-1-.29-.37-.62-.71-1-1-.29-.37-.62-.71-1-1-.29-.37-.62-.71-1-1-.29-.37-.62-.71-1-1-.29-.37-.62-.71-1-1-.29-.37-.62-.71-1-1-.29-.37-.62-.71-1-1-.29-.37-.62-.71-1-1-.29-.37-.62-.71-1-1-.29-.37-.62-.71-1-1-.29-.37-.62-.71-1-1-.29-.37-.62-.71-1-1-.29-.37-.62-.71-1-1-.29-.37-.62-.71-1-1-.29-.37-.62-.71-1-1-.29-.37-.62-.71-1-1-.29-.37-.62-.71-1-1-.29-.37-.62-.71-1-1-.29-.37-.62-.71-1-1-.29-.37-.62-.71-1-1-.44-.55-.97-1.04-1.61-1.42-1.11-.66-2.38-1.01-3.68-1.01h-35.55c-3.83,0-6.62,2.74-6.62,6.51,0,.64-.04,2.04-.23,5.01-.06-.05-.11-.11-.17-.16-.06-.07-.11-.15-.17-.22-.26-.28-.54-.53-.83-.78-.06-.07-.11-.15-.17-.22-.26-.28-.54-.53-.83-.78-.06-.07-.11-.15-.17-.22-.26-.28-.54-.53-.83-.78-.06-.07-.11-.15-.17-.22-.26-.28-.54-.53-.83-.78-.06-.07-.11-.15-.17-.22-.26-.28-.54-.53-.83-.78-.06-.07-.11-.15-.17-.22-.26-.28-.54-.53-.83-.78-.06-.07-.11-.15-.17-.22-.26-.28-.54-.53-.83-.78-.06-.07-.11-.15-.17-.22-1.32-1.44-3.06-2.52-5.19-3.24-1.85-.61-4.06-.91-6.78-.91h-15.76c-2.91,0-4.61,1.19-5.51,2.19-.81.89-1.4,1.89-1.76,2.96l-.05.16-3.1,11.97c-.07-.07-.15-.14-.22-.2-.32-.35-.65-.68-1-1-.32-.35-.65-.68-1-1-.32-.35-.65-.68-1-1-.32-.35-.65-.68-1-1-.32-.35-.65-.68-1-1-.32-.35-.65-.68-1-1-.32-.35-.65-.68-1-1-.32-.35-.65-.68-1-1-.32-.35-.65-.68-1-1-.32-.35-.65-.68-1-1-.32-.35-.65-.68-1-1-.32-.35-.65-.68-1-1-1.24-1.36-2.68-2.46-4.31-3.28-2.38-1.19-5.3-1.79-8.7-1.79h-14.14c-1.23,0-2.45.35-3.63,1.04-1.93,1.13-3.08,3.18-3.08,5.48,0,1.2-.02,2.2-.05,2.98-.03.85-.07,1.75-.1,2.69-.03.88-.1,1.89-.19,3-.09,1.11-.2,2.55-.32,4.27-.01,0-.02-.02-.04-.02-.29-.37-.62-.71-1-1-.29-.37-.62-.71-1-1-.29-.37-.62-.71-1-1-.29-.37-.62-.71-1-1-.29-.37-.62-.71-1-1-.29-.37-.62-.71-1-1-.29-.37-.62-.71-1-1-.29-.37-.62-.71-1-1-.29-.37-.62-.71-1-1-.29-.37-.62-.71-1-1-.29-.37-.62-.71-1-1-.29-.37-.62-.71-1-1-.29-.37-.62-.71-1-1-.29-.37-.62-.71-1-1-.29-.37-.62-.71-1-1-.29-.37-.62-.71-1-1-.29-.37-.62-.71-1-1-.44-.55-.97-1.04-1.61-1.42-1.11-.66-2.38-1.01-3.68-1.01h-45.15c-1.96,0-3.73.37-5.24,1.1-1.52.73-2.8,1.74-3.81,3-.39.48-.72,1-1.02,1.54-.15-.15-.32-.28-.48-.42-.16-.18-.3-.37-.47-.54-.16-.16-.36-.31-.53-.46-.16-.18-.3-.37-.47-.54-1.26-1.25-2.95-2.21-5.04-2.85-1.81-.56-4.06-.83-6.88-.83h-5.55c-3.58,0-5.18,2.21-5.71,3.17-.64,1.19-.91,2.62-.91,4.96,0,.53-.03,1.76-.19,4.56-.06,1.04-.13,2.18-.21,3.38-.28-.3-.56-.6-.88-.87-.31-.36-.64-.69-1-1-.31-.36-.64-.69-1-1-.31-.36-.64-.69-1-1-.31-.36-.64-.69-1-1-.31-.36-.64-.69-1-1-.31-.36-.64-.69-1-1-.31-.36-.64-.69-1-1-.31-.36-.64-.69-1-1-.31-.36-.64-.69-1-1-.31-.36-.64-.69-1-1-.31-.36-.64-.69-1-1-2.46-2.82-6.35-4.2-11.91-4.2h-5.56c-2.13,0-4.05.95-5.26,2.62-.89,1.23-1.33,2.77-1.45,5.14-.06,1.15-.2,2.89-.39,5.15-.13,1.52-.27,3.18-.42,4.94-.03-.03-.07-.07-.1-.1-.32-.34-.66-.68-1-1-.32-.34-.66-.68-1-1-.32-.34-.66-.68-1-1-.32-.34-.66-.68-1-1-.32-.34-.66-.68-1-1-.32-.34-.66-.68-1-1-.32-.34-.66-.68-1-1-.32-.34-.66-.68-1-1-.32-.34-.66-.68-1-1-.32-.34-.66-.68-1-1-2.61-2.78-5.84-4.94-9.64-6.44-4.08-1.6-8.94-2.42-14.46-2.42-7.76,0-14.44,1.39-19.84,4.13-5.4,2.74-9.82,6.42-13.13,10.95-.87,1.19-1.68,2.44-2.42,3.73-.25-.26-.5-.51-.77-.75-.32-.34-.65-.68-1-1-.32-.34-.65-.68-1-1-.32-.34-.65-.68-1-1-.32-.34-.65-.68-1-1-.32-.34-.65-.68-1-1-.32-.34-.65-.68-1-1-.32-.34-.65-.68-1-1-.32-.34-.65-.68-1-1-.32-.34-.65-.68-1-1-1.04-1.12-2.22-2.14-3.56-3.04-2.79-1.89-6.36-3.34-10.62-4.32-4.02-.92-8.83-1.39-14.3-1.39-2.15,0-4.7.07-7.56.21-2.78.14-6.19.34-10.11.6-1.45.03-2.71.43-3.75,1.17-.83.59-1.92,1.68-2.44,3.57-.2.74-.32,1.58-.37,2.62-.04.74-.06,1.69-.06,2.89,0,.48-.02,1.07-.05,1.75-.03.75-.12,2.05-.24,3.91-.12,1.74-.3,4.15-.54,7.21-.26-.27-.52-.55-.8-.8-.32-.35-.65-.68-1-1-.32-.35-.65-.68-1-1-.32-.35-.65-.68-1-1-.32-.35-.65-.68-1-1-.32-.35-.65-.68-1-1-.32-.35-.65-.68-1-1-.32-.35-.65-.68-1-1-.32-.35-.65-.68-1-1-.32-.35-.65-.68-1-1-.32-.35-.65-.68-1-1-.32-.35-.65-.68-1-1-.32-.35-.65-.68-1-1-.32-.35-.65-.68-1-1-.32-.35-.65-.68-1-1-.32-.35-.65-.68-1-1-.32-.35-.65-.68-1-1-.32-.35-.65-.68-1-1-.32-.35-.65-.68-1-1-.96-1.06-2.07-1.96-3.33-2.69-1.88-1.08-4.12-1.62-6.68-1.62h-9.59c-1.92,0-3.2.17-4.26.58-2.08.8-3.29,2.58-4,3.83-.85,1.46-1.97,3.81-3.44,7.17-1.41,3.24-2.98,6.99-4.65,11.14-1.7,4.21-3.46,8.7-5.24,13.37-1.81,4.74-3.46,9.32-4.91,13.61-1.47,4.34-2.7,8.28-3.67,11.72-1.09,3.89-1.6,6.63-1.6,8.62,0,2.28.62,4.3,1.85,6,.53.73,1.13,1.39,1.79,1.99.31.35.65.68,1,1,.31.35.65.68,1,1,.31.35.65.68,1,1,.31.35.65.68,1,1,.31.35.65.68,1,1,.31.35.65.68,1,1,.31.35.65.68,1,1,.31.35.65.68,1,1,.31.35.65.68,1,1,.31.35.65.68,1,1,.31.35.65.68,1,1,.31.35.65.68,1,1,.31.35.65.68,1,1,.31.35.65.68,1,1,.31.35.65.68,1,1,.31.35.65.68,1,1,.31.35.65.68,1,1,.31.35.65.68,1,1,.31.35.65.68,1,1,.31.35.65.68,1,1,.31.35.65.68,1,1,.31.35.65.68,1,1,.86.97,1.86,1.79,2.99,2.46,1.38.82,2.94,1.41,4.62,1.76,1.47.3,2.93.46,4.34.46h5.35c3.39,0,6.1-1.96,7.09-5.12l.05-.16,2.46-10.27h2.94c.19.2.39.39.59.57.31.35.65.68,1,1,.31.35.65.68,1,1,.31.35.65.68,1,1,.31.35.65.68,1,1,.31.35.65.68,1,1,.31.35.65.68,1,1,.31.35.65.68,1,1,.31.35.65.68,1,1,.31.35.65.68,1,1,.31.35.65.68,1,1,1.35,1.51,3.06,2.7,5.11,3.55,2.35.97,5.24,1.44,8.82,1.44h5.15c2.07,0,3.79-.52,5.12-1.54.98-.76,2.11-2.11,2.48-4.36.26.27.52.53.81.79.79.87,1.71,1.66,2.77,2.35,2.07,1.33,4.63,2.29,7.85,2.93,2.9.57,6.42.85,10.76.85,6.65,0,12.32-.68,16.87-2.02,4.74-1.4,8.66-3.36,11.67-5.84,3.17-2.61,5.44-5.74,6.76-9.29.06-.17.12-.34.18-.51.13.13.27.26.41.39.32.34.66.67,1,1,.32.34.66.67,1,1,.32.34.66.67,1,1,.32.34.66.67,1,1,.32.34.66.67,1,1,.32.34.66.67,1,1,.32.34.66.67,1,1,.32.34.66.67,1,1,2.43,2.57,5.42,4.68,8.93,6.3,4.31,1.98,9.69,2.98,15.97,2.98,5.62,0,10.62-.8,14.88-2.38,4.24-1.58,7.96-3.73,11.06-6.4,3.08-2.65,5.64-5.75,7.6-9.2.46-.82.9-1.64,1.32-2.48.07.06.13.12.2.19.32.34.66.68,1,1,.32.34.66.68,1,1,.32.34.66.68,1,1,.32.34.66.68,1,1,.32.34.66.68,1,1,.32.34.66.68,1,1,.32.34.66.68,1,1,.32.34.66.68,1,1,.32.34.66.68,1,1,.32.34.66.68,1,1,.32.34.66.68,1,1,.32.34.66.68,1,1,2.4,2.56,5.44,4.6,9.05,6.05,3.68,1.48,8.08,2.23,13.08,2.23s9.18-.66,12.83-1.95c3.68-1.31,6.89-3.09,9.56-5.31,2.64-2.2,4.84-4.75,6.54-7.58,1.59-2.65,2.88-5.45,3.84-8.32.08-.25.15-.5.23-.75.12.12.25.26.37.37.05.04.1.08.15.12.29.32.57.62.85.88.05.04.1.08.15.12.29.32.57.62.85.88.05.04.1.08.15.12.29.32.57.62.85.88.05.04.1.08.15.12.29.32.57.62.85.88.05.04.1.08.15.12.29.32.57.62.85.88.05.04.1.08.15.12.29.32.57.62.85.88.05.04.1.08.15.12.29.32.57.62.85.88.05.04.1.08.15.12.29.32.57.62.85.88.05.04.1.08.15.12.29.32.57.62.85.88.05.04.1.08.15.12.29.32.57.62.85.88.05.04.1.08.15.12.29.32.57.62.85.88.05.04.1.08.15.12.29.32.57.62.85.88.05.04.1.08.15.12.29.32.57.62.85.88.05.04.1.08.15.12.29.32.57.62.85.88.05.04.1.08.15.12.29.32.57.62.85.88.05.04.1.08.15.12.29.32.57.62.85.88.05.04.1.08.15.12.29.32.57.62.85.88.05.04.1.08.15.12.29.32.57.62.85.88.05.04.1.08.15.12.29.32.57.62.85.88,2.6,2.38,6.34,3.54,11.46,3.54h5.55c2.74,0,5.81-1.93,6.1-6.17l3.52-51.4h6.24c1.34,0,2.54-.11,3.65-.31-.02.32-.05.65-.08.98-.24,3.13-.45,6-.66,8.63-.2,2.65-.36,4.99-.46,6.94-.11,2.01-.16,3.44-.16,4.35,0,4.37,1.32,7.84,3.91,10.33.1.09.21.17.31.27.22.25.44.5.69.73.1.09.21.17.31.27.22.25.44.5.69.73.1.09.21.17.31.27.22.25.44.5.69.73.1.09.21.17.31.27.22.25.44.5.69.73.1.09.21.17.31.27.22.25.44.5.69.73.1.09.21.17.31.27.22.25.44.5.69.73.1.09.21.17.31.27.22.25.44.5.69.73.1.09.21.17.31.27.22.25.44.5.69.73.1.09.21.17.31.27.22.25.44.5.69.73.1.09.21.17.31.27.22.25.44.5.69.73.1.09.21.17.31.27.22.25.44.5.69.73.1.09.21.17.31.27.22.25.44.5.69.73.1.09.21.17.31.27.22.25.44.5.69.73.1.09.21.17.31.27.22.25.44.5.69.73.1.09.21.17.31.27.22.25.44.5.69.73.1.09.21.17.31.27.22.25.44.5.69.73.1.09.21.17.31.27.22.25.44.5.69.73.1.09.21.17.31.27.22.25.44.5.69.73.1.09.21.17.31.27.22.25.44.5.69.73.1.09.21.17.31.27.22.25.44.5.69.73.1.09.21.17.31.27.22.25.44.5.69.73.1.09.21.17.31.27.22.25.44.5.69.73.1.09.21.17.31.27.22.25.44.5.69.73,2.57,2.46,6.36,3.66,11.59,3.66h5.55c2.57,0,4.81-1.45,5.84-3.8.52-1.2.74-2.73.77-5.35.09.08.17.18.26.26.31.35.64.69,1,1,.31.35.64.69,1,1,.31.35.64.69,1,1,.31.35.64.69,1,1,.33.37.67.72,1.04,1.04,1.21,1.05,2.62,1.9,4.21,2.51,1.45.56,3.01.93,4.63,1.11,1.38.15,2.76.23,4.09.23,2.45,0,4.26-.24,5.69-.75,2.6-.94,3.85-2.55,4.44-3.73l.1-.2.08-.21c.56-1.42,1.16-3.01,1.79-4.7.06.06.13.1.19.16.23.26.46.52.72.76.09.08.19.16.28.24.23.26.46.52.72.76.09.08.19.16.28.24.23.26.46.52.72.76.09.08.19.16.28.24.23.26.46.52.72.76.09.08.19.16.28.24.23.26.46.52.72.76.09.08.19.16.28.24.23.26.46.52.72.76,2.57,2.46,6.36,3.66,11.59,3.66h5.55c2.66,0,4.19-1.14,5-2.1.85-.99,1.38-2.26,1.56-3.72.04-.27.13-.9.44-5.18,0-.07.01-.14.02-.21.23.25.45.47.68.68.05.04.1.08.15.12.29.32.57.62.85.88.05.04.1.08.15.12.29.32.57.62.85.88.05.04.1.08.15.12.29.32.57.62.85.88.05.04.1.08.15.12.29.32.57.62.85.88.05.04.1.08.15.12.29.32.57.62.85.88.05.04.1.08.15.12.29.32.57.62.85.88.05.04.1.08.15.12.29.32.57.62.85.88,2.6,2.38,6.34,3.54,11.46,3.54h23.23c4.7,0,7.95-1.24,9.95-3.78,1.6-2.04,2.52-4.62,2.72-7.64l.42-6.13v-.17c0-1.97-.85-3.73-2.35-4.92-.29-.37-.62-.7-1-1-.29-.37-.62-.7-1-1-.29-.37-.62-.7-1-1-.29-.37-.62-.7-1-1-.29-.37-.62-.7-1-1-.29-.37-.62-.7-1-1-.29-.37-.62-.7-1-1-.29-.37-.62-.7-1-1-.16-.2-.33-.39-.52-.57.71-.49,1.34-1.07,1.87-1.75,1.6-2.04,2.52-4.62,2.72-7.64l.42-6.13v-.17c0-2.05-.84-3.82-2.33-4.98-.29-.37-.62-.71-1-1-.29-.37-.62-.71-1-1-.29-.37-.62-.71-1-1-.29-.37-.62-.71-1-1-.29-.37-.62-.71-1-1-.19-.24-.4-.46-.63-.67h1.95c4.7,0,7.95-1.24,9.95-3.78,1.6-2.04,2.52-4.62,2.72-7.64l.42-6.13v-.17c0-2.05-.84-3.82-2.33-4.98Z"/>
      <g>
        <path class="cls-1" d="M175.19,43.5c-.84,1.01-1.52,2.16-2.03,3.42-.6,1.48-1.08,3.03-1.42,4.6-.35,1.62-.59,3.2-.71,4.67-.12,1.57-.19,2.98-.19,4.21,0,.65.02,1.26.04,1.84.31-.21.57-.43.79-.65,1.47-1.5,2.66-3.35,3.52-5.51.96-2.4,1.62-4.92,1.96-7.51.37-2.76.56-5.1.56-6.96,0-.04,0-.07,0-.1-1,.52-1.83,1.17-2.52,1.99Z"/>
        <path class="cls-7" d="M340.92,17.54c-.29-.37-.62-.71-1-1-.29-.37-.62-.71-1-1-.29-.37-.62-.71-1-1-.29-.37-.62-.71-1-1-.29-.37-.62-.71-1-1-.29-.37-.62-.71-1-1-.29-.37-.62-.71-1-1-.29-.37-.62-.71-1-1-.29-.37-.62-.71-1-1-.44-.55-.97-1.04-1.61-1.42-1.11-.66-2.38-1.01-3.68-1.01h-45.15c-1.96,0-3.73.37-5.24,1.1-1.52.73-2.8,1.74-3.81,3-.39.48-.72,1-1.02,1.54-.15-.15-.32-.28-.48-.42-.16-.18-.3-.37-.47-.54-.16-.16-.36-.31-.53-.46-.16-.18-.3-.37-.47-.54-1.26-1.25-2.95-2.21-5.04-2.85-1.81-.56-4.06-.83-6.88-.83h-5.55c-3.58,0-5.18,2.21-5.71,3.17-.64,1.19-.91,2.62-.91,4.96,0,.53-.03,1.76-.19,4.56-.07,1.3-.17,2.74-.27,4.29-.44-.91-.95-1.75-1.55-2.5-.38-.47-.81-.89-1.26-1.28-.31-.36-.64-.69-1-1-.31-.36-.64-.69-1-1-.31-.36-.64-.69-1-1-.31-.36-.64-.69-1-1-.31-.36-.64-.69-1-1-.31-.36-.64-.69-1-1-.31-.36-.64-.69-1-1-.31-.36-.64-.69-1-1-.31-.36-.64-.69-1-1-2.46-2.82-6.35-4.2-11.91-4.2h-5.56c-2.13,0-4.05.95-5.26,2.62-.89,1.23-1.33,2.77-1.45,5.14-.06,1.15-.2,2.89-.39,5.15-.13,1.52-.27,3.18-.42,4.95-.35-.38-.72-.75-1.1-1.11-.32-.34-.66-.68-1-1-.32-.34-.66-.68-1-1-.32-.34-.66-.68-1-1-.32-.34-.66-.68-1-1-.32-.34-.66-.68-1-1-.32-.34-.66-.68-1-1-.32-.34-.66-.68-1-1-.32-.34-.66-.68-1-1-.32-.34-.66-.68-1-1-2.61-2.78-5.84-4.94-9.64-6.44-4.08-1.6-8.94-2.42-14.46-2.42-7.76,0-14.44,1.39-19.84,4.13-5.4,2.74-9.82,6.42-13.13,10.95-.87,1.19-1.68,2.44-2.42,3.73-.25-.26-.5-.51-.77-.75-.32-.34-.65-.68-1-1-.32-.34-.65-.68-1-1-.32-.34-.65-.68-1-1-.32-.34-.65-.68-1-1-.32-.34-.65-.68-1-1-.32-.34-.65-.68-1-1-.32-.34-.65-.68-1-1-.32-.34-.65-.68-1-1-.32-.34-.65-.68-1-1-1.04-1.12-2.22-2.14-3.56-3.04-2.79-1.89-6.36-3.34-10.62-4.32-4.02-.92-8.83-1.39-14.3-1.39-2.15,0-4.7.07-7.56.21-2.78.14-6.19.34-10.11.6-1.45.03-2.71.43-3.75,1.17-.83.59-1.92,1.68-2.44,3.57-.2.74-.32,1.58-.37,2.62-.04.74-.06,1.69-.06,2.89,0,.48-.02,1.07-.05,1.75-.03.75-.12,2.05-.24,3.91-.14,1.91-.34,4.61-.6,8.1-.25,3.21-.58,7.47-.99,12.75-.9-3.63-1.86-7.52-2.89-11.71-.38-1.57-.83-3.13-1.36-4.63-.62-1.78-1.45-3.4-2.46-4.83-.6-.84-1.28-1.59-2.03-2.27-.32-.35-.65-.68-1-1-.32-.35-.65-.68-1-1-.32-.35-.65-.68-1-1-.32-.35-.65-.68-1-1-.32-.35-.65-.68-1-1-.32-.35-.65-.68-1-1-.32-.35-.65-.68-1-1-.32-.35-.65-.68-1-1-.32-.35-.65-.68-1-1-.96-1.06-2.07-1.96-3.33-2.69-1.88-1.08-4.12-1.62-6.68-1.62h-9.59c-1.92,0-3.2.17-4.26.58-2.08.8-3.29,2.58-4,3.83-.85,1.46-1.97,3.81-3.44,7.17-1.41,3.24-2.98,6.99-4.65,11.14-1.7,4.21-3.46,8.7-5.24,13.37-1.81,4.74-3.46,9.32-4.91,13.61-1.47,4.34-2.7,8.28-3.67,11.72-1.09,3.89-1.6,6.63-1.6,8.62,0,2.28.62,4.3,1.85,6,.53.73,1.13,1.39,1.79,1.99.31.35.65.68,1,1,.31.35.65.68,1,1,.31.35.65.68,1,1,.31.35.65.68,1,1,.31.35.65.68,1,1,.31.35.65.68,1,1,.31.35.65.68,1,1,.31.35.65.68,1,1,.31.35.65.68,1,1,.86.97,1.86,1.79,2.99,2.46,1.38.82,2.94,1.41,4.62,1.76,1.47.3,2.93.46,4.34.46h5.35c3.39,0,6.1-1.96,7.09-5.12l.05-.16,2.46-10.27h3.04c.45.57.95,1.09,1.49,1.57.31.35.65.68,1,1,.31.35.65.68,1,1,.31.35.65.68,1,1,.31.35.65.68,1,1,.31.35.65.68,1,1,.31.35.65.68,1,1,.31.35.65.68,1,1,.31.35.65.68,1,1,.31.35.65.68,1,1,1.35,1.51,3.06,2.7,5.11,3.55,2.35.97,5.24,1.44,8.82,1.44h5.15c2.07,0,3.79-.52,5.12-1.54.98-.76,2.11-2.11,2.48-4.36.26.27.52.53.81.79.79.87,1.71,1.66,2.77,2.35,2.07,1.33,4.63,2.29,7.85,2.93,2.9.57,6.42.85,10.76.85,6.65,0,12.32-.68,16.87-2.02,4.74-1.4,8.66-3.36,11.67-5.84,3.17-2.61,5.44-5.74,6.76-9.29.06-.17.12-.34.18-.51.13.13.27.26.41.39.32.34.66.67,1,1,.32.34.66.67,1,1,.32.34.66.67,1,1,.32.34.66.67,1,1,.32.34.66.67,1,1,.32.34.66.67,1,1,.32.34.66.67,1,1,.32.34.66.67,1,1,2.43,2.57,5.42,4.68,8.93,6.3,4.31,1.98,9.69,2.98,15.97,2.98,5.62,0,10.62-.8,14.88-2.38,4.24-1.58,7.96-3.73,11.06-6.4,3.08-2.65,5.64-5.75,7.6-9.2.52-.92,1-1.85,1.47-2.79.52.72,1.07,1.42,1.66,2.08.44.49.91.96,1.39,1.41.32.34.66.68,1,1,.32.34.66.68,1,1,.32.34.66.68,1,1,.32.34.66.68,1,1,.32.34.66.68,1,1,.32.34.66.68,1,1,.32.34.66.68,1,1,.32.34.66.68,1,1,.32.34.66.68,1,1,2.4,2.56,5.44,4.6,9.05,6.05,3.68,1.48,8.08,2.23,13.08,2.23s9.18-.66,12.83-1.95c3.68-1.31,6.89-3.09,9.56-5.31,2.64-2.2,4.84-4.75,6.54-7.58,1.59-2.65,2.88-5.45,3.84-8.32.92-2.77,1.61-5.54,2.06-8.24.42-2.54.74-4.91.95-6.99.28-2.59.52-5.59.73-8.92.2-3.29.37-6.55.51-9.68.04-.9.08-1.77.11-2.62.97.66,2.15,1.04,3.48,1.04h.02c-.09,1.11-.17,2.21-.26,3.32-.27,3.28-.52,6.53-.76,9.74l-.66,8.89c-.21,2.84-.36,5.2-.46,7.24-.11,2.13-.16,3.7-.16,4.79,0,5.24,2.2,8.36,4.04,10.05.05.04.1.08.15.12.29.32.57.62.85.88.05.04.1.08.15.12.29.32.57.62.85.88.05.04.1.08.15.12.29.32.57.62.85.88.05.04.1.08.15.12.29.32.57.62.85.88.05.04.1.08.15.12.29.32.57.62.85.88.05.04.1.08.15.12.29.32.57.62.85.88.05.04.1.08.15.12.29.32.57.62.85.88.05.04.1.08.15.12.29.32.57.62.85.88.05.04.1.08.15.12.29.32.57.62.85.88.05.04.1.08.15.12.29.32.57.62.85.88,2.6,2.38,6.34,3.54,11.46,3.54h5.55c2.74,0,5.81-1.93,6.1-6.17l3.52-51.4h6.24c4.7,0,7.95-1.24,9.95-3.79,1.6-2.04,2.51-4.62,2.72-7.64l.42-6.13v-.17c0-2.05-.84-3.82-2.33-4.98ZM177.15,48.57c-.35,2.58-1.01,5.11-1.96,7.51-.86,2.16-2.04,4.01-3.52,5.51-.21.22-.47.44-.79.65-.02-.58-.04-1.19-.04-1.84,0-1.22.06-2.64.19-4.21.11-1.48.35-3.05.71-4.67.34-1.57.82-3.11,1.42-4.6.51-1.26,1.19-2.41,2.03-3.42.69-.82,1.52-1.47,2.52-1.99,0,.04,0,.07,0,.1,0,1.86-.19,4.2-.56,6.96Z"/>
        <path class="cls-7" d="M497.87,17.54c-.29-.37-.62-.71-1-1-.29-.37-.62-.71-1-1-.29-.37-.62-.71-1-1-.29-.37-.62-.71-1-1-.29-.37-.62-.71-1-1-.29-.37-.62-.71-1-1-.29-.37-.62-.71-1-1-.29-.37-.62-.71-1-1-.29-.37-.62-.71-1-1-.44-.55-.97-1.04-1.61-1.42-1.11-.66-2.38-1.01-3.68-1.01h-35.55c-3.83,0-6.62,2.74-6.62,6.51,0,.64-.04,2.04-.23,5.01-.06-.05-.11-.11-.17-.16-.06-.07-.11-.15-.17-.22-.26-.28-.54-.53-.83-.78-.06-.07-.11-.15-.17-.22-.26-.28-.54-.53-.83-.78-.06-.07-.11-.15-.17-.22-.26-.28-.54-.53-.83-.78-.06-.07-.11-.15-.17-.22-.26-.28-.54-.53-.83-.78-.06-.07-.11-.15-.17-.22-.26-.28-.54-.53-.83-.78-.06-.07-.11-.15-.17-.22-.26-.28-.54-.53-.83-.78-.06-.07-.11-.15-.17-.22-.26-.28-.54-.53-.83-.78-.06-.07-.11-.15-.17-.22-1.32-1.44-3.06-2.52-5.19-3.24-1.85-.61-4.06-.91-6.78-.91h-15.76c-2.91,0-4.61,1.19-5.51,2.19-.81.89-1.4,1.89-1.76,2.96l-.05.16-3.26,12.58c-.07-.12-.14-.24-.21-.36-.82-1.32-1.77-2.48-2.85-3.46-.32-.35-.65-.68-1-1-.32-.35-.65-.68-1-1-.32-.35-.65-.68-1-1-.32-.35-.65-.68-1-1-.32-.35-.65-.68-1-1-.32-.35-.65-.68-1-1-.32-.35-.65-.68-1-1-.32-.35-.65-.68-1-1-.32-.35-.65-.68-1-1-1.24-1.36-2.68-2.46-4.31-3.28-2.38-1.19-5.3-1.79-8.7-1.79h-14.14c-1.23,0-2.45.35-3.63,1.04-1.93,1.13-3.08,3.18-3.08,5.48,0,1.2-.02,2.2-.05,2.98-.03.85-.07,1.75-.1,2.69-.03.88-.1,1.89-.19,3-.1,1.23-.22,2.84-.36,4.81-.13,1.94-.32,4.36-.55,7.27-.24,2.93-.52,6.59-.86,10.94-.27,3.25-.53,6.44-.76,9.58-.24,3.13-.45,6-.66,8.63-.2,2.65-.36,4.99-.46,6.94-.11,2.01-.16,3.44-.16,4.35,0,4.37,1.32,7.84,3.91,10.33.1.09.21.17.31.27.22.25.44.5.69.73.1.09.21.17.31.27.22.25.44.5.69.73.1.09.21.17.31.27.22.25.44.5.69.73.1.09.21.17.31.27.22.25.44.5.69.73.1.09.21.17.31.27.22.25.44.5.69.73.1.09.21.17.31.27.22.25.44.5.69.73.1.09.21.17.31.27.22.25.44.5.69.73.1.09.21.17.31.27.22.25.44.5.69.73.1.09.21.17.31.27.22.25.44.5.69.73.1.09.21.17.31.27.22.25.44.5.69.73,2.57,2.46,6.36,3.66,11.59,3.66h5.55c2.57,0,4.81-1.45,5.84-3.8.52-1.2.74-2.73.77-5.35.09.08.17.18.26.26.31.35.64.69,1,1,.31.35.64.69,1,1,.31.35.64.69,1,1,.31.35.64.69,1,1,.33.37.67.72,1.04,1.04,1.21,1.05,2.62,1.9,4.21,2.51,1.45.56,3.01.93,4.63,1.11,1.38.15,2.76.23,4.09.23,2.45,0,4.26-.24,5.69-.75,2.6-.94,3.85-2.55,4.44-3.73l.1-.2.08-.21c.56-1.42,1.16-3.01,1.79-4.7.06.06.13.1.19.16.23.26.46.52.72.76.09.08.19.16.28.24.23.26.46.52.72.76.09.08.19.16.28.24.23.26.46.52.72.76.09.08.19.16.28.24.23.26.46.52.72.76.09.08.19.16.28.24.23.26.46.52.72.76.09.08.19.16.28.24.23.26.46.52.72.76,2.57,2.46,6.36,3.66,11.59,3.66h5.55c2.66,0,4.19-1.14,5-2.1.85-.99,1.38-2.26,1.56-3.72.04-.27.13-.9.44-5.18,0-.07.01-.14.02-.21.23.25.45.47.68.68.05.04.1.08.15.12.29.32.57.62.85.88.05.04.1.08.15.12.29.32.57.62.85.88.05.04.1.08.15.12.29.32.57.62.85.88.05.04.1.08.15.12.29.32.57.62.85.88.05.04.1.08.15.12.29.32.57.62.85.88.05.04.1.08.15.12.29.32.57.62.85.88.05.04.1.08.15.12.29.32.57.62.85.88,2.6,2.38,6.34,3.54,11.46,3.54h23.23c4.7,0,7.95-1.24,9.95-3.78,1.6-2.04,2.52-4.62,2.72-7.64l.42-6.13v-.17c0-1.97-.85-3.73-2.35-4.92-.29-.37-.62-.7-1-1-.29-.37-.62-.7-1-1-.29-.37-.62-.7-1-1-.29-.37-.62-.7-1-1-.29-.37-.62-.7-1-1-.29-.37-.62-.7-1-1-.29-.37-.62-.7-1-1-.29-.37-.62-.7-1-1-.16-.2-.33-.39-.52-.57.71-.49,1.34-1.07,1.87-1.75,1.6-2.04,2.52-4.62,2.72-7.64l.42-6.13v-.17c0-2.05-.84-3.82-2.33-4.98-.29-.37-.62-.71-1-1-.29-.37-.62-.71-1-1-.29-.37-.62-.71-1-1-.29-.37-.62-.71-1-1-.29-.37-.62-.71-1-1-.19-.24-.4-.46-.63-.67h1.95c4.7,0,7.95-1.24,9.95-3.78,1.6-2.04,2.52-4.62,2.72-7.64l.42-6.13v-.17c0-2.05-.84-3.82-2.33-4.98Z"/>
      </g>
      <g>
        <path class="cls-2" d="M46.36,11.11c1.68,0,3.08.32,4.19.96,1.11.64,2.04,1.48,2.78,2.53.74,1.04,1.35,2.24,1.82,3.59.47,1.35.87,2.73,1.21,4.14,2.69,10.91,4.91,19.9,6.67,26.97,1.75,7.07,3.13,12.78,4.14,17.12,1.01,4.34,1.72,7.56,2.12,9.65.4,2.09.61,3.53.61,4.34,0,.94-.22,1.58-.66,1.92-.44.34-1.13.5-2.07.5h-5.15c-2.9,0-5.2-.35-6.92-1.06-1.72-.71-3.03-1.73-3.94-3.08-.91-1.35-1.57-2.98-1.97-4.9-.4-1.92-.74-4.09-1.01-6.51h-17.57l-3.33,13.94c-.34,1.08-1.11,1.62-2.32,1.62h-5.35c-1.08,0-2.19-.12-3.33-.35-1.15-.24-2.17-.62-3.08-1.16-.91-.54-1.67-1.23-2.27-2.07-.61-.84-.91-1.87-.91-3.08,0-1.48.47-3.9,1.41-7.27.94-3.37,2.14-7.19,3.59-11.46,1.45-4.28,3.06-8.75,4.85-13.43,1.78-4.68,3.52-9.11,5.2-13.28,1.68-4.17,3.21-7.84,4.6-11.01,1.38-3.16,2.44-5.39,3.18-6.67.54-.94,1.03-1.5,1.46-1.67.44-.17,1.26-.25,2.47-.25h9.59ZM34.24,52.62h11.62l-4.24-26.66-7.37,26.66Z"/>
        <path class="cls-2" d="M96.96,83.83c-3.97,0-7.24-.25-9.8-.76-2.56-.51-4.6-1.25-6.11-2.22-1.51-.97-2.56-2.2-3.13-3.69-.57-1.48-.86-3.23-.86-5.25,0-.61.03-1.46.1-2.58.07-1.11.17-2.68.3-4.7.13-2.02.32-4.63.56-7.83.24-3.2.56-7.22.96-12.07.47-5.99.84-10.74,1.11-14.24.27-3.5.47-6.21.61-8.13.13-1.92.22-3.27.25-4.04.03-.77.05-1.43.05-1.97,0-1.08.02-1.95.05-2.63.03-.67.1-1.19.2-1.57.1-.37.27-.64.5-.81.24-.17.59-.25,1.06-.25,3.97-.27,7.36-.47,10.15-.61,2.79-.13,5.23-.2,7.32-.2,5.12,0,9.51.42,13.18,1.26,3.67.84,6.65,2.04,8.94,3.59,2.29,1.55,3.97,3.47,5.05,5.76,1.08,2.29,1.62,4.88,1.62,7.78,0,1.62-.17,3.28-.5,5-.34,1.72-.91,3.35-1.72,4.9-.81,1.55-1.9,2.91-3.28,4.09-1.38,1.18-3.12,2.04-5.2,2.58,3.9,1.21,6.67,3.22,8.28,6.01,1.62,2.79,2.42,6.11,2.42,9.95,0,3.1-.5,6.01-1.51,8.74-1.01,2.73-2.76,5.12-5.25,7.17-2.49,2.05-5.79,3.69-9.9,4.9-4.11,1.21-9.26,1.82-15.45,1.82ZM102.72,52.52c-.74,0-1.65.05-2.73.15-1.08.1-2.19.25-3.33.45l-1.11,16.46c2.42.74,4.61,1.11,6.57,1.11,2.09,0,3.77-.3,5.05-.91,1.28-.61,2.27-1.36,2.98-2.27s1.18-1.92,1.41-3.03c.24-1.11.35-2.14.35-3.08,0-2.49-.69-4.6-2.07-6.31-1.38-1.72-3.75-2.58-7.12-2.58ZM98.47,24.75c-.14,1.75-.25,3.8-.35,6.16-.1,2.36-.25,4.92-.46,7.68,2.15.54,4.07.81,5.76.81,2.02,0,3.64-.24,4.85-.71,1.21-.47,2.17-1.08,2.88-1.82.71-.74,1.18-1.55,1.41-2.42.24-.87.35-1.72.35-2.53,0-2.09-.69-3.89-2.07-5.4-1.38-1.51-3.75-2.27-7.12-2.27-.74,0-1.57.05-2.47.15-.91.1-1.84.22-2.78.35Z"/>
        <path class="cls-2" d="M173.92,10c4.91,0,9.12.69,12.62,2.07,3.5,1.38,6.36,3.4,8.58,6.06,2.22,2.66,3.84,5.89,4.85,9.7,1.01,3.8,1.51,8.13,1.51,12.98,0,2.69-.19,5.62-.55,8.79-.37,3.17-1.04,6.35-2.02,9.54-.98,3.2-2.31,6.28-3.99,9.24-1.68,2.96-3.86,5.59-6.51,7.88-2.66,2.29-5.84,4.13-9.54,5.5s-8.08,2.07-13.13,2.07c-5.59,0-10.22-.84-13.89-2.52-3.67-1.68-6.6-3.96-8.79-6.82-2.19-2.86-3.74-6.25-4.65-10.15-.91-3.9-1.36-8.08-1.36-12.52,0-5.25.61-10.39,1.82-15.4,1.21-5.02,3.25-9.48,6.11-13.38,2.86-3.9,6.65-7.05,11.36-9.44,4.71-2.39,10.57-3.59,17.57-3.59ZM171.8,25.66c-2.36,0-4.39.42-6.11,1.26-1.72.84-3.17,1.97-4.34,3.38-1.18,1.41-2.12,3-2.83,4.75-.71,1.75-1.26,3.55-1.67,5.4-.4,1.85-.67,3.64-.81,5.35-.14,1.72-.2,3.25-.2,4.6,0,6.13,1.03,10.6,3.08,13.43,2.05,2.83,4.96,4.24,8.74,4.24,3.1,0,5.62-.99,7.58-2.98,1.95-1.99,3.48-4.38,4.6-7.17,1.11-2.79,1.87-5.69,2.27-8.69s.61-5.54.61-7.63c0-4.91-.84-8.8-2.53-11.67-1.68-2.86-4.48-4.29-8.38-4.29Z"/>
        <path class="cls-2" d="M265.73,49.9c-.2,2.02-.5,4.26-.91,6.72-.4,2.46-1.03,4.95-1.87,7.47-.84,2.52-1.97,4.97-3.38,7.32-1.41,2.36-3.23,4.46-5.45,6.31-2.22,1.85-4.9,3.33-8.03,4.44-3.13,1.11-6.85,1.67-11.16,1.67s-8.11-.62-11.21-1.87c-3.1-1.25-5.62-2.96-7.58-5.15-1.95-2.19-3.37-4.73-4.24-7.62-.88-2.89-1.31-5.99-1.31-9.29,0-1.48.07-3.48.2-6.01.13-2.53.32-5.27.56-8.23.24-2.96.49-6.04.76-9.24.27-3.2.52-6.25.76-9.14.24-2.89.46-5.5.66-7.83.2-2.32.34-4.09.4-5.3.07-1.28.24-2.1.5-2.47.27-.37.67-.56,1.21-.56h5.56c4.11,0,6.87.88,8.28,2.63,1.41,1.75,2.12,4.34,2.12,7.78,0,.2-.05,1.09-.15,2.68-.1,1.58-.24,3.52-.4,5.81-.17,2.29-.34,4.78-.51,7.47-.17,2.69-.34,5.25-.5,7.68-.17,2.42-.3,4.54-.4,6.36-.1,1.82-.15,3.03-.15,3.64,0,1.15.05,2.46.15,3.94.1,1.48.37,2.9.81,4.24.44,1.35,1.14,2.47,2.12,3.38.98.91,2.37,1.36,4.19,1.36,2.29,0,4.16-.77,5.61-2.32,1.45-1.55,2.56-3.4,3.33-5.55.77-2.15,1.31-4.34,1.62-6.57.3-2.22.52-4.04.66-5.45.27-3.43.56-6.97.86-10.61s.57-7.04.81-10.2c.23-3.16.42-5.92.55-8.28.13-2.36.2-3.97.2-4.85,0-1.35.1-2.2.3-2.58.2-.37.64-.56,1.31-.56h5.55c2.29,0,4.09.2,5.4.61,1.31.4,2.3.94,2.98,1.62.67.67,1.09,1.45,1.26,2.32.17.88.25,1.79.25,2.73,0,.88-.05,2.53-.15,4.95-.1,2.42-.22,5.19-.35,8.28-.14,3.1-.3,6.3-.5,9.59-.2,3.3-.44,6.2-.71,8.69Z"/>
        <path class="cls-2" d="M309.26,25.25l-3.84,56.06c-.07,1.01-.44,1.51-1.11,1.51h-5.55c-3.77,0-6.46-.74-8.08-2.22-1.62-1.48-2.42-3.6-2.42-6.36,0-1.01.05-2.53.15-4.54.1-2.02.25-4.39.45-7.12.2-2.73.42-5.69.66-8.89.23-3.2.49-6.43.76-9.7.27-3.26.52-6.51.76-9.75.24-3.23.45-6.23.66-8.99h-16.16c-.74,0-1.11-.47-1.11-1.41l.3-5.66c.07-.88.22-1.73.45-2.58.24-.84.62-1.6,1.16-2.27.54-.67,1.23-1.21,2.07-1.62.84-.4,1.87-.61,3.08-.61h45.15c.4,0,.77.1,1.11.3.34.2.5.57.5,1.11l-.4,5.96c-.14,2.02-.69,3.65-1.67,4.9-.98,1.25-2.98,1.87-6.01,1.87h-10.91Z"/>
        <path class="cls-2" d="M414.5,28.99c-.54,1.62-1.23,3.72-2.07,6.31-.84,2.59-1.77,5.44-2.78,8.53-1.01,3.1-2.05,6.38-3.13,9.85-1.08,3.47-2.17,6.85-3.28,10.15-1.11,3.3-2.21,6.45-3.28,9.44-1.08,3-2.05,5.61-2.93,7.83-.27.54-.83.96-1.67,1.26-.84.3-2.17.45-3.99.45-1.15,0-2.32-.07-3.53-.2-1.21-.13-2.34-.4-3.38-.81-1.04-.4-1.95-.94-2.73-1.62-.77-.67-1.36-1.51-1.77-2.53-1.01-3.43-1.97-7.25-2.88-11.46-.91-4.21-1.8-8.5-2.68-12.88-.88-4.38-1.73-8.67-2.58-12.88-.84-4.21-1.7-8.03-2.58-11.46,0,.94-.03,2.56-.1,4.85-.07,2.29-.14,4.95-.2,7.98-.07,3.03-.15,6.3-.25,9.8-.1,3.5-.19,6.92-.25,10.25-.07,3.33-.14,6.43-.2,9.29-.07,2.86-.1,5.2-.1,7.02,0,2.02-.12,3.3-.35,3.84-.24.54-.66.81-1.26.81h-5.55c-3.84,0-6.55-.76-8.13-2.27-1.58-1.51-2.37-3.75-2.37-6.72,0-.81.05-2.17.15-4.09.1-1.92.25-4.19.45-6.82s.42-5.5.66-8.63c.24-3.13.49-6.31.76-9.54.34-4.38.62-8.03.86-10.96.24-2.93.42-5.37.56-7.32.13-1.95.25-3.53.35-4.75.1-1.21.17-2.29.2-3.23.03-.94.07-1.83.1-2.68.03-.84.05-1.9.05-3.18,0-.54.2-.92.61-1.16.4-.24.77-.35,1.11-.35h14.14c2.63,0,4.78.42,6.46,1.26,1.68.84,3.06,2.14,4.14,3.89,1.08,1.75,1.95,4.02,2.63,6.82.67,2.79,1.3,6.11,1.87,9.95.57,3.84,1.21,8.27,1.92,13.28.71,5.02,1.63,10.66,2.78,16.92,1.08-4.17,1.99-7.64,2.73-10.4.74-2.76,1.36-5.07,1.87-6.92.51-1.85.92-3.38,1.26-4.6.34-1.21.64-2.34.91-3.38.27-1.04.57-2.17.91-3.38.34-1.21.74-2.73,1.21-4.54.47-1.82,1.06-4.09,1.77-6.82.71-2.73,1.6-6.18,2.68-10.35.13-.4.37-.79.71-1.16.34-.37.94-.56,1.82-.56h15.76c2.15,0,3.89.22,5.2.66,1.31.44,2.34,1.06,3.08,1.87.74.81,1.25,1.8,1.52,2.98.27,1.18.4,2.54.4,4.09s-.08,4.06-.25,7.52c-.17,3.47-.4,7.37-.71,11.72-.3,4.34-.61,8.84-.91,13.48-.3,4.65-.61,8.96-.91,12.93-.3,3.97-.56,7.34-.76,10.1-.2,2.76-.34,4.38-.4,4.85-.07.54-.2.93-.4,1.16-.2.24-.61.35-1.21.35h-5.55c-3.84,0-6.55-.76-8.13-2.27-1.58-1.51-2.37-3.48-2.37-5.91,0-.74.08-2.09.25-4.04.17-1.95.39-4.24.66-6.87.27-2.63.57-5.5.91-8.64.34-3.13.64-6.24.91-9.34.27-3.1.52-6.11.76-9.04.23-2.93.42-5.5.55-7.73Z"/>
        <path class="cls-2" d="M452.68,82.82c-3.77,0-6.46-.74-8.08-2.22-1.62-1.48-2.42-3.6-2.42-6.36,0-1.35.1-3.65.3-6.92.2-3.26.47-6.98.81-11.16.34-4.17.67-8.58,1.01-13.23.34-4.65.67-9.02,1.01-13.13.34-4.11.61-7.71.81-10.81.2-3.1.3-5.22.3-6.36,0-1.01.54-1.51,1.62-1.51h35.55c.4,0,.77.1,1.11.3.34.2.5.57.5,1.11l-.4,5.96c-.14,2.02-.69,3.65-1.67,4.9-.98,1.25-2.98,1.87-6.01,1.87h-13.94l-1.01,14.24h14.34c.4,0,.77.1,1.11.3.34.2.51.57.51,1.11l-.4,5.96c-.14,2.02-.69,3.65-1.67,4.9-.98,1.25-2.98,1.87-6.01,1.87h-8.79l-1.11,15.05h22.22c.4,0,.77.12,1.11.35.34.24.5.59.5,1.06l-.4,5.96c-.14,2.02-.69,3.65-1.67,4.9-.98,1.25-2.98,1.87-6.01,1.87h-23.23Z"/>
      </g>
    </g>
  </g>
</svg>