<?xml version="1.0" encoding="UTF-8"?>
<svg id="Layer_2" data-name="Layer 2" xmlns="http://www.w3.org/2000/svg" viewBox="0 0 338.25 93.83">
  <defs>
    <style>
      .cls-1 {
        fill: none;
      }

      .cls-2 {
        fill: #f2f2f2;
      }

      .cls-3 {
        fill: #232b5f;
      }
    </style>
  </defs>
  <g id="Layer_7" data-name="Layer 7">
    <g>
      <g>
        <path class="cls-1" d="M170.18,51.08c.96-2.4,1.62-4.92,1.96-7.51.37-2.76.56-5.1.56-6.96,0-.04,0-.07,0-.1-1,.52-1.83,1.17-2.52,1.99-.84,1.01-1.52,2.16-2.03,3.42-.6,1.48-1.08,3.03-1.42,4.6-.35,1.62-.59,3.2-.71,4.67-.12,1.57-.19,2.98-.19,4.21,0,.65.02,1.26.04,1.84.31-.21.57-.43.79-.65,1.47-1.5,2.66-3.35,3.52-5.51Z"/>
        <path class="cls-3" d="M335.92,12.54c-.29-.37-.62-.71-1-1-.29-.37-.62-.71-1-1-.29-.37-.62-.71-1-1-.29-.37-.62-.71-1-1-.29-.37-.62-.71-1-1-.29-.37-.62-.71-1-1-.29-.37-.62-.71-1-1-.29-.37-.62-.71-1-1-.29-.37-.62-.71-1-1-.44-.55-.97-1.04-1.61-1.42-1.11-.66-2.38-1.01-3.68-1.01h-45.15c-1.96,0-3.73.37-5.24,1.1-1.52.73-2.8,1.74-3.81,3-.39.48-.72,1-1.02,1.54-.15-.15-.32-.28-.48-.42-.16-.18-.3-.37-.47-.54-.16-.16-.36-.31-.53-.46-.16-.18-.3-.37-.47-.54-1.26-1.25-2.95-2.21-5.04-2.85-1.81-.56-4.06-.83-6.88-.83h-5.55c-3.58,0-5.18,2.21-5.71,3.17-.64,1.19-.91,2.62-.91,4.96,0,.53-.03,1.76-.19,4.56-.07,1.3-.17,2.74-.27,4.29-.44-.91-.95-1.75-1.55-2.5-.38-.47-.81-.89-1.26-1.28-.31-.36-.64-.69-1-1-.31-.36-.64-.69-1-1-.31-.36-.64-.69-1-1-.31-.36-.64-.69-1-1-.31-.36-.64-.69-1-1-.31-.36-.64-.69-1-1-.31-.36-.64-.69-1-1-.31-.36-.64-.69-1-1-.31-.36-.64-.69-1-1-2.46-2.82-6.35-4.2-11.91-4.2h-5.56c-2.13,0-4.05.95-5.26,2.62-.89,1.23-1.33,2.77-1.45,5.14-.06,1.15-.2,2.89-.39,5.15-.13,1.52-.27,3.18-.42,4.95-.35-.38-.72-.75-1.1-1.11-.32-.34-.66-.68-1-1-.32-.34-.66-.68-1-1-.32-.34-.66-.68-1-1-.32-.34-.66-.68-1-1-.32-.34-.66-.68-1-1-.32-.34-.66-.68-1-1-.32-.34-.66-.68-1-1-.32-.34-.66-.68-1-1-.32-.34-.66-.68-1-1-2.61-2.78-5.84-4.94-9.64-6.44-4.08-1.6-8.94-2.42-14.46-2.42-7.76,0-14.44,1.39-19.84,4.13-5.4,2.74-9.82,6.42-13.13,10.95-.87,1.19-1.68,2.44-2.42,3.73-.25-.26-.5-.51-.77-.75-.32-.34-.65-.68-1-1-.32-.34-.65-.68-1-1-.32-.34-.65-.68-1-1-.32-.34-.65-.68-1-1-.32-.34-.65-.68-1-1-.32-.34-.65-.68-1-1-.32-.34-.65-.68-1-1-.32-.34-.65-.68-1-1-.32-.34-.65-.68-1-1-1.04-1.12-2.22-2.14-3.56-3.04-2.79-1.89-6.36-3.34-10.62-4.32-4.02-.92-8.83-1.39-14.3-1.39-2.15,0-4.7.07-7.56.21-2.78.14-6.19.34-10.11.6-1.45.03-2.71.43-3.75,1.17-.83.59-1.92,1.68-2.44,3.57-.2.74-.32,1.58-.37,2.62-.04.74-.06,1.69-.06,2.89,0,.48-.02,1.07-.05,1.75-.03.75-.12,2.05-.24,3.91-.14,1.91-.34,4.61-.6,8.1-.25,3.21-.58,7.47-.99,12.75-.9-3.63-1.86-7.52-2.89-11.71-.38-1.57-.83-3.13-1.36-4.63-.62-1.78-1.45-3.4-2.46-4.83-.6-.84-1.28-1.59-2.03-2.27-.32-.35-.65-.68-1-1-.32-.35-.65-.68-1-1-.32-.35-.65-.68-1-1-.32-.35-.65-.68-1-1-.32-.35-.65-.68-1-1-.32-.35-.65-.68-1-1-.32-.35-.65-.68-1-1-.32-.35-.65-.68-1-1-.32-.35-.65-.68-1-1-.96-1.06-2.07-1.96-3.33-2.69-1.88-1.08-4.12-1.62-6.68-1.62h-9.59c-1.92,0-3.2.17-4.26.58-2.08.8-3.29,2.58-4,3.83-.85,1.46-1.97,3.81-3.44,7.17-1.41,3.24-2.98,6.99-4.65,11.14-1.7,4.21-3.46,8.7-5.24,13.37-1.81,4.74-3.46,9.32-4.91,13.61-1.47,4.34-2.7,8.28-3.67,11.72-1.09,3.89-1.6,6.63-1.6,8.62,0,2.28.62,4.3,1.85,6,.53.73,1.13,1.39,1.79,1.99.31.35.65.68,1,1,.31.35.65.68,1,1,.31.35.65.68,1,1,.31.35.65.68,1,1,.31.35.65.68,1,1,.31.35.65.68,1,1,.31.35.65.68,1,1,.31.35.65.68,1,1,.31.35.65.68,1,1,.86.97,1.86,1.79,2.99,2.46,1.38.82,2.94,1.41,4.62,1.76,1.47.3,2.93.46,4.34.46h5.35c3.39,0,6.1-1.96,7.09-5.12l.05-.16,2.46-10.27h3.04c.45.57.95,1.09,1.49,1.57.31.35.65.68,1,1,.31.35.65.68,1,1,.31.35.65.68,1,1,.31.35.65.68,1,1,.31.35.65.68,1,1,.31.35.65.68,1,1,.31.35.65.68,1,1,.31.35.65.68,1,1,.31.35.65.68,1,1,1.35,1.51,3.06,2.7,5.11,3.55,2.35.97,5.24,1.44,8.82,1.44h5.15c2.07,0,3.79-.52,5.12-1.54.98-.76,2.11-2.11,2.48-4.36.26.27.52.53.81.79.79.87,1.71,1.66,2.77,2.35,2.07,1.33,4.63,2.29,7.85,2.93,2.9.57,6.42.85,10.76.85,6.65,0,12.32-.68,16.87-2.02,4.74-1.4,8.66-3.36,11.67-5.84,3.17-2.61,5.44-5.74,6.76-9.29.06-.17.12-.34.18-.51.13.13.27.26.41.39.32.34.66.67,1,1,.32.34.66.67,1,1,.32.34.66.67,1,1,.32.34.66.67,1,1,.32.34.66.67,1,1,.32.34.66.67,1,1,.32.34.66.67,1,1,.32.34.66.67,1,1,2.43,2.57,5.42,4.68,8.93,6.3,4.31,1.98,9.69,2.98,15.97,2.98,5.62,0,10.62-.8,14.88-2.38,4.24-1.58,7.96-3.73,11.06-6.4,3.08-2.65,5.64-5.75,7.6-9.2.52-.92,1-1.85,1.47-2.79.52.72,1.07,1.42,1.66,2.08.44.49.91.96,1.39,1.41.32.34.66.68,1,1,.32.34.66.68,1,1,.32.34.66.68,1,1,.32.34.66.68,1,1,.32.34.66.68,1,1,.32.34.66.68,1,1,.32.34.66.68,1,1,.32.34.66.68,1,1,.32.34.66.68,1,1,2.4,2.56,5.44,4.6,9.05,6.05,3.68,1.48,8.08,2.23,13.08,2.23s9.18-.66,12.83-1.95c3.68-1.31,6.89-3.09,9.56-5.31,2.64-2.2,4.84-4.75,6.54-7.58,1.59-2.65,2.88-5.45,3.84-8.32.92-2.77,1.61-5.54,2.06-8.24.42-2.54.74-4.91.95-6.99.28-2.59.52-5.59.73-8.92.2-3.29.37-6.55.51-9.68.04-.91.08-1.77.11-2.62.97.66,2.15,1.04,3.48,1.04h.02c-.09,1.11-.17,2.21-.26,3.32-.27,3.28-.52,6.53-.76,9.74l-.66,8.89c-.21,2.84-.36,5.2-.46,7.24-.11,2.13-.16,3.7-.16,4.79,0,5.24,2.2,8.36,4.04,10.05.05.04.1.08.15.12.29.32.57.62.85.88.05.04.1.08.15.12.29.32.57.62.85.88.05.04.1.08.15.12.29.32.57.62.85.88.05.04.1.08.15.12.29.32.57.62.85.88.05.04.1.08.15.12.29.32.57.62.85.88.05.04.1.08.15.12.29.32.57.62.85.88.05.04.1.08.15.12.29.32.57.62.85.88.05.04.1.08.15.12.29.32.57.62.85.88.05.04.1.08.15.12.29.32.57.62.85.88.05.04.1.08.15.12.29.32.57.62.85.88,2.6,2.38,6.34,3.54,11.46,3.54h5.55c2.74,0,5.81-1.93,6.1-6.17l3.52-51.4h6.24c4.7,0,7.95-1.24,9.95-3.79,1.6-2.04,2.51-4.62,2.72-7.64l.42-6.13v-.17c0-2.05-.84-3.82-2.33-4.98ZM165.84,55.4c0-1.22.06-2.64.19-4.21.11-1.48.35-3.05.71-4.67.34-1.57.82-3.11,1.42-4.6.51-1.26,1.19-2.41,2.03-3.42.69-.82,1.52-1.47,2.52-1.99,0,.04,0,.07,0,.1,0,1.86-.19,4.2-.56,6.96-.35,2.58-1.01,5.11-1.96,7.51-.86,2.16-2.04,4.01-3.52,5.51-.21.22-.47.44-.79.65-.02-.58-.04-1.19-.04-1.84Z"/>
      </g>
      <g>
        <path class="cls-1" d="M97.72,47.52c-.74,0-1.65.05-2.73.15-1.08.1-2.19.25-3.33.45l-1.11,16.46c2.42.74,4.61,1.11,6.57,1.11,2.09,0,3.77-.3,5.05-.91,1.28-.61,2.27-1.36,2.98-2.27s1.18-1.92,1.41-3.03c.24-1.11.35-2.14.35-3.08,0-2.49-.69-4.6-2.07-6.31-1.38-1.72-3.75-2.58-7.12-2.58Z"/>
        <path class="cls-1" d="M98.73,19.24c-.74,0-1.57.05-2.47.15-.91.1-1.84.22-2.78.35-.14,1.75-.25,3.8-.35,6.16-.1,2.36-.25,4.92-.46,7.68,2.15.54,4.07.81,5.76.81,2.02,0,3.64-.24,4.85-.71,1.21-.47,2.17-1.08,2.88-1.82.71-.74,1.18-1.55,1.41-2.42.24-.87.35-1.72.35-2.53,0-2.09-.69-3.89-2.07-5.4-1.38-1.51-3.75-2.27-7.12-2.27Z"/>
        <path class="cls-1" d="M166.8,20.66c-2.36,0-4.39.42-6.11,1.26-1.72.84-3.17,1.97-4.34,3.38-1.18,1.41-2.12,3-2.83,4.75-.71,1.75-1.26,3.55-1.67,5.4-.4,1.85-.67,3.64-.81,5.35-.14,1.72-.2,3.25-.2,4.6,0,6.13,1.03,10.6,3.08,13.43,2.05,2.83,4.96,4.24,8.74,4.24,3.1,0,5.62-.99,7.58-2.98,1.95-1.99,3.48-4.38,4.6-7.17,1.11-2.79,1.87-5.69,2.27-8.69s.61-5.54.61-7.63c0-4.91-.84-8.8-2.53-11.67-1.68-2.86-4.48-4.29-8.38-4.29Z"/>
        <polygon class="cls-1" points="29.24 47.62 40.85 47.62 36.61 20.96 29.24 47.62"/>
        <path class="cls-2" d="M62.17,61.41c-1.01-4.34-2.39-10.05-4.14-17.12-1.75-7.07-3.97-16.06-6.67-26.97-.34-1.41-.74-2.79-1.21-4.14-.47-1.35-1.08-2.54-1.82-3.59-.74-1.04-1.67-1.88-2.78-2.53-1.11-.64-2.51-.96-4.19-.96h-9.59c-1.21,0-2.04.08-2.47.25-.44.17-.93.72-1.46,1.67-.74,1.28-1.8,3.5-3.18,6.67-1.38,3.17-2.91,6.83-4.6,11.01-1.68,4.18-3.42,8.6-5.2,13.28-1.78,4.68-3.4,9.16-4.85,13.43-1.45,4.28-2.64,8.1-3.59,11.46-.94,3.37-1.41,5.79-1.41,7.27,0,1.21.3,2.24.91,3.08.61.84,1.36,1.53,2.27,2.07.91.54,1.94.93,3.08,1.16,1.14.24,2.25.35,3.33.35h5.35c1.21,0,1.99-.54,2.32-1.62l3.33-13.94h17.57c.27,2.42.61,4.59,1.01,6.51.4,1.92,1.06,3.55,1.97,4.9.91,1.35,2.22,2.37,3.94,3.08,1.72.71,4.02,1.06,6.92,1.06h5.15c.94,0,1.63-.17,2.07-.5.44-.34.66-.98.66-1.92,0-.81-.2-2.25-.61-4.34-.4-2.09-1.11-5.3-2.12-9.65ZM29.24,47.62l7.37-26.66,4.24,26.66h-11.62Z"/>
        <path class="cls-2" d="M121.86,33.58c.81-1.55,1.38-3.18,1.72-4.9.34-1.72.5-3.38.5-5,0-2.89-.54-5.49-1.62-7.78-1.08-2.29-2.76-4.21-5.05-5.76-2.29-1.55-5.27-2.74-8.94-3.59-3.67-.84-8.06-1.26-13.18-1.26-2.09,0-4.53.07-7.32.2-2.79.14-6.18.34-10.15.61-.47,0-.83.08-1.06.25-.24.17-.4.44-.5.81-.1.37-.17.89-.2,1.57-.04.67-.05,1.55-.05,2.63,0,.54-.02,1.2-.05,1.97-.03.77-.12,2.12-.25,4.04-.14,1.92-.34,4.63-.61,8.13-.27,3.5-.64,8.25-1.11,14.24-.4,4.85-.72,8.87-.96,12.07-.24,3.2-.42,5.81-.56,7.83-.14,2.02-.24,3.58-.3,4.7-.07,1.11-.1,1.97-.1,2.58,0,2.02.29,3.77.86,5.25.57,1.48,1.62,2.71,3.13,3.69,1.51.98,3.55,1.72,6.11,2.22,2.56.5,5.82.76,9.8.76,6.19,0,11.35-.61,15.45-1.82,4.11-1.21,7.41-2.84,9.9-4.9,2.49-2.05,4.24-4.44,5.25-7.17,1.01-2.73,1.51-5.64,1.51-8.74,0-3.84-.81-7.15-2.42-9.95-1.62-2.79-4.38-4.8-8.28-6.01,2.09-.54,3.82-1.4,5.2-2.58,1.38-1.18,2.47-2.54,3.28-4.09ZM106.55,59.49c-.24,1.11-.71,2.12-1.41,3.03s-1.7,1.67-2.98,2.27c-1.28.61-2.96.91-5.05.91-1.95,0-4.14-.37-6.57-1.11l1.11-16.46c1.14-.2,2.25-.35,3.33-.45,1.08-.1,1.99-.15,2.73-.15,3.37,0,5.74.86,7.12,2.58,1.38,1.72,2.07,3.82,2.07,6.31,0,.94-.12,1.97-.35,3.08ZM107.56,29.44c-.24.88-.71,1.68-1.41,2.42-.71.74-1.67,1.35-2.88,1.82-1.21.47-2.83.71-4.85.71-1.68,0-3.6-.27-5.76-.81.2-2.76.35-5.32.46-7.68.1-2.36.22-4.41.35-6.16.94-.13,1.87-.25,2.78-.35.91-.1,1.73-.15,2.47-.15,3.37,0,5.74.76,7.12,2.27,1.38,1.51,2.07,3.32,2.07,5.4,0,.81-.12,1.65-.35,2.53Z"/>
        <path class="cls-2" d="M190.13,13.13c-2.22-2.66-5.08-4.68-8.58-6.06-3.5-1.38-7.71-2.07-12.62-2.07-7,0-12.86,1.2-17.57,3.59-4.71,2.39-8.5,5.54-11.36,9.44-2.86,3.91-4.9,8.37-6.11,13.38-1.21,5.02-1.82,10.15-1.82,15.4,0,4.44.45,8.62,1.36,12.52.91,3.91,2.46,7.29,4.65,10.15,2.19,2.86,5.12,5.13,8.79,6.82,3.67,1.68,8.3,2.52,13.89,2.52,5.05,0,9.43-.69,13.13-2.07s6.88-3.21,9.54-5.5c2.66-2.29,4.83-4.91,6.51-7.88,1.68-2.96,3.01-6.04,3.99-9.24.98-3.2,1.65-6.38,2.02-9.54.37-3.17.55-6.09.55-8.79,0-4.85-.5-9.17-1.51-12.98-1.01-3.8-2.63-7.04-4.85-9.7ZM177.1,44.24c-.4,3-1.16,5.89-2.27,8.69-1.11,2.79-2.64,5.19-4.6,7.17-1.95,1.99-4.48,2.98-7.58,2.98-3.77,0-6.68-1.41-8.74-4.24-2.05-2.83-3.08-7.3-3.08-13.43,0-1.35.07-2.88.2-4.6.13-1.72.4-3.5.81-5.35.4-1.85.96-3.65,1.67-5.4.71-1.75,1.65-3.33,2.83-4.75,1.18-1.41,2.63-2.54,4.34-3.38,1.72-.84,3.75-1.26,6.11-1.26,3.9,0,6.7,1.43,8.38,4.29,1.68,2.86,2.53,6.75,2.53,11.67,0,2.09-.2,4.63-.61,7.63Z"/>
        <path class="cls-2" d="M260.93,8.33c-.67-.67-1.67-1.21-2.98-1.62-1.31-.4-3.12-.61-5.4-.61h-5.55c-.67,0-1.11.19-1.31.56-.2.37-.3,1.23-.3,2.58,0,.88-.07,2.49-.2,4.85-.14,2.36-.32,5.12-.55,8.28-.24,3.17-.51,6.57-.81,10.2s-.59,7.17-.86,10.61c-.14,1.41-.35,3.23-.66,5.45-.3,2.22-.84,4.41-1.62,6.57-.77,2.16-1.89,4.01-3.33,5.55-1.45,1.55-3.32,2.32-5.61,2.32-1.82,0-3.22-.45-4.19-1.36-.98-.91-1.68-2.04-2.12-3.38-.44-1.35-.71-2.76-.81-4.24-.1-1.48-.15-2.79-.15-3.94,0-.61.05-1.82.15-3.64.1-1.82.23-3.94.4-6.36.17-2.42.34-4.98.5-7.68.17-2.69.34-5.18.51-7.47.17-2.29.3-4.22.4-5.81.1-1.58.15-2.47.15-2.68,0-3.43-.71-6.03-2.12-7.78-1.41-1.75-4.17-2.63-8.28-2.63h-5.56c-.54,0-.94.19-1.21.56-.27.37-.44,1.2-.5,2.47-.07,1.21-.2,2.98-.4,5.3-.2,2.32-.42,4.93-.66,7.83-.24,2.9-.49,5.94-.76,9.14-.27,3.2-.52,6.28-.76,9.24-.24,2.96-.42,5.71-.56,8.23-.14,2.53-.2,4.53-.2,6.01,0,3.3.44,6.4,1.31,9.29.87,2.9,2.29,5.44,4.24,7.62,1.95,2.19,4.48,3.91,7.58,5.15,3.1,1.25,6.83,1.87,11.21,1.87s8.03-.56,11.16-1.67c3.13-1.11,5.81-2.59,8.03-4.44,2.22-1.85,4.04-3.96,5.45-6.31,1.41-2.36,2.54-4.8,3.38-7.32.84-2.53,1.46-5.02,1.87-7.47.4-2.46.71-4.7.91-6.72.27-2.49.5-5.39.71-8.69.2-3.3.37-6.5.5-9.59.13-3.1.25-5.86.35-8.28.1-2.42.15-4.07.15-4.95,0-.94-.08-1.85-.25-2.73-.17-.87-.59-1.65-1.26-2.32Z"/>
        <path class="cls-2" d="M322.74,6.41c-.34-.2-.71-.3-1.11-.3h-45.15c-1.21,0-2.24.2-3.08.61-.84.4-1.53.94-2.07,1.62-.54.67-.93,1.43-1.16,2.27-.24.84-.39,1.7-.45,2.58l-.3,5.66c0,.94.37,1.41,1.11,1.41h16.16c-.2,2.76-.42,5.76-.66,8.99-.24,3.23-.49,6.48-.76,9.75-.27,3.27-.52,6.5-.76,9.7-.24,3.2-.46,6.16-.66,8.89-.2,2.73-.35,5.1-.45,7.12-.1,2.02-.15,3.54-.15,4.54,0,2.76.81,4.88,2.42,6.36,1.62,1.48,4.31,2.22,8.08,2.22h5.55c.67,0,1.04-.5,1.11-1.51l3.84-56.06h10.91c3.03,0,5.03-.62,6.01-1.87.97-1.25,1.53-2.88,1.67-4.9l.4-5.96c0-.54-.17-.91-.5-1.11Z"/>
      </g>
    </g>
  </g>
</svg>