<?xml version="1.0" encoding="UTF-8"?>
<svg id="Layer_2" data-name="Layer 2" xmlns="http://www.w3.org/2000/svg" viewBox="0 0 1892.54 39.5">
  <defs>
    <style>
      .cls-1 {
        fill: #e45039;
      }

      .cls-2 {
        fill: #b71f43;
      }

      .cls-3 {
        fill: #f3b738;
      }

      .cls-4 {
        fill: #212b5f;
      }
    </style>
  </defs>
  <g id="Layer_6" data-name="Layer 6">
    <path class="cls-4" d="M1892.54,34.51h0c0-2.77-2.24-5.01-5-5.01H5c-2.76,0-5,2.24-5,5h0c0,2.77,2.24,5,5,5h1882.54c2.76,0,5-2.23,5-4.99Z"/>
    <path class="cls-2" d="M1847.44,25.01h0c0-2.77-2.24-5.01-5-5.01H50.1c-2.77,0-5,2.24-5,5h0c0,2.77,2.23,5,5,5h1792.34c2.76,0,5-2.23,5-4.99Z"/>
    <path class="cls-1" d="M1802.85,15.01h0c0-2.77-2.24-5.01-5-5.01H94.69c-2.76,0-5,2.24-5,5h0c0,2.77,2.24,5,5,5h1703.16c2.76,0,5-2.23,5-4.99Z"/>
    <path class="cls-3" d="M1755,5.01h0c0-2.77-2.24-5.01-5-5.01H142.54c-2.76,0-5,2.24-5,5h0c0,2.77,2.24,5,5,5h1607.46c2.76,0,5-2.23,5-4.99Z"/>
  </g>
</svg>