<?xml version="1.0" encoding="UTF-8"?>
<svg id="Layer_1" data-name="Layer 1" xmlns="http://www.w3.org/2000/svg" viewBox="0 0 300 300">
  <defs>
    <style>
      .cls-1, .cls-2 {
        fill: none;
      }

      .cls-3 {
        fill: #f2f2f2;
      }

      .cls-4 {
        fill: #f4b734;
      }

      .cls-5 {
        fill: #e75039;
      }

      .cls-2 {
        stroke: #212b5f;
        stroke-miterlimit: 10;
        stroke-width: 5px;
      }

      .cls-6 {
        fill: #b71f43;
      }

      .cls-7 {
        fill: #231f20;
        font-family: PoetsenOne-Regular, PoetsenOne;
        font-size: 145.07px;
      }

      .cls-8 {
        fill: #212b5f;
      }

      .cls-9 {
        fill: #fffbe8;
      }

      .cls-10 {
        fill: #232b5f;
      }
    </style>
  </defs>
  <path class="cls-8" d="M159.56,264.11c-62.92,0-114.11-51.19-114.11-114.11s51.19-114.11,114.11-114.11,114.11,51.19,114.11,114.11-51.19,114.11-114.11,114.11Z"/>
  <circle class="cls-9" cx="159.56" cy="150" r="105.47"/>
  <circle class="cls-2" cx="157.19" cy="147.95" r="91.69"/>
  <g>
    <text class="cls-7" transform="translate(26.34 190.23)"><tspan x="0" y="0">CM</tspan></text>
    <g>
      <path class="cls-1" d="M95.89,149.92c-.11-.11-.21-.23-.31-.34-.35-.31-.69-.65-1-1-.35-.31-.69-.65-1-1-.35-.31-.69-.65-1-1-.27-.24-.53-.48-.77-.74-.68,2-1.23,4.05-1.64,6.11-.16.81-.29,1.61-.41,2.4,1.33-1.01,2.55-1.93,3.65-2.78.8-.62,1.63-1.17,2.48-1.64Z"/>
      <path class="cls-9" d="M269.62,112.9c-.78-3.39-2.31-6.35-4.56-8.81-.32-.34-.65-.67-.99-.99,0,0,0,0,0,0-.32-.34-.65-.67-.99-.99,0,0,0,0,0,0-.32-.34-.65-.67-.99-.99,0,0,0,0,0,0-.32-.34-.65-.67-.99-.99,0,0,0,0,0,0-.32-.34-.65-.67-.99-.99,0,0,0,0,0,0-.32-.34-.65-.67-.99-.99,0,0,0,0,0,0-.32-.34-.65-.67-.99-.99,0,0,0,0,0,0-.32-.34-.65-.67-.99-.99,0,0,0,0,0,0-.32-.34-.65-.67-.99-.99,0,0,0,0,0,0-.32-.34-.65-.67-.99-.99,0,0,0,0,0,0-.32-.34-.65-.67-.99-.99,0,0,0,0,0,0-.32-.34-.65-.67-.99-.99,0,0,0,0,0,0-.32-.34-.65-.67-.99-.99,0,0,0,0,0,0-.32-.34-.65-.67-.99-.99,0,0,0,0,0,0-.32-.34-.65-.67-.99-.99,0,0,0,0,0,0-.32-.34-.65-.67-.99-.99,0,0,0,0,0,0-.32-.34-.65-.67-.99-.99,0,0,0,0,0,0-.32-.34-.65-.67-.99-.99,0,0,0,0,0,0-.32-.34-.65-.67-.99-.99,0,0,0,0,0,0-.32-.34-.65-.67-.99-.99,0,0,0,0,0,0-2.22-2.42-5.12-4.23-8.63-5.41-2.94-.98-6.42-1.46-10.63-1.46h-22.63c-5.21,0-8.32,2.21-10,4.06-1.43,1.57-2.48,3.34-3.12,5.26l-.11.32s-1.97,7.62-3.23,12.51c-.06-.06-.12-.12-.18-.18-.32-.35-.66-.68-1-1-.32-.35-.66-.68-1-1-.32-.35-.66-.68-1-1-.32-.35-.66-.68-1-1-.32-.35-.66-.68-1-1-.32-.35-.66-.68-1-1-.32-.35-.66-.68-1-1-.32-.35-.66-.68-1-1-.32-.35-.66-.68-1-1-.32-.35-.66-.68-1-1-.32-.35-.66-.68-1-1-.32-.35-.66-.68-1-1-.32-.35-.66-.68-1-1-.32-.35-.66-.68-1-1-1.97-2.11-4.25-3.82-6.82-5.11-3.81-1.9-8.44-2.87-13.75-2.87h-20.31c-2.27,0-4.5.63-6.65,1.88-3.64,2.13-5.82,5.98-5.82,10.3,0,1.02,0,1.92-.02,2.72-.06-.06-.13-.11-.19-.17-.33-.34-.66-.67-1-1-.33-.34-.66-.67-1-1-.33-.34-.66-.67-1-1-.33-.34-.66-.67-1-1-.72-.74-1.46-1.46-2.26-2.15-3.76-3.23-8.43-5.76-13.9-7.52-5.18-1.67-11.21-2.51-17.93-2.51-8.41,0-15.88,1.29-22.23,3.84-6.32,2.54-11.8,5.98-16.27,10.21-4.36,4.12-7.97,8.88-10.75,14.13-2.59,4.91-4.64,9.98-6.07,15.08-1.41,4.97-2.37,9.91-2.86,14.68-.47,4.53-.71,8.61-.71,12.13,0,10.17,1.47,18.91,4.37,25.98,2.75,6.71,6.4,12.28,10.86,16.62.33.34.66.67,1,1,.33.34.66.67,1,1,.33.34.66.67,1,1,.33.34.66.67,1,1,.33.34.66.67,1,1,.33.34.66.67,1,1,.33.34.66.67,1,1,.33.34.66.67,1,1,.33.34.66.67,1,1,.33.34.66.67,1,1,.33.34.66.67,1,1,.33.34.66.67,1,1,.33.34.66.67,1,1,.33.34.66.67,1,1,.33.34.66.67,1,1,.33.34.66.67,1,1,.33.34.66.67,1,1,.33.34.66.67,1,1,.33.34.66.67,1,1,.69.73,1.4,1.43,2.14,2.09,4.97,4.47,10.71,7.69,17.07,9.56,5.82,1.71,11.75,2.58,17.62,2.58s11.2-.69,15.92-2.07c4.74-1.38,8.88-3.2,12.29-5.42,3.54-2.29,6.45-4.89,8.63-7.71.32-.41.62-.83.91-1.24.03.02.06.04.08.07.28.31.57.6.84.87.05.05.11.09.16.13.28.31.57.6.84.87.05.05.11.09.16.13.28.31.57.6.84.87.05.05.11.09.16.13.28.31.57.6.84.87.05.05.11.09.16.13.28.31.57.6.84.87.05.05.11.09.16.13.28.31.57.6.84.87.05.05.11.09.16.13.28.31.57.6.84.87.05.05.11.09.16.13.28.31.57.6.84.87.05.05.11.09.16.13.28.31.57.6.84.87,4.24,4.07,10.33,6.04,18.6,6.04h7.98c4.83,0,9.04-2.74,10.98-7.16.33-.76.59-1.59.8-2.52,0,0,.02.01.02.02.32.35.65.68,1,1,.32.35.65.68,1,1,.46.5.95.98,1.46,1.43,1.98,1.73,4.29,3.11,6.88,4.11,2.3.89,4.78,1.49,7.35,1.77,2.08.23,4.17.35,6.19.35,3.86,0,6.75-.39,9.12-1.25,4.61-1.66,6.86-4.58,7.94-6.74l.2-.4.16-.42c.34-.86.69-1.77,1.05-2.7.15.15.28.31.43.46.09.09.19.16.29.24.24.25.46.51.71.76.09.09.19.16.29.24.24.25.46.51.71.76.09.09.19.16.29.24.24.25.46.51.71.76.09.09.19.16.29.24.24.25.46.51.71.76.09.09.19.16.29.24.24.25.46.51.71.76,4.24,4.07,10.33,6.04,18.6,6.04h7.98c4.89,0,7.78-2.18,9.33-3.99,1.57-1.83,2.55-4.14,2.9-6.85.07-.51.21-1.6.64-7.57.29-3.96.65-8.78,1.08-14.48.44-5.74.88-12.02,1.31-18.68.43-6.66.87-13.1,1.3-19.32.44-6.27.78-12,1.03-17.04.25-5.23.38-8.92.38-11.29,0-2.95-.28-5.67-.83-8.11ZM90.17,151.95c.4-2.06.96-4.11,1.64-6.11.24.26.5.5.77.74.31.35.65.69,1,1,.31.35.65.69,1,1,.31.35.65.69,1,1,.1.12.21.23.31.34-.85.47-1.68,1.02-2.48,1.64-1.1.85-2.31,1.78-3.65,2.78.12-.79.25-1.59.41-2.4Z"/>
    </g>
    <g>
      <path class="cls-1" d="M97.14,144.05c-.32-.26-.67-.59-1-1-.32-.26-.67-.59-1-1-.32-.26-.67-.59-1-1-.32-.26-.67-.59-1-1-.32-.26-.67-.59-1-1-.32-.26-.67-.59-1-1-.19-.15-.39-.34-.59-.54-.11.14-.23.27-.34.42-1.21,1.68-2.21,3.62-2.97,5.77-.84,2.37-1.5,4.82-1.99,7.28-.49,2.47-.8,4.88-.93,7.16-.11,1.86-.17,3.53-.2,5,.44-.14.87-.28,1.26-.45,2.36-1,4.37-2.11,5.98-3.31,1.91-1.43,3.61-2.72,5.09-3.87,2.39-1.85,4.95-2.79,7.63-2.79.64,0,1.3.08,1.96.24-.3-.25-.61-.54-.91-.92-.32-.26-.67-.59-1-1-.32-.26-.67-.59-1-1-.32-.26-.67-.59-1-1-.32-.26-.67-.59-1-1-.32-.26-.67-.59-1-1-.32-.26-.67-.59-1-1-.32-.26-.67-.59-1-1-.32-.26-.67-.59-1-1Z"/>
      <path class="cls-1" d="M113.36,154.73c-1.93,0-3.36-.13-4.51-.41.41.32.79.69,1.14,1.12.35.29.69.62,1,1,.35.29.69.62,1,1,.35.29.69.62,1,1,.35.29.69.62,1,1,.35.29.69.62,1,1,.35.29.69.62,1,1,.35.29.69.62,1,1,.35.29.69.62,1,1,.32.27.63.56.91.9.07-.99.15-2.01.23-3.08.17-2.2.35-4.54.53-6.99-1.97.29-4.07.46-6.3.46Z"/>
      <path class="cls-4" d="M264.75,114.02c-.58-2.54-1.71-4.74-3.37-6.54-.25-.27-.54-.52-.82-.77-.06-.07-.12-.16-.18-.23-.25-.27-.54-.52-.82-.77-.06-.07-.12-.16-.18-.23-.25-.27-.54-.52-.82-.77-.06-.07-.12-.16-.18-.23-.25-.27-.54-.52-.82-.77-.06-.07-.12-.16-.18-.23-.25-.27-.54-.52-.82-.77-.06-.07-.12-.16-.18-.23-.25-.27-.54-.52-.82-.77-.06-.07-.12-.16-.18-.23-.25-.27-.54-.52-.82-.77-.06-.07-.12-.16-.18-.23-.25-.27-.54-.52-.82-.77-.06-.07-.12-.16-.18-.23-.25-.27-.54-.52-.82-.77-.06-.07-.12-.16-.18-.23-.25-.27-.54-.52-.82-.77-.06-.07-.12-.16-.18-.23-.25-.27-.54-.52-.82-.77-.06-.07-.12-.16-.18-.23-.25-.27-.54-.52-.82-.77-.06-.07-.12-.16-.18-.23-.25-.27-.54-.52-.82-.77-.06-.07-.12-.16-.18-.23-.25-.27-.54-.52-.82-.77-.06-.07-.12-.16-.18-.23-.25-.27-.54-.52-.82-.77-.06-.07-.12-.16-.18-.23-.25-.27-.54-.52-.82-.77-.06-.07-.12-.16-.18-.23-.25-.27-.54-.52-.82-.77-.06-.07-.12-.16-.18-.23-.25-.27-.54-.52-.82-.77-.06-.07-.12-.16-.18-.23-.25-.27-.54-.52-.82-.77-.06-.07-.12-.16-.18-.23-.25-.27-.54-.52-.82-.77-.06-.07-.12-.16-.18-.23-1.64-1.78-3.83-3.15-6.53-4.05-2.42-.81-5.38-1.2-9.05-1.2h-22.63c-2.72,0-4.84.82-6.31,2.43-.96,1.05-1.65,2.22-2.07,3.46l-.05.16s-2.87,11.11-3.89,15.03l-1.51,5.84c-.46-.53-.94-1.04-1.44-1.51-.32-.35-.66-.68-1-1-.32-.35-.66-.68-1-1-.32-.35-.66-.68-1-1-.32-.35-.66-.68-1-1-.32-.35-.66-.68-1-1-.32-.35-.66-.68-1-1-.32-.35-.66-.68-1-1-.32-.35-.66-.68-1-1-.32-.35-.66-.68-1-1-.32-.35-.66-.68-1-1-.32-.35-.66-.68-1-1-.32-.35-.66-.68-1-1-.32-.35-.66-.68-1-1-.32-.35-.66-.68-1-1-.32-.35-.66-.68-1-1-.32-.35-.66-.68-1-1-.32-.35-.66-.68-1-1-.32-.35-.66-.68-1-1-.32-.35-.66-.68-1-1-1.57-1.69-3.38-3.05-5.42-4.07-3.11-1.55-6.99-2.34-11.52-2.34h-20.31c-1.38,0-2.76.4-4.12,1.19-2.12,1.24-3.34,3.42-3.34,5.98,0,1.74-.02,3.22-.07,4.36-.05,1.22-.1,2.51-.15,3.87-.05,1.3-.14,2.79-.28,4.41-.04.48-.08,1.01-.13,1.57-.02-.02-.05-.04-.07-.06-.32-.34-.66-.67-1-1-.32-.34-.66-.67-1-1-.32-.34-.66-.67-1-1-.32-.34-.66-.67-1-1-.32-.34-.66-.67-1-1-.32-.34-.66-.67-1-1-.32-.34-.66-.67-1-1-.32-.34-.66-.67-1-1-.32-.34-.66-.67-1-1-.32-.34-.66-.67-1-1-.32-.34-.66-.67-1-1-.32-.34-.66-.67-1-1-.64-.67-1.32-1.33-2.05-1.95-3.25-2.79-7.35-5-12.17-6.55-4.69-1.51-10.2-2.27-16.4-2.27-7.76,0-14.61,1.17-20.36,3.48-5.74,2.31-10.68,5.4-14.7,9.2-3.96,3.75-7.25,8.06-9.76,12.83-2.43,4.6-4.34,9.34-5.68,14.1-1.33,4.7-2.24,9.35-2.7,13.83-.45,4.36-.68,8.26-.68,11.61,0,9.51,1.35,17.62,4,24.09,2.5,6.11,5.8,11.14,9.79,15.01.33.34.66.67,1,1,.33.34.66.67,1,1,.33.34.66.67,1,1,.33.34.66.67,1,1,.33.34.66.67,1,1,.33.34.66.67,1,1,.33.34.66.67,1,1,.33.34.66.67,1,1,.33.34.66.67,1,1,.33.34.66.67,1,1,.33.34.66.67,1,1,.33.34.66.67,1,1,.33.34.66.67,1,1,.33.34.66.67,1,1,.33.34.66.67,1,1,.33.34.66.67,1,1,.33.34.66.67,1,1,.33.34.66.67,1,1,.33.34.66.67,1,1,.62.65,1.26,1.29,1.92,1.88,4.41,3.97,9.5,6.82,15.14,8.48,5.37,1.58,10.82,2.38,16.21,2.38s10.26-.63,14.52-1.87c4.27-1.24,7.96-2.86,10.97-4.81,3.07-1.99,5.56-4.2,7.4-6.57,1.78-2.3,2.95-4.48,3.56-6.59,0,0,0,0,0,0,.22.25.44.5.68.73.1.1.21.17.32.27.22.25.44.5.68.73.1.1.21.17.32.27.22.25.44.5.68.73.1.1.21.17.32.27.22.25.44.5.68.73.1.1.21.17.32.27.22.25.44.5.68.73.1.1.21.17.32.27.22.25.44.5.68.73.1.1.21.17.32.27.22.25.44.5.68.73.1.1.21.17.32.27.22.25.44.5.68.73.1.1.21.17.32.27.22.25.44.5.68.73.1.1.21.17.32.27.22.25.44.5.68.73.1.1.21.17.32.27.22.25.44.5.68.73.1.1.21.17.32.27.22.25.44.5.68.73.1.1.21.17.32.27.22.25.44.5.68.73.1.1.21.17.32.27.22.25.44.5.68.73,3.27,3.13,8.22,4.65,15.14,4.65h7.98c2.86,0,5.25-1.55,6.4-4.16.56-1.27.92-3.04.92-7.51,0-1.31.01-2.81.04-4.5.29.32.6.61.91.9.31.35.65.68,1,1,.31.35.65.68,1,1,.31.35.65.68,1,1,.31.35.65.68,1,1,.31.35.65.68,1,1,.31.35.65.68,1,1,.31.35.65.68,1,1,.31.35.65.68,1,1,.31.35.65.68,1,1,.4.45.82.88,1.28,1.27,1.54,1.34,3.36,2.42,5.4,3.21,1.9.73,3.96,1.23,6.11,1.47,1.9.21,3.79.32,5.63.32,3.26,0,5.62-.3,7.43-.95,2.45-.88,4.19-2.32,5.17-4.28l.1-.2.08-.21c1.13-2.87,2.39-6.22,3.72-9.91.05.04.1.08.15.12.24.26.46.52.72.76.09.08.19.15.28.24.24.26.46.52.72.76.09.08.19.15.28.24.24.26.46.52.72.76.09.08.19.15.28.24.24.26.46.52.72.76.09.08.19.15.28.24.24.26.46.52.72.76.09.08.19.15.28.24.24.26.46.52.72.76.09.08.19.15.28.24.24.26.46.52.72.76.09.08.19.15.28.24.24.26.46.52.72.76.09.08.19.15.28.24.24.26.46.52.72.76.09.08.19.15.28.24.24.26.46.52.72.76.09.08.19.15.28.24.24.26.46.52.72.76,3.27,3.13,8.22,4.65,15.14,4.65h7.98c2.4,0,4.26-.76,5.53-2.25.95-1.11,1.53-2.52,1.74-4.22.05-.33.17-1.22.62-7.3.29-3.96.65-8.79,1.09-14.49.44-5.72.88-11.98,1.31-18.62.43-6.67.87-13.11,1.3-19.34.43-6.23.78-11.93,1.02-16.93.25-5.15.37-8.76.37-11.05,0-2.58-.24-4.93-.71-6.99ZM99.14,146.05c.33.41.68.74,1,1,.33.41.68.74,1,1,.33.41.68.74,1,1,.33.41.68.74,1,1,.33.41.68.74,1,1,.33.41.68.74,1,1,.3.38.61.68.91.92-.65-.16-1.32-.24-1.96-.24-2.67,0-5.24.94-7.63,2.79-1.48,1.15-3.18,2.44-5.09,3.87-1.6,1.2-3.61,2.31-5.98,3.31-.4.17-.82.31-1.26.45.02-1.47.09-3.14.2-5,.13-2.28.44-4.69.93-7.16.48-2.46,1.15-4.91,1.99-7.28.75-2.15,1.75-4.09,2.97-5.77.11-.15.23-.28.34-.42.2.21.4.39.59.54.33.41.68.74,1,1,.33.41.68.74,1,1,.33.41.68.74,1,1,.33.41.68.74,1,1,.33.41.68.74,1,1,.33.41.68.74,1,1,.33.41.68.74,1,1,.33.41.68.74,1,1ZM119.12,161.26c-.08,1.07-.16,2.09-.23,3.08-.28-.34-.59-.63-.91-.9-.31-.38-.65-.71-1-1-.31-.38-.65-.71-1-1-.31-.38-.65-.71-1-1-.31-.38-.65-.71-1-1-.31-.38-.65-.71-1-1-.31-.38-.65-.71-1-1-.31-.38-.65-.71-1-1-.31-.38-.65-.71-1-1-.35-.43-.73-.8-1.14-1.12,1.15.28,2.58.41,4.51.41,2.23,0,4.33-.17,6.3-.46-.19,2.45-.36,4.79-.53,6.99Z"/>
    </g>
    <g>
      <path class="cls-1" d="M118.9,164.35c.07-.99.15-2.01.23-3.08.29-3.77.6-7.9.94-12.4.02-.3.05-.61.07-.91-3.4,1.16-7.33,1.77-11.78,1.77-3.35,0-5.23-.36-6.69-1.3-.44-.28-1-.73-1.53-1.38-.32-.26-.67-.59-1-1-.32-.26-.67-.59-1-1-.32-.26-.67-.59-1-1-.32-.26-.67-.59-1-1-.32-.26-.67-.59-1-1-.32-.26-.67-.59-1-1-.32-.26-.67-.59-1-1-.32-.26-.67-.59-1-1-.32-.26-.67-.59-1-1-.32-.26-.67-.59-1-1-.32-.26-.67-.59-1-1-.32-.26-.67-.59-1-1-.32-.26-.67-.59-1-1-.32-.26-.67-.59-1-1-.19-.15-.39-.34-.59-.54-.11.14-.23.27-.34.42-1.21,1.68-2.21,3.62-2.97,5.77-.84,2.37-1.5,4.82-1.99,7.28-.49,2.47-.8,4.88-.93,7.16-.14,2.41-.21,4.51-.21,6.24s.06,3.21.16,4.59c2.39-.15,4.44-.58,6.11-1.28,2.36-1,4.37-2.11,5.98-3.31,1.91-1.43,3.61-2.72,5.09-3.87,2.39-1.85,4.95-2.79,7.63-2.79,2.06,0,4.32.79,5.89,2.72.35.29.69.62,1,1,.35.29.69.62,1,1,.35.29.69.62,1,1,.35.29.69.62,1,1,.35.29.69.62,1,1,.35.29.69.62,1,1,.35.29.69.62,1,1,.35.29.69.62,1,1,.32.27.63.56.91.9Z"/>
      <path class="cls-5" d="M259.75,109.02c-.58-2.54-1.71-4.74-3.37-6.54-.25-.27-.54-.52-.82-.77-.06-.07-.12-.16-.18-.23-.25-.27-.54-.52-.82-.77-.06-.07-.12-.16-.18-.23-.25-.27-.54-.52-.82-.77-.06-.07-.12-.16-.18-.23-.25-.27-.54-.52-.82-.77-.06-.07-.12-.16-.18-.23-.25-.27-.54-.52-.82-.77-.06-.07-.12-.16-.18-.23-.25-.27-.54-.52-.82-.77-.06-.07-.12-.16-.18-.23-.25-.27-.54-.52-.82-.77-.06-.07-.12-.16-.18-.23-.25-.27-.54-.52-.82-.77-.06-.07-.12-.16-.18-.23-.25-.27-.54-.52-.82-.77-.06-.07-.12-.16-.18-.23-.25-.27-.54-.52-.82-.77-.06-.07-.12-.16-.18-.23-.25-.27-.54-.52-.82-.77-.06-.07-.12-.16-.18-.23-.25-.27-.54-.52-.82-.77-.06-.07-.12-.16-.18-.23-.25-.27-.54-.52-.82-.77-.06-.07-.12-.16-.18-.23-.25-.27-.54-.52-.82-.77-.06-.07-.12-.16-.18-.23-.25-.27-.54-.52-.82-.77-.06-.07-.12-.16-.18-.23-1.64-1.78-3.83-3.15-6.53-4.05-2.42-.81-5.38-1.2-9.05-1.2h-22.63c-2.72,0-4.84.82-6.31,2.43-.96,1.05-1.65,2.22-2.07,3.46l-.05.16s-2.87,11.11-3.89,15.03l-2.14,8.26c-.68-1.68-1.44-3.21-2.27-4.57-1.02-1.66-2.21-3.12-3.55-4.36-.32-.35-.66-.68-1-1-.32-.35-.66-.68-1-1-.32-.35-.66-.68-1-1-.32-.35-.66-.68-1-1-.32-.35-.66-.68-1-1-.32-.35-.66-.68-1-1-.32-.35-.66-.68-1-1-.32-.35-.66-.68-1-1-.32-.35-.66-.68-1-1-.32-.35-.66-.68-1-1-.32-.35-.66-.68-1-1-.32-.35-.66-.68-1-1-.32-.35-.66-.68-1-1-.32-.35-.66-.68-1-1-1.57-1.69-3.38-3.05-5.42-4.07-3.11-1.55-6.99-2.34-11.52-2.34h-20.31c-1.38,0-2.76.4-4.12,1.19-2.12,1.24-3.34,3.42-3.34,5.98,0,1.74-.02,3.22-.07,4.36-.05,1.22-.1,2.51-.15,3.87-.05,1.3-.14,2.79-.28,4.41-.04.48-.08,1.01-.13,1.57-.02-.02-.05-.04-.07-.06-.32-.34-.66-.67-1-1-.32-.34-.66-.67-1-1-.32-.34-.66-.67-1-1-.32-.34-.66-.67-1-1-.32-.34-.66-.67-1-1-.32-.34-.66-.67-1-1-.32-.34-.66-.67-1-1-.32-.34-.66-.67-1-1-.32-.34-.66-.67-1-1-.32-.34-.66-.67-1-1-.32-.34-.66-.67-1-1-.32-.34-.66-.67-1-1-.64-.67-1.32-1.33-2.05-1.95-3.25-2.79-7.35-5-12.17-6.55-4.69-1.51-10.2-2.27-16.4-2.27-7.76,0-14.61,1.17-20.36,3.48-5.74,2.31-10.68,5.4-14.7,9.2-3.96,3.75-7.25,8.06-9.76,12.83-2.43,4.6-4.34,9.34-5.68,14.1-1.33,4.7-2.24,9.35-2.7,13.83-.45,4.36-.68,8.26-.68,11.61,0,9.51,1.35,17.62,4,24.09,2.5,6.11,5.8,11.14,9.79,15.01.33.34.66.67,1,1,.33.34.66.67,1,1,.33.34.66.67,1,1,.33.34.66.67,1,1,.33.34.66.67,1,1,.33.34.66.67,1,1,.33.34.66.67,1,1,.33.34.66.67,1,1,.33.34.66.67,1,1,.33.34.66.67,1,1,.33.34.66.67,1,1,.33.34.66.67,1,1,.33.34.66.67,1,1,.33.34.66.67,1,1,.62.65,1.26,1.29,1.92,1.88,4.41,3.97,9.5,6.82,15.14,8.48,5.37,1.58,10.82,2.38,16.21,2.38s10.26-.63,14.52-1.87c4.27-1.24,7.96-2.86,10.97-4.81,3.07-1.99,5.56-4.2,7.4-6.57,1.78-2.3,2.95-4.48,3.56-6.59,0,0,0,0,0,0,.22.25.44.5.68.73.1.1.21.17.32.27.22.25.44.5.68.73.1.1.21.17.32.27.22.25.44.5.68.73.1.1.21.17.32.27.22.25.44.5.68.73.1.1.21.17.32.27.22.25.44.5.68.73.1.1.21.17.32.27.22.25.44.5.68.73.1.1.21.17.32.27.22.25.44.5.68.73.1.1.21.17.32.27.22.25.44.5.68.73.1.1.21.17.32.27.22.25.44.5.68.73.1.1.21.17.32.27.22.25.44.5.68.73.1.1.21.17.32.27.22.25.44.5.68.73.1.1.21.17.32.27.22.25.44.5.68.73.1.1.21.17.32.27.22.25.44.5.68.73.1.1.21.17.32.27.22.25.44.5.68.73,3.27,3.13,8.22,4.65,15.14,4.65h7.98c2.86,0,5.25-1.55,6.4-4.16.56-1.27.92-3.04.92-7.51,0-1.31.01-2.81.04-4.5.29.32.6.61.91.9.31.35.65.68,1,1,.31.35.65.68,1,1,.31.35.65.68,1,1,.31.35.65.68,1,1,.31.35.65.68,1,1,.31.35.65.68,1,1,.31.35.65.68,1,1,.31.35.65.68,1,1,.31.35.65.68,1,1,.4.45.82.88,1.28,1.27,1.54,1.34,3.36,2.42,5.4,3.21,1.9.73,3.96,1.23,6.11,1.47,1.9.21,3.79.32,5.63.32,3.26,0,5.62-.3,7.43-.95,2.45-.88,4.19-2.32,5.17-4.28l.1-.2.08-.21c1.13-2.87,2.39-6.22,3.72-9.91.05.04.1.08.15.12.24.26.46.52.72.76.09.08.19.15.28.24.24.26.46.52.72.76.09.08.19.15.28.24.24.26.46.52.72.76.09.08.19.15.28.24.24.26.46.52.72.76.09.08.19.15.28.24.24.26.46.52.72.76.09.08.19.15.28.24.24.26.46.52.72.76.09.08.19.15.28.24.24.26.46.52.72.76.09.08.19.15.28.24.24.26.46.52.72.76.09.08.19.15.28.24.24.26.46.52.72.76.09.08.19.15.28.24.24.26.46.52.72.76.09.08.19.15.28.24.24.26.46.52.72.76,3.27,3.13,8.22,4.65,15.14,4.65h7.98c2.4,0,4.26-.76,5.53-2.25.95-1.11,1.53-2.52,1.74-4.22.05-.33.17-1.22.62-7.3.29-3.96.65-8.79,1.09-14.49.44-5.72.88-11.98,1.31-18.62.43-6.67.87-13.11,1.3-19.34.43-6.23.78-11.93,1.02-16.93.25-5.15.37-8.76.37-11.05,0-2.58-.24-4.93-.71-6.99ZM116.98,162.45c-.31-.38-.65-.71-1-1-.31-.38-.65-.71-1-1-.31-.38-.65-.71-1-1-.31-.38-.65-.71-1-1-.31-.38-.65-.71-1-1-.31-.38-.65-.71-1-1-.31-.38-.65-.71-1-1-1.57-1.93-3.83-2.72-5.89-2.72-2.67,0-5.24.94-7.63,2.79-1.48,1.15-3.18,2.44-5.09,3.87-1.6,1.2-3.61,2.31-5.98,3.31-1.67.7-3.72,1.13-6.11,1.28-.1-1.38-.16-2.9-.16-4.59s.07-3.83.21-6.24c.13-2.28.44-4.69.93-7.16.48-2.46,1.15-4.91,1.99-7.28.75-2.15,1.75-4.09,2.97-5.77.11-.15.23-.28.34-.42.2.21.4.39.59.54.33.41.68.74,1,1,.33.41.68.74,1,1,.33.41.68.74,1,1,.33.41.68.74,1,1,.33.41.68.74,1,1,.33.41.68.74,1,1,.33.41.68.74,1,1,.33.41.68.74,1,1,.33.41.68.74,1,1,.33.41.68.74,1,1,.33.41.68.74,1,1,.33.41.68.74,1,1,.33.41.68.74,1,1,.33.41.68.74,1,1,.52.65,1.09,1.1,1.53,1.38,1.46.93,3.33,1.3,6.69,1.3,4.45,0,8.38-.61,11.78-1.77-.02.3-.05.61-.07.91-.34,4.49-.65,8.63-.94,12.4-.08,1.07-.16,2.09-.23,3.08-.28-.34-.59-.63-.91-.9-.31-.38-.65-.71-1-1Z"/>
    </g>
    <g>
      <path class="cls-1" d="M118.9,164.35c.07-.99.15-2.01.23-3.08.29-3.77.6-7.9.94-12.4.21-2.86.44-5.75.68-8.67-4.4,3-10.23,4.54-17.39,4.54-3.35,0-5.23-.36-6.69-1.3-.44-.28-1-.73-1.53-1.38-.32-.26-.67-.59-1-1-.32-.26-.67-.59-1-1-.32-.26-.67-.59-1-1-.32-.26-.67-.59-1-1-.32-.26-.67-.59-1-1-.32-.26-.67-.59-1-1-.32-.26-.67-.59-1-1-.32-.26-.67-.59-1-1-.32-.26-.67-.59-1-1-1.12-.89-2.55-2.65-2.57-5.85-.03-.86-.05-1.69-.08-2.49-1.27.88-2.35,1.93-3.28,3.21-1.21,1.68-2.21,3.62-2.97,5.77-.84,2.37-1.5,4.82-1.99,7.28-.49,2.47-.8,4.88-.93,7.16-.14,2.41-.21,4.51-.21,6.24,0,4.04.32,7.14.81,9.53.73.08,1.5.13,2.32.13,3.28,0,6.02-.45,8.14-1.35,2.36-1,4.37-2.11,5.98-3.31,1.91-1.43,3.61-2.72,5.09-3.87,2.39-1.85,4.95-2.79,7.63-2.79,2.06,0,4.32.79,5.89,2.72.35.29.69.62,1,1,.35.29.69.62,1,1,.35.29.69.62,1,1,.35.29.69.62,1,1,.35.29.69.62,1,1,.35.29.69.62,1,1,.35.29.69.62,1,1,.35.29.69.62,1,1,.32.27.63.56.91.9Z"/>
      <path class="cls-6" d="M254.75,104.02c-.58-2.54-1.71-4.74-3.37-6.54-.25-.27-.54-.52-.82-.77-.06-.07-.12-.16-.18-.23-.25-.27-.54-.52-.82-.77-.06-.07-.12-.16-.18-.23-.25-.27-.54-.52-.82-.77-.06-.07-.12-.16-.18-.23-.25-.27-.54-.52-.82-.77-.06-.07-.12-.16-.18-.23-.25-.27-.54-.52-.82-.77-.06-.07-.12-.16-.18-.23-.25-.27-.54-.52-.82-.77-.06-.07-.12-.16-.18-.23-.25-.27-.54-.52-.82-.77-.06-.07-.12-.16-.18-.23-.25-.27-.54-.52-.82-.77-.06-.07-.12-.16-.18-.23-.25-.27-.54-.52-.82-.77-.06-.07-.12-.16-.18-.23-.25-.27-.54-.52-.82-.77-.06-.07-.12-.16-.18-.23-1.64-1.78-3.83-3.15-6.53-4.05-2.42-.81-5.38-1.2-9.05-1.2h-22.63c-2.72,0-4.84.82-6.31,2.43-.96,1.05-1.65,2.22-2.07,3.46l-.05.16s-2.87,11.11-3.89,15.03l-2.54,9.79c-.52,2.01-.98,3.74-1.39,5.23-.36-1.8-.73-3.5-1.11-5.08-1.09-4.5-2.56-8.28-4.37-11.24-1.02-1.66-2.21-3.12-3.55-4.36-.32-.35-.66-.68-1-1-.32-.35-.66-.68-1-1-.32-.35-.66-.68-1-1-.32-.35-.66-.68-1-1-.32-.35-.66-.68-1-1-.32-.35-.66-.68-1-1-.32-.35-.66-.68-1-1-.32-.35-.66-.68-1-1-.32-.35-.66-.68-1-1-1.57-1.69-3.38-3.05-5.42-4.07-3.11-1.55-6.99-2.34-11.52-2.34h-20.31c-1.38,0-2.76.4-4.12,1.19-2.12,1.24-3.34,3.42-3.34,5.98,0,1.74-.02,3.22-.07,4.36-.05,1.22-.1,2.51-.15,3.87-.05,1.3-.14,2.79-.28,4.41-.05.57-.1,1.22-.15,1.91-.91-1.2-1.92-2.33-3.04-3.4-.32-.34-.66-.67-1-1-.32-.34-.66-.67-1-1-.32-.34-.66-.67-1-1-.32-.34-.66-.67-1-1-.32-.34-.66-.67-1-1-.32-.34-.66-.67-1-1-.32-.34-.66-.67-1-1-.32-.34-.66-.67-1-1-.32-.34-.66-.67-1-1-.64-.67-1.32-1.33-2.05-1.95-3.25-2.79-7.35-5-12.17-6.55-4.69-1.51-10.2-2.27-16.4-2.27-7.76,0-14.61,1.17-20.36,3.48-5.74,2.31-10.68,5.4-14.7,9.2-3.96,3.75-7.25,8.06-9.76,12.83-2.43,4.6-4.34,9.34-5.68,14.1-1.33,4.7-2.24,9.35-2.7,13.83-.45,4.36-.68,8.26-.68,11.61,0,9.51,1.35,17.62,4,24.09,2.5,6.11,5.8,11.14,9.79,15.01.33.34.66.67,1,1,.33.34.66.67,1,1,.33.34.66.67,1,1,.33.34.66.67,1,1,.33.34.66.67,1,1,.33.34.66.67,1,1,.33.34.66.67,1,1,.33.34.66.67,1,1,.33.34.66.67,1,1,.62.65,1.26,1.29,1.92,1.88,4.41,3.97,9.5,6.82,15.14,8.48,5.37,1.58,10.82,2.38,16.21,2.38s10.26-.63,14.52-1.87c4.27-1.24,7.96-2.86,10.97-4.81,3.07-1.99,5.56-4.2,7.4-6.57,1.96-2.53,3.19-4.91,3.73-7.22.05-.2.09-.38.14-.57.82,1.89,1.93,3.55,3.38,4.94.1.1.21.17.32.27.22.25.44.5.68.73.1.1.21.17.32.27.22.25.44.5.68.73.1.1.21.17.32.27.22.25.44.5.68.73.1.1.21.17.32.27.22.25.44.5.68.73.1.1.21.17.32.27.22.25.44.5.68.73.1.1.21.17.32.27.22.25.44.5.68.73.1.1.21.17.32.27.22.25.44.5.68.73.1.1.21.17.32.27.22.25.44.5.68.73.1.1.21.17.32.27.22.25.44.5.68.73.1.1.21.17.32.27.22.25.44.5.68.73,3.27,3.13,8.22,4.65,15.14,4.65h7.98c2.86,0,5.25-1.55,6.4-4.16.56-1.27.92-3.04.92-7.51,0-1.31.01-2.81.04-4.5.29.32.6.61.91.9.31.35.65.68,1,1,.31.35.65.68,1,1,.31.35.65.68,1,1,.31.35.65.68,1,1,.31.35.65.68,1,1,.31.35.65.68,1,1,.31.35.65.68,1,1,.31.35.65.68,1,1,.31.35.65.68,1,1,.4.45.82.88,1.28,1.27,1.54,1.34,3.36,2.42,5.4,3.21,1.9.73,3.96,1.23,6.11,1.47,1.9.21,3.79.32,5.63.32,3.26,0,5.62-.3,7.43-.95,2.45-.88,4.19-2.32,5.17-4.28l.1-.2.08-.21c1.13-2.88,2.39-6.23,3.73-9.93.28.31.55.62.86.91.09.08.19.15.28.24.24.26.46.52.72.76.09.08.19.15.28.24.24.26.46.52.72.76.09.08.19.15.28.24.24.26.46.52.72.76.09.08.19.15.28.24.24.26.46.52.72.76.09.08.19.15.28.24.24.26.46.52.72.76.09.08.19.15.28.24.24.26.46.52.72.76.09.08.19.15.28.24.24.26.46.52.72.76.09.08.19.15.28.24.24.26.46.52.72.76.09.08.19.15.28.24.24.26.46.52.72.76.09.08.19.15.28.24.24.26.46.52.72.76,3.27,3.13,8.22,4.65,15.14,4.65h7.98c2.4,0,4.26-.76,5.53-2.25.95-1.11,1.53-2.52,1.74-4.22.05-.33.17-1.22.62-7.3.29-3.96.65-8.79,1.09-14.49.44-5.72.88-11.98,1.31-18.62.43-6.67.87-13.11,1.3-19.34.43-6.23.78-11.93,1.02-16.93.25-5.15.37-8.76.37-11.05,0-2.58-.24-4.93-.71-6.99ZM116.98,162.45c-.31-.38-.65-.71-1-1-.31-.38-.65-.71-1-1-.31-.38-.65-.71-1-1-.31-.38-.65-.71-1-1-.31-.38-.65-.71-1-1-.31-.38-.65-.71-1-1-.31-.38-.65-.71-1-1-1.57-1.93-3.83-2.72-5.89-2.72-2.67,0-5.24.94-7.63,2.79-1.48,1.15-3.18,2.44-5.09,3.87-1.6,1.2-3.61,2.31-5.98,3.31-2.13.89-4.87,1.35-8.14,1.35-.82,0-1.59-.05-2.32-.13-.49-2.39-.81-5.49-.81-9.53,0-1.73.07-3.83.21-6.24.13-2.28.44-4.69.93-7.16.48-2.46,1.15-4.91,1.99-7.28.75-2.15,1.75-4.09,2.97-5.77.93-1.29,2.01-2.34,3.28-3.21.03.8.05,1.63.08,2.49.02,3.19,1.45,4.95,2.57,5.85.33.41.68.74,1,1,.33.41.68.74,1,1,.33.41.68.74,1,1,.33.41.68.74,1,1,.33.41.68.74,1,1,.33.41.68.74,1,1,.33.41.68.74,1,1,.33.41.68.74,1,1,.33.41.68.74,1,1,.52.65,1.09,1.1,1.53,1.38,1.46.93,3.33,1.3,6.69,1.3,7.16,0,12.99-1.54,17.39-4.54-.23,2.92-.46,5.81-.68,8.67-.34,4.49-.65,8.63-.94,12.4-.08,1.07-.16,2.09-.23,3.08-.28-.34-.59-.63-.91-.9-.31-.38-.65-.71-1-1Z"/>
    </g>
    <path class="cls-10" d="M249.75,99.02c-.58-2.54-1.71-4.74-3.37-6.54-.25-.27-.54-.52-.82-.77-.06-.07-.12-.16-.18-.23-.25-.27-.54-.52-.82-.77-.06-.07-.12-.16-.18-.23-.25-.27-.54-.52-.82-.77-.06-.07-.12-.16-.18-.23-.25-.27-.54-.52-.82-.77-.06-.07-.12-.16-.18-.23-.25-.27-.54-.52-.82-.77-.06-.07-.12-.16-.18-.23-1.64-1.78-3.83-3.15-6.53-4.05-2.42-.81-5.38-1.2-9.05-1.2h-22.63c-2.72,0-4.84.82-6.31,2.43-.96,1.05-1.65,2.22-2.07,3.46l-.05.16s-2.87,11.11-3.89,15.03l-2.54,9.79c-.67,2.58-1.24,4.73-1.72,6.44-.49,1.77-.94,3.43-1.33,4.95-.28,1.1-.6,2.28-.94,3.51-.25-1.74-.5-3.42-.74-5.03-.84-5.62-1.77-10.57-2.77-14.72-1.09-4.5-2.56-8.28-4.37-11.24-1.02-1.66-2.21-3.12-3.55-4.36-.32-.35-.66-.68-1-1-.32-.35-.66-.68-1-1-.32-.35-.66-.68-1-1-.32-.35-.66-.68-1-1-1.57-1.69-3.38-3.05-5.42-4.07-3.11-1.55-6.99-2.34-11.52-2.34h-20.31c-1.38,0-2.76.4-4.12,1.19-2.12,1.24-3.34,3.42-3.34,5.98,0,1.74-.02,3.22-.07,4.36-.05,1.22-.1,2.51-.15,3.87-.05,1.3-.14,2.79-.28,4.41-.14,1.71-.31,3.94-.5,6.67-.35-1.32-.77-2.61-1.28-3.87-1.43-3.49-3.59-6.61-6.42-9.29-.32-.34-.66-.67-1-1-.32-.34-.66-.67-1-1-.32-.34-.66-.67-1-1-.32-.34-.66-.67-1-1-.64-.67-1.32-1.33-2.05-1.95-3.25-2.79-7.35-5-12.17-6.55-4.69-1.51-10.2-2.27-16.4-2.27-7.76,0-14.61,1.17-20.36,3.48-5.74,2.31-10.68,5.4-14.7,9.2-3.96,3.75-7.25,8.06-9.76,12.83-2.43,4.6-4.34,9.34-5.68,14.1-1.33,4.7-2.24,9.35-2.7,13.83-.45,4.36-.68,8.26-.68,11.61,0,9.51,1.35,17.62,4,24.09,2.5,6.11,5.8,11.14,9.79,15.01.33.34.66.67,1,1,.33.34.66.67,1,1,.33.34.66.67,1,1,.33.34.66.67,1,1,.62.65,1.26,1.29,1.92,1.88,4.41,3.97,9.5,6.82,15.14,8.48,5.37,1.58,10.82,2.38,16.21,2.38s10.26-.63,14.52-1.87c4.27-1.24,7.96-2.86,10.97-4.81,3.07-1.99,5.56-4.2,7.4-6.57,1.96-2.53,3.19-4.91,3.73-7.22.7-2.81,1.26-5.39,1.67-7.66.44-2.5.66-4.61.66-6.46,0-3.76-1.27-6.2-3.01-7.64-.31-.38-.65-.71-1-1-.31-.38-.65-.71-1-1-.31-.38-.65-.71-1-1-.31-.38-.65-.71-1-1-1.57-1.93-3.83-2.72-5.89-2.72-2.67,0-5.24.94-7.63,2.79-1.48,1.15-3.18,2.44-5.09,3.87-1.6,1.2-3.61,2.31-5.98,3.31-2.13.89-4.87,1.35-8.14,1.35-2.41,0-4.42-.34-6.08-1.02-1.1-2.54-2.05-6.72-2.05-13.64,0-1.73.07-3.83.21-6.24.13-2.28.44-4.69.93-7.16.48-2.46,1.15-4.91,1.99-7.28.75-2.15,1.75-4.09,2.97-5.77,1.11-1.54,2.43-2.75,4.03-3.71,1.08-.65,2.43-1.04,4-1.18.02.23.03.47.04.72.09,2.39.19,5.21.29,8.45.02,3.19,1.45,4.95,2.57,5.85.33.41.68.74,1,1,.33.41.68.74,1,1,.33.41.68.74,1,1,.33.41.68.74,1,1,.52.65,1.09,1.1,1.53,1.38,1.46.93,3.33,1.3,6.69,1.3,7.79,0,14.03-1.8,18.54-5.35,1.99-1.56,3.57-3.48,4.76-5.72-.16,2.02-.32,4.16-.5,6.45-.39,4.66-.75,9.24-1.09,13.75-.34,4.49-.65,8.63-.94,12.4-.29,3.8-.51,7.13-.66,9.91-.15,2.87-.22,4.88-.22,6.14,0,5.65,1.67,10.11,4.95,13.26.1.1.21.17.32.27.22.25.44.5.68.73.1.1.21.17.32.27.22.25.44.5.68.73.1.1.21.17.32.27.22.25.44.5.68.73.1.1.21.17.32.27.22.25.44.5.68.73.1.1.21.17.32.27.22.25.44.5.68.73,3.27,3.13,8.22,4.65,15.14,4.65h7.98c2.86,0,5.25-1.55,6.4-4.16.56-1.27.92-3.04.92-7.51,0-2.6.05-5.95.14-9.97.01-.54.03-1.1.04-1.66.65,2.56,1.32,5,1.99,7.31l.07.23.09.22c.83,2.07,2.05,3.83,3.62,5.27.31.35.65.68,1,1,.31.35.65.68,1,1,.31.35.65.68,1,1,.31.35.65.68,1,1,.4.45.82.88,1.28,1.27,1.54,1.34,3.36,2.42,5.4,3.21,1.9.73,3.96,1.23,6.11,1.47,1.9.21,3.79.32,5.63.32,3.26,0,5.62-.3,7.43-.95,2.45-.88,4.19-2.32,5.17-4.28l.1-.2.08-.21c1.28-3.26,2.72-7.09,4.26-11.38.21-.58.42-1.17.63-1.76.57,3.56,2.15,6.68,4.7,9.13.09.08.19.15.28.24.24.26.46.52.72.76.09.08.19.15.28.24.24.26.46.52.72.76.09.08.19.15.28.24.24.26.46.52.72.76.09.08.19.15.28.24.24.26.46.52.72.76.09.08.19.15.28.24.24.26.46.52.72.76,3.27,3.13,8.22,4.65,15.14,4.65h7.98c2.4,0,4.26-.76,5.53-2.25.95-1.11,1.53-2.52,1.74-4.22.05-.33.17-1.22.62-7.3.29-3.96.65-8.79,1.09-14.49.44-5.72.88-11.98,1.31-18.62.43-6.67.87-13.11,1.3-19.34.43-6.23.78-11.93,1.02-16.93.25-5.15.37-8.76.37-11.05,0-2.58-.24-4.93-.71-6.99Z"/>
    <g>
      <path class="cls-3" d="M77.26,169.05c3.96,0,7.33-.58,10.08-1.74,2.76-1.16,5.1-2.47,7.04-3.92,1.93-1.45,3.65-2.76,5.15-3.92,1.5-1.16,3.02-1.74,4.57-1.74,1.93,0,2.9,1.45,2.9,4.35,0,1.55-.19,3.41-.58,5.58-.39,2.18-.92,4.62-1.6,7.33-.39,1.65-1.33,3.43-2.83,5.37-1.5,1.94-3.55,3.75-6.17,5.44-2.61,1.69-5.83,3.1-9.65,4.21-3.82,1.11-8.2,1.67-13.13,1.67s-9.86-.72-14.8-2.18c-4.93-1.45-9.33-3.92-13.2-7.4-3.87-3.48-7.01-8.17-9.43-14.07-2.42-5.9-3.63-13.3-3.63-22.19,0-3.19.22-6.89.65-11.1.44-4.21,1.28-8.53,2.54-12.98,1.26-4.45,3.02-8.82,5.29-13.13,2.27-4.3,5.2-8.15,8.78-11.53,3.58-3.38,7.95-6.12,13.13-8.2,5.17-2.08,11.34-3.12,18.5-3.12,5.71,0,10.66.68,14.87,2.03,4.21,1.36,7.69,3.22,10.44,5.59,2.76,2.37,4.79,5.15,6.09,8.34,1.31,3.19,1.96,6.58,1.96,10.15,0,6.19-1.81,10.71-5.44,13.56-3.63,2.85-8.78,4.28-15.45,4.28-2.13,0-3.46-.17-3.99-.51-.53-.34-.8-1.04-.8-2.1-.1-3.29-.19-6.14-.29-8.56-.1-2.42-.44-4.42-1.02-6.02-.58-1.6-1.48-2.76-2.68-3.48-1.21-.73-2.88-1.09-5-1.09-3.1,0-5.73.65-7.91,1.96s-4.01,3-5.51,5.08c-1.5,2.08-2.71,4.42-3.63,7.04-.92,2.61-1.65,5.27-2.18,7.98-.53,2.71-.87,5.32-1.02,7.83-.15,2.52-.22,4.69-.22,6.53,0,8.9,1.47,15.23,4.42,19,2.95,3.77,7.52,5.66,13.71,5.66Z"/>
      <path class="cls-3" d="M215.21,112.91c-.78,2.32-1.77,5.34-2.97,9.07-1.21,3.72-2.54,7.81-3.99,12.26-1.45,4.45-2.95,9.16-4.5,14.14-1.55,4.98-3.12,9.84-4.71,14.58-1.6,4.74-3.17,9.26-4.71,13.56-1.55,4.3-2.95,8.05-4.21,11.24-.39.77-1.19,1.38-2.39,1.81-1.21.43-3.12.65-5.73.65-1.65,0-3.34-.09-5.08-.29-1.74-.19-3.36-.58-4.86-1.16-1.5-.58-2.81-1.35-3.92-2.32-1.11-.97-1.96-2.18-2.54-3.63-1.45-4.93-2.83-10.42-4.13-16.46-1.31-6.04-2.59-12.21-3.84-18.5-1.26-6.29-2.49-12.45-3.7-18.5-1.21-6.04-2.44-11.53-3.7-16.46,0,1.36-.05,3.68-.15,6.96-.1,3.29-.2,7.11-.29,11.46-.1,4.35-.22,9.04-.36,14.07-.15,5.03-.27,9.94-.36,14.72-.1,4.79-.19,9.24-.29,13.35-.1,4.11-.15,7.47-.15,10.08,0,2.9-.17,4.74-.51,5.51-.34.77-.94,1.16-1.81,1.16h-7.98c-5.51,0-9.41-1.09-11.68-3.26-2.27-2.18-3.41-5.39-3.41-9.65,0-1.16.07-3.12.22-5.88.15-2.76.36-6.02.65-9.79s.6-7.91.94-12.4c.34-4.5.7-9.07,1.09-13.71.48-6.29.89-11.53,1.23-15.74.34-4.21.6-7.71.8-10.52.19-2.8.36-5.08.51-6.82.15-1.74.24-3.29.29-4.64.05-1.35.1-2.63.15-3.84.05-1.21.07-2.73.07-4.57,0-.77.29-1.33.87-1.67.58-.34,1.11-.51,1.6-.51h20.31c3.77,0,6.87.61,9.28,1.81,2.42,1.21,4.4,3.07,5.95,5.58,1.55,2.52,2.8,5.78,3.77,9.79.97,4.01,1.86,8.78,2.68,14.29.82,5.51,1.74,11.87,2.76,19.08,1.02,7.21,2.34,15.3,3.99,24.3,1.55-6,2.85-10.97,3.92-14.94,1.06-3.96,1.96-7.28,2.68-9.94.72-2.66,1.33-4.86,1.81-6.6.48-1.74.92-3.36,1.31-4.86.39-1.5.82-3.12,1.31-4.86.48-1.74,1.06-3.92,1.74-6.53.67-2.61,1.52-5.88,2.54-9.79,1.02-3.92,2.3-8.87,3.84-14.87.19-.58.53-1.14,1.02-1.67.48-.53,1.35-.8,2.61-.8h22.63c3.09,0,5.58.31,7.47.94,1.89.63,3.36,1.52,4.42,2.68,1.06,1.16,1.79,2.59,2.18,4.28.38,1.69.58,3.65.58,5.88s-.12,5.83-.36,10.81c-.24,4.98-.58,10.59-1.01,16.83-.44,6.24-.87,12.69-1.31,19.37-.44,6.67-.87,12.86-1.31,18.57-.44,5.71-.8,10.54-1.09,14.51-.29,3.97-.49,6.29-.58,6.96-.1.78-.29,1.33-.58,1.67-.29.34-.87.51-1.74.51h-7.98c-5.51,0-9.41-1.09-11.68-3.26-2.27-2.18-3.41-5-3.41-8.49,0-1.06.12-3,.36-5.8.24-2.8.56-6.09.94-9.86.38-3.77.82-7.91,1.31-12.4.48-4.5.92-8.97,1.31-13.42.38-4.45.75-8.78,1.09-12.98.34-4.21.6-7.91.8-11.1Z"/>
    </g>
  </g>
</svg>