<?xml version="1.0" encoding="UTF-8"?>
<svg id="Layer_2" data-name="Layer 2" xmlns="http://www.w3.org/2000/svg" viewBox="0 0 329.62 128.83">
  <defs>
    <style>
      .cls-1 {
        fill: none;
      }

      .cls-2 {
        fill: #f2f2f2;
      }

      .cls-3 {
        fill: #f4b734;
      }

      .cls-4 {
        fill: #e75039;
      }

      .cls-5 {
        fill: #b71f43;
      }

      .cls-6 {
        fill: #232b5f;
      }
    </style>
  </defs>
  <g id="Layer_10" data-name="Layer 10">
    <g>
      <path class="cls-3" d="M327.29,47.54c-.29-.37-.62-.71-1-1-.29-.37-.62-.71-1-1-.29-.37-.62-.71-1-1-.29-.37-.62-.71-1-1-.29-.37-.62-.71-1-1-.29-.37-.62-.71-1-1-.29-.37-.62-.71-1-1-.29-.37-.62-.71-1-1-.29-.37-.62-.71-1-1-.29-.37-.62-.71-1-1-.29-.37-.62-.71-1-1-.29-.37-.62-.71-1-1-.29-.37-.62-.71-1-1-.29-.37-.62-.71-1-1-.29-.37-.62-.71-1-1-.29-.37-.62-.71-1-1-.29-.37-.62-.71-1-1-.29-.37-.62-.71-1-1-.29-.37-.62-.71-1-1-.29-.37-.62-.71-1-1-.29-.37-.62-.71-1-1-.29-.37-.62-.71-1-1-.29-.37-.62-.71-1-1-.29-.37-.62-.71-1-1-.29-.37-.62-.71-1-1-.29-.37-.62-.71-1-1-.29-.37-.62-.71-1-1-.29-.37-.62-.71-1-1-.29-.37-.62-.71-1-1-.29-.37-.62-.71-1-1-.29-.37-.62-.71-1-1-.29-.37-.62-.71-1-1-.29-.37-.62-.71-1-1-.29-.37-.62-.71-1-1-.29-.37-.62-.71-1-1-.29-.37-.62-.71-1-1-.29-.37-.62-.71-1-1-.29-.37-.62-.71-1-1-.29-.37-.62-.71-1-1-.29-.37-.62-.71-1-1-.29-.37-.62-.71-1-1-.29-.37-.62-.71-1-1-.29-.37-.62-.71-1-1-.29-.37-.62-.71-1-1-.44-.55-.97-1.04-1.61-1.42-1.11-.66-2.38-1.01-3.68-1.01h-35.55c-3.83,0-6.62,2.74-6.62,6.51,0,.64-.04,2.04-.23,5.01-.06-.05-.11-.11-.17-.17-.06-.07-.11-.15-.17-.22-.26-.28-.54-.53-.83-.78-.06-.07-.11-.15-.17-.22-.26-.28-.54-.53-.83-.78-.06-.07-.11-.15-.17-.22-.26-.28-.54-.53-.83-.78-.06-.07-.11-.15-.17-.22-.26-.28-.54-.53-.83-.78-.06-.07-.11-.15-.17-.22-.26-.28-.54-.53-.83-.78-.06-.07-.11-.15-.17-.22-.26-.28-.54-.53-.83-.78-.06-.07-.11-.15-.17-.22-.26-.28-.54-.53-.83-.78-.06-.07-.11-.15-.17-.22-1.32-1.44-3.06-2.52-5.19-3.24-1.85-.61-4.06-.91-6.78-.91h-15.76c-2.91,0-4.61,1.19-5.51,2.19-.81.89-1.4,1.89-1.76,2.96l-.05.16-3.1,11.97c-.07-.07-.15-.14-.22-.2-.32-.35-.65-.68-1-1-.32-.35-.65-.68-1-1-.32-.35-.65-.68-1-1-.32-.35-.65-.68-1-1-.32-.35-.65-.68-1-1-.32-.35-.65-.68-1-1-.32-.35-.65-.68-1-1-.32-.35-.65-.68-1-1-.32-.35-.65-.68-1-1-.32-.35-.65-.68-1-1-.32-.35-.65-.68-1-1-.32-.35-.65-.68-1-1-1.24-1.36-2.68-2.46-4.31-3.28-2.38-1.19-5.3-1.79-8.7-1.79h-14.14c-1.23,0-2.45.35-3.63,1.04-1.93,1.13-3.08,3.18-3.08,5.48,0,1.2-.02,2.2-.05,2.98-.03.85-.07,1.75-.1,2.69-.03.88-.1,1.89-.19,3-.07.85-.15,1.88-.24,3.08-.18-.18-.35-.35-.53-.52-.32-.34-.66-.68-1-1-.32-.34-.66-.68-1-1-.32-.34-.66-.68-1-1-.32-.34-.66-.68-1-1-.32-.34-.66-.68-1-1-.32-.34-.66-.68-1-1-.32-.34-.66-.68-1-1-.32-.34-.66-.68-1-1-.32-.34-.66-.68-1-1-.32-.34-.66-.68-1-1-2.61-2.78-5.84-4.94-9.64-6.44-4.08-1.6-8.94-2.42-14.46-2.42-7.76,0-14.44,1.39-19.84,4.13-5.4,2.74-9.82,6.42-13.13,10.95-.2.27-.38.55-.57.82-.19-.2-.4-.39-.61-.58-.31-.36-.64-.69-1-1-.31-.36-.64-.69-1-1-.31-.36-.64-.69-1-1-.31-.36-.64-.69-1-1-.31-.36-.64-.69-1-1-.31-.36-.64-.69-1-1-.31-.36-.64-.69-1-1-.31-.36-.64-.69-1-1-.31-.36-.64-.69-1-1-.31-.36-.64-.69-1-1-2.46-2.82-6.35-4.2-11.91-4.2h-5.55c-3.83,0-6.62,2.74-6.62,6.51,0,.48-.02,1.48-.14,3.5-.1,1.67-.23,3.64-.39,5.92-.24-.25-.48-.5-.74-.73-.31-.36-.64-.69-1-1-.31-.36-.64-.69-1-1-.31-.36-.64-.69-1-1-.31-.36-.64-.69-1-1-.31-.36-.64-.69-1-1-.31-.36-.64-.69-1-1-.31-.36-.64-.69-1-1-.31-.36-.64-.69-1-1-.31-.36-.64-.69-1-1-.31-.36-.64-.69-1-1-.31-.36-.64-.69-1-1-2.46-2.82-6.35-4.2-11.91-4.2h-5.56c-3.83,0-6.62,2.74-6.62,6.51,0,.71-.05,2.34-.29,6.04-.2,3.04-.47,6.65-.8,10.72-.34,4.12-.68,8.52-1.01,13.18-.34,4.63-.67,9.03-1.01,13.19-.33,4.1-.61,7.89-.81,11.25-.21,3.4-.31,5.76-.31,7.23,0,5.24,2.2,8.36,4.04,10.05.05.04.1.08.15.12.29.32.57.62.85.88.05.04.1.08.15.12.29.32.57.62.85.88.05.04.1.08.15.12.29.32.57.62.85.88.05.04.1.08.15.12.29.32.57.62.85.88.05.04.1.08.15.12.29.32.57.62.85.88.05.04.1.08.15.12.29.32.57.62.85.88.05.04.1.08.15.12.29.32.57.62.85.88.05.04.1.08.15.12.29.32.57.62.85.88.05.04.1.08.15.12.29.32.57.62.85.88.05.04.1.08.15.12.29.32.57.62.85.88.05.04.1.08.15.12.29.32.57.62.85.88.05.04.1.08.15.12.29.32.57.62.85.88.05.04.1.08.15.12.29.32.57.62.85.88.05.04.1.08.15.12.29.32.57.62.85.88.05.04.1.08.15.12.29.32.57.62.85.88.05.04.1.08.15.12.29.32.57.62.85.88.05.04.1.08.15.12.29.32.57.62.85.88.05.04.1.08.15.12.29.32.57.62.85.88.05.04.1.08.15.12.29.32.57.62.85.88.05.04.1.08.15.12.29.32.57.62.85.88.05.04.1.08.15.12.29.32.57.62.85.88.05.04.1.08.15.12.29.32.57.62.85.88.05.04.1.08.15.12.29.32.57.62.85.88.05.04.1.08.15.12.29.32.57.62.85.88.05.04.1.08.15.12.29.32.57.62.85.88.05.04.1.08.15.12.29.32.57.62.85.88.05.04.1.08.15.12.29.32.57.62.85.88.05.04.1.08.15.12.29.32.57.62.85.88.05.04.1.08.15.12.29.32.57.62.85.88.05.04.1.08.15.12.29.32.57.62.85.88.05.04.1.08.15.12.29.32.57.62.85.88.05.04.1.08.15.12.29.32.57.62.85.88.05.04.1.08.15.12.29.32.57.62.85.88.05.04.1.08.15.12.29.32.57.62.85.88.05.04.1.08.15.12.29.32.57.62.85.88.05.04.1.08.15.12.29.32.57.62.85.88.05.04.1.08.15.12.29.32.57.62.85.88.05.04.1.08.15.12.29.32.57.62.85.88.05.04.1.08.15.12.29.32.57.62.85.88.05.04.1.08.15.12.29.32.57.62.85.88.05.04.1.08.15.12.29.32.57.62.85.88.05.04.1.08.15.12.29.32.57.62.85.88.05.04.1.08.15.12.29.32.57.62.85.88.05.04.1.08.15.12.29.32.57.62.85.88.05.04.1.08.15.12.29.32.57.62.85.88,2.6,2.38,6.34,3.54,11.46,3.54h5.55c2.66,0,4.19-1.14,5-2.1.85-.99,1.38-2.26,1.57-3.79l.02-.13.7-9.57s.04.04.05.05c.05.04.1.08.15.12.29.32.57.62.85.88.05.04.1.08.15.12.29.32.57.62.85.88.05.04.1.08.15.12.29.32.57.62.85.88.05.04.1.08.15.12.29.32.57.62.85.88.05.04.1.08.15.12.29.32.57.62.85.88.05.04.1.08.15.12.29.32.57.62.85.88.05.04.1.08.15.12.29.32.57.62.85.88.05.04.1.08.15.12.29.32.57.62.85.88.05.04.1.08.15.12.29.32.57.62.85.88.05.04.1.08.15.12.29.32.57.62.85.88.05.04.1.08.15.12.29.32.57.62.85.88.05.04.1.08.15.12.29.32.57.62.85.88,2.6,2.38,6.34,3.54,11.46,3.54h5.56c2.66,0,4.19-1.14,5-2.1.83-.97,1.36-2.22,1.56-3.71.07-.45.16-1.29.34-3.74l.5-6.91c.06-.81.12-1.66.18-2.53.24.24.48.48.73.71.32.34.66.67,1,1,.32.34.66.67,1,1,.32.34.66.67,1,1,.32.34.66.67,1,1,.32.34.66.67,1,1,.32.34.66.67,1,1,.32.34.66.67,1,1,.32.34.66.67,1,1,.32.34.66.67,1,1,.32.34.66.67,1,1,2.43,2.57,5.42,4.68,8.93,6.3,4.31,1.98,9.69,2.98,15.97,2.98,5.62,0,10.62-.8,14.88-2.38,4.24-1.58,7.96-3.73,11.06-6.4,2.39-2.06,4.45-4.38,6.18-6.93.01.01.03.03.04.04.1.09.21.17.31.27.22.25.44.5.69.73.1.09.21.17.31.27.22.25.44.5.69.73.1.09.21.17.31.27.22.25.44.5.69.73.1.09.21.17.31.27.22.25.44.5.69.73.1.09.21.17.31.27.22.25.44.5.69.73.1.09.21.17.31.27.22.25.44.5.69.73.1.09.21.17.31.27.22.25.44.5.69.73.1.09.21.17.31.27.22.25.44.5.69.73.1.09.21.17.31.27.22.25.44.5.69.73.1.09.21.17.31.27.22.25.44.5.69.73.1.09.21.17.31.27.22.25.44.5.69.73,2.57,2.46,6.36,3.66,11.59,3.66h5.55c2.57,0,4.81-1.45,5.84-3.8.52-1.2.74-2.73.77-5.35.09.08.17.18.26.26.31.35.64.69,1,1,.31.35.64.69,1,1,.31.35.64.69,1,1,.31.35.64.69,1,1,.33.37.67.72,1.04,1.04,1.21,1.05,2.62,1.9,4.21,2.51,1.45.56,3.01.93,4.63,1.11,1.38.15,2.76.23,4.09.23,2.45,0,4.26-.24,5.69-.75,2.6-.94,3.85-2.55,4.44-3.73l.1-.2.08-.21c.56-1.42,1.16-3.01,1.79-4.7.06.06.13.1.19.16.23.26.46.52.72.76.09.08.19.16.28.24.23.26.46.52.72.76.09.08.19.16.28.24.23.26.46.52.72.76.09.08.19.16.28.24.23.26.46.52.72.76.09.08.19.16.28.24.23.26.46.52.72.76.09.08.19.16.28.24.23.26.46.52.72.76,2.57,2.46,6.36,3.66,11.59,3.66h5.55c2.66,0,4.19-1.14,5-2.1.85-.99,1.38-2.26,1.56-3.72.04-.27.13-.9.44-5.18,0-.07.01-.14.02-.21.23.25.46.47.68.68.05.04.1.08.15.12.29.32.57.62.85.88.05.04.1.08.15.12.29.32.57.62.85.88.05.04.1.08.15.12.29.32.57.62.85.88.05.04.1.08.15.12.29.32.57.62.85.88.05.04.1.08.15.12.29.32.57.62.85.88.05.04.1.08.15.12.29.32.57.62.85.88.05.04.1.08.15.12.29.32.57.62.85.88,2.6,2.38,6.34,3.54,11.46,3.54h23.23c4.7,0,7.95-1.24,9.95-3.78,1.6-2.04,2.52-4.62,2.72-7.64l.42-6.13v-.17c0-1.97-.85-3.73-2.35-4.92-.29-.37-.62-.7-1-1-.29-.37-.62-.7-1-1-.29-.37-.62-.7-1-1-.29-.37-.62-.7-1-1-.29-.37-.62-.7-1-1-.29-.37-.62-.7-1-1-.29-.37-.62-.7-1-1-.29-.37-.62-.7-1-1-.16-.2-.33-.39-.52-.57.71-.49,1.34-1.07,1.87-1.75,1.6-2.04,2.52-4.62,2.72-7.64l.42-6.13v-.17c0-2.05-.84-3.82-2.33-4.98-.29-.37-.62-.71-1-1-.29-.37-.62-.71-1-1-.29-.37-.62-.71-1-1-.29-.37-.62-.71-1-1-.29-.37-.62-.71-1-1-.19-.24-.4-.46-.63-.67h1.95c4.7,0,7.95-1.24,9.95-3.78,1.6-2.04,2.52-4.62,2.72-7.64l.42-6.13v-.17c0-2.05-.84-3.82-2.33-4.98Z"/>
      <path class="cls-4" d="M316.29,36.54c-.29-.37-.62-.71-1-1-.29-.37-.62-.71-1-1-.29-.37-.62-.71-1-1-.29-.37-.62-.71-1-1-.29-.37-.62-.71-1-1-.29-.37-.62-.71-1-1-.29-.37-.62-.71-1-1-.29-.37-.62-.71-1-1-.29-.37-.62-.71-1-1-.29-.37-.62-.71-1-1-.29-.37-.62-.71-1-1-.29-.37-.62-.71-1-1-.29-.37-.62-.71-1-1-.29-.37-.62-.71-1-1-.29-.37-.62-.71-1-1-.29-.37-.62-.71-1-1-.29-.37-.62-.71-1-1-.29-.37-.62-.71-1-1-.29-.37-.62-.71-1-1-.29-.37-.62-.71-1-1-.29-.37-.62-.71-1-1-.29-.37-.62-.71-1-1-.29-.37-.62-.71-1-1-.29-.37-.62-.71-1-1-.29-.37-.62-.71-1-1-.29-.37-.62-.71-1-1-.29-.37-.62-.71-1-1-.29-.37-.62-.71-1-1-.29-.37-.62-.71-1-1-.29-.37-.62-.71-1-1-.29-.37-.62-.71-1-1-.29-.37-.62-.71-1-1-.29-.37-.62-.71-1-1-.44-.55-.97-1.04-1.61-1.42-1.11-.66-2.38-1.01-3.68-1.01h-35.55c-3.83,0-6.62,2.74-6.62,6.51,0,.64-.04,2.04-.23,5.01-.06-.05-.11-.11-.17-.17-.06-.07-.11-.15-.17-.22-.26-.28-.54-.53-.83-.78-.06-.07-.11-.15-.17-.22-.26-.28-.54-.53-.83-.78-.06-.07-.11-.15-.17-.22-.26-.28-.54-.53-.83-.78-.06-.07-.11-.15-.17-.22-.26-.28-.54-.53-.83-.78-.06-.07-.11-.15-.17-.22-.26-.28-.54-.53-.83-.78-.06-.07-.11-.15-.17-.22-.26-.28-.54-.53-.83-.78-.06-.07-.11-.15-.17-.22-.26-.28-.54-.53-.83-.78-.06-.07-.11-.15-.17-.22-1.32-1.44-3.06-2.52-5.19-3.24-1.85-.61-4.06-.91-6.78-.91h-15.76c-2.91,0-4.61,1.19-5.51,2.19-.81.89-1.4,1.89-1.76,2.96l-.05.16-3.1,11.97c-.07-.07-.15-.14-.22-.2-.32-.35-.65-.68-1-1-.32-.35-.65-.68-1-1-.32-.35-.65-.68-1-1-.32-.35-.65-.68-1-1-.32-.35-.65-.68-1-1-.32-.35-.65-.68-1-1-.32-.35-.65-.68-1-1-.32-.35-.65-.68-1-1-.32-.35-.65-.68-1-1-.32-.35-.65-.68-1-1-.32-.35-.65-.68-1-1-.32-.35-.65-.68-1-1-1.24-1.36-2.68-2.46-4.31-3.28-2.38-1.19-5.3-1.79-8.7-1.79h-14.14c-1.23,0-2.45.35-3.63,1.04-1.93,1.13-3.08,3.18-3.08,5.48,0,1.2-.02,2.2-.05,2.98-.03.85-.07,1.75-.1,2.69-.03.88-.1,1.89-.19,3-.07.85-.15,1.88-.24,3.08-.18-.18-.35-.35-.53-.52-.32-.34-.66-.68-1-1-.32-.34-.66-.68-1-1-.32-.34-.66-.68-1-1-.32-.34-.66-.68-1-1-.32-.34-.66-.68-1-1-.32-.34-.66-.68-1-1-.32-.34-.66-.68-1-1-.32-.34-.66-.68-1-1-.32-.34-.66-.68-1-1-.32-.34-.66-.68-1-1-2.61-2.78-5.84-4.94-9.64-6.44-4.08-1.6-8.94-2.42-14.46-2.42-7.76,0-14.44,1.39-19.84,4.13-5.4,2.74-9.82,6.42-13.13,10.95-.2.27-.38.55-.57.82-.19-.2-.4-.39-.61-.58-.31-.36-.64-.69-1-1-.31-.36-.64-.69-1-1-.31-.36-.64-.69-1-1-.31-.36-.64-.69-1-1-.31-.36-.64-.69-1-1-.31-.36-.64-.69-1-1-.31-.36-.64-.69-1-1-.31-.36-.64-.69-1-1-.31-.36-.64-.69-1-1-.31-.36-.64-.69-1-1-2.46-2.82-6.35-4.2-11.91-4.2h-5.55c-3.83,0-6.62,2.74-6.62,6.51,0,.48-.02,1.48-.14,3.5-.1,1.67-.23,3.64-.39,5.92-.24-.25-.48-.5-.74-.73-.31-.36-.64-.69-1-1-.31-.36-.64-.69-1-1-.31-.36-.64-.69-1-1-.31-.36-.64-.69-1-1-.31-.36-.64-.69-1-1-.31-.36-.64-.69-1-1-.31-.36-.64-.69-1-1-.31-.36-.64-.69-1-1-.31-.36-.64-.69-1-1-.31-.36-.64-.69-1-1-.31-.36-.64-.69-1-1-2.46-2.82-6.35-4.2-11.91-4.2h-5.56c-3.83,0-6.62,2.74-6.62,6.51,0,.71-.05,2.34-.29,6.04-.2,3.04-.47,6.65-.8,10.72-.34,4.12-.68,8.52-1.01,13.18-.34,4.63-.67,9.03-1.01,13.19-.33,4.1-.61,7.89-.81,11.25-.21,3.4-.31,5.76-.31,7.23,0,5.24,2.2,8.36,4.04,10.05.05.04.1.08.15.12.29.32.57.62.85.88.05.04.1.08.15.12.29.32.57.62.85.88.05.04.1.08.15.12.29.32.57.62.85.88.05.04.1.08.15.12.29.32.57.62.85.88.05.04.1.08.15.12.29.32.57.62.85.88.05.04.1.08.15.12.29.32.57.62.85.88.05.04.1.08.15.12.29.32.57.62.85.88.05.04.1.08.15.12.29.32.57.62.85.88.05.04.1.08.15.12.29.32.57.62.85.88.05.04.1.08.15.12.29.32.57.62.85.88.05.04.1.08.15.12.29.32.57.62.85.88.05.04.1.08.15.12.29.32.57.62.85.88.05.04.1.08.15.12.29.32.57.62.85.88.05.04.1.08.15.12.29.32.57.62.85.88.05.04.1.08.15.12.29.32.57.62.85.88.05.04.1.08.15.12.29.32.57.62.85.88.05.04.1.08.15.12.29.32.57.62.85.88.05.04.1.08.15.12.29.32.57.62.85.88.05.04.1.08.15.12.29.32.57.62.85.88.05.04.1.08.15.12.29.32.57.62.85.88.05.04.1.08.15.12.29.32.57.62.85.88.05.04.1.08.15.12.29.32.57.62.85.88.05.04.1.08.15.12.29.32.57.62.85.88.05.04.1.08.15.12.29.32.57.62.85.88.05.04.1.08.15.12.29.32.57.62.85.88.05.04.1.08.15.12.29.32.57.62.85.88.05.04.1.08.15.12.29.32.57.62.85.88.05.04.1.08.15.12.29.32.57.62.85.88.05.04.1.08.15.12.29.32.57.62.85.88.05.04.1.08.15.12.29.32.57.62.85.88.05.04.1.08.15.12.29.32.57.62.85.88.05.04.1.08.15.12.29.32.57.62.85.88.05.04.1.08.15.12.29.32.57.62.85.88.05.04.1.08.15.12.29.32.57.62.85.88,2.6,2.38,6.34,3.54,11.46,3.54h5.55c2.66,0,4.19-1.14,5-2.1.85-.99,1.38-2.26,1.57-3.79l.02-.13.7-9.57s.04.04.05.05c.05.04.1.08.15.12.29.32.57.62.85.88.05.04.1.08.15.12.29.32.57.62.85.88.05.04.1.08.15.12.29.32.57.62.85.88.05.04.1.08.15.12.29.32.57.62.85.88.05.04.1.08.15.12.29.32.57.62.85.88.05.04.1.08.15.12.29.32.57.62.85.88.05.04.1.08.15.12.29.32.57.62.85.88.05.04.1.08.15.12.29.32.57.62.85.88.05.04.1.08.15.12.29.32.57.62.85.88.05.04.1.08.15.12.29.32.57.62.85.88.05.04.1.08.15.12.29.32.57.62.85.88.05.04.1.08.15.12.29.32.57.62.85.88,2.6,2.38,6.34,3.54,11.46,3.54h5.56c2.66,0,4.19-1.14,5-2.1.83-.97,1.36-2.22,1.56-3.71.07-.45.16-1.29.34-3.74l.5-6.91c.06-.81.12-1.66.18-2.53.24.24.48.48.73.71.32.34.66.67,1,1,.32.34.66.67,1,1,.32.34.66.67,1,1,.32.34.66.67,1,1,.32.34.66.67,1,1,.32.34.66.67,1,1,.32.34.66.67,1,1,.32.34.66.67,1,1,.32.34.66.67,1,1,.32.34.66.67,1,1,2.43,2.57,5.42,4.68,8.93,6.3,4.31,1.98,9.69,2.98,15.97,2.98,5.62,0,10.62-.8,14.88-2.38,4.24-1.58,7.96-3.73,11.06-6.4,2.39-2.06,4.45-4.38,6.18-6.93.01.01.03.03.04.04.1.09.21.17.31.27.22.25.44.5.69.73.1.09.21.17.31.27.22.25.44.5.69.73.1.09.21.17.31.27.22.25.44.5.69.73.1.09.21.17.31.27.22.25.44.5.69.73.1.09.21.17.31.27.22.25.44.5.69.73.1.09.21.17.31.27.22.25.44.5.69.73.1.09.21.17.31.27.22.25.44.5.69.73.1.09.21.17.31.27.22.25.44.5.69.73.1.09.21.17.31.27.22.25.44.5.69.73.1.09.21.17.31.27.22.25.44.5.69.73.1.09.21.17.31.27.22.25.44.5.69.73,2.57,2.46,6.36,3.66,11.59,3.66h5.55c2.57,0,4.81-1.45,5.84-3.8.52-1.2.74-2.73.77-5.35.09.08.17.18.26.26.31.35.64.69,1,1,.31.35.64.69,1,1,.31.35.64.69,1,1,.31.35.64.69,1,1,.33.37.67.72,1.04,1.04,1.21,1.05,2.62,1.9,4.21,2.51,1.45.56,3.01.93,4.63,1.11,1.38.15,2.76.23,4.09.23,2.45,0,4.26-.24,5.69-.75,2.6-.94,3.85-2.55,4.44-3.73l.1-.2.08-.21c.56-1.42,1.16-3.01,1.79-4.7.06.06.13.1.19.16.23.26.46.52.72.76.09.08.19.16.28.24.23.26.46.52.72.76.09.08.19.16.28.24.23.26.46.52.72.76.09.08.19.16.28.24.23.26.46.52.72.76.09.08.19.16.28.24.23.26.46.52.72.76.09.08.19.16.28.24.23.26.46.52.72.76,2.57,2.46,6.36,3.66,11.59,3.66h5.55c2.66,0,4.19-1.14,5-2.1.85-.99,1.38-2.26,1.56-3.72.04-.27.13-.9.44-5.18,0-.07.01-.14.02-.21.23.25.46.47.68.68.05.04.1.08.15.12.29.32.57.62.85.88.05.04.1.08.15.12.29.32.57.62.85.88.05.04.1.08.15.12.29.32.57.62.85.88.05.04.1.08.15.12.29.32.57.62.85.88.05.04.1.08.15.12.29.32.57.62.85.88.05.04.1.08.15.12.29.32.57.62.85.88.05.04.1.08.15.12.29.32.57.62.85.88,2.6,2.38,6.34,3.54,11.46,3.54h23.23c4.7,0,7.95-1.24,9.95-3.78,1.6-2.04,2.52-4.62,2.72-7.64l.42-6.13v-.17c0-1.97-.85-3.73-2.35-4.92-.29-.37-.62-.7-1-1-.29-.37-.62-.7-1-1-.29-.37-.62-.7-1-1-.29-.37-.62-.7-1-1-.29-.37-.62-.7-1-1-.29-.37-.62-.7-1-1-.29-.37-.62-.7-1-1-.29-.37-.62-.7-1-1-.16-.2-.33-.39-.52-.57.71-.49,1.34-1.07,1.87-1.75,1.6-2.04,2.52-4.62,2.72-7.64l.42-6.13v-.17c0-2.05-.84-3.82-2.33-4.98-.29-.37-.62-.71-1-1-.29-.37-.62-.71-1-1-.29-.37-.62-.71-1-1-.29-.37-.62-.71-1-1-.29-.37-.62-.71-1-1-.19-.24-.4-.46-.63-.67h1.95c4.7,0,7.95-1.24,9.95-3.78,1.6-2.04,2.52-4.62,2.72-7.64l.42-6.13v-.17c0-2.05-.84-3.82-2.33-4.98Z"/>
      <path class="cls-5" d="M305.29,25.54c-.29-.37-.62-.71-1-1-.29-.37-.62-.71-1-1-.29-.37-.62-.71-1-1-.29-.37-.62-.71-1-1-.29-.37-.62-.71-1-1-.29-.37-.62-.71-1-1-.29-.37-.62-.71-1-1-.29-.37-.62-.71-1-1-.29-.37-.62-.71-1-1-.29-.37-.62-.71-1-1-.29-.37-.62-.71-1-1-.29-.37-.62-.71-1-1-.29-.37-.62-.71-1-1-.29-.37-.62-.71-1-1-.29-.37-.62-.71-1-1-.29-.37-.62-.71-1-1-.29-.37-.62-.71-1-1-.29-.37-.62-.71-1-1-.29-.37-.62-.71-1-1-.29-.37-.62-.71-1-1-.29-.37-.62-.71-1-1-.29-.37-.62-.71-1-1-.44-.55-.97-1.04-1.61-1.42-1.11-.66-2.38-1.01-3.68-1.01h-35.55c-3.83,0-6.62,2.74-6.62,6.51,0,.64-.04,2.04-.23,5.01-.06-.05-.11-.11-.17-.17-.06-.07-.11-.15-.17-.22-.26-.28-.54-.53-.83-.78-.06-.07-.11-.15-.17-.22-.26-.28-.54-.53-.83-.78-.06-.07-.11-.15-.17-.22-.26-.28-.54-.53-.83-.78-.06-.07-.11-.15-.17-.22-.26-.28-.54-.53-.83-.78-.06-.07-.11-.15-.17-.22-.26-.28-.54-.53-.83-.78-.06-.07-.11-.15-.17-.22-.26-.28-.54-.53-.83-.78-.06-.07-.11-.15-.17-.22-.26-.28-.54-.53-.83-.78-.06-.07-.11-.15-.17-.22-1.32-1.44-3.06-2.52-5.19-3.24-1.85-.61-4.06-.91-6.78-.91h-15.76c-2.91,0-4.61,1.19-5.51,2.19-.81.89-1.4,1.89-1.76,2.96l-.05.16-3.1,11.97c-.07-.07-.15-.14-.22-.2-.32-.35-.65-.68-1-1-.32-.35-.65-.68-1-1-.32-.35-.65-.68-1-1-.32-.35-.65-.68-1-1-.32-.35-.65-.68-1-1-.32-.35-.65-.68-1-1-.32-.35-.65-.68-1-1-.32-.35-.65-.68-1-1-.32-.35-.65-.68-1-1-.32-.35-.65-.68-1-1-.32-.35-.65-.68-1-1-.32-.35-.65-.68-1-1-1.24-1.36-2.68-2.46-4.31-3.28-2.38-1.19-5.3-1.79-8.7-1.79h-14.14c-1.23,0-2.45.35-3.63,1.04-1.93,1.13-3.08,3.18-3.08,5.48,0,1.2-.02,2.2-.05,2.98-.03.85-.07,1.75-.1,2.69-.03.88-.1,1.89-.19,3-.07.85-.15,1.88-.24,3.08-.18-.18-.35-.35-.53-.52-.32-.34-.66-.68-1-1-.32-.34-.66-.68-1-1-.32-.34-.66-.68-1-1-.32-.34-.66-.68-1-1-.32-.34-.66-.68-1-1-.32-.34-.66-.68-1-1-.32-.34-.66-.68-1-1-.32-.34-.66-.68-1-1-.32-.34-.66-.68-1-1-.32-.34-.66-.68-1-1-2.61-2.78-5.84-4.94-9.64-6.44-4.08-1.6-8.94-2.42-14.46-2.42-7.76,0-14.44,1.39-19.84,4.13-5.4,2.74-9.82,6.42-13.13,10.95-.2.27-.38.55-.57.82-.19-.2-.4-.39-.61-.58-.31-.36-.64-.69-1-1-.31-.36-.64-.69-1-1-.31-.36-.64-.69-1-1-.31-.36-.64-.69-1-1-.31-.36-.64-.69-1-1-.31-.36-.64-.69-1-1-.31-.36-.64-.69-1-1-.31-.36-.64-.69-1-1-.31-.36-.64-.69-1-1-.31-.36-.64-.69-1-1-2.46-2.82-6.35-4.2-11.91-4.2h-5.55c-3.83,0-6.62,2.74-6.62,6.51,0,.48-.02,1.48-.14,3.5-.1,1.67-.23,3.64-.39,5.92-.24-.25-.48-.5-.74-.73-.31-.36-.64-.69-1-1-.31-.36-.64-.69-1-1-.31-.36-.64-.69-1-1-.31-.36-.64-.69-1-1-.31-.36-.64-.69-1-1-.31-.36-.64-.69-1-1-.31-.36-.64-.69-1-1-.31-.36-.64-.69-1-1-.31-.36-.64-.69-1-1-.31-.36-.64-.69-1-1-.31-.36-.64-.69-1-1-2.46-2.82-6.35-4.2-11.91-4.2h-5.56c-3.83,0-6.62,2.74-6.62,6.51,0,.71-.05,2.34-.29,6.04-.2,3.04-.47,6.65-.8,10.72-.34,4.12-.68,8.52-1.01,13.18-.34,4.63-.67,9.03-1.01,13.19-.33,4.1-.61,7.89-.81,11.25-.21,3.4-.31,5.76-.31,7.23,0,5.24,2.2,8.36,4.04,10.05.05.04.1.08.15.12.29.32.57.62.85.88.05.04.1.08.15.12.29.32.57.62.85.88.05.04.1.08.15.12.29.32.57.62.85.88.05.04.1.08.15.12.29.32.57.62.85.88.05.04.1.08.15.12.29.32.57.62.85.88.05.04.1.08.15.12.29.32.57.62.85.88.05.04.1.08.15.12.29.32.57.62.85.88.05.04.1.08.15.12.29.32.57.62.85.88.05.04.1.08.15.12.29.32.57.62.85.88.05.04.1.08.15.12.29.32.57.62.85.88.05.04.1.08.15.12.29.32.57.62.85.88.05.04.1.08.15.12.29.32.57.62.85.88.05.04.1.08.15.12.29.32.57.62.85.88.05.04.1.08.15.12.29.32.57.62.85.88.05.04.1.08.15.12.29.32.57.62.85.88.05.04.1.08.15.12.29.32.57.62.85.88.05.04.1.08.15.12.29.32.57.62.85.88.05.04.1.08.15.12.29.32.57.62.85.88.05.04.1.08.15.12.29.32.57.62.85.88.05.04.1.08.15.12.29.32.57.62.85.88.05.04.1.08.15.12.29.32.57.62.85.88.05.04.1.08.15.12.29.32.57.62.85.88.05.04.1.08.15.12.29.32.57.62.85.88,2.6,2.38,6.34,3.54,11.46,3.54h5.55c2.66,0,4.19-1.14,5-2.1.85-.99,1.38-2.26,1.57-3.79l.02-.13.7-9.57s.04.04.05.05c.05.04.1.08.15.12.29.32.57.62.85.88.05.04.1.08.15.12.29.32.57.62.85.88.05.04.1.08.15.12.29.32.57.62.85.88.05.04.1.08.15.12.29.32.57.62.85.88.05.04.1.08.15.12.29.32.57.62.85.88.05.04.1.08.15.12.29.32.57.62.85.88.05.04.1.08.15.12.29.32.57.62.85.88.05.04.1.08.15.12.29.32.57.62.85.88.05.04.1.08.15.12.29.32.57.62.85.88.05.04.1.08.15.12.29.32.57.62.85.88.05.04.1.08.15.12.29.32.57.62.85.88.05.04.1.08.15.12.29.32.57.62.85.88,2.6,2.38,6.34,3.54,11.46,3.54h5.56c2.66,0,4.19-1.14,5-2.1.83-.97,1.36-2.22,1.56-3.71.07-.45.16-1.29.34-3.74l.5-6.91c.06-.81.12-1.66.18-2.53.24.24.48.48.73.71.32.34.66.67,1,1,.32.34.66.67,1,1,.32.34.66.67,1,1,.32.34.66.67,1,1,.32.34.66.67,1,1,.32.34.66.67,1,1,.32.34.66.67,1,1,.32.34.66.67,1,1,.32.34.66.67,1,1,.32.34.66.67,1,1,2.43,2.57,5.42,4.68,8.93,6.3,4.31,1.98,9.69,2.98,15.97,2.98,5.62,0,10.62-.8,14.88-2.38,4.24-1.58,7.96-3.73,11.06-6.4,2.39-2.06,4.45-4.38,6.18-6.93.01.01.03.03.04.04.1.09.21.17.31.27.22.25.44.5.69.73.1.09.21.17.31.27.22.25.44.5.69.73.1.09.21.17.31.27.22.25.44.5.69.73.1.09.21.17.31.27.22.25.44.5.69.73.1.09.21.17.31.27.22.25.44.5.69.73.1.09.21.17.31.27.22.25.44.5.69.73.1.09.21.17.31.27.22.25.44.5.69.73.1.09.21.17.31.27.22.25.44.5.69.73.1.09.21.17.31.27.22.25.44.5.69.73.1.09.21.17.31.27.22.25.44.5.69.73.1.09.21.17.31.27.22.25.44.5.69.73,2.57,2.46,6.36,3.66,11.59,3.66h5.55c2.57,0,4.81-1.45,5.84-3.8.52-1.2.74-2.73.77-5.35.09.08.17.18.26.26.31.35.64.69,1,1,.31.35.64.69,1,1,.31.35.64.69,1,1,.31.35.64.69,1,1,.33.37.67.72,1.04,1.04,1.21,1.05,2.62,1.9,4.21,2.51,1.45.56,3.01.93,4.63,1.11,1.38.15,2.76.23,4.09.23,2.45,0,4.26-.24,5.69-.75,2.6-.94,3.85-2.55,4.44-3.73l.1-.2.08-.21c.56-1.42,1.16-3.01,1.79-4.7.06.06.13.1.19.16.23.26.46.52.72.76.09.08.19.16.28.24.23.26.46.52.72.76.09.08.19.16.28.24.23.26.46.52.72.76.09.08.19.16.28.24.23.26.46.52.72.76.09.08.19.16.28.24.23.26.46.52.72.76.09.08.19.16.28.24.23.26.46.52.72.76,2.57,2.46,6.36,3.66,11.59,3.66h5.55c2.66,0,4.19-1.14,5-2.1.85-.99,1.38-2.26,1.56-3.72.04-.27.13-.9.44-5.18,0-.07.01-.14.02-.21.23.25.46.47.68.68.05.04.1.08.15.12.29.32.57.62.85.88.05.04.1.08.15.12.29.32.57.62.85.88.05.04.1.08.15.12.29.32.57.62.85.88.05.04.1.08.15.12.29.32.57.62.85.88.05.04.1.08.15.12.29.32.57.62.85.88.05.04.1.08.15.12.29.32.57.62.85.88.05.04.1.08.15.12.29.32.57.62.85.88,2.6,2.38,6.34,3.54,11.46,3.54h23.23c4.7,0,7.95-1.24,9.95-3.78,1.6-2.04,2.52-4.62,2.72-7.64l.42-6.13v-.17c0-1.97-.85-3.73-2.35-4.92-.29-.37-.62-.7-1-1-.29-.37-.62-.7-1-1-.29-.37-.62-.7-1-1-.29-.37-.62-.7-1-1-.29-.37-.62-.7-1-1-.29-.37-.62-.7-1-1-.29-.37-.62-.7-1-1-.29-.37-.62-.7-1-1-.16-.2-.33-.39-.52-.57.71-.49,1.34-1.07,1.87-1.75,1.6-2.04,2.52-4.62,2.72-7.64l.42-6.13v-.17c0-2.05-.84-3.82-2.33-4.98-.29-.37-.62-.71-1-1-.29-.37-.62-.71-1-1-.29-.37-.62-.71-1-1-.29-.37-.62-.71-1-1-.29-.37-.62-.71-1-1-.19-.24-.4-.46-.63-.67h1.95c4.7,0,7.95-1.24,9.95-3.78,1.6-2.04,2.52-4.62,2.72-7.64l.42-6.13v-.17c0-2.05-.84-3.82-2.33-4.98Z"/>
      <g>
        <path class="cls-1" d="M110.09,51.08c.96-2.4,1.62-4.92,1.96-7.51.37-2.76.56-5.1.56-6.96,0-.04,0-.07,0-.1-1,.52-1.83,1.17-2.52,1.99-.84,1.01-1.52,2.16-2.03,3.42-.6,1.48-1.08,3.03-1.42,4.6-.35,1.62-.59,3.2-.71,4.67-.12,1.57-.19,2.98-.19,4.21,0,.65.02,1.26.04,1.84.31-.21.57-.43.79-.65,1.47-1.5,2.66-3.35,3.52-5.51Z"/>
        <path class="cls-6" d="M292.29,12.54c-.29-.37-.62-.71-1-1-.29-.37-.62-.71-1-1-.29-.37-.62-.71-1-1-.29-.37-.62-.71-1-1-.29-.37-.62-.71-1-1-.29-.37-.62-.71-1-1-.29-.37-.62-.71-1-1-.29-.37-.62-.71-1-1-.29-.37-.62-.71-1-1-.44-.55-.97-1.04-1.61-1.42-1.11-.66-2.38-1.01-3.68-1.01h-35.55c-3.83,0-6.62,2.74-6.62,6.51,0,.64-.04,2.04-.23,5.01-.06-.05-.11-.11-.17-.17-.06-.07-.11-.15-.17-.22-.26-.28-.54-.53-.83-.78-.06-.07-.11-.15-.17-.22-.26-.28-.54-.53-.83-.78-.06-.07-.11-.15-.17-.22-.26-.28-.54-.53-.83-.78-.06-.07-.11-.15-.17-.22-.26-.28-.54-.53-.83-.78-.06-.07-.11-.15-.17-.22-.26-.28-.54-.53-.83-.78-.06-.07-.11-.15-.17-.22-.26-.28-.54-.53-.83-.78-.06-.07-.11-.15-.17-.22-.26-.28-.54-.53-.83-.78-.06-.07-.11-.15-.17-.22-1.32-1.44-3.06-2.52-5.19-3.24-1.85-.61-4.06-.91-6.78-.91h-15.76c-2.91,0-4.61,1.19-5.51,2.19-.81.89-1.4,1.89-1.76,2.96l-.05.16-3.26,12.58c-.07-.12-.14-.24-.21-.36-.82-1.32-1.77-2.48-2.85-3.46-.32-.35-.65-.68-1-1-.32-.35-.65-.68-1-1-.32-.35-.65-.68-1-1-.32-.35-.65-.68-1-1-.32-.35-.65-.68-1-1-.32-.35-.65-.68-1-1-.32-.35-.65-.68-1-1-.32-.35-.65-.68-1-1-.32-.35-.65-.68-1-1-1.24-1.36-2.68-2.46-4.31-3.28-2.38-1.19-5.3-1.79-8.7-1.79h-14.14c-1.23,0-2.45.35-3.63,1.04-1.93,1.13-3.08,3.18-3.08,5.48,0,1.2-.02,2.2-.05,2.98-.03.85-.07,1.75-.1,2.69-.03.88-.1,1.89-.19,3-.07.86-.15,1.92-.24,3.15-.49-.55-.99-1.08-1.53-1.59-.32-.34-.66-.68-1-1-.32-.34-.66-.68-1-1-.32-.34-.66-.68-1-1-.32-.34-.66-.68-1-1-.32-.34-.66-.68-1-1-.32-.34-.66-.68-1-1-.32-.34-.66-.68-1-1-.32-.34-.66-.68-1-1-.32-.34-.66-.68-1-1-2.61-2.78-5.84-4.94-9.64-6.44-4.08-1.6-8.94-2.42-14.46-2.42-7.76,0-14.44,1.39-19.84,4.13-5.4,2.74-9.82,6.42-13.13,10.95-.22.3-.42.61-.63.91-.1-.13-.18-.27-.28-.39-.38-.47-.81-.89-1.26-1.28-.31-.36-.64-.69-1-1-.31-.36-.64-.69-1-1-.31-.36-.64-.69-1-1-.31-.36-.64-.69-1-1-.31-.36-.64-.69-1-1-.31-.36-.64-.69-1-1-.31-.36-.64-.69-1-1-.31-.36-.64-.69-1-1-.31-.36-.64-.69-1-1-2.46-2.82-6.35-4.2-11.91-4.2h-5.55c-3.83,0-6.62,2.74-6.62,6.51,0,.48-.02,1.48-.14,3.5-.1,1.7-.23,3.72-.4,6.05-.02.21-.03.43-.05.65-.41-.8-.88-1.55-1.43-2.22-.38-.47-.81-.89-1.26-1.28-.31-.36-.64-.69-1-1-.31-.36-.64-.69-1-1-.31-.36-.64-.69-1-1-.31-.36-.64-.69-1-1-.31-.36-.64-.69-1-1-.31-.36-.64-.69-1-1-.31-.36-.64-.69-1-1-.31-.36-.64-.69-1-1-.31-.36-.64-.69-1-1-2.46-2.82-6.35-4.2-11.91-4.2h-5.56c-3.83,0-6.62,2.74-6.62,6.51,0,.71-.05,2.34-.29,6.04-.2,3.04-.47,6.65-.8,10.72-.34,4.12-.68,8.52-1.01,13.18-.34,4.63-.67,9.03-1.01,13.19-.33,4.1-.61,7.89-.81,11.25-.21,3.4-.31,5.76-.31,7.23,0,5.24,2.2,8.36,4.04,10.05.05.04.1.08.15.12.29.32.57.62.85.88.05.04.1.08.15.12.29.32.57.62.85.88.05.04.1.08.15.12.29.32.57.62.85.88.05.04.1.08.15.12.29.32.57.62.85.88.05.04.1.08.15.12.29.32.57.62.85.88.05.04.1.08.15.12.29.32.57.62.85.88.05.04.1.08.15.12.29.32.57.62.85.88.05.04.1.08.15.12.29.32.57.62.85.88.05.04.1.08.15.12.29.32.57.62.85.88.05.04.1.08.15.12.29.32.57.62.85.88,2.6,2.38,6.34,3.54,11.46,3.54h5.55c2.66,0,4.19-1.14,5-2.1.85-.99,1.38-2.26,1.57-3.79l.02-.13.73-9.96c.64,1.02,1.36,1.83,2.03,2.45.05.04.1.08.15.12.29.32.57.62.85.88.05.04.1.08.15.12.29.32.57.62.85.88.05.04.1.08.15.12.29.32.57.62.85.88.05.04.1.08.15.12.29.32.57.62.85.88.05.04.1.08.15.12.29.32.57.62.85.88.05.04.1.08.15.12.29.32.57.62.85.88.05.04.1.08.15.12.29.32.57.62.85.88.05.04.1.08.15.12.29.32.57.62.85.88.05.04.1.08.15.12.29.32.57.62.85.88.05.04.1.08.15.12.29.32.57.62.85.88,2.6,2.38,6.34,3.54,11.46,3.54h5.56c2.66,0,4.19-1.14,5-2.1.83-.97,1.36-2.22,1.56-3.71.07-.45.16-1.29.34-3.74l.5-6.91c.06-.83.12-1.71.19-2.6.54.62,1.12,1.21,1.73,1.78.32.34.66.67,1,1,.32.34.66.67,1,1,.32.34.66.67,1,1,.32.34.66.67,1,1,.32.34.66.67,1,1,.32.34.66.67,1,1,.32.34.66.67,1,1,.32.34.66.67,1,1,.32.34.66.67,1,1,2.43,2.57,5.42,4.68,8.93,6.3,4.31,1.98,9.69,2.98,15.97,2.98,5.62,0,10.62-.8,14.88-2.38,4.24-1.58,7.96-3.73,11.06-6.4,2.41-2.07,4.48-4.42,6.21-6.99.31.38.64.75,1,1.1.1.09.21.17.31.27.22.25.44.5.69.73.1.09.21.17.31.27.22.25.44.5.69.73.1.09.21.17.31.27.22.25.44.5.69.73.1.09.21.17.31.27.22.25.44.5.69.73.1.09.21.17.31.27.22.25.44.5.69.73.1.09.21.17.31.27.22.25.44.5.69.73.1.09.21.17.31.27.22.25.44.5.69.73.1.09.21.17.31.27.22.25.44.5.69.73.1.09.21.17.31.27.22.25.44.5.69.73.1.09.21.17.31.27.22.25.44.5.69.73,2.57,2.46,6.36,3.66,11.59,3.66h5.55c2.57,0,4.81-1.45,5.84-3.8.52-1.2.74-2.73.77-5.35.09.08.17.18.26.26.31.35.64.69,1,1,.31.35.64.69,1,1,.31.35.64.69,1,1,.31.35.64.69,1,1,.33.37.67.72,1.04,1.04,1.21,1.05,2.62,1.9,4.21,2.51,1.45.56,3.01.93,4.63,1.11,1.38.15,2.76.23,4.09.23,2.45,0,4.26-.24,5.69-.75,2.6-.94,3.85-2.55,4.44-3.73l.1-.2.08-.21c.56-1.42,1.16-3.01,1.79-4.7.06.06.13.1.19.16.23.26.46.52.72.76.09.08.19.16.28.24.23.26.46.52.72.76.09.08.19.16.28.24.23.26.46.52.72.76.09.08.19.16.28.24.23.26.46.52.72.76.09.08.19.16.28.24.23.26.46.52.72.76.09.08.19.16.28.24.23.26.46.52.72.76,2.57,2.46,6.36,3.66,11.59,3.66h5.55c2.66,0,4.19-1.14,5-2.1.85-.99,1.38-2.26,1.56-3.72.04-.27.13-.9.44-5.18,0-.07.01-.14.02-.21.23.25.46.47.68.68.05.04.1.08.15.12.29.32.57.62.85.88.05.04.1.08.15.12.29.32.57.62.85.88.05.04.1.08.15.12.29.32.57.62.85.88.05.04.1.08.15.12.29.32.57.62.85.88.05.04.1.08.15.12.29.32.57.62.85.88.05.04.1.08.15.12.29.32.57.62.85.88.05.04.1.08.15.12.29.32.57.62.85.88,2.6,2.38,6.34,3.54,11.46,3.54h23.23c4.7,0,7.95-1.24,9.95-3.78,1.6-2.04,2.52-4.62,2.72-7.64l.42-6.13v-.17c0-1.97-.85-3.73-2.35-4.92-.29-.37-.62-.7-1-1-.29-.37-.62-.7-1-1-.29-.37-.62-.7-1-1-.29-.37-.62-.7-1-1-.29-.37-.62-.7-1-1-.29-.37-.62-.7-1-1-.29-.37-.62-.7-1-1-.29-.37-.62-.7-1-1-.16-.2-.33-.39-.52-.57.71-.49,1.34-1.07,1.87-1.75,1.6-2.04,2.52-4.62,2.72-7.64l.42-6.13v-.17c0-2.05-.84-3.82-2.33-4.98-.29-.37-.62-.71-1-1-.29-.37-.62-.71-1-1-.29-.37-.62-.71-1-1-.29-.37-.62-.71-1-1-.29-.37-.62-.71-1-1-.19-.24-.4-.46-.63-.67h1.95c4.7,0,7.95-1.24,9.95-3.78,1.6-2.04,2.52-4.62,2.72-7.64l.42-6.13v-.17c0-2.05-.84-3.82-2.33-4.98ZM105.75,55.4c0-1.22.06-2.64.19-4.21.11-1.48.35-3.05.71-4.67.34-1.57.82-3.11,1.42-4.6.51-1.26,1.19-2.41,2.03-3.42.69-.82,1.52-1.47,2.52-1.99,0,.04,0,.07,0,.1,0,1.86-.19,4.2-.56,6.96-.35,2.58-1.01,5.11-1.96,7.51-.86,2.16-2.04,4.01-3.52,5.51-.21.22-.47.44-.79.65-.02-.58-.04-1.19-.04-1.84Z"/>
      </g>
      <g>
        <path class="cls-1" d="M106.71,20.66c-2.36,0-4.39.42-6.11,1.26-1.72.84-3.17,1.97-4.34,3.38-1.18,1.41-2.12,3-2.83,4.75-.71,1.75-1.26,3.55-1.67,5.4-.4,1.85-.67,3.64-.81,5.35-.14,1.72-.2,3.25-.2,4.6,0,6.13,1.03,10.6,3.08,13.43,2.05,2.83,4.96,4.24,8.74,4.24,3.1,0,5.62-.99,7.58-2.98,1.95-1.99,3.48-4.38,4.6-7.17,1.11-2.79,1.87-5.69,2.27-8.69s.61-5.54.61-7.63c0-4.91-.84-8.8-2.53-11.67-1.68-2.86-4.48-4.29-8.38-4.29Z"/>
        <path class="cls-2" d="M52.77,6.11h-5.55c-1.08,0-1.62.5-1.62,1.51,0,.81-.05,2.07-.15,3.79s-.24,3.75-.4,6.11c-.17,2.36-.37,4.95-.61,7.78-.24,2.83-.46,5.72-.66,8.69h-18.08c.34-4.58.61-8.5.81-11.77.2-3.26.3-5.17.3-5.71,0-3.43-.71-6.03-2.12-7.78-1.41-1.75-4.18-2.63-8.28-2.63h-5.56c-1.08,0-1.62.5-1.62,1.51,0,1.15-.1,3.27-.3,6.36-.2,3.1-.47,6.7-.81,10.81-.34,4.11-.67,8.48-1.01,13.13-.34,4.65-.67,9.06-1.01,13.23-.34,4.18-.61,7.9-.81,11.16-.2,3.27-.3,5.57-.3,6.92,0,2.76.81,4.88,2.42,6.36,1.62,1.48,4.31,2.22,8.08,2.22h5.55c.61,0,1.01-.12,1.21-.35.2-.24.34-.62.4-1.16l2.02-27.67h17.98c-.34,4.71-.64,8.96-.91,12.73-.27,3.77-.4,6.4-.4,7.88,0,2.76.81,4.88,2.42,6.36,1.62,1.48,4.31,2.22,8.08,2.22h5.56c.61,0,1.01-.12,1.21-.35.2-.24.34-.62.4-1.16.07-.4.17-1.53.3-3.38.13-1.85.3-4.16.5-6.92.2-2.76.42-5.84.66-9.24.24-3.4.47-6.88.71-10.45.24-3.57.47-7.05.71-10.45.24-3.4.45-6.48.66-9.24.2-2.76.35-5.05.46-6.87.1-1.82.15-2.89.15-3.23,0-3.43-.71-6.03-2.12-7.78-1.41-1.75-4.18-2.63-8.28-2.63Z"/>
        <path class="cls-2" d="M130.04,13.13c-2.22-2.66-5.08-4.68-8.58-6.06-3.5-1.38-7.71-2.07-12.62-2.07-7,0-12.86,1.2-17.57,3.59-4.71,2.39-8.5,5.54-11.36,9.44-2.86,3.91-4.9,8.37-6.11,13.38-1.21,5.02-1.82,10.15-1.82,15.4,0,4.44.45,8.62,1.36,12.52.91,3.91,2.46,7.29,4.65,10.15,2.19,2.86,5.12,5.13,8.79,6.82,3.67,1.68,8.3,2.52,13.89,2.52,5.05,0,9.43-.69,13.13-2.07s6.88-3.21,9.54-5.5c2.66-2.29,4.83-4.91,6.51-7.88,1.68-2.96,3.01-6.04,3.99-9.24.98-3.2,1.65-6.38,2.02-9.54.37-3.17.55-6.09.55-8.79,0-4.85-.5-9.17-1.51-12.98-1.01-3.8-2.63-7.04-4.85-9.7ZM117.01,44.24c-.4,3-1.16,5.89-2.27,8.69-1.11,2.79-2.64,5.19-4.6,7.17-1.95,1.99-4.48,2.98-7.58,2.98-3.77,0-6.68-1.41-8.74-4.24-2.05-2.83-3.08-7.3-3.08-13.43,0-1.35.07-2.88.2-4.6.13-1.72.4-3.5.81-5.35.4-1.85.96-3.65,1.67-5.4.71-1.75,1.65-3.33,2.83-4.75,1.18-1.41,2.63-2.54,4.34-3.38,1.72-.84,3.75-1.26,6.11-1.26,3.9,0,6.7,1.43,8.38,4.29,1.68,2.86,2.53,6.75,2.53,11.67,0,2.09-.2,4.63-.61,7.63Z"/>
        <path class="cls-2" d="M224.57,8.64c-.74-.81-1.77-1.43-3.08-1.87-1.31-.44-3.05-.66-5.2-.66h-15.76c-.88,0-1.48.19-1.82.56-.34.37-.57.76-.71,1.16-1.08,4.18-1.97,7.63-2.68,10.35-.71,2.73-1.3,5-1.77,6.82-.47,1.82-.88,3.33-1.21,4.54-.34,1.21-.64,2.34-.91,3.38-.27,1.04-.57,2.17-.91,3.38-.34,1.21-.76,2.74-1.26,4.6-.5,1.85-1.13,4.16-1.87,6.92-.74,2.76-1.65,6.23-2.73,10.4-1.15-6.26-2.07-11.9-2.78-16.92-.71-5.01-1.35-9.44-1.92-13.28-.57-3.84-1.2-7.15-1.87-9.95-.67-2.79-1.55-5.07-2.63-6.82-1.08-1.75-2.46-3.05-4.14-3.89-1.68-.84-3.84-1.26-6.46-1.26h-14.14c-.34,0-.71.12-1.11.35-.4.24-.61.62-.61,1.16,0,1.28-.02,2.34-.05,3.18-.03.84-.07,1.73-.1,2.68-.04.94-.1,2.02-.2,3.23-.1,1.21-.22,2.79-.35,4.75-.14,1.95-.32,4.39-.56,7.32-.24,2.93-.52,6.58-.86,10.96-.27,3.23-.52,6.41-.76,9.54-.24,3.13-.45,6.01-.66,8.63s-.35,4.9-.45,6.82c-.1,1.92-.15,3.28-.15,4.09,0,2.96.79,5.2,2.37,6.72,1.58,1.51,4.29,2.27,8.13,2.27h5.55c.61,0,1.03-.27,1.26-.81.24-.54.35-1.82.35-3.84,0-1.82.03-4.16.1-7.02.07-2.86.13-5.96.2-9.29.07-3.33.15-6.75.25-10.25.1-3.5.18-6.77.25-9.8.07-3.03.13-5.69.2-7.98.07-2.29.1-3.9.1-4.85.88,3.43,1.73,7.26,2.58,11.46.84,4.21,1.7,8.5,2.58,12.88.87,4.38,1.77,8.67,2.68,12.88.91,4.21,1.87,8.03,2.88,11.46.4,1.01.99,1.85,1.77,2.53.77.67,1.68,1.21,2.73,1.62,1.04.4,2.17.67,3.38.81,1.21.14,2.39.2,3.53.2,1.82,0,3.15-.15,3.99-.45.84-.3,1.4-.72,1.67-1.26.87-2.22,1.85-4.83,2.93-7.83,1.08-3,2.17-6.14,3.28-9.44,1.11-3.3,2.2-6.68,3.28-10.15,1.08-3.47,2.12-6.75,3.13-9.85,1.01-3.1,1.93-5.94,2.78-8.53.84-2.59,1.53-4.7,2.07-6.31-.14,2.22-.32,4.8-.55,7.73-.24,2.93-.49,5.94-.76,9.04-.27,3.1-.57,6.21-.91,9.34-.34,3.13-.64,6.01-.91,8.64-.27,2.63-.49,4.92-.66,6.87-.17,1.95-.25,3.3-.25,4.04,0,2.42.79,4.39,2.37,5.91,1.58,1.51,4.29,2.27,8.13,2.27h5.55c.61,0,1.01-.12,1.21-.35.2-.24.34-.62.4-1.16.07-.47.2-2.09.4-4.85.2-2.76.46-6.13.76-10.1.3-3.97.61-8.28.91-12.93.3-4.65.61-9.14.91-13.48.3-4.34.54-8.25.71-11.72.17-3.47.25-5.97.25-7.52s-.14-2.91-.4-4.09c-.27-1.18-.78-2.17-1.52-2.98Z"/>
        <path class="cls-2" d="M271.54,20.25c3.03,0,5.03-.62,6.01-1.87.98-1.25,1.53-2.88,1.67-4.9l.4-5.96c0-.54-.17-.91-.5-1.11-.34-.2-.71-.3-1.11-.3h-35.55c-1.08,0-1.62.5-1.62,1.51,0,1.15-.1,3.27-.3,6.36-.2,3.1-.47,6.7-.81,10.81-.34,4.11-.67,8.48-1.01,13.13-.34,4.65-.67,9.06-1.01,13.23-.34,4.18-.61,7.9-.81,11.16-.2,3.27-.3,5.57-.3,6.92,0,2.76.81,4.88,2.42,6.36,1.62,1.48,4.31,2.22,8.08,2.22h23.23c3.03,0,5.03-.62,6.01-1.87.98-1.25,1.53-2.88,1.67-4.9l.4-5.96c0-.47-.17-.82-.5-1.06-.34-.24-.71-.35-1.11-.35h-22.22l1.11-15.05h8.79c3.03,0,5.03-.62,6.01-1.87.98-1.25,1.53-2.88,1.67-4.9l.4-5.96c0-.54-.17-.91-.51-1.11-.34-.2-.71-.3-1.11-.3h-14.34l1.01-14.24h13.94Z"/>
      </g>
    </g>
  </g>
</svg>