<?xml version="1.0" encoding="UTF-8"?>
<svg id="Layer_2" data-name="Layer 2" xmlns="http://www.w3.org/2000/svg" viewBox="0 0 412.04 163.06">
  <defs>
    <style>
      .cls-1, .cls-2 {
        fill: #f4b734;
      }

      .cls-1, .cls-3 {
        font-family: PoetsenOne-Regular, PoetsenOne;
        font-size: 130.7px;
      }

      .cls-4 {
        fill: none;
      }

      .cls-5 {
        fill: #e75039;
      }

      .cls-6 {
        fill: #b71f43;
      }

      .cls-3 {
        fill: #fff;
      }

      .cls-7 {
        fill: #232b5f;
      }
    </style>
  </defs>
  <g id="Layer_3" data-name="Layer 3">
    <g id="hoverstate">
      <text class="cls-1" transform="translate(0 111.75)"><tspan x="0" y="0">HOME</tspan></text>
      <path class="cls-2" d="M409.6,60.5c-.29-.37-.62-.71-1-1-.29-.37-.62-.71-1-1-.29-.37-.62-.71-1-1-.29-.37-.62-.71-1-1-.29-.37-.62-.71-1-1-.29-.37-.62-.71-1-1-.29-.37-.62-.71-1-1-.29-.37-.62-.71-1-1-.29-.37-.62-.71-1-1-.29-.37-.62-.71-1-1-.29-.37-.62-.71-1-1-.29-.37-.62-.71-1-1-.29-.37-.62-.71-1-1-.29-.37-.62-.71-1-1-.29-.37-.62-.71-1-1-.29-.37-.62-.71-1-1-.29-.37-.62-.71-1-1-.29-.37-.62-.71-1-1-.29-.37-.62-.71-1-1-.29-.37-.62-.71-1-1-.29-.37-.62-.71-1-1-.29-.37-.62-.71-1-1-.29-.37-.62-.71-1-1-.29-.37-.62-.71-1-1-.29-.37-.62-.71-1-1-.29-.37-.62-.71-1-1-.29-.37-.62-.71-1-1-.29-.37-.62-.71-1-1-.29-.37-.62-.71-1-1-.29-.37-.62-.71-1-1-.29-.37-.62-.71-1-1-.29-.37-.62-.71-1-1-.29-.37-.62-.71-1-1-.29-.37-.62-.71-1-1-.29-.37-.62-.71-1-1-.29-.37-.62-.71-1-1-.29-.37-.62-.71-1-1-.29-.37-.62-.71-1-1-.29-.37-.62-.71-1-1-.29-.37-.62-.71-1-1-.29-.37-.62-.71-1-1-.29-.37-.62-.71-1-1-.29-.37-.62-.71-1-1-.29-.37-.62-.71-1-1-.45-.57-1-1.06-1.64-1.45-1.22-.73-2.57-1.1-4-1.1h-46.01c-4.17,0-7.09,2.86-7.09,6.96,0,1.36-.13,4.02-.38,7.91-.04.61-.08,1.23-.13,1.88-.21-.22-.44-.43-.67-.63-.06-.07-.12-.15-.18-.23-.25-.27-.54-.52-.82-.77-.06-.07-.12-.15-.18-.23-.25-.27-.54-.52-.82-.77-.06-.07-.12-.15-.18-.23-.25-.27-.54-.52-.82-.77-.06-.07-.12-.15-.18-.23-.25-.27-.54-.52-.82-.77-.06-.07-.12-.15-.18-.23-.25-.27-.54-.52-.82-.77-.06-.07-.12-.15-.18-.23-.25-.27-.54-.52-.82-.77-.06-.07-.12-.15-.18-.23-.25-.27-.54-.52-.82-.77-.06-.07-.12-.15-.18-.23-.25-.27-.54-.52-.82-.77-.06-.07-.12-.15-.18-.23-.25-.27-.54-.52-.82-.77-.06-.07-.12-.15-.18-.23-.25-.27-.54-.52-.82-.77-.06-.07-.12-.15-.18-.23-.25-.27-.54-.52-.82-.77-.06-.07-.12-.15-.18-.23-1.53-1.67-3.58-2.94-6.09-3.78-2.24-.74-4.95-1.11-8.31-1.11h-20.39c-2.59,0-4.63.79-6.05,2.35-.91,1-1.57,2.1-1.96,3.29l-.05.16s-2.59,10.03-3.5,13.56l-1.13,4.38c-.25-.26-.51-.52-.77-.76-.32-.35-.66-.68-1-1-.32-.35-.66-.68-1-1-.32-.35-.66-.68-1-1-.32-.35-.66-.68-1-1-.32-.35-.66-.68-1-1-.32-.35-.66-.68-1-1-.32-.35-.66-.68-1-1-.32-.35-.66-.68-1-1-.32-.35-.66-.68-1-1-.32-.35-.66-.68-1-1-.32-.35-.66-.68-1-1-.32-.35-.66-.68-1-1-.32-.35-.66-.68-1-1-.32-.35-.66-.68-1-1-.32-.35-.66-.68-1-1-.32-.35-.66-.68-1-1-.32-.35-.66-.68-1-1-1.46-1.58-3.15-2.86-5.06-3.81-2.87-1.43-6.44-2.16-10.6-2.16h-18.3c-1.33,0-2.65.38-3.97,1.15-2.07,1.21-3.25,3.33-3.25,5.81,0,1.57-.02,2.89-.06,3.91-.04,1.1-.09,2.26-.13,3.49-.04,1.18-.13,2.51-.25,3.95-.13,1.59-.29,3.66-.46,6.21-.02.31-.04.64-.07.97-.31-.33-.64-.65-.97-.96-.32-.34-.66-.67-1-1-.32-.34-.66-.67-1-1-.32-.34-.66-.67-1-1-.32-.34-.66-.67-1-1-.32-.34-.66-.67-1-1-.32-.34-.66-.67-1-1-.32-.34-.66-.67-1-1-.32-.34-.66-.67-1-1-.32-.34-.66-.67-1-1-.32-.34-.66-.67-1-1-.32-.34-.66-.67-1-1-.32-.34-.66-.67-1-1-.32-.34-.66-.67-1-1-.32-.34-.66-.67-1-1-.32-.34-.66-.67-1-1-3.22-3.42-7.21-6.09-11.91-7.94-5.1-2.01-11.21-3.03-18.17-3.03-9.81,0-18.22,1.74-25,5.18-6.78,3.44-12.32,8.06-16.47,13.72-.59.81-1.15,1.64-1.7,2.48-.05-.05-.12-.09-.17-.14-.31-.35-.64-.69-1-1-.31-.35-.64-.69-1-1-.31-.35-.64-.69-1-1-.31-.35-.64-.69-1-1-.31-.35-.64-.69-1-1-.31-.35-.64-.69-1-1-.31-.35-.64-.69-1-1-.31-.35-.64-.69-1-1-.31-.35-.64-.69-1-1-.31-.35-.64-.69-1-1-.31-.35-.64-.69-1-1-.31-.35-.64-.69-1-1-.31-.35-.64-.69-1-1-.31-.35-.64-.69-1-1-.31-.35-.64-.69-1-1-2.89-3.23-7.53-4.81-14.19-4.81h-7.19c-4.18,0-7.09,2.86-7.09,6.96,0,.94-.06,2.49-.19,4.61-.13,2.2-.3,4.82-.52,7.84-.07.97-.15,1.99-.22,3.03-.21-.21-.42-.43-.65-.63-.31-.35-.64-.69-1-1-.31-.35-.64-.69-1-1-.31-.35-.64-.69-1-1-.31-.35-.64-.69-1-1-.31-.35-.64-.69-1-1-.31-.35-.64-.69-1-1-.31-.35-.64-.69-1-1-.31-.35-.64-.69-1-1-.31-.35-.64-.69-1-1-.31-.35-.64-.69-1-1-.31-.35-.64-.69-1-1-.31-.35-.64-.69-1-1-.31-.35-.64-.69-1-1-.31-.35-.64-.69-1-1-.31-.35-.64-.69-1-1-.31-.35-.64-.69-1-1-.31-.35-.64-.69-1-1-2.89-3.22-7.53-4.81-14.19-4.81h-7.19c-4.17,0-7.09,2.86-7.09,6.96,0,1.36-.13,4.02-.38,7.91-.25,3.91-.61,8.59-1.04,13.9-.43,5.18-.87,10.91-1.31,17.04-.43,5.98-.87,11.73-1.3,17.08-.43,5.36-.79,10.25-1.05,14.54-.27,4.38-.4,7.4-.4,9.26,0,5.02,1.6,9.03,4.76,11.92.03.03.08.06.11.09.28.31.57.62.89.91.03.03.08.06.11.09.28.31.57.62.89.91.03.03.08.06.11.09.28.31.57.62.89.91.03.03.08.06.11.09.28.31.57.62.89.91.03.03.08.06.11.09.28.31.57.62.89.91.03.03.08.06.11.09.28.31.57.62.89.91.03.03.08.06.11.09.28.31.57.62.89.91.03.03.08.06.11.09.28.31.57.62.89.91.03.03.08.06.11.09.28.31.57.62.89.91.03.03.08.06.11.09.28.31.57.62.89.91.03.03.08.06.11.09.28.31.57.62.89.91.03.03.08.06.11.09.28.31.57.62.89.91.03.03.08.06.11.09.28.31.57.62.89.91.03.03.08.06.11.09.28.31.57.62.89.91.03.03.08.06.11.09.28.31.57.62.89.91.03.03.08.06.11.09.28.31.57.62.89.91.03.03.08.06.11.09.28.31.57.62.89.91.03.03.08.06.11.09.28.31.57.62.89.91.03.03.08.06.11.09.28.31.57.62.89.91.03.03.08.06.11.09.28.31.57.62.89.91.03.03.08.06.11.09.28.31.57.62.89.91.03.03.08.06.11.09.28.31.57.62.89.91.03.03.08.06.11.09.28.31.57.62.89.91.03.03.08.06.11.09.28.31.57.62.89.91.03.03.08.06.11.09.28.31.57.62.89.91.03.03.08.06.11.09.28.31.57.62.89.91.03.03.08.06.11.09.28.31.57.62.89.91.03.03.08.06.11.09.28.31.57.62.89.91.03.03.08.06.11.09.28.31.57.62.89.91.03.03.08.06.11.09.28.31.57.62.89.91.03.03.08.06.11.09.28.31.57.62.89.91.03.03.08.06.11.09.28.31.57.62.89.91.03.03.08.06.11.09.28.31.57.62.89.91.03.03.08.06.11.09.28.31.57.62.89.91.03.03.08.06.11.09.28.31.57.62.89.91.03.03.08.06.11.09.28.31.57.62.89.91.03.03.08.06.11.09.28.31.57.62.89.91.03.03.08.06.11.09.28.31.57.62.89.91.03.03.08.06.11.09.28.31.57.62.89.91.03.03.08.06.11.09.28.31.57.62.89.91.03.03.08.06.11.09.28.31.57.62.89.91.03.03.08.06.11.09.28.31.57.62.89.91.03.03.08.06.11.09.28.31.57.62.89.91.03.03.08.06.11.09.28.31.57.62.89.91.03.03.08.06.11.09.28.31.57.62.89.91,3.08,2.82,7.6,4.19,13.84,4.19h7.19c2.88,0,4.51-1.21,5.36-2.2.92-1.07,1.48-2.43,1.69-4.14l.02-.13,1.14-15.57c.27.29.53.58.82.84.03.03.08.06.11.09.28.31.57.62.89.91.03.03.08.06.11.09.28.31.57.62.89.91.03.03.08.06.11.09.28.31.57.62.89.91.03.03.08.06.11.09.28.31.57.62.89.91.03.03.08.06.11.09.28.31.57.62.89.91.03.03.08.06.11.09.28.31.57.62.89.91.03.03.08.06.11.09.28.31.57.62.89.91.03.03.08.06.11.09.28.31.57.62.89.91.03.03.08.06.11.09.28.31.57.62.89.91.03.03.08.06.11.09.28.31.57.62.89.91.03.03.08.06.11.09.28.31.57.62.89.91.03.03.08.06.11.09.28.31.57.62.89.91.03.03.08.06.11.09.28.31.57.62.89.91.03.03.08.06.11.09.28.31.57.62.89.91.03.03.08.06.11.09.28.31.57.62.89.91.03.03.08.06.11.09.28.31.57.62.89.91.03.03.08.06.11.09.28.31.57.62.89.91,3.08,2.82,7.6,4.19,13.83,4.19h7.19c2.88,0,4.51-1.2,5.36-2.2.91-1.06,1.46-2.38,1.68-4.05.08-.54.2-1.56.43-4.73l.65-8.95c.15-2.02.3-4.19.46-6.48.1.1.2.19.3.28.32.34.66.67,1,1,.32.34.66.67,1,1,.32.34.66.67,1,1,.32.34.66.67,1,1,.32.34.66.67,1,1,.32.34.66.67,1,1,.32.34.66.67,1,1,.32.34.66.67,1,1,.32.34.66.67,1,1,.32.34.66.67,1,1,.32.34.66.67,1,1,.32.34.66.67,1,1,.32.34.66.67,1,1,.32.34.66.67,1,1,.32.34.66.67,1,1,.32.34.66.67,1,1,2.99,3.14,6.67,5.73,11,7.71,5.39,2.47,12.14,3.72,20.06,3.72,7.1,0,13.4-1.01,18.74-2.99,5.32-1.98,9.99-4.68,13.87-8.02,3.46-2.98,6.39-6.41,8.73-10.19.18.19.34.39.53.57.1.1.21.18.32.27.22.25.44.5.68.73.1.1.21.18.32.27.22.25.44.5.68.73.1.1.21.18.32.27.22.25.44.5.68.73.1.1.21.18.32.27.22.25.44.5.68.73.1.1.21.18.32.27.22.25.44.5.68.73.1.1.21.18.32.27.22.25.44.5.68.73.1.1.21.18.32.27.22.25.44.5.68.73.1.1.21.18.32.27.22.25.44.5.68.73.1.1.21.18.32.27.22.25.44.5.68.73.1.1.21.18.32.27.22.25.44.5.68.73.1.1.21.18.32.27.22.25.44.5.68.73.1.1.21.18.32.27.22.25.44.5.68.73.1.1.21.18.32.27.22.25.44.5.68.73.1.1.21.18.32.27.22.25.44.5.68.73.1.1.21.18.32.27.22.25.44.5.68.73,3.04,2.91,7.61,4.33,13.98,4.33h7.19c2.78,0,5.11-1.51,6.21-4.04.53-1.2.88-2.85.88-6.97,0-.87,0-1.83.02-2.89.03.02.05.05.08.07.31.35.65.68,1,1,.31.35.65.68,1,1,.31.35.65.68,1,1,.31.35.65.68,1,1,.31.35.65.68,1,1,.31.35.65.68,1,1,.31.35.65.68,1,1,.31.35.65.68,1,1,.37.42.77.83,1.2,1.2,1.44,1.25,3.12,2.26,5.01,2.98,1.75.68,3.64,1.13,5.63,1.35,1.74.19,3.46.29,5.13.29,3,0,5.18-.28,6.86-.88,2.33-.84,3.99-2.22,4.93-4.1l.1-.2.08-.21c.95-2.41,1.99-5.17,3.09-8.2.09.09.16.18.25.27.09.08.19.15.28.23.24.26.47.52.72.77.09.08.19.15.28.23.24.26.47.52.72.77.09.08.19.15.28.23.24.26.47.52.72.77.09.08.19.15.28.23.24.26.47.52.72.77.09.08.19.15.28.23.24.26.47.52.72.77.09.08.19.15.28.23.24.26.47.52.72.77.09.08.19.15.28.23.24.26.47.52.72.77.09.08.19.15.28.23.24.26.47.52.72.77.09.08.19.15.28.23.24.26.47.52.72.77,3.04,2.91,7.61,4.33,13.98,4.33h7.19c2.88,0,4.51-1.2,5.36-2.2.92-1.07,1.48-2.43,1.68-4.06.07-.52.2-1.73.56-6.61.08-1.08.17-2.25.26-3.48.05.05.1.11.16.16.03.03.08.06.11.09.28.31.57.62.89.91.03.03.08.06.11.09.28.31.57.62.89.91.03.03.08.06.11.09.28.31.57.62.89.91.03.03.08.06.11.09.28.31.57.62.89.91.03.03.08.06.11.09.28.31.57.62.89.91.03.03.08.06.11.09.28.31.57.62.89.91.03.03.08.06.11.09.28.31.57.62.89.91.03.03.08.06.11.09.28.31.57.62.89.91.03.03.08.06.11.09.28.31.57.62.89.91.03.03.08.06.11.09.28.31.57.62.89.91.03.03.08.06.11.09.28.31.57.62.89.91.03.03.08.06.11.09.28.31.57.62.89.91,3.08,2.82,7.6,4.19,13.84,4.19h30.06c5.6,0,9.43-1.42,11.71-4.34,1.89-2.41,2.96-5.46,3.21-9.08l.53-7.88v-.17c0-2.08-.89-3.94-2.45-5.2-.29-.37-.63-.7-1-1-.29-.37-.63-.7-1-1-.29-.37-.63-.7-1-1-.29-.37-.63-.7-1-1-.29-.37-.63-.7-1-1-.29-.37-.63-.7-1-1-.29-.37-.63-.7-1-1-.29-.37-.63-.7-1-1-.29-.37-.63-.7-1-1-.29-.37-.63-.7-1-1-.29-.37-.63-.7-1-1-.29-.37-.63-.7-1-1-.17-.21-.35-.41-.54-.6,1.49-.7,2.72-1.64,3.67-2.84,1.89-2.41,2.96-5.46,3.21-9.08l.54-7.88v-.17c0-2.18-.88-4.06-2.44-5.28-.29-.37-.62-.71-1-1-.29-.37-.62-.71-1-1-.29-.37-.62-.71-1-1-.29-.37-.62-.71-1-1-.29-.37-.62-.71-1-1-.29-.37-.62-.71-1-1-.29-.37-.62-.71-1-1-.29-.37-.62-.71-1-1-.29-.37-.62-.71-1-1-.29-.36-.61-.69-.97-.98h6.1c5.6,0,9.43-1.42,11.71-4.34,1.89-2.41,2.96-5.46,3.21-9.08l.53-7.88v-.17c0-2.18-.88-4.06-2.44-5.28Z"/>
      <path class="cls-5" d="M398.6,49.5c-.29-.37-.62-.71-1-1-.29-.37-.62-.71-1-1-.29-.37-.62-.71-1-1-.29-.37-.62-.71-1-1-.29-.37-.62-.71-1-1-.29-.37-.62-.71-1-1-.29-.37-.62-.71-1-1-.29-.37-.62-.71-1-1-.29-.37-.62-.71-1-1-.29-.37-.62-.71-1-1-.29-.37-.62-.71-1-1-.29-.37-.62-.71-1-1-.29-.37-.62-.71-1-1-.29-.37-.62-.71-1-1-.29-.37-.62-.71-1-1-.29-.37-.62-.71-1-1-.29-.37-.62-.71-1-1-.29-.37-.62-.71-1-1-.29-.37-.62-.71-1-1-.29-.37-.62-.71-1-1-.29-.37-.62-.71-1-1-.29-.37-.62-.71-1-1-.29-.37-.62-.71-1-1-.29-.37-.62-.71-1-1-.29-.37-.62-.71-1-1-.29-.37-.62-.71-1-1-.29-.37-.62-.71-1-1-.29-.37-.62-.71-1-1-.29-.37-.62-.71-1-1-.29-.37-.62-.71-1-1-.29-.37-.62-.71-1-1-.29-.37-.62-.71-1-1-.29-.37-.62-.71-1-1-.45-.57-1-1.06-1.64-1.45-1.22-.73-2.57-1.1-4-1.1h-46.01c-4.17,0-7.09,2.86-7.09,6.96,0,1.36-.13,4.02-.38,7.91-.04.61-.08,1.23-.13,1.88-.21-.22-.44-.43-.67-.63-.06-.07-.12-.15-.18-.23-.25-.27-.54-.52-.82-.77-.06-.07-.12-.15-.18-.23-.25-.27-.54-.52-.82-.77-.06-.07-.12-.15-.18-.23-.25-.27-.54-.52-.82-.77-.06-.07-.12-.15-.18-.23-.25-.27-.54-.52-.82-.77-.06-.07-.12-.15-.18-.23-.25-.27-.54-.52-.82-.77-.06-.07-.12-.15-.18-.23-.25-.27-.54-.52-.82-.77-.06-.07-.12-.15-.18-.23-.25-.27-.54-.52-.82-.77-.06-.07-.12-.15-.18-.23-.25-.27-.54-.52-.82-.77-.06-.07-.12-.15-.18-.23-.25-.27-.54-.52-.82-.77-.06-.07-.12-.15-.18-.23-.25-.27-.54-.52-.82-.77-.06-.07-.12-.15-.18-.23-.25-.27-.54-.52-.82-.77-.06-.07-.12-.15-.18-.23-1.53-1.67-3.58-2.94-6.09-3.78-2.24-.74-4.95-1.11-8.31-1.11h-20.39c-2.59,0-4.63.79-6.05,2.35-.91,1-1.57,2.1-1.96,3.29l-.05.16s-2.59,10.03-3.5,13.56l-1.13,4.38c-.25-.26-.51-.52-.77-.76-.32-.35-.66-.68-1-1-.32-.35-.66-.68-1-1-.32-.35-.66-.68-1-1-.32-.35-.66-.68-1-1-.32-.35-.66-.68-1-1-.32-.35-.66-.68-1-1-.32-.35-.66-.68-1-1-.32-.35-.66-.68-1-1-.32-.35-.66-.68-1-1-.32-.35-.66-.68-1-1-.32-.35-.66-.68-1-1-.32-.35-.66-.68-1-1-.32-.35-.66-.68-1-1-.32-.35-.66-.68-1-1-.32-.35-.66-.68-1-1-.32-.35-.66-.68-1-1-.32-.35-.66-.68-1-1-1.46-1.58-3.15-2.86-5.06-3.81-2.87-1.43-6.44-2.16-10.6-2.16h-18.3c-1.33,0-2.65.38-3.97,1.15-2.07,1.21-3.25,3.33-3.25,5.81,0,1.57-.02,2.89-.06,3.91-.04,1.1-.09,2.26-.13,3.49-.04,1.18-.13,2.51-.25,3.95-.13,1.59-.29,3.66-.46,6.21-.02.31-.04.64-.07.97-.31-.33-.64-.65-.97-.96-.32-.34-.66-.67-1-1-.32-.34-.66-.67-1-1-.32-.34-.66-.67-1-1-.32-.34-.66-.67-1-1-.32-.34-.66-.67-1-1-.32-.34-.66-.67-1-1-.32-.34-.66-.67-1-1-.32-.34-.66-.67-1-1-.32-.34-.66-.67-1-1-.32-.34-.66-.67-1-1-.32-.34-.66-.67-1-1-.32-.34-.66-.67-1-1-.32-.34-.66-.67-1-1-.32-.34-.66-.67-1-1-.32-.34-.66-.67-1-1-3.22-3.42-7.21-6.09-11.91-7.94-5.1-2.01-11.21-3.03-18.17-3.03-9.81,0-18.22,1.74-25,5.18-6.78,3.44-12.32,8.06-16.47,13.72-.59.81-1.15,1.64-1.7,2.48-.05-.05-.12-.09-.17-.14-.31-.35-.64-.69-1-1-.31-.35-.64-.69-1-1-.31-.35-.64-.69-1-1-.31-.35-.64-.69-1-1-.31-.35-.64-.69-1-1-.31-.35-.64-.69-1-1-.31-.35-.64-.69-1-1-.31-.35-.64-.69-1-1-.31-.35-.64-.69-1-1-.31-.35-.64-.69-1-1-.31-.35-.64-.69-1-1-.31-.35-.64-.69-1-1-.31-.35-.64-.69-1-1-.31-.35-.64-.69-1-1-.31-.35-.64-.69-1-1-2.89-3.23-7.53-4.81-14.19-4.81h-7.19c-4.18,0-7.09,2.86-7.09,6.96,0,.94-.06,2.49-.19,4.61-.13,2.2-.3,4.82-.52,7.84-.07.97-.15,1.99-.22,3.03-.21-.21-.42-.43-.65-.63-.31-.35-.64-.69-1-1-.31-.35-.64-.69-1-1-.31-.35-.64-.69-1-1-.31-.35-.64-.69-1-1-.31-.35-.64-.69-1-1-.31-.35-.64-.69-1-1-.31-.35-.64-.69-1-1-.31-.35-.64-.69-1-1-.31-.35-.64-.69-1-1-.31-.35-.64-.69-1-1-.31-.35-.64-.69-1-1-.31-.35-.64-.69-1-1-.31-.35-.64-.69-1-1-.31-.35-.64-.69-1-1-.31-.35-.64-.69-1-1-.31-.35-.64-.69-1-1-.31-.35-.64-.69-1-1-2.89-3.22-7.53-4.81-14.19-4.81h-7.19c-4.17,0-7.09,2.86-7.09,6.96,0,1.36-.13,4.02-.38,7.91-.25,3.91-.61,8.59-1.04,13.9-.43,5.18-.87,10.91-1.31,17.04-.43,5.98-.87,11.73-1.3,17.08-.43,5.36-.79,10.25-1.05,14.54-.27,4.38-.4,7.4-.4,9.26,0,5.02,1.6,9.03,4.76,11.92.03.03.08.06.11.09.28.31.57.62.89.91.03.03.08.06.11.09.28.31.57.62.89.91.03.03.08.06.11.09.28.31.57.62.89.91.03.03.08.06.11.09.28.31.57.62.89.91.03.03.08.06.11.09.28.31.57.62.89.91.03.03.08.06.11.09.28.31.57.62.89.91.03.03.08.06.11.09.28.31.57.62.89.91.03.03.08.06.11.09.28.31.57.62.89.91.03.03.08.06.11.09.28.31.57.62.89.91.03.03.08.06.11.09.28.31.57.62.89.91.03.03.08.06.11.09.28.31.57.62.89.91.03.03.08.06.11.09.28.31.57.62.89.91.03.03.08.06.11.09.28.31.57.62.89.91.03.03.08.06.11.09.28.31.57.62.89.91.03.03.08.06.11.09.28.31.57.62.89.91.03.03.08.06.11.09.28.31.57.62.89.91.03.03.08.06.11.09.28.31.57.62.89.91.03.03.08.06.11.09.28.31.57.62.89.91.03.03.08.06.11.09.28.31.57.62.89.91.03.03.08.06.11.09.28.31.57.62.89.91.03.03.08.06.11.09.28.31.57.62.89.91.03.03.08.06.11.09.28.31.57.62.89.91.03.03.08.06.11.09.28.31.57.62.89.91.03.03.08.06.11.09.28.31.57.62.89.91.03.03.08.06.11.09.28.31.57.62.89.91.03.03.08.06.11.09.28.31.57.62.89.91.03.03.08.06.11.09.28.31.57.62.89.91.03.03.08.06.11.09.28.31.57.62.89.91.03.03.08.06.11.09.28.31.57.62.89.91.03.03.08.06.11.09.28.31.57.62.89.91.03.03.08.06.11.09.28.31.57.62.89.91.03.03.08.06.11.09.28.31.57.62.89.91.03.03.08.06.11.09.28.31.57.62.89.91.03.03.08.06.11.09.28.31.57.62.89.91,3.08,2.82,7.6,4.19,13.84,4.19h7.19c2.88,0,4.51-1.21,5.36-2.2.92-1.07,1.48-2.43,1.69-4.14l.02-.13,1.14-15.57c.27.29.53.58.82.84.03.03.08.06.11.09.28.31.57.62.89.91.03.03.08.06.11.09.28.31.57.62.89.91.03.03.08.06.11.09.28.31.57.62.89.91.03.03.08.06.11.09.28.31.57.62.89.91.03.03.08.06.11.09.28.31.57.62.89.91.03.03.08.06.11.09.28.31.57.62.89.91.03.03.08.06.11.09.28.31.57.62.89.91.03.03.08.06.11.09.28.31.57.62.89.91.03.03.08.06.11.09.28.31.57.62.89.91.03.03.08.06.11.09.28.31.57.62.89.91.03.03.08.06.11.09.28.31.57.62.89.91.03.03.08.06.11.09.28.31.57.62.89.91.03.03.08.06.11.09.28.31.57.62.89.91.03.03.08.06.11.09.28.31.57.62.89.91.03.03.08.06.11.09.28.31.57.62.89.91.03.03.08.06.11.09.28.31.57.62.89.91.03.03.08.06.11.09.28.31.57.62.89.91,3.08,2.82,7.6,4.19,13.83,4.19h7.19c2.88,0,4.51-1.2,5.36-2.2.91-1.06,1.46-2.38,1.68-4.05.08-.54.2-1.56.43-4.73l.65-8.95c.15-2.02.3-4.19.46-6.48.1.1.2.19.3.28.32.34.66.67,1,1,.32.34.66.67,1,1,.32.34.66.67,1,1,.32.34.66.67,1,1,.32.34.66.67,1,1,.32.34.66.67,1,1,.32.34.66.67,1,1,.32.34.66.67,1,1,.32.34.66.67,1,1,.32.34.66.67,1,1,.32.34.66.67,1,1,.32.34.66.67,1,1,.32.34.66.67,1,1,.32.34.66.67,1,1,.32.34.66.67,1,1,.32.34.66.67,1,1,2.99,3.14,6.67,5.73,11,7.71,5.39,2.47,12.14,3.72,20.06,3.72,7.1,0,13.4-1.01,18.74-2.99,5.32-1.98,9.99-4.68,13.87-8.02,3.46-2.98,6.39-6.41,8.73-10.19.18.19.34.39.53.57.1.1.21.18.32.27.22.25.44.5.68.73.1.1.21.18.32.27.22.25.44.5.68.73.1.1.21.18.32.27.22.25.44.5.68.73.1.1.21.18.32.27.22.25.44.5.68.73.1.1.21.18.32.27.22.25.44.5.68.73.1.1.21.18.32.27.22.25.44.5.68.73.1.1.21.18.32.27.22.25.44.5.68.73.1.1.21.18.32.27.22.25.44.5.68.73.1.1.21.18.32.27.22.25.44.5.68.73.1.1.21.18.32.27.22.25.44.5.68.73.1.1.21.18.32.27.22.25.44.5.68.73.1.1.21.18.32.27.22.25.44.5.68.73.1.1.21.18.32.27.22.25.44.5.68.73.1.1.21.18.32.27.22.25.44.5.68.73.1.1.21.18.32.27.22.25.44.5.68.73,3.04,2.91,7.61,4.33,13.98,4.33h7.19c2.78,0,5.11-1.51,6.21-4.04.53-1.2.88-2.85.88-6.97,0-.87,0-1.83.02-2.89.03.02.05.05.08.07.31.35.65.68,1,1,.31.35.65.68,1,1,.31.35.65.68,1,1,.31.35.65.68,1,1,.31.35.65.68,1,1,.31.35.65.68,1,1,.31.35.65.68,1,1,.31.35.65.68,1,1,.37.42.77.83,1.2,1.2,1.44,1.25,3.12,2.26,5.01,2.98,1.75.68,3.64,1.13,5.63,1.35,1.74.19,3.46.29,5.13.29,3,0,5.18-.28,6.86-.88,2.33-.84,3.99-2.22,4.93-4.1l.1-.2.08-.21c.95-2.41,1.99-5.17,3.09-8.2.09.09.16.18.25.27.09.08.19.15.28.23.24.26.47.52.72.77.09.08.19.15.28.23.24.26.47.52.72.77.09.08.19.15.28.23.24.26.47.52.72.77.09.08.19.15.28.23.24.26.47.52.72.77.09.08.19.15.28.23.24.26.47.52.72.77.09.08.19.15.28.23.24.26.47.52.72.77.09.08.19.15.28.23.24.26.47.52.72.77.09.08.19.15.28.23.24.26.47.52.72.77.09.08.19.15.28.23.24.26.47.52.72.77,3.04,2.91,7.61,4.33,13.98,4.33h7.19c2.88,0,4.51-1.2,5.36-2.2.92-1.07,1.48-2.43,1.68-4.06.07-.52.2-1.73.56-6.61.08-1.08.17-2.25.26-3.48.05.05.1.11.16.16.03.03.08.06.11.09.28.31.57.62.89.91.03.03.08.06.11.09.28.31.57.62.89.91.03.03.08.06.11.09.28.31.57.62.89.91.03.03.08.06.11.09.28.31.57.62.89.91.03.03.08.06.11.09.28.31.57.62.89.91.03.03.08.06.11.09.28.31.57.62.89.91.03.03.08.06.11.09.28.31.57.62.89.91.03.03.08.06.11.09.28.31.57.62.89.91.03.03.08.06.11.09.28.31.57.62.89.91.03.03.08.06.11.09.28.31.57.62.89.91.03.03.08.06.11.09.28.31.57.62.89.91.03.03.08.06.11.09.28.31.57.62.89.91,3.08,2.82,7.6,4.19,13.84,4.19h30.06c5.6,0,9.43-1.42,11.71-4.34,1.89-2.41,2.96-5.46,3.21-9.08l.53-7.88v-.17c0-2.08-.89-3.94-2.45-5.2-.29-.37-.63-.7-1-1-.29-.37-.63-.7-1-1-.29-.37-.63-.7-1-1-.29-.37-.63-.7-1-1-.29-.37-.63-.7-1-1-.29-.37-.63-.7-1-1-.29-.37-.63-.7-1-1-.29-.37-.63-.7-1-1-.29-.37-.63-.7-1-1-.29-.37-.63-.7-1-1-.29-.37-.63-.7-1-1-.29-.37-.63-.7-1-1-.17-.21-.35-.41-.54-.6,1.49-.7,2.72-1.64,3.67-2.84,1.89-2.41,2.96-5.46,3.21-9.08l.54-7.88v-.17c0-2.18-.88-4.06-2.44-5.28-.29-.37-.62-.71-1-1-.29-.37-.62-.71-1-1-.29-.37-.62-.71-1-1-.29-.37-.62-.71-1-1-.29-.37-.62-.71-1-1-.29-.37-.62-.71-1-1-.29-.37-.62-.71-1-1-.29-.37-.62-.71-1-1-.29-.37-.62-.71-1-1-.29-.36-.61-.69-.97-.98h6.1c5.6,0,9.43-1.42,11.71-4.34,1.89-2.41,2.96-5.46,3.21-9.08l.53-7.88v-.17c0-2.18-.88-4.06-2.44-5.28Z"/>
      <path class="cls-6" d="M387.6,38.5c-.29-.37-.62-.71-1-1-.29-.37-.62-.71-1-1-.29-.37-.62-.71-1-1-.29-.37-.62-.71-1-1-.29-.37-.62-.71-1-1-.29-.37-.62-.71-1-1-.29-.37-.62-.71-1-1-.29-.37-.62-.71-1-1-.29-.37-.62-.71-1-1-.29-.37-.62-.71-1-1-.29-.37-.62-.71-1-1-.29-.37-.62-.71-1-1-.29-.37-.62-.71-1-1-.29-.37-.62-.71-1-1-.29-.37-.62-.71-1-1-.29-.37-.62-.71-1-1-.29-.37-.62-.71-1-1-.29-.37-.62-.71-1-1-.29-.37-.62-.71-1-1-.29-.37-.62-.71-1-1-.29-.37-.62-.71-1-1-.29-.37-.62-.71-1-1-.45-.57-1-1.06-1.64-1.45-1.22-.73-2.57-1.1-4-1.1h-46.01c-4.17,0-7.09,2.86-7.09,6.96,0,1.36-.13,4.02-.38,7.91-.04.61-.08,1.23-.13,1.88-.21-.22-.44-.43-.67-.63-.06-.07-.12-.15-.18-.23-.25-.27-.54-.52-.82-.77-.06-.07-.12-.15-.18-.23-.25-.27-.54-.52-.82-.77-.06-.07-.12-.15-.18-.23-.25-.27-.54-.52-.82-.77-.06-.07-.12-.15-.18-.23-.25-.27-.54-.52-.82-.77-.06-.07-.12-.15-.18-.23-.25-.27-.54-.52-.82-.77-.06-.07-.12-.15-.18-.23-.25-.27-.54-.52-.82-.77-.06-.07-.12-.15-.18-.23-.25-.27-.54-.52-.82-.77-.06-.07-.12-.15-.18-.23-.25-.27-.54-.52-.82-.77-.06-.07-.12-.15-.18-.23-.25-.27-.54-.52-.82-.77-.06-.07-.12-.15-.18-.23-.25-.27-.54-.52-.82-.77-.06-.07-.12-.15-.18-.23-.25-.27-.54-.52-.82-.77-.06-.07-.12-.15-.18-.23-1.53-1.67-3.58-2.94-6.09-3.78-2.24-.74-4.95-1.11-8.31-1.11h-20.39c-2.59,0-4.63.79-6.05,2.35-.91,1-1.57,2.1-1.96,3.29l-.05.16s-2.59,10.03-3.5,13.56l-1.13,4.38c-.25-.26-.51-.52-.77-.76-.32-.35-.66-.68-1-1-.32-.35-.66-.68-1-1-.32-.35-.66-.68-1-1-.32-.35-.66-.68-1-1-.32-.35-.66-.68-1-1-.32-.35-.66-.68-1-1-.32-.35-.66-.68-1-1-.32-.35-.66-.68-1-1-.32-.35-.66-.68-1-1-.32-.35-.66-.68-1-1-.32-.35-.66-.68-1-1-.32-.35-.66-.68-1-1-.32-.35-.66-.68-1-1-.32-.35-.66-.68-1-1-.32-.35-.66-.68-1-1-.32-.35-.66-.68-1-1-.32-.35-.66-.68-1-1-1.46-1.58-3.15-2.86-5.06-3.81-2.87-1.43-6.44-2.16-10.6-2.16h-18.3c-1.33,0-2.65.38-3.97,1.15-2.07,1.21-3.25,3.33-3.25,5.81,0,1.57-.02,2.89-.06,3.91-.04,1.1-.09,2.26-.13,3.49-.04,1.18-.13,2.51-.25,3.95-.13,1.59-.29,3.66-.46,6.21-.02.31-.04.64-.07.97-.31-.33-.64-.65-.97-.96-.32-.34-.66-.67-1-1-.32-.34-.66-.67-1-1-.32-.34-.66-.67-1-1-.32-.34-.66-.67-1-1-.32-.34-.66-.67-1-1-.32-.34-.66-.67-1-1-.32-.34-.66-.67-1-1-.32-.34-.66-.67-1-1-.32-.34-.66-.67-1-1-.32-.34-.66-.67-1-1-.32-.34-.66-.67-1-1-.32-.34-.66-.67-1-1-.32-.34-.66-.67-1-1-.32-.34-.66-.67-1-1-.32-.34-.66-.67-1-1-3.22-3.42-7.21-6.09-11.91-7.94-5.1-2.01-11.21-3.03-18.17-3.03-9.81,0-18.22,1.74-25,5.18-6.78,3.44-12.32,8.06-16.47,13.72-.59.81-1.15,1.64-1.7,2.48-.05-.05-.12-.09-.17-.14-.31-.35-.64-.69-1-1-.31-.35-.64-.69-1-1-.31-.35-.64-.69-1-1-.31-.35-.64-.69-1-1-.31-.35-.64-.69-1-1-.31-.35-.64-.69-1-1-.31-.35-.64-.69-1-1-.31-.35-.64-.69-1-1-.31-.35-.64-.69-1-1-.31-.35-.64-.69-1-1-.31-.35-.64-.69-1-1-.31-.35-.64-.69-1-1-.31-.35-.64-.69-1-1-.31-.35-.64-.69-1-1-.31-.35-.64-.69-1-1-2.89-3.23-7.53-4.81-14.19-4.81h-7.19c-4.18,0-7.09,2.86-7.09,6.96,0,.94-.06,2.49-.19,4.61-.13,2.2-.3,4.82-.52,7.84-.07.97-.15,1.99-.22,3.03-.21-.21-.42-.43-.65-.63-.31-.35-.64-.69-1-1-.31-.35-.64-.69-1-1-.31-.35-.64-.69-1-1-.31-.35-.64-.69-1-1-.31-.35-.64-.69-1-1-.31-.35-.64-.69-1-1-.31-.35-.64-.69-1-1-.31-.35-.64-.69-1-1-.31-.35-.64-.69-1-1-.31-.35-.64-.69-1-1-.31-.35-.64-.69-1-1-.31-.35-.64-.69-1-1-.31-.35-.64-.69-1-1-.31-.35-.64-.69-1-1-.31-.35-.64-.69-1-1-.31-.35-.64-.69-1-1-.31-.35-.64-.69-1-1-2.89-3.22-7.53-4.81-14.19-4.81h-7.19c-4.17,0-7.09,2.86-7.09,6.96,0,1.36-.13,4.02-.38,7.91-.25,3.91-.61,8.59-1.04,13.9-.43,5.18-.87,10.91-1.31,17.04-.43,5.98-.87,11.73-1.3,17.08-.43,5.36-.79,10.25-1.05,14.54-.27,4.38-.4,7.4-.4,9.26,0,5.02,1.6,9.03,4.76,11.92.03.03.08.06.11.09.28.31.57.62.89.91.03.03.08.06.11.09.28.31.57.62.89.91.03.03.08.06.11.09.28.31.57.62.89.91.03.03.08.06.11.09.28.31.57.62.89.91.03.03.08.06.11.09.28.31.57.62.89.91.03.03.08.06.11.09.28.31.57.62.89.91.03.03.08.06.11.09.28.31.57.62.89.91.03.03.08.06.11.09.28.31.57.62.89.91.03.03.08.06.11.09.28.31.57.62.89.91.03.03.08.06.11.09.28.31.57.62.89.91.03.03.08.06.11.09.28.31.57.62.89.91.03.03.08.06.11.09.28.31.57.62.89.91.03.03.08.06.11.09.28.31.57.62.89.91.03.03.08.06.11.09.28.31.57.62.89.91.03.03.08.06.11.09.28.31.57.62.89.91.03.03.08.06.11.09.28.31.57.62.89.91.03.03.08.06.11.09.28.31.57.62.89.91.03.03.08.06.11.09.28.31.57.62.89.91.03.03.08.06.11.09.28.31.57.62.89.91.03.03.08.06.11.09.28.31.57.62.89.91.03.03.08.06.11.09.28.31.57.62.89.91.03.03.08.06.11.09.28.31.57.62.89.91.03.03.08.06.11.09.28.31.57.62.89.91,3.08,2.82,7.6,4.19,13.84,4.19h7.19c2.88,0,4.51-1.21,5.36-2.2.92-1.07,1.48-2.43,1.69-4.14l.02-.13,1.14-15.57c.27.29.53.58.82.84.03.03.08.06.11.09.28.31.57.62.89.91.03.03.08.06.11.09.28.31.57.62.89.91.03.03.08.06.11.09.28.31.57.62.89.91.03.03.08.06.11.09.28.31.57.62.89.91.03.03.08.06.11.09.28.31.57.62.89.91.03.03.08.06.11.09.28.31.57.62.89.91.03.03.08.06.11.09.28.31.57.62.89.91.03.03.08.06.11.09.28.31.57.62.89.91.03.03.08.06.11.09.28.31.57.62.89.91.03.03.08.06.11.09.28.31.57.62.89.91.03.03.08.06.11.09.28.31.57.62.89.91.03.03.08.06.11.09.28.31.57.62.89.91.03.03.08.06.11.09.28.31.57.62.89.91.03.03.08.06.11.09.28.31.57.62.89.91.03.03.08.06.11.09.28.31.57.62.89.91.03.03.08.06.11.09.28.31.57.62.89.91.03.03.08.06.11.09.28.31.57.62.89.91,3.08,2.82,7.6,4.19,13.83,4.19h7.19c2.88,0,4.51-1.2,5.36-2.2.91-1.06,1.46-2.38,1.68-4.05.08-.54.2-1.56.43-4.73l.65-8.95c.15-2.02.3-4.19.46-6.48.1.1.2.19.3.28.32.34.66.67,1,1,.32.34.66.67,1,1,.32.34.66.67,1,1,.32.34.66.67,1,1,.32.34.66.67,1,1,.32.34.66.67,1,1,.32.34.66.67,1,1,.32.34.66.67,1,1,.32.34.66.67,1,1,.32.34.66.67,1,1,.32.34.66.67,1,1,.32.34.66.67,1,1,.32.34.66.67,1,1,.32.34.66.67,1,1,.32.34.66.67,1,1,.32.34.66.67,1,1,2.99,3.14,6.67,5.73,11,7.71,5.39,2.47,12.14,3.72,20.06,3.72,7.1,0,13.4-1.01,18.74-2.99,5.32-1.98,9.99-4.68,13.87-8.02,3.46-2.98,6.39-6.41,8.73-10.19.18.19.34.39.53.57.1.1.21.18.32.27.22.25.44.5.68.73.1.1.21.18.32.27.22.25.44.5.68.73.1.1.21.18.32.27.22.25.44.5.68.73.1.1.21.18.32.27.22.25.44.5.68.73.1.1.21.18.32.27.22.25.44.5.68.73.1.1.21.18.32.27.22.25.44.5.68.73.1.1.21.18.32.27.22.25.44.5.68.73.1.1.21.18.32.27.22.25.44.5.68.73.1.1.21.18.32.27.22.25.44.5.68.73.1.1.21.18.32.27.22.25.44.5.68.73.1.1.21.18.32.27.22.25.44.5.68.73.1.1.21.18.32.27.22.25.44.5.68.73.1.1.21.18.32.27.22.25.44.5.68.73.1.1.21.18.32.27.22.25.44.5.68.73.1.1.21.18.32.27.22.25.44.5.68.73,3.04,2.91,7.61,4.33,13.98,4.33h7.19c2.78,0,5.11-1.51,6.21-4.04.53-1.2.88-2.85.88-6.97,0-.87,0-1.83.02-2.89.03.02.05.05.08.07.31.35.65.68,1,1,.31.35.65.68,1,1,.31.35.65.68,1,1,.31.35.65.68,1,1,.31.35.65.68,1,1,.31.35.65.68,1,1,.31.35.65.68,1,1,.31.35.65.68,1,1,.37.42.77.83,1.2,1.2,1.44,1.25,3.12,2.26,5.01,2.98,1.75.68,3.64,1.13,5.63,1.35,1.74.19,3.46.29,5.13.29,3,0,5.18-.28,6.86-.88,2.33-.84,3.99-2.22,4.93-4.1l.1-.2.08-.21c.95-2.41,1.99-5.17,3.09-8.2.09.09.16.18.25.27.09.08.19.15.28.23.24.26.47.52.72.77.09.08.19.15.28.23.24.26.47.52.72.77.09.08.19.15.28.23.24.26.47.52.72.77.09.08.19.15.28.23.24.26.47.52.72.77.09.08.19.15.28.23.24.26.47.52.72.77.09.08.19.15.28.23.24.26.47.52.72.77.09.08.19.15.28.23.24.26.47.52.72.77.09.08.19.15.28.23.24.26.47.52.72.77.09.08.19.15.28.23.24.26.47.52.72.77,3.04,2.91,7.61,4.33,13.98,4.33h7.19c2.88,0,4.51-1.2,5.36-2.2.92-1.07,1.48-2.43,1.68-4.06.07-.52.2-1.73.56-6.61.08-1.08.17-2.25.26-3.48.05.05.1.11.16.16.03.03.08.06.11.09.28.31.57.62.89.91.03.03.08.06.11.09.28.31.57.62.89.91.03.03.08.06.11.09.28.31.57.62.89.91.03.03.08.06.11.09.28.31.57.62.89.91.03.03.08.06.11.09.28.31.57.62.89.91.03.03.08.06.11.09.28.31.57.62.89.91.03.03.08.06.11.09.28.31.57.62.89.91.03.03.08.06.11.09.28.31.57.62.89.91.03.03.08.06.11.09.28.31.57.62.89.91.03.03.08.06.11.09.28.31.57.62.89.91.03.03.08.06.11.09.28.31.57.62.89.91.03.03.08.06.11.09.28.31.57.62.89.91,3.08,2.82,7.6,4.19,13.84,4.19h30.06c5.6,0,9.43-1.42,11.71-4.34,1.89-2.41,2.96-5.46,3.21-9.08l.53-7.88v-.17c0-2.08-.89-3.94-2.45-5.2-.29-.37-.63-.7-1-1-.29-.37-.63-.7-1-1-.29-.37-.63-.7-1-1-.29-.37-.63-.7-1-1-.29-.37-.63-.7-1-1-.29-.37-.63-.7-1-1-.29-.37-.63-.7-1-1-.29-.37-.63-.7-1-1-.29-.37-.63-.7-1-1-.29-.37-.63-.7-1-1-.29-.37-.63-.7-1-1-.29-.37-.63-.7-1-1-.17-.21-.35-.41-.54-.6,1.49-.7,2.72-1.64,3.67-2.84,1.89-2.41,2.96-5.46,3.21-9.08l.54-7.88v-.17c0-2.18-.88-4.06-2.44-5.28-.29-.37-.62-.71-1-1-.29-.37-.62-.71-1-1-.29-.37-.62-.71-1-1-.29-.37-.62-.71-1-1-.29-.37-.62-.71-1-1-.29-.37-.62-.71-1-1-.29-.37-.62-.71-1-1-.29-.37-.62-.71-1-1-.29-.37-.62-.71-1-1-.29-.36-.61-.69-.97-.98h6.1c5.6,0,9.43-1.42,11.71-4.34,1.89-2.41,2.96-5.46,3.21-9.08l.53-7.88v-.17c0-2.18-.88-4.06-2.44-5.28Z"/>
      <g>
        <path class="cls-4" d="M139.16,85.31c2.04-2.08,3.68-4.64,4.87-7.62,1.28-3.22,2.17-6.6,2.63-10.06.49-3.64.74-6.74.74-9.2,0-2.04-.12-3.9-.37-5.6-1.72.12-3.23.47-4.46,1.07-1.6.78-2.9,1.8-3.98,3.09-1.19,1.42-2.15,3.04-2.87,4.82-.81,2-1.45,4.08-1.91,6.19-.47,2.17-.79,4.28-.95,6.25-.16,2.07-.25,3.94-.25,5.56,0,3.22.24,5.79.61,7.86,2.51-.06,4.4-.8,5.92-2.35Z"/>
        <path class="cls-7" d="M374.6,25.5c-.29-.37-.62-.71-1-1-.29-.37-.62-.71-1-1-.29-.37-.62-.71-1-1-.29-.37-.62-.71-1-1-.29-.37-.62-.71-1-1-.29-.37-.62-.71-1-1-.29-.37-.62-.71-1-1-.29-.37-.62-.71-1-1-.29-.37-.62-.71-1-1-.45-.57-1-1.06-1.64-1.45-1.22-.73-2.57-1.1-4-1.1h-46.01c-4.17,0-7.09,2.86-7.09,6.96,0,1.36-.13,4.02-.38,7.91-.05.82-.11,1.68-.17,2.57-.5-.92-1.09-1.78-1.8-2.56-.25-.27-.54-.52-.82-.77-.06-.07-.12-.15-.18-.23-.25-.27-.54-.52-.82-.77-.06-.07-.12-.15-.18-.23-.25-.27-.54-.52-.82-.77-.06-.07-.12-.15-.18-.23-.25-.27-.54-.52-.82-.77-.06-.07-.12-.15-.18-.23-.25-.27-.54-.52-.82-.77-.06-.07-.12-.15-.18-.23-.25-.27-.54-.52-.82-.77-.06-.07-.12-.15-.18-.23-.25-.27-.54-.52-.82-.77-.06-.07-.12-.15-.18-.23-.25-.27-.54-.52-.82-.77-.06-.07-.12-.15-.18-.23-.25-.27-.54-.52-.82-.77-.06-.07-.12-.15-.18-.23-.25-.27-.54-.52-.82-.77-.06-.07-.12-.15-.18-.23-1.53-1.67-3.58-2.94-6.09-3.78-2.24-.74-4.95-1.11-8.31-1.11h-20.39c-2.59,0-4.63.79-6.05,2.35-.91,1-1.57,2.1-1.96,3.29l-.05.16s-2.59,10.03-3.5,13.56l-2.29,8.82c-.1.39-.2.76-.3,1.13,0,0,0,0,0,0-1-4.16-2.31-7.52-4-10.27-.95-1.55-2.07-2.91-3.32-4.07-.32-.35-.66-.68-1-1-.32-.35-.66-.68-1-1-.32-.35-.66-.68-1-1-.32-.35-.66-.68-1-1-.32-.35-.66-.68-1-1-.32-.35-.66-.68-1-1-.32-.35-.66-.68-1-1-.32-.35-.66-.68-1-1-.32-.35-.66-.68-1-1-1.46-1.58-3.15-2.86-5.06-3.81-2.87-1.43-6.44-2.16-10.6-2.16h-18.3c-1.33,0-2.65.38-3.97,1.15-2.07,1.21-3.25,3.33-3.25,5.81,0,1.57-.02,2.89-.06,3.91-.04,1.1-.09,2.26-.13,3.49-.04,1.18-.13,2.51-.25,3.95-.13,1.59-.29,3.66-.46,6.21-.07,1.06-.16,2.24-.26,3.52-1.27-2.62-2.79-5.02-4.58-7.16-.69-.83-1.43-1.6-2.2-2.35-.32-.34-.66-.67-1-1-.32-.34-.66-.67-1-1-.32-.34-.66-.67-1-1-.32-.34-.66-.67-1-1-.32-.34-.66-.67-1-1-.32-.34-.66-.67-1-1-.32-.34-.66-.67-1-1-.32-.34-.66-.67-1-1-.32-.34-.66-.67-1-1-3.22-3.42-7.21-6.09-11.91-7.94-5.1-2.01-11.21-3.03-18.17-3.03-9.81,0-18.22,1.74-25,5.18-6.78,3.44-12.32,8.06-16.47,13.72-1.16,1.59-2.22,3.25-3.2,4.97-.61-2.85-1.7-5.25-3.26-7.18-.42-.52-.9-1-1.41-1.44-.31-.35-.64-.69-1-1-.31-.35-.64-.69-1-1-.31-.35-.64-.69-1-1-.31-.35-.64-.69-1-1-.31-.35-.64-.69-1-1-.31-.35-.64-.69-1-1-.31-.35-.64-.69-1-1-.31-.35-.64-.69-1-1-.31-.35-.64-.69-1-1-2.89-3.23-7.53-4.81-14.19-4.81h-7.19c-4.18,0-7.09,2.86-7.09,6.96,0,.94-.06,2.49-.19,4.61-.13,2.2-.3,4.82-.52,7.84-.22,3.03-.48,6.37-.78,10-.18,2.13-.35,4.36-.52,6.66h-2.7c.35-5.69.4-7.06.4-7.61,0-5.59-1.3-10.04-3.86-13.21-.42-.53-.9-1-1.41-1.44-.31-.35-.64-.69-1-1-.31-.35-.64-.69-1-1-.31-.35-.64-.69-1-1-.31-.35-.64-.69-1-1-.31-.35-.64-.69-1-1-.31-.35-.64-.69-1-1-.31-.35-.64-.69-1-1-.31-.35-.64-.69-1-1-.31-.35-.64-.69-1-1-2.89-3.22-7.53-4.81-14.19-4.81h-7.19c-4.17,0-7.09,2.86-7.09,6.96,0,1.36-.13,4.02-.38,7.91-.25,3.91-.61,8.59-1.04,13.9-.43,5.18-.87,10.91-1.31,17.04-.43,5.98-.87,11.73-1.3,17.08-.43,5.36-.79,10.25-1.05,14.54-.27,4.38-.4,7.4-.4,9.26,0,5.02,1.6,9.03,4.76,11.92.03.03.08.06.11.09.28.31.57.62.89.91.03.03.08.06.11.09.28.31.57.62.89.91.03.03.08.06.11.09.28.31.57.62.89.91.03.03.08.06.11.09.28.31.57.62.89.91.03.03.08.06.11.09.28.31.57.62.89.91.03.03.08.06.11.09.28.31.57.62.89.91.03.03.08.06.11.09.28.31.57.62.89.91.03.03.08.06.11.09.28.31.57.62.89.91.03.03.08.06.11.09.28.31.57.62.89.91.03.03.08.06.11.09.28.31.57.62.89.91,3.08,2.82,7.6,4.19,13.84,4.19h7.19c2.88,0,4.51-1.21,5.36-2.2.92-1.07,1.48-2.43,1.69-4.14l.02-.13,2.28-31.31h2.53l-.08,1.11c-.36,5.04-.54,8.49-.54,10.55,0,5.02,1.6,9.03,4.76,11.92.03.03.08.06.11.09.28.31.57.62.89.91.03.03.08.06.11.09.28.31.57.62.89.91.03.03.08.06.11.09.28.31.57.62.89.91.03.03.08.06.11.09.28.31.57.62.89.91.03.03.08.06.11.09.28.31.57.62.89.91.03.03.08.06.11.09.28.31.57.62.89.91.03.03.08.06.11.09.28.31.57.62.89.91.03.03.08.06.11.09.28.31.57.62.89.91.03.03.08.06.11.09.28.31.57.62.89.91.03.03.08.06.11.09.28.31.57.62.89.91,3.08,2.82,7.6,4.19,13.83,4.19h7.19c2.88,0,4.51-1.2,5.36-2.2.91-1.06,1.46-2.38,1.68-4.05.08-.54.2-1.56.43-4.73l.65-8.95c.2-2.79.42-5.83.65-9.12,1.09,2.26,2.37,4.37,3.85,6.3.98,1.29,2.08,2.49,3.26,3.62.32.34.66.67,1,1,.32.34.66.67,1,1,.32.34.66.67,1,1,.32.34.66.67,1,1,.32.34.66.67,1,1,.32.34.66.67,1,1,.32.34.66.67,1,1,.32.34.66.67,1,1,.32.34.66.67,1,1,2.99,3.14,6.67,5.73,11,7.71,5.39,2.47,12.14,3.72,20.06,3.72,7.1,0,13.4-1.01,18.74-2.99,5.32-1.98,9.99-4.68,13.87-8.02,3.86-3.32,7.06-7.2,9.52-11.52.2-.34.37-.7.56-1.04.65,3.21,2.03,5.88,4.18,7.93.1.1.21.18.32.27.22.25.44.5.68.73.1.1.21.18.32.27.22.25.44.5.68.73.1.1.21.18.32.27.22.25.44.5.68.73.1.1.21.18.32.27.22.25.44.5.68.73.1.1.21.18.32.27.22.25.44.5.68.73.1.1.21.18.32.27.22.25.44.5.68.73.1.1.21.18.32.27.22.25.44.5.68.73.1.1.21.18.32.27.22.25.44.5.68.73.1.1.21.18.32.27.22.25.44.5.68.73.1.1.21.18.32.27.22.25.44.5.68.73,3.04,2.91,7.61,4.33,13.98,4.33h7.19c2.78,0,5.11-1.51,6.21-4.04.53-1.2.88-2.85.88-6.97,0-.87,0-1.83.02-2.89.03.02.05.05.08.07.31.35.65.68,1,1,.31.35.65.68,1,1,.31.35.65.68,1,1,.31.35.65.68,1,1,.31.35.65.68,1,1,.31.35.65.68,1,1,.31.35.65.68,1,1,.31.35.65.68,1,1,.37.42.77.83,1.2,1.2,1.44,1.25,3.12,2.26,5.01,2.98,1.75.68,3.64,1.13,5.63,1.35,1.74.19,3.46.29,5.13.29,3,0,5.18-.28,6.86-.88,2.33-.84,3.99-2.22,4.93-4.1l.1-.2.08-.21c.95-2.41,1.99-5.17,3.09-8.2.09.09.16.18.25.27.09.08.19.15.28.23.24.26.47.52.72.77.09.08.19.15.28.23.24.26.47.52.72.77.09.08.19.15.28.23.24.26.47.52.72.77.09.08.19.15.28.23.24.26.47.52.72.77.09.08.19.15.28.23.24.26.47.52.72.77.09.08.19.15.28.23.24.26.47.52.72.77.09.08.19.15.28.23.24.26.47.52.72.77.09.08.19.15.28.23.24.26.47.52.72.77.09.08.19.15.28.23.24.26.47.52.72.77,3.04,2.91,7.61,4.33,13.98,4.33h7.19c2.88,0,4.51-1.2,5.36-2.2.92-1.07,1.48-2.43,1.68-4.06.07-.52.2-1.73.56-6.61.09-1.18.18-2.45.28-3.79.61.9,1.32,1.72,2.13,2.47.03.03.08.06.11.09.28.31.57.62.89.91.03.03.08.06.11.09.28.31.57.62.89.91.03.03.08.06.11.09.28.31.57.62.89.91.03.03.08.06.11.09.28.31.57.62.89.91.03.03.08.06.11.09.28.31.57.62.89.91.03.03.08.06.11.09.28.31.57.62.89.91.03.03.08.06.11.09.28.31.57.62.89.91.03.03.08.06.11.09.28.31.57.62.89.91.03.03.08.06.11.09.28.31.57.62.89.91.03.03.08.06.11.09.28.31.57.62.89.91,3.08,2.82,7.6,4.19,13.84,4.19h30.06c5.6,0,9.43-1.42,11.71-4.34,1.89-2.41,2.96-5.46,3.21-9.08l.53-7.88v-.17c0-2.08-.89-3.94-2.45-5.2-.29-.37-.63-.7-1-1-.29-.37-.63-.7-1-1-.29-.37-.63-.7-1-1-.29-.37-.63-.7-1-1-.29-.37-.63-.7-1-1-.29-.37-.63-.7-1-1-.29-.37-.63-.7-1-1-.29-.37-.63-.7-1-1-.29-.37-.63-.7-1-1-.38-.48-.83-.91-1.35-1.28-1.27-.89-2.76-1.36-4.3-1.36h-.77c2.88-.65,5.05-1.9,6.54-3.81,1.89-2.41,2.96-5.46,3.21-9.08l.54-7.88v-.17c0-2.18-.88-4.06-2.44-5.28-.29-.37-.62-.71-1-1-.29-.37-.62-.71-1-1-.29-.37-.62-.71-1-1-.29-.37-.62-.71-1-1-.29-.37-.62-.71-1-1-.29-.37-.62-.71-1-1-.29-.37-.62-.71-1-1-.29-.37-.62-.71-1-1-.29-.37-.62-.71-1-1-.29-.36-.61-.69-.97-.98h6.1c5.6,0,9.43-1.42,11.71-4.34,1.89-2.41,2.96-5.46,3.21-9.08l.53-7.88v-.17c0-2.18-.88-4.06-2.44-5.28ZM132.88,74.24c.16-1.98.47-4.08.95-6.25.46-2.1,1.1-4.19,1.91-6.19.72-1.77,1.68-3.39,2.87-4.82,1.08-1.29,2.38-2.3,3.98-3.09,1.23-.6,2.73-.95,4.46-1.07.24,1.69.37,3.56.37,5.6,0,2.47-.25,5.56-.74,9.2-.47,3.46-1.35,6.84-2.63,10.06-1.18,2.98-2.82,5.54-4.87,7.62-1.52,1.55-3.41,2.29-5.92,2.35-.37-2.07-.61-4.64-.61-7.86,0-1.62.08-3.49.25-5.56Z"/>
      </g>
      <text class="cls-3" transform="translate(0 111.75)"><tspan x="0" y="0">HOME</tspan></text>
    </g>
  </g>
</svg>