<?xml version="1.0" encoding="UTF-8"?>
<svg id="Layer_2" data-name="Layer 2" xmlns="http://www.w3.org/2000/svg" viewBox="0 0 474.29 93.83">
  <defs>
    <style>
      .cls-1 {
        fill: none;
      }

      .cls-2 {
        fill: #f2f2f2;
      }

      .cls-3 {
        fill: #232b5f;
      }
    </style>
  </defs>
  <g id="Layer_3" data-name="Layer 3">
    <g>
      <g>
        <path class="cls-1" d="M289.71,35.92c.15.12.3.25.44.38.05-.35.12-.71.18-1.06h-1.24c.23.21.44.43.63.67Z"/>
        <path class="cls-1" d="M163.72,51.08c.96-2.4,1.62-4.92,1.96-7.51.37-2.76.56-5.1.56-6.96,0-.04,0-.07,0-.1-1,.52-1.83,1.17-2.52,1.99-.84,1.01-1.52,2.16-2.03,3.42-.6,1.48-1.08,3.03-1.42,4.6-.35,1.62-.59,3.2-.71,4.67-.12,1.57-.19,2.98-.19,4.21,0,.65.02,1.26.04,1.84.31-.21.57-.43.79-.65,1.47-1.5,2.66-3.35,3.52-5.51Z"/>
        <path class="cls-1" d="M121.55,62.57l2.22,3.17c-.51-1.24-.95-2.53-1.32-3.88-.29.24-.59.48-.9.71Z"/>
        <path class="cls-1" d="M341.6,49.56c-.42-.26-.95-.7-1.45-1.32-.32-.25-.67-.58-1-1-.32-.25-.67-.58-1-1-.32-.25-.67-.58-1-1-.32-.25-.67-.58-1-1-.32-.25-.67-.58-1-1-.32-.25-.67-.58-1-1-.32-.25-.67-.58-1-1-.32-.25-.67-.58-1-1-.23-.18-.47-.4-.71-.66-.43.75-.8,1.56-1.11,2.43-.56,1.58-1,3.21-1.33,4.86-.33,1.66-.53,3.26-.62,4.78-.1,1.65-.14,3.09-.14,4.26,0,.72.02,1.38.05,2.01,1.01-.13,1.91-.35,2.66-.66,1.53-.64,2.82-1.36,3.84-2.12,1.32-.99,2.49-1.88,3.52-2.68,1.56-1.2,3.22-1.92,4.95-2.16-.59-.17-1.15-.41-1.66-.74Z"/>
        <path class="cls-3" d="M465.11,49.51c-.33-.34-.66-.68-1-1-.33-.34-.66-.68-1-1-.33-.34-.66-.68-1-1-.09-.1-.19-.2-.28-.3,3.1-.63,5.71-1.93,7.78-3.9,3.11-2.96,4.68-7.08,4.68-12.26,0-5.66-1.96-10.38-5.78-14.05-.31-.35-.66-.67-1-1-.31-.35-.66-.67-1-1-.31-.35-.66-.67-1-1-.31-.35-.66-.67-1-1-.31-.35-.66-.67-1-1-.31-.35-.66-.67-1-1-.31-.35-.66-.67-1-1-.31-.35-.66-.67-1-1-.31-.35-.66-.67-1-1-.46-.51-.95-1-1.47-1.47-4-3.6-9.86-5.43-17.44-5.43-3.64,0-7.34.48-10.99,1.42-3.88,1-7.42,2.67-10.51,4.96-.54.4-1.07.83-1.58,1.28-.08-.07-.16-.15-.25-.22-.29-.37-.62-.71-1-1-.29-.37-.62-.71-1-1-.29-.37-.62-.71-1-1-.29-.37-.62-.71-1-1-.44-.55-.97-1.04-1.61-1.42-1.11-.66-2.38-1.01-3.68-1.01h-45.15c-1.96,0-3.73.37-5.24,1.1-1.52.73-2.8,1.74-3.81,3-.91,1.14-1.58,2.43-2,3.84-.25-.26-.5-.51-.76-.76-.54-.58-1.12-1.14-1.74-1.67-2.42-2.08-5.45-3.71-9-4.85-3.41-1.1-7.41-1.65-11.88-1.65-5.6,0-10.56.85-14.74,2.53-4.17,1.68-7.78,3.94-10.71,6.71-.75.71-1.46,1.45-2.14,2.21,0,0-.02-.01-.02-.02-.29-.37-.62-.71-1-1-.29-.37-.62-.71-1-1-.29-.37-.62-.71-1-1-.29-.37-.62-.71-1-1-.29-.37-.62-.71-1-1-.29-.37-.62-.71-1-1-.29-.37-.62-.71-1-1-.29-.37-.62-.71-1-1-.44-.55-.97-1.04-1.61-1.42-1.11-.66-2.38-1.01-3.68-1.01h-35.55c-3.83,0-6.62,2.74-6.62,6.51,0,.5-.03,1.46-.12,3.25-.12-.12-.25-.25-.38-.36-.04-.03-.09-.06-.12-.1-.27-.31-.56-.62-.88-.9-.04-.03-.09-.06-.12-.1-.27-.31-.56-.62-.88-.9-.04-.03-.09-.06-.12-.1-.27-.31-.56-.62-.88-.9-.04-.03-.09-.06-.12-.1-.27-.31-.56-.62-.88-.9-.04-.03-.09-.06-.12-.1-.27-.31-.56-.62-.88-.9-.04-.03-.09-.06-.12-.1-.27-.31-.56-.62-.88-.9-1.23-1.11-2.82-1.95-4.85-2.58-1.81-.56-4.06-.83-6.88-.83h-5.55c-4.17,0-5.61,2.79-5.95,3.64-.35.87-.54,1.89-.65,3.48-.34,5.65-.62,10.42-.86,14.28-.24,3.86-.44,7.09-.61,9.68-.17,2.56-.32,4.66-.45,6.28-.13,1.6-.26,2.98-.38,4.08-.33,2.64-.68,5.15-1.04,7.48-.31,1.99-.71,3.74-1.18,5.22-.2-.21-.41-.4-.62-.57-.31-.39-.64-.72-1-1-.31-.39-.64-.72-1-1-.83-1.06-1.89-1.68-2.94-1.98.12-1.71.18-3.35.18-4.91,0-5.26-.57-10.06-1.68-14.26-1.19-4.5-3.16-8.4-5.84-11.62-.61-.73-1.27-1.41-1.95-2.07-.32-.34-.66-.68-1-1-.32-.34-.66-.68-1-1-.32-.34-.66-.68-1-1-.32-.34-.66-.68-1-1-.32-.34-.66-.68-1-1-.32-.34-.66-.68-1-1-.32-.34-.66-.68-1-1-.32-.34-.66-.68-1-1-.32-.34-.66-.68-1-1-2.61-2.78-5.84-4.94-9.64-6.44-4.08-1.6-8.94-2.42-14.46-2.42-7.76,0-14.44,1.39-19.84,4.13-5.4,2.74-9.82,6.42-13.13,10.95-.98,1.33-1.86,2.74-2.68,4.19-.43-.52-.87-1.03-1.34-1.51-.2-.21-.42-.4-.63-.6-.12-.13-.24-.27-.37-.4-.2-.21-.42-.4-.63-.6-.12-.13-.24-.27-.37-.4-.2-.21-.42-.4-.63-.6-.12-.13-.24-.27-.37-.4-.2-.21-.42-.4-.63-.6-.12-.13-.24-.27-.37-.4-.2-.21-.42-.4-.63-.6-.12-.13-.24-.27-.37-.4-.2-.21-.42-.4-.63-.6-.12-.13-.24-.27-.37-.4-.2-.21-.42-.4-.63-.6-.12-.13-.24-.27-.37-.4-.2-.21-.42-.4-.63-.6-.12-.13-.24-.27-.37-.4-.2-.21-.42-.4-.63-.6-.12-.13-.24-.27-.37-.4-.2-.21-.42-.4-.63-.6-.12-.13-.24-.27-.37-.4-2.45-2.5-5.63-4.44-9.45-5.76-3.61-1.26-7.9-1.89-12.75-1.89-1.51,0-3.22.05-5.08.16-1.8.1-3.72.22-5.76.36-1.99.13-4.06.25-6.21.35-2.11.1-4.19.15-6.18.15-3.01,0-5.43,2-6.17,5.1-.2.83-.44,2.27-.74,6.69l-.1,1.76c-.22-.22-.45-.44-.68-.65-.08-.09-.16-.18-.24-.27-.24-.25-.5-.49-.76-.73-.08-.09-.16-.18-.24-.27-.24-.25-.5-.49-.76-.73-.08-.09-.16-.18-.24-.27-.24-.25-.5-.49-.76-.73-.08-.09-.16-.18-.24-.27-.24-.25-.5-.49-.76-.73-.08-.09-.16-.18-.24-.27-.24-.25-.5-.49-.76-.73-.08-.09-.16-.18-.24-.27-.24-.25-.5-.49-.76-.73-.08-.09-.16-.18-.24-.27-2.47-2.55-5.67-4.51-9.52-5.81-3.6-1.21-7.88-1.83-12.71-1.83-1.57,0-3.39.05-5.41.16-1.97.1-4.02.22-6.13.36-2.06.13-4.12.25-6.18.35-2.01.1-3.86.15-5.52.15-1.36,0-2.7.44-3.88,1.26-1.68,1.17-2.64,3.09-2.64,5.26,0,.94-.02,1.82-.05,2.63-.04.89-.07,1.86-.1,2.91-.03,1-.1,2.16-.19,3.44-.1,1.39-.22,3.12-.36,5.19-.13,2.03-.32,4.46-.55,7.29-.24,2.86-.52,6.27-.86,10.25-.27,3.25-.52,6.42-.76,9.53l-.66,8.58c-.2,2.65-.36,4.99-.46,6.94-.11,2.01-.16,3.47-.16,4.46,0,4.37,1.32,7.84,3.91,10.33.1.09.21.17.31.27.22.25.44.5.69.73.1.09.21.17.31.27.22.25.44.5.69.73.1.09.21.17.31.27.22.25.44.5.69.73.1.09.21.17.31.27.22.25.44.5.69.73.1.09.21.17.31.27.22.25.44.5.69.73.1.09.21.17.31.27.22.25.44.5.69.73.1.09.21.17.31.27.22.25.44.5.69.73.1.09.21.17.31.27.22.25.44.5.69.73.1.09.21.17.31.27.22.25.44.5.69.73.1.09.21.17.31.27.22.25.44.5.69.73,2.57,2.46,6.36,3.66,11.59,3.66h4.65c2.66,0,4.19-1.14,5-2.1.85-.99,1.38-2.27,1.57-3.8l.02-.12,1.01-13.27c.89.06,1.83.09,2.8.09,5.58,0,10.53-1.02,14.69-3.02,1.47-.71,2.86-1.51,4.15-2.41,0,.22,0,.44,0,.62,0,4.37,1.32,7.84,3.91,10.33.1.09.21.17.31.27.22.25.44.5.69.73.1.09.21.17.31.27.22.25.44.5.69.73.1.09.21.17.31.27.22.25.44.5.69.73.1.09.21.17.31.27.22.25.44.5.69.73.1.09.21.17.31.27.22.25.44.5.69.73.1.09.21.17.31.27.22.25.44.5.69.73.1.09.21.17.31.27.22.25.44.5.69.73.1.09.21.17.31.27.22.25.44.5.69.73.1.09.21.17.31.27.22.25.44.5.69.73.1.09.21.17.31.27.22.25.44.5.69.73,2.57,2.46,6.36,3.66,11.59,3.66h5.05c2.66,0,4.19-1.14,5-2.1.85-.99,1.38-2.26,1.57-3.79l.04-.23v-.32s.02-.43.18-2.07c.08-.82.16-1.77.24-2.84.15.15.3.3.46.45.32.36.66.68,1,1,.32.36.66.68,1,1,.32.36.66.68,1,1,.32.36.66.68,1,1,.32.36.66.68,1,1,.32.36.66.68,1,1,.32.36.66.68,1,1,.49.54,1,1.05,1.52,1.51,2.48,2.22,5.57,3.39,8.94,3.39,2.56,0,4.94-.42,7.09-1.24,2.02-.77,3.8-1.74,5.27-2.85,1.56-1.18,2.75-2.39,3.64-3.7.74-1.09,1.72-2.77,1.72-4.78,0-1.62-.6-3.29-1.95-5.39.23.23.47.46.71.69.32.34.66.67,1,1,.32.34.66.67,1,1,.32.34.66.67,1,1,.32.34.66.67,1,1,.32.34.66.67,1,1,.32.34.66.67,1,1,.32.34.66.67,1,1,.32.34.66.67,1,1,2.43,2.57,5.42,4.68,8.93,6.3,4.31,1.98,9.69,2.98,15.97,2.98,5.62,0,10.62-.8,14.88-2.38,4.24-1.58,7.96-3.73,11.06-6.4,1.66-1.42,3.15-2.99,4.49-4.65.21.21.42.41.63.61.32.34.65.68,1,1,.32.34.65.68,1,1,.32.34.65.68,1,1,.32.34.65.68,1,1,.32.34.65.68,1,1,.32.34.65.68,1,1,.66.7,1.36,1.38,2.14,1.99,1.99,1.55,4.4,2.76,7.16,3.61,2.66.82,5.65,1.23,8.89,1.23,5.97,0,10.99-1.34,14.94-3.97,3.77-2.51,6.83-5.79,9.09-9.76.29-.51.57-1.03.84-1.55.25.27.49.52.73.74.05.04.1.08.15.12.29.32.57.62.85.88.05.04.1.08.15.12.29.32.57.62.85.88.05.04.1.08.15.12.29.32.57.62.85.88.05.04.1.08.15.12.29.32.57.62.85.88.05.04.1.08.15.12.29.32.57.62.85.88.05.04.1.08.15.12.29.32.57.62.85.88.05.04.1.08.15.12.29.32.57.62.85.88.05.04.1.08.15.12.29.32.57.62.85.88.05.04.1.08.15.12.29.32.57.62.85.88.05.04.1.08.15.12.29.32.57.62.85.88,2.6,2.38,6.34,3.54,11.46,3.54h23.23c4.7,0,7.95-1.24,9.95-3.78,1.6-2.04,2.52-4.62,2.72-7.64l.2-2.91c.3.32.62.63.93.93.33.35.66.68,1,1,.33.35.66.68,1,1,.33.35.66.68,1,1,.33.35.66.68,1,1,.33.35.66.68,1,1,.48.51.98,1.01,1.5,1.48,3.24,2.92,6.98,5.01,11.13,6.23,3.88,1.14,7.82,1.72,11.71,1.72s7.43-.46,10.54-1.36c3.12-.91,5.82-2.1,8.04-3.53,2.28-1.48,4.14-3.13,5.53-4.92,1.5-1.94,2.44-3.79,2.87-5.59.5-1.99.9-3.82,1.18-5.44.32-1.83.48-3.38.48-4.76,0-3.12-1.12-5.28-2.72-6.56-.3-.38-.64-.71-1-1-.3-.38-.64-.71-1-1-.3-.38-.64-.71-1-1-.3-.38-.64-.71-1-1-.3-.38-.64-.71-1-1-.3-.38-.64-.71-1-1-.3-.38-.64-.71-1-1-.3-.38-.64-.71-1-1-.3-.38-.64-.71-1-1-.74-.92-1.66-1.56-2.66-1.97,5.72-.02,10.35-1.38,13.74-4.05,3.35-2.63,5.23-6.47,5.61-11.42.11,0,.22.02.33.02h.02c-.09,1.11-.17,2.21-.26,3.32-.27,3.28-.52,6.53-.76,9.74l-.66,8.89c-.21,2.84-.36,5.2-.46,7.24-.11,2.13-.16,3.7-.16,4.79,0,5.24,2.2,8.36,4.04,10.05.05.04.1.08.15.12.29.32.57.62.85.88.05.04.1.08.15.12.29.32.57.62.85.88.05.04.1.08.15.12.29.32.57.62.85.88.05.04.1.08.15.12.29.32.57.62.85.88.05.04.1.08.15.12.29.32.57.62.85.88.05.04.1.08.15.12.29.32.57.62.85.88.05.04.1.08.15.12.29.32.57.62.85.88.05.04.1.08.15.12.29.32.57.62.85.88.05.04.1.08.15.12.29.32.57.62.85.88.05.04.1.08.15.12.29.32.57.62.85.88,2.6,2.38,6.34,3.54,11.46,3.54h5.55c2.74,0,5.81-1.93,6.1-6.17l3.52-51.4h3.52c.41,2.1,1.04,3.99,1.9,5.66,1.32,2.58,2.99,4.78,4.94,6.62.32.35.66.68,1,1,.32.35.66.68,1,1,.32.35.66.68,1,1,.32.35.66.68,1,1,.32.35.66.68,1,1,.11.12.22.26.34.38-.19-.15-.41-.31-.6-.46-1.94-1.5-3.97-2.26-6.04-2.26-1.38,0-6.02.48-7.62,6.68-.62,2.39-.92,5.94-.92,10.85,0,2.37,1.06,4.72,3.14,6.98.27.29.57.57.87.85.04.05.08.1.13.15.27.29.57.57.87.85.04.05.08.1.13.15.27.29.57.57.87.85.04.05.08.1.13.15.27.29.57.57.87.85.04.05.08.1.13.15.27.29.57.57.87.85.04.05.08.1.13.15.27.29.57.57.87.85.04.05.08.1.13.15.27.29.57.57.87.85.04.05.08.1.13.15.27.29.57.57.87.85.04.05.08.1.13.15.27.29.57.57.87.85.04.05.08.1.13.15.27.29.57.57.87.85.04.05.08.1.13.15,1.6,1.73,3.73,3.3,6.35,4.67,2.45,1.29,5.33,2.36,8.54,3.19,3.26.84,6.82,1.27,10.59,1.27,4.48,0,8.51-.65,11.98-1.92,3.6-1.32,6.65-3.22,9.08-5.65,2.42-2.42,4.26-5.29,5.49-8.54,1.18-3.15,1.78-6.54,1.78-10.09,0-4.62-.91-8.58-2.71-11.79-1.35-2.41-3.02-4.51-4.96-6.32ZM290.14,36.31c-.14-.13-.28-.26-.44-.38-.19-.24-.4-.46-.63-.67h1.24c-.06.35-.13.71-.18,1.06ZM159.38,55.4c0-1.22.06-2.64.19-4.21.11-1.48.35-3.05.71-4.67.34-1.57.82-3.11,1.42-4.6.51-1.26,1.19-2.41,2.03-3.42.69-.82,1.52-1.47,2.52-1.99,0,.04,0,.07,0,.1,0,1.86-.19,4.2-.56,6.96-.35,2.58-1.01,5.11-1.96,7.51-.86,2.16-2.04,4.01-3.52,5.51-.21.22-.47.44-.79.65-.02-.58-.04-1.19-.04-1.84ZM121.55,62.57c.31-.23.6-.47.9-.71.37,1.34.81,2.64,1.32,3.88l-2.22-3.17ZM338.32,52.46c-1.03.8-2.2,1.69-3.52,2.68-1.02.76-2.31,1.48-3.84,2.12-.75.31-1.65.53-2.66.66-.03-.63-.05-1.29-.05-2.01,0-1.17.05-2.6.14-4.26.09-1.52.3-3.12.62-4.78.32-1.64.77-3.28,1.33-4.86.31-.87.68-1.68,1.11-2.43.24.26.48.48.71.66.33.42.68.75,1,1,.33.42.68.75,1,1,.33.42.68.75,1,1,.33.42.68.75,1,1,.33.42.68.75,1,1,.33.42.68.75,1,1,.33.42.68.75,1,1,.33.42.68.75,1,1,.5.62,1.03,1.05,1.45,1.32.52.33,1.07.57,1.66.74-1.73.24-3.4.96-4.95,2.16Z"/>
      </g>
      <g>
        <path class="cls-1" d="M160.34,20.65c-2.36,0-4.39.42-6.11,1.26-1.72.84-3.17,1.97-4.34,3.38-1.18,1.41-2.12,3-2.83,4.75-.71,1.75-1.26,3.55-1.67,5.4-.4,1.85-.67,3.64-.81,5.35-.14,1.72-.2,3.25-.2,4.6,0,6.13,1.03,10.6,3.08,13.43,2.05,2.83,4.96,4.24,8.74,4.24,3.1,0,5.62-.99,7.58-2.98,1.95-1.99,3.48-4.38,4.6-7.17,1.11-2.79,1.87-5.69,2.27-8.69s.61-5.54.61-7.63c0-4.91-.84-8.8-2.53-11.67-1.68-2.86-4.48-4.29-8.38-4.29Z"/>
        <path class="cls-1" d="M31.87,20.25c-.88,0-1.85.05-2.93.15-1.08.1-2.22.22-3.43.35-.14,2.83-.3,6.26-.5,10.3-.2,4.04-.47,8.28-.81,12.73,1.01.27,2,.46,2.98.56.98.1,1.87.15,2.68.15,2.36,0,4.26-.56,5.71-1.67,1.45-1.11,2.58-2.47,3.38-4.09s1.35-3.3,1.62-5.05c.27-1.75.4-3.27.4-4.54,0-2.89-.66-5.1-1.97-6.62-1.31-1.51-3.69-2.27-7.12-2.27Z"/>
        <path class="cls-1" d="M91.25,20.25c-.81,0-1.72.05-2.73.15-1.01.1-2.09.22-3.23.35-.14,2.36-.29,5.17-.45,8.43-.17,3.27-.39,6.75-.66,10.45,2.36.54,4.41.81,6.16.81,2.09,0,3.79-.4,5.1-1.21,1.31-.81,2.34-1.8,3.08-2.98.74-1.18,1.23-2.44,1.46-3.79.23-1.35.35-2.56.35-3.64,0-2.76-.67-4.88-2.02-6.36-1.35-1.48-3.7-2.22-7.07-2.22Z"/>
        <path class="cls-2" d="M52.52,11.21c-1.92-1.99-4.43-3.5-7.52-4.54-3.1-1.04-6.8-1.57-11.11-1.57-1.48,0-3.2.05-5.15.15-1.95.1-3.97.22-6.06.35-2.09.14-4.18.25-6.26.35-2.09.1-4.01.15-5.76.15-.34,0-.67.12-1.01.35-.34.24-.5.62-.5,1.16,0,1.01-.02,1.95-.05,2.83-.03.88-.07,1.84-.1,2.88-.04,1.04-.1,2.26-.2,3.64-.1,1.38-.22,3.1-.35,5.15-.14,2.05-.32,4.51-.56,7.37-.24,2.86-.52,6.28-.86,10.25-.27,3.23-.52,6.4-.76,9.49-.24,3.1-.45,5.96-.66,8.58s-.35,4.9-.45,6.82c-.1,1.92-.15,3.32-.15,4.19,0,2.96.79,5.2,2.37,6.72,1.58,1.51,4.29,2.27,8.13,2.27h4.65c.61,0,1.01-.12,1.21-.35.2-.24.34-.62.4-1.16l1.41-18.58c2.02.61,4.48.91,7.37.91,4.85,0,9.02-.84,12.52-2.52,3.5-1.68,6.36-3.94,8.59-6.77,2.22-2.83,3.85-6.08,4.9-9.75,1.04-3.67,1.57-7.49,1.57-11.46,0-3.64-.46-6.87-1.36-9.7-.91-2.83-2.32-5.24-4.24-7.22ZM40.55,33.68c-.27,1.75-.81,3.43-1.62,5.05s-1.94,2.98-3.38,4.09c-1.45,1.11-3.35,1.67-5.71,1.67-.81,0-1.7-.05-2.68-.15-.98-.1-1.97-.29-2.98-.56.34-4.44.61-8.69.81-12.73.2-4.04.37-7.47.5-10.3,1.21-.13,2.36-.25,3.43-.35,1.08-.1,2.05-.15,2.93-.15,3.43,0,5.81.76,7.12,2.27,1.31,1.52,1.97,3.72,1.97,6.62,0,1.28-.14,2.79-.4,4.54Z"/>
        <path class="cls-2" d="M112.87,63.18l-8.48-12.12c4.58-2.15,7.91-5.29,10-9.39,2.09-4.11,3.13-8.79,3.13-14.04,0-3.43-.46-6.53-1.36-9.29-.91-2.76-2.32-5.12-4.24-7.07-1.92-1.95-4.43-3.47-7.52-4.54-3.1-1.08-6.8-1.62-11.11-1.62-1.41,0-3.01.05-4.8.15-1.78.1-3.69.22-5.71.35-2.02.14-4.12.25-6.31.35-2.19.1-4.33.15-6.41.15-.67,0-1.11.42-1.31,1.26-.2.84-.4,2.78-.61,5.81-.14,2.42-.32,5.76-.56,10-.24,4.24-.62,9.76-1.16,16.56-.27,3.23-.52,6.41-.76,9.54-.24,3.13-.45,6.01-.66,8.63s-.35,4.9-.45,6.82c-.1,1.92-.15,3.28-.15,4.09,0,2.96.79,5.2,2.37,6.72,1.58,1.51,4.29,2.27,8.13,2.27h5.05c.61,0,1.01-.12,1.21-.35.2-.24.34-.62.4-1.16,0-.27.07-1.09.2-2.47.13-1.38.27-3.13.4-5.25.13-2.12.3-4.53.5-7.22.2-2.69.4-5.52.61-8.48,1.55.34,3.54.57,5.96.71.81,3.3,1.67,6.46,2.58,9.49s1.99,5.71,3.23,8.03c1.25,2.32,2.66,4.19,4.24,5.61,1.58,1.41,3.45,2.12,5.61,2.12,1.95,0,3.72-.3,5.3-.91,1.58-.61,2.93-1.33,4.04-2.17,1.11-.84,1.95-1.68,2.53-2.53.57-.84.86-1.5.86-1.97,0-.61-.4-1.53-1.21-2.78-.81-1.25-1.99-3.01-3.54-5.3ZM99.99,32.47c-.24,1.35-.72,2.61-1.46,3.79-.74,1.18-1.77,2.17-3.08,2.98-1.31.81-3.01,1.21-5.1,1.21-1.75,0-3.81-.27-6.16-.81.27-3.7.49-7.19.66-10.45.17-3.26.32-6.08.45-8.43,1.14-.13,2.22-.25,3.23-.35,1.01-.1,1.92-.15,2.73-.15,3.37,0,5.72.74,7.07,2.22,1.35,1.48,2.02,3.6,2.02,6.36,0,1.08-.12,2.29-.35,3.64Z"/>
        <path class="cls-2" d="M183.67,13.13c-2.22-2.66-5.08-4.68-8.58-6.06-3.5-1.38-7.71-2.07-12.62-2.07-7,0-12.86,1.2-17.57,3.59-4.71,2.39-8.5,5.54-11.36,9.44-2.86,3.91-4.9,8.37-6.11,13.38-1.21,5.02-1.82,10.15-1.82,15.4,0,4.44.45,8.62,1.36,12.52.91,3.91,2.46,7.29,4.65,10.15,2.19,2.86,5.12,5.13,8.79,6.82,3.67,1.68,8.3,2.52,13.89,2.52,5.05,0,9.43-.69,13.13-2.07s6.88-3.21,9.54-5.5c2.66-2.29,4.83-4.91,6.51-7.88,1.68-2.96,3.01-6.04,3.99-9.24.98-3.2,1.65-6.38,2.02-9.54.37-3.17.55-6.09.55-8.79,0-4.85-.5-9.17-1.51-12.98-1.01-3.8-2.63-7.04-4.85-9.7ZM170.64,44.24c-.4,3-1.16,5.89-2.27,8.69-1.11,2.79-2.64,5.19-4.6,7.17-1.95,1.99-4.48,2.98-7.58,2.98-3.77,0-6.68-1.41-8.74-4.24-2.05-2.83-3.08-7.3-3.08-13.43,0-1.35.07-2.88.2-4.6.13-1.72.4-3.5.81-5.35.4-1.85.96-3.65,1.67-5.4.71-1.75,1.65-3.33,2.83-4.75,1.18-1.41,2.63-2.54,4.34-3.38,1.72-.84,3.75-1.26,6.11-1.26,3.9,0,6.7,1.43,8.38,4.29,1.68,2.86,2.53,6.75,2.53,11.67,0,2.09-.2,4.63-.61,7.63Z"/>
        <path class="cls-2" d="M235.48,8.23c-.67-.61-1.67-1.11-2.98-1.51-1.31-.4-3.12-.61-5.4-.61h-5.55c-.74,0-1.18.17-1.31.5-.14.34-.24.98-.3,1.92-.34,5.66-.62,10.42-.86,14.29-.24,3.87-.44,7.1-.61,9.7-.17,2.59-.32,4.71-.45,6.36-.14,1.65-.27,3.08-.4,4.29-.34,2.69-.69,5.24-1.06,7.62-.37,2.39-.86,4.49-1.46,6.31-.61,1.82-1.36,3.27-2.27,4.34-.91,1.08-2.11,1.62-3.59,1.62-1.35,0-2.32-.39-2.93-1.16-.61-.77-1.06-1.65-1.36-2.63-.3-.98-.54-1.85-.71-2.63-.17-.77-.45-1.16-.86-1.16-1.48,0-2.91.24-4.29.71-1.38.47-2.61,1.15-3.69,2.02-1.08.88-1.94,1.97-2.58,3.28-.64,1.31-.96,2.78-.96,4.39,0,1.75.4,3.42,1.21,5,.81,1.58,1.97,2.96,3.48,4.14,1.52,1.18,3.37,2.11,5.56,2.78,2.19.67,4.66,1.01,7.42,1.01,4.98,0,9.04-1.04,12.17-3.13,3.13-2.09,5.64-4.78,7.52-8.08,1.88-3.3,3.25-6.95,4.09-10.96.84-4.01,1.46-7.93,1.87-11.77.27-2.83.52-5.99.76-9.49.23-3.5.42-6.85.55-10.05.13-3.2.24-6.01.3-8.43.07-2.42.1-3.97.1-4.65s-.07-1.36-.2-2.07c-.14-.71-.54-1.36-1.21-1.97Z"/>
        <path class="cls-2" d="M288.61,6.41c-.34-.2-.71-.3-1.11-.3h-35.55c-1.08,0-1.62.5-1.62,1.51,0,1.15-.1,3.27-.3,6.36-.2,3.1-.47,6.7-.81,10.81-.34,4.11-.67,8.48-1.01,13.13-.34,4.65-.67,9.06-1.01,13.23-.34,4.18-.61,7.9-.81,11.16-.2,3.27-.3,5.57-.3,6.92,0,2.76.81,4.88,2.42,6.36,1.62,1.48,4.31,2.22,8.08,2.22h23.23c3.03,0,5.03-.62,6.01-1.87.98-1.25,1.53-2.88,1.67-4.9l.4-5.96c0-.47-.17-.82-.5-1.06-.34-.24-.71-.35-1.11-.35h-22.22l1.11-15.05h8.79c3.03,0,5.03-.62,6.01-1.87.98-1.25,1.53-2.88,1.67-4.9l.4-5.96c0-.54-.17-.91-.51-1.11-.34-.2-.71-.3-1.11-.3h-14.34l1.01-14.24h13.94c3.03,0,5.03-.62,6.01-1.87.98-1.25,1.53-2.88,1.67-4.9l.4-5.96c0-.54-.17-.91-.5-1.11Z"/>
        <path class="cls-2" d="M346.03,10.4c-1.92-1.65-4.34-2.94-7.27-3.89-2.93-.94-6.38-1.41-10.35-1.41-4.98,0-9.28.72-12.88,2.17-3.6,1.45-6.65,3.35-9.14,5.71-2.49,2.36-4.53,5.03-6.11,8.03-1.58,3-2.81,6.04-3.69,9.14-.88,3.1-1.46,6.11-1.77,9.04-.3,2.93-.45,5.5-.45,7.73,0,6.2.84,11.35,2.52,15.45,1.68,4.11,3.87,7.37,6.57,9.8,2.69,2.42,5.76,4.14,9.19,5.15,3.43,1.01,6.87,1.51,10.3,1.51s6.48-.39,9.14-1.16c2.66-.77,4.9-1.75,6.72-2.93,1.82-1.18,3.25-2.44,4.29-3.79,1.04-1.35,1.7-2.59,1.97-3.74.47-1.88.84-3.58,1.11-5.1.27-1.52.4-2.81.4-3.89,0-2.02-.67-3.03-2.02-3.03-1.08,0-2.14.4-3.18,1.21-1.04.81-2.24,1.72-3.58,2.73-1.35,1.01-2.98,1.92-4.9,2.73s-4.26,1.21-7.02,1.21c-4.31,0-7.49-1.31-9.54-3.94-2.05-2.63-3.08-7.04-3.08-13.23,0-1.28.05-2.79.15-4.54.1-1.75.34-3.57.71-5.45.37-1.88.87-3.74,1.51-5.55.64-1.82,1.48-3.45,2.53-4.9,1.04-1.45,2.32-2.63,3.84-3.54s3.35-1.36,5.5-1.36c1.48,0,2.64.25,3.48.76.84.5,1.46,1.31,1.87,2.42.4,1.11.64,2.51.71,4.19.07,1.68.13,3.67.2,5.96,0,.74.18,1.23.56,1.46.37.24,1.29.35,2.78.35,4.65,0,8.23-.99,10.76-2.98,2.52-1.99,3.79-5.13,3.79-9.44,0-2.49-.45-4.85-1.36-7.07-.91-2.22-2.32-4.16-4.24-5.81Z"/>
        <path class="cls-2" d="M409.1,6.41c-.34-.2-.71-.3-1.11-.3h-45.15c-1.21,0-2.24.2-3.08.61-.84.4-1.53.94-2.07,1.62-.54.67-.93,1.43-1.16,2.27-.24.84-.39,1.7-.45,2.58l-.3,5.66c0,.94.37,1.41,1.11,1.41h16.16c-.2,2.76-.42,5.76-.66,8.99-.24,3.23-.49,6.48-.76,9.75-.27,3.27-.52,6.5-.76,9.7-.24,3.2-.46,6.16-.66,8.89-.2,2.73-.35,5.1-.45,7.12-.1,2.02-.15,3.54-.15,4.54,0,2.76.81,4.88,2.42,6.36,1.62,1.48,4.31,2.22,8.08,2.22h5.55c.67,0,1.04-.5,1.11-1.51l3.84-56.06h10.91c3.03,0,5.03-.62,6.01-1.87.97-1.25,1.53-2.88,1.67-4.9l.4-5.96c0-.54-.17-.91-.5-1.11Z"/>
        <path class="cls-2" d="M450.51,42.12c-2.09-1.65-4.36-2.98-6.82-3.99-2.46-1.01-4.73-2-6.82-2.98-2.09-.97-3.82-2.04-5.2-3.18-1.38-1.14-2.07-2.63-2.07-4.44,0-2.09.84-3.79,2.53-5.1,1.68-1.31,3.6-1.97,5.76-1.97,1.55,0,2.76.35,3.64,1.06.87.71,1.51,1.57,1.92,2.58.4,1.01.66,2.05.76,3.13.1,1.08.15,1.95.15,2.63,0,.74.17,1.23.5,1.46.34.24,1.11.35,2.32.35,3.9,0,6.9-.99,8.99-2.98,2.09-1.99,3.13-4.86,3.13-8.64,0-4.44-1.53-8.04-4.6-10.81-3.06-2.76-7.76-4.14-14.09-4.14-3.23,0-6.48.42-9.75,1.26-3.27.84-6.2,2.22-8.79,4.14-2.59,1.92-4.71,4.39-6.36,7.42-1.65,3.03-2.47,6.73-2.47,11.11,0,3.91.64,7.1,1.92,9.59,1.28,2.49,2.89,4.53,4.85,6.11,1.95,1.58,4.06,2.83,6.31,3.74,2.25.91,4.36,1.79,6.31,2.63,1.95.84,3.57,1.77,4.85,2.78,1.28,1.01,1.92,2.36,1.92,4.04,0,.94-.22,1.75-.66,2.42-.44.67-1.01,1.21-1.72,1.62-.71.4-1.52.69-2.42.86-.91.17-1.83.25-2.78.25-2.36,0-4.43-.4-6.21-1.21-1.79-.81-3.35-1.72-4.7-2.73-1.35-1.01-2.54-1.92-3.59-2.73-1.04-.81-2.04-1.21-2.98-1.21-1.35,0-2.27.98-2.78,2.93-.5,1.95-.76,5.15-.76,9.6,0,1.08.61,2.27,1.82,3.58,1.21,1.31,2.88,2.53,5,3.64,2.12,1.11,4.61,2.04,7.47,2.78,2.86.74,5.97,1.11,9.34,1.11,3.9,0,7.32-.54,10.25-1.62,2.93-1.08,5.35-2.58,7.27-4.49s3.37-4.17,4.34-6.77c.97-2.59,1.46-5.37,1.46-8.33,0-3.77-.69-6.88-2.07-9.34-1.38-2.46-3.12-4.51-5.2-6.16Z"/>
      </g>
    </g>
  </g>
</svg>