<?xml version="1.0" encoding="UTF-8"?>
<svg id="Layer_2" data-name="Layer 2" xmlns="http://www.w3.org/2000/svg" viewBox="0 0 423.85 128.73">
  <defs>
    <style>
      .cls-1 {
        fill: none;
      }

      .cls-2 {
        fill: #f2f2f2;
      }

      .cls-3 {
        fill: #f4b734;
      }

      .cls-4 {
        fill: #e75039;
      }

      .cls-5 {
        fill: #b71f43;
      }

      .cls-6 {
        fill: #232b5f;
      }
    </style>
  </defs>
  <g id="Layer_10" data-name="Layer 10">
    <g>
      <path class="cls-3" d="M421.51,47.44c-.29-.37-.62-.71-1-1-.29-.37-.62-.71-1-1-.29-.37-.62-.71-1-1-.29-.37-.62-.71-1-1-.29-.37-.62-.71-1-1-.29-.37-.62-.71-1-1-.29-.37-.62-.71-1-1-.29-.37-.62-.71-1-1-.29-.37-.62-.71-1-1-.29-.37-.62-.71-1-1-.29-.37-.62-.71-1-1-.29-.37-.62-.71-1-1-.29-.37-.62-.71-1-1-.29-.37-.62-.71-1-1-.29-.37-.62-.71-1-1-.29-.37-.62-.71-1-1-.29-.37-.62-.71-1-1-.29-.37-.62-.71-1-1-.29-.37-.62-.71-1-1-.29-.37-.62-.71-1-1-.29-.37-.62-.71-1-1-.29-.37-.62-.71-1-1-.29-.37-.62-.71-1-1-.29-.37-.62-.71-1-1-.29-.37-.62-.71-1-1-.29-.37-.62-.71-1-1-.29-.37-.62-.71-1-1-.29-.37-.62-.71-1-1-.29-.37-.62-.71-1-1-.29-.37-.62-.71-1-1-.29-.37-.62-.71-1-1-.29-.37-.62-.71-1-1-.29-.37-.62-.71-1-1-.29-.37-.62-.71-1-1-.29-.37-.62-.71-1-1-.29-.37-.62-.71-1-1-.29-.37-.62-.71-1-1-.29-.37-.62-.71-1-1-.29-.37-.62-.71-1-1-.29-.37-.62-.71-1-1-.29-.37-.62-.71-1-1-.29-.37-.62-.71-1-1-.29-.37-.62-.71-1-1-.29-.37-.62-.71-1-1-.44-.55-.97-1.04-1.61-1.42-1.11-.66-2.38-1.01-3.68-1.01h-35.55c-3.83,0-6.62,2.74-6.62,6.51,0,.64-.04,2.04-.23,5.01-.06-.05-.11-.11-.17-.17-.06-.07-.11-.15-.17-.22-.26-.28-.54-.53-.83-.78-.06-.07-.11-.15-.17-.22-.26-.28-.54-.53-.83-.78-.06-.07-.11-.15-.17-.22-.26-.28-.54-.53-.83-.78-.06-.07-.11-.15-.17-.22-.26-.28-.54-.53-.83-.78-.06-.07-.11-.15-.17-.22-.26-.28-.54-.53-.83-.78-.06-.07-.11-.15-.17-.22-.26-.28-.54-.53-.83-.78-.06-.07-.11-.15-.17-.22-.26-.28-.54-.53-.83-.78-.06-.07-.11-.15-.17-.22-1.32-1.44-3.06-2.52-5.19-3.24-1.85-.61-4.06-.91-6.78-.91h-15.76c-2.91,0-4.61,1.19-5.51,2.19-.81.89-1.4,1.89-1.76,2.96l-.05.16-3.1,11.97c-.07-.07-.15-.14-.22-.2-.32-.35-.65-.68-1-1-.32-.35-.65-.68-1-1-.32-.35-.65-.68-1-1-.32-.35-.65-.68-1-1-.32-.35-.65-.68-1-1-.32-.35-.65-.68-1-1-.32-.35-.65-.68-1-1-.32-.35-.65-.68-1-1-.32-.35-.65-.68-1-1-.32-.35-.65-.68-1-1-.32-.35-.65-.68-1-1-.32-.35-.65-.68-1-1-1.24-1.36-2.68-2.46-4.31-3.28-2.38-1.19-5.3-1.79-8.7-1.79h-14.14c-1.23,0-2.45.35-3.63,1.04-1.93,1.13-3.08,3.18-3.08,5.48,0,1.2-.02,2.2-.05,2.98,0,.12,0,.25-.01.37-.06-.06-.1-.12-.16-.18-.16-.16-.36-.31-.53-.46-.16-.18-.3-.37-.47-.54-.16-.16-.36-.31-.53-.46-.16-.18-.3-.37-.47-.54-.16-.16-.36-.31-.53-.46-.16-.18-.3-.37-.47-.54-.16-.16-.36-.31-.53-.46-.16-.18-.3-.37-.47-.54-.16-.16-.36-.31-.53-.46-.16-.18-.3-.37-.47-.54-.16-.16-.36-.31-.53-.46-.16-.18-.3-.37-.47-.54-1.26-1.25-2.95-2.21-5.04-2.85-1.81-.56-4.06-.83-6.88-.83h-5.55c-3.58,0-5.18,2.21-5.71,3.17-.64,1.19-.91,2.62-.91,4.96,0,.53-.03,1.76-.19,4.56-.06,1.04-.13,2.18-.21,3.38-.28-.3-.56-.6-.87-.87-.31-.36-.64-.69-1-1-.31-.36-.64-.69-1-1-.31-.36-.64-.69-1-1-.31-.36-.64-.69-1-1-.31-.36-.64-.69-1-1-.31-.36-.64-.69-1-1-.31-.36-.64-.69-1-1-.31-.36-.64-.69-1-1-.31-.36-.64-.69-1-1-.31-.36-.64-.69-1-1-.31-.36-.64-.69-1-1-2.46-2.82-6.35-4.2-11.91-4.2h-5.56c-2.13,0-4.05.95-5.26,2.62-.89,1.23-1.33,2.77-1.45,5.14-.06,1.07-.18,2.66-.35,4.68-.18-.19-.36-.37-.55-.55-.31-.35-.66-.67-1-1-.31-.35-.66-.67-1-1-.31-.35-.66-.67-1-1-.31-.35-.66-.67-1-1-.31-.35-.66-.67-1-1-.31-.35-.66-.67-1-1-.46-.51-.95-1-1.47-1.47-4-3.6-9.86-5.43-17.44-5.43-3.64,0-7.34.48-10.99,1.42-3.88,1-7.42,2.67-10.51,4.96-1.36,1.01-2.62,2.15-3.77,3.41-.13-.12-.26-.24-.4-.36-.29-.37-.62-.71-1-1-.29-.37-.62-.71-1-1-.29-.37-.62-.71-1-1-.29-.37-.62-.71-1-1-.29-.37-.62-.71-1-1-.29-.37-.62-.71-1-1-.44-.55-.97-1.04-1.61-1.42-1.11-.66-2.38-1.01-3.68-1.01h-35.55c-3.83,0-6.62,2.74-6.62,6.51,0,.71-.05,2.34-.29,6.04-.08,1.23-.18,2.58-.28,4-.17-.17-.35-.34-.53-.51-.12-.13-.24-.27-.37-.4-.2-.21-.42-.4-.63-.6-.12-.13-.24-.27-.37-.4-.2-.21-.42-.4-.63-.6-.12-.13-.24-.27-.37-.4-.2-.21-.42-.4-.63-.6-.12-.13-.24-.27-.37-.4-.2-.21-.42-.4-.63-.6-.12-.13-.24-.27-.37-.4-.2-.21-.42-.4-.63-.6-.12-.13-.24-.27-.37-.4-.2-.21-.42-.4-.63-.6-.12-.13-.24-.27-.37-.4-.2-.21-.42-.4-.63-.6-.12-.13-.24-.27-.37-.4-.2-.21-.42-.4-.63-.6-.12-.13-.24-.27-.37-.4-.2-.21-.42-.4-.63-.6-.12-.13-.24-.27-.37-.4-2.45-2.5-5.63-4.44-9.45-5.76-3.61-1.26-7.9-1.89-12.75-1.89-1.51,0-3.22.05-5.08.16-1.8.1-3.72.22-5.76.36-1.99.13-4.06.25-6.21.35-2.11.1-4.19.15-6.18.15-3.01,0-5.43,2-6.17,5.1-.2.83-.44,2.27-.74,6.69l-.56,10c-.23,4.2-.62,9.73-1.15,16.43-.27,3.25-.52,6.44-.76,9.58-.24,3.13-.45,6-.66,8.63-.2,2.65-.36,4.99-.46,6.94-.11,2.01-.16,3.44-.16,4.35,0,4.37,1.32,7.84,3.91,10.33.1.09.21.17.31.27.22.25.44.5.69.73.1.09.21.17.31.27.22.25.44.5.69.73.1.09.21.17.31.27.22.25.44.5.69.73.1.09.21.17.31.27.22.25.44.5.69.73.1.09.21.17.31.27.22.25.44.5.69.73.1.09.21.17.31.27.22.25.44.5.69.73.1.09.21.17.31.27.22.25.44.5.69.73.1.09.21.17.31.27.22.25.44.5.69.73.1.09.21.17.31.27.22.25.44.5.69.73.1.09.21.17.31.27.22.25.44.5.69.73.1.09.21.17.31.27.22.25.44.5.69.73.1.09.21.17.31.27.22.25.44.5.69.73.1.09.21.17.31.27.22.25.44.5.69.73.1.09.21.17.31.27.22.25.44.5.69.73.1.09.21.17.31.27.22.25.44.5.69.73.1.09.21.17.31.27.22.25.44.5.69.73.1.09.21.17.31.27.22.25.44.5.69.73.1.09.21.17.31.27.22.25.44.5.69.73.1.09.21.17.31.27.22.25.44.5.69.73.1.09.21.17.31.27.22.25.44.5.69.73.1.09.21.17.31.27.22.25.44.5.69.73.1.09.21.17.31.27.22.25.44.5.69.73.1.09.21.17.31.27.22.25.44.5.69.73.1.09.21.17.31.27.22.25.44.5.69.73.1.09.21.17.31.27.22.25.44.5.69.73.1.09.21.17.31.27.22.25.44.5.69.73.1.09.21.17.31.27.22.25.44.5.69.73.1.09.21.17.31.27.22.25.44.5.69.73.1.09.21.17.31.27.22.25.44.5.69.73.1.09.21.17.31.27.22.25.44.5.69.73.1.09.21.17.31.27.22.25.44.5.69.73.1.09.21.17.31.27.22.25.44.5.69.73.1.09.21.17.31.27.22.25.44.5.69.73.1.09.21.17.31.27.22.25.44.5.69.73.1.09.21.17.31.27.22.25.44.5.69.73.1.09.21.17.31.27.22.25.44.5.69.73.1.09.21.17.31.27.22.25.44.5.69.73.1.09.21.17.31.27.22.25.44.5.69.73.1.09.21.17.31.27.22.25.44.5.69.73.1.09.21.17.31.27.22.25.44.5.69.73.1.09.21.17.31.27.22.25.44.5.69.73.1.09.21.17.31.27.22.25.44.5.69.73.1.09.21.17.31.27.22.25.44.5.69.73.1.09.21.17.31.27.22.25.44.5.69.73.1.09.21.17.31.27.22.25.44.5.69.73,2.57,2.46,6.36,3.66,11.59,3.66h5.05c2.66,0,4.19-1.14,5-2.1.85-.99,1.38-2.26,1.57-3.79l.04-.23v-.32s.02-.43.18-2.07c.08-.82.16-1.77.24-2.84.15.15.3.3.45.45.32.36.66.68,1,1,.32.36.66.68,1,1,.32.36.66.68,1,1,.32.36.66.68,1,1,.32.36.66.68,1,1,.32.36.66.68,1,1,.32.36.66.68,1,1,.49.54,1,1.05,1.52,1.51,2.48,2.22,5.57,3.39,8.94,3.39,2.56,0,4.94-.42,7.09-1.24,2.02-.77,3.8-1.74,5.27-2.85,1.56-1.18,2.75-2.39,3.64-3.7.2-.29.41-.62.62-.99.08.08.16.17.24.24.05.04.1.08.15.12.29.32.57.62.85.88.05.04.1.08.15.12.29.32.57.62.85.88.05.04.1.08.15.12.29.32.57.62.85.88.05.04.1.08.15.12.29.32.57.62.85.88,2.6,2.38,6.34,3.54,11.46,3.54h23.23c4.7,0,7.95-1.24,9.95-3.78,1.12-1.43,1.9-3.13,2.34-5.05.18.19.38.38.58.57.04.05.08.1.13.15,1.6,1.73,3.73,3.3,6.35,4.67,2.45,1.29,5.33,2.36,8.54,3.19,3.26.84,6.82,1.27,10.59,1.27,4.48,0,8.51-.65,11.98-1.92,3.6-1.32,6.65-3.22,9.08-5.65,2.42-2.42,4.26-5.29,5.49-8.54.14-.36.24-.73.36-1.1.3.32.62.64.94.94.32.34.66.68,1,1,.32.34.66.68,1,1,.32.34.66.68,1,1,.32.34.66.68,1,1,.32.34.66.68,1,1,.32.34.66.68,1,1,.32.34.66.68,1,1,.32.34.66.68,1,1,2.4,2.56,5.44,4.6,9.05,6.05,3.68,1.48,8.08,2.23,13.08,2.23s9.18-.66,12.83-1.95c3.68-1.31,6.89-3.09,9.56-5.31,2.64-2.2,4.84-4.75,6.54-7.58.18-.3.34-.61.51-.91.03.03.05.06.08.09.1.09.21.17.31.27.22.25.44.5.69.73.1.09.21.17.31.27.22.25.44.5.69.73.1.09.21.17.31.27.22.25.44.5.69.73.1.09.21.17.31.27.22.25.44.5.69.73.1.09.21.17.31.27.22.25.44.5.69.73.1.09.21.17.31.27.22.25.44.5.69.73.1.09.21.17.31.27.22.25.44.5.69.73.1.09.21.17.31.27.22.25.44.5.69.73.1.09.21.17.31.27.22.25.44.5.69.73.1.09.21.17.31.27.22.25.44.5.69.73.1.09.21.17.31.27.22.25.44.5.69.73,2.57,2.46,6.36,3.66,11.59,3.66h5.55c2.57,0,4.81-1.45,5.84-3.8.52-1.2.74-2.73.77-5.35.09.08.17.18.26.26.31.35.64.69,1,1,.31.35.64.69,1,1,.31.35.64.69,1,1,.31.35.64.69,1,1,.33.37.67.72,1.04,1.04,1.21,1.05,2.62,1.9,4.21,2.51,1.45.56,3.01.93,4.63,1.11,1.38.15,2.76.23,4.09.23,2.45,0,4.26-.24,5.69-.75,2.6-.94,3.85-2.55,4.44-3.73l.1-.2.08-.21c.56-1.42,1.16-3.01,1.79-4.7.06.06.13.1.19.16.23.26.46.52.72.76.09.08.19.16.28.24.23.26.46.52.72.76.09.08.19.16.28.24.23.26.46.52.72.76.09.08.19.16.28.24.23.26.46.52.72.76.09.08.19.16.28.24.23.26.46.52.72.76.09.08.19.16.28.24.23.26.46.52.72.76,2.57,2.46,6.36,3.66,11.59,3.66h5.55c2.65,0,4.19-1.14,5-2.1.85-.99,1.38-2.26,1.56-3.72.04-.27.13-.9.44-5.18,0-.07.01-.14.02-.21.23.25.46.47.68.68.05.04.1.08.15.12.29.32.57.62.85.88.05.04.1.08.15.12.29.32.57.62.85.88.05.04.1.08.15.12.29.32.57.62.85.88.05.04.1.08.15.12.29.32.57.62.85.88.05.04.1.08.15.12.29.32.57.62.85.88.05.04.1.08.15.12.29.32.57.62.85.88.05.04.1.08.15.12.29.32.57.62.85.88,2.6,2.38,6.34,3.54,11.46,3.54h23.23c4.7,0,7.95-1.24,9.95-3.78,1.6-2.04,2.52-4.62,2.72-7.64l.42-6.13v-.17c0-1.97-.85-3.73-2.35-4.92-.29-.37-.62-.7-1-1-.29-.37-.62-.7-1-1-.29-.37-.62-.7-1-1-.29-.37-.62-.7-1-1-.29-.37-.62-.7-1-1-.29-.37-.62-.7-1-1-.29-.37-.62-.7-1-1-.29-.37-.62-.7-1-1-.16-.2-.33-.39-.52-.57.71-.49,1.34-1.07,1.87-1.75,1.6-2.04,2.52-4.62,2.72-7.64l.42-6.13v-.17c0-2.05-.84-3.82-2.33-4.98-.29-.37-.62-.71-1-1-.29-.37-.62-.71-1-1-.29-.37-.62-.71-1-1-.29-.37-.62-.71-1-1-.29-.37-.62-.71-1-1-.19-.24-.4-.46-.63-.67h1.95c4.7,0,7.95-1.24,9.95-3.78,1.6-2.04,2.52-4.62,2.72-7.64l.41-6.13v-.17c0-2.05-.84-3.82-2.33-4.98Z"/>
      <path class="cls-4" d="M410.51,36.44c-.29-.37-.62-.71-1-1-.29-.37-.62-.71-1-1-.29-.37-.62-.71-1-1-.29-.37-.62-.71-1-1-.29-.37-.62-.71-1-1-.29-.37-.62-.71-1-1-.29-.37-.62-.71-1-1-.29-.37-.62-.71-1-1-.29-.37-.62-.71-1-1-.29-.37-.62-.71-1-1-.29-.37-.62-.71-1-1-.29-.37-.62-.71-1-1-.29-.37-.62-.71-1-1-.29-.37-.62-.71-1-1-.29-.37-.62-.71-1-1-.29-.37-.62-.71-1-1-.29-.37-.62-.71-1-1-.29-.37-.62-.71-1-1-.29-.37-.62-.71-1-1-.29-.37-.62-.71-1-1-.29-.37-.62-.71-1-1-.29-.37-.62-.71-1-1-.29-.37-.62-.71-1-1-.29-.37-.62-.71-1-1-.29-.37-.62-.71-1-1-.29-.37-.62-.71-1-1-.29-.37-.62-.71-1-1-.29-.37-.62-.71-1-1-.29-.37-.62-.71-1-1-.29-.37-.62-.71-1-1-.29-.37-.62-.71-1-1-.29-.37-.62-.71-1-1-.29-.37-.62-.71-1-1-.44-.55-.97-1.04-1.61-1.42-1.11-.66-2.38-1.01-3.68-1.01h-35.55c-3.83,0-6.62,2.74-6.62,6.51,0,.64-.04,2.04-.23,5.01-.06-.05-.11-.11-.17-.17-.06-.07-.11-.15-.17-.22-.26-.28-.54-.53-.83-.78-.06-.07-.11-.15-.17-.22-.26-.28-.54-.53-.83-.78-.06-.07-.11-.15-.17-.22-.26-.28-.54-.53-.83-.78-.06-.07-.11-.15-.17-.22-.26-.28-.54-.53-.83-.78-.06-.07-.11-.15-.17-.22-.26-.28-.54-.53-.83-.78-.06-.07-.11-.15-.17-.22-.26-.28-.54-.53-.83-.78-.06-.07-.11-.15-.17-.22-.26-.28-.54-.53-.83-.78-.06-.07-.11-.15-.17-.22-1.32-1.44-3.06-2.52-5.19-3.24-1.85-.61-4.06-.91-6.78-.91h-15.76c-2.91,0-4.61,1.19-5.51,2.19-.81.89-1.4,1.89-1.76,2.96l-.05.16-3.1,11.97c-.07-.07-.15-.14-.22-.2-.32-.35-.65-.68-1-1-.32-.35-.65-.68-1-1-.32-.35-.65-.68-1-1-.32-.35-.65-.68-1-1-.32-.35-.65-.68-1-1-.32-.35-.65-.68-1-1-.32-.35-.65-.68-1-1-.32-.35-.65-.68-1-1-.32-.35-.65-.68-1-1-.32-.35-.65-.68-1-1-.32-.35-.65-.68-1-1-.32-.35-.65-.68-1-1-1.24-1.36-2.68-2.46-4.31-3.28-2.38-1.19-5.3-1.79-8.7-1.79h-14.14c-1.23,0-2.45.35-3.63,1.04-1.93,1.13-3.08,3.18-3.08,5.48,0,1.2-.02,2.2-.05,2.98,0,.12,0,.25-.01.37-.06-.06-.1-.12-.16-.18-.16-.16-.36-.31-.53-.46-.16-.18-.3-.37-.47-.54-.16-.16-.36-.31-.53-.46-.16-.18-.3-.37-.47-.54-.16-.16-.36-.31-.53-.46-.16-.18-.3-.37-.47-.54-.16-.16-.36-.31-.53-.46-.16-.18-.3-.37-.47-.54-.16-.16-.36-.31-.53-.46-.16-.18-.3-.37-.47-.54-.16-.16-.36-.31-.53-.46-.16-.18-.3-.37-.47-.54-1.26-1.25-2.95-2.21-5.04-2.85-1.81-.56-4.06-.83-6.88-.83h-5.55c-3.58,0-5.18,2.21-5.71,3.17-.64,1.19-.91,2.62-.91,4.96,0,.53-.03,1.76-.19,4.56-.06,1.04-.13,2.18-.21,3.38-.28-.3-.56-.6-.87-.87-.31-.36-.64-.69-1-1-.31-.36-.64-.69-1-1-.31-.36-.64-.69-1-1-.31-.36-.64-.69-1-1-.31-.36-.64-.69-1-1-.31-.36-.64-.69-1-1-.31-.36-.64-.69-1-1-.31-.36-.64-.69-1-1-.31-.36-.64-.69-1-1-.31-.36-.64-.69-1-1-.31-.36-.64-.69-1-1-2.46-2.82-6.35-4.2-11.91-4.2h-5.56c-2.13,0-4.05.95-5.26,2.62-.89,1.23-1.33,2.77-1.45,5.14-.06,1.07-.18,2.66-.35,4.68-.18-.19-.36-.37-.55-.55-.31-.35-.66-.67-1-1-.31-.35-.66-.67-1-1-.31-.35-.66-.67-1-1-.31-.35-.66-.67-1-1-.31-.35-.66-.67-1-1-.31-.35-.66-.67-1-1-.46-.51-.95-1-1.47-1.47-4-3.6-9.86-5.43-17.44-5.43-3.64,0-7.34.48-10.99,1.42-3.88,1-7.42,2.67-10.51,4.96-1.36,1.01-2.62,2.15-3.77,3.41-.13-.12-.26-.24-.4-.36-.29-.37-.62-.71-1-1-.29-.37-.62-.71-1-1-.29-.37-.62-.71-1-1-.29-.37-.62-.71-1-1-.29-.37-.62-.71-1-1-.29-.37-.62-.71-1-1-.44-.55-.97-1.04-1.61-1.42-1.11-.66-2.38-1.01-3.68-1.01h-35.55c-3.83,0-6.62,2.74-6.62,6.51,0,.71-.05,2.34-.29,6.04-.08,1.23-.18,2.58-.28,4-.17-.17-.35-.34-.53-.51-.12-.13-.24-.27-.37-.4-.2-.21-.42-.4-.63-.6-.12-.13-.24-.27-.37-.4-.2-.21-.42-.4-.63-.6-.12-.13-.24-.27-.37-.4-.2-.21-.42-.4-.63-.6-.12-.13-.24-.27-.37-.4-.2-.21-.42-.4-.63-.6-.12-.13-.24-.27-.37-.4-.2-.21-.42-.4-.63-.6-.12-.13-.24-.27-.37-.4-.2-.21-.42-.4-.63-.6-.12-.13-.24-.27-.37-.4-.2-.21-.42-.4-.63-.6-.12-.13-.24-.27-.37-.4-.2-.21-.42-.4-.63-.6-.12-.13-.24-.27-.37-.4-.2-.21-.42-.4-.63-.6-.12-.13-.24-.27-.37-.4-2.45-2.5-5.63-4.44-9.45-5.76-3.61-1.26-7.9-1.89-12.75-1.89-1.51,0-3.22.05-5.08.16-1.8.1-3.72.22-5.76.36-1.99.13-4.06.25-6.21.35-2.11.1-4.19.15-6.18.15-3.01,0-5.43,2-6.17,5.1-.2.83-.44,2.27-.74,6.69l-.56,10c-.23,4.2-.62,9.73-1.15,16.43-.27,3.25-.52,6.44-.76,9.58-.24,3.13-.45,6-.66,8.63-.2,2.65-.36,4.99-.46,6.94-.11,2.01-.16,3.44-.16,4.35,0,4.37,1.32,7.84,3.91,10.33.1.09.21.17.31.27.22.25.44.5.69.73.1.09.21.17.31.27.22.25.44.5.69.73.1.09.21.17.31.27.22.25.44.5.69.73.1.09.21.17.31.27.22.25.44.5.69.73.1.09.21.17.31.27.22.25.44.5.69.73.1.09.21.17.31.27.22.25.44.5.69.73.1.09.21.17.31.27.22.25.44.5.69.73.1.09.21.17.31.27.22.25.44.5.69.73.1.09.21.17.31.27.22.25.44.5.69.73.1.09.21.17.31.27.22.25.44.5.69.73.1.09.21.17.31.27.22.25.44.5.69.73.1.09.21.17.31.27.22.25.44.5.69.73.1.09.21.17.31.27.22.25.44.5.69.73.1.09.21.17.31.27.22.25.44.5.69.73.1.09.21.17.31.27.22.25.44.5.69.73.1.09.21.17.31.27.22.25.44.5.69.73.1.09.21.17.31.27.22.25.44.5.69.73.1.09.21.17.31.27.22.25.44.5.69.73.1.09.21.17.31.27.22.25.44.5.69.73.1.09.21.17.31.27.22.25.44.5.69.73.1.09.21.17.31.27.22.25.44.5.69.73.1.09.21.17.31.27.22.25.44.5.69.73.1.09.21.17.31.27.22.25.44.5.69.73.1.09.21.17.31.27.22.25.44.5.69.73.1.09.21.17.31.27.22.25.44.5.69.73.1.09.21.17.31.27.22.25.44.5.69.73.1.09.21.17.31.27.22.25.44.5.69.73.1.09.21.17.31.27.22.25.44.5.69.73.1.09.21.17.31.27.22.25.44.5.69.73.1.09.21.17.31.27.22.25.44.5.69.73.1.09.21.17.31.27.22.25.44.5.69.73.1.09.21.17.31.27.22.25.44.5.69.73.1.09.21.17.31.27.22.25.44.5.69.73.1.09.21.17.31.27.22.25.44.5.69.73,2.57,2.46,6.36,3.66,11.59,3.66h5.05c2.66,0,4.19-1.14,5-2.1.85-.99,1.38-2.26,1.57-3.79l.04-.23v-.32s.02-.43.18-2.07c.08-.82.16-1.77.24-2.84.15.15.3.3.45.45.32.36.66.68,1,1,.32.36.66.68,1,1,.32.36.66.68,1,1,.32.36.66.68,1,1,.32.36.66.68,1,1,.32.36.66.68,1,1,.32.36.66.68,1,1,.49.54,1,1.05,1.52,1.51,2.48,2.22,5.57,3.39,8.94,3.39,2.56,0,4.94-.42,7.09-1.24,2.02-.77,3.8-1.74,5.27-2.85,1.56-1.18,2.75-2.39,3.64-3.7.2-.29.41-.62.62-.99.08.08.16.17.24.24.05.04.1.08.15.12.29.32.57.62.85.88.05.04.1.08.15.12.29.32.57.62.85.88.05.04.1.08.15.12.29.32.57.62.85.88.05.04.1.08.15.12.29.32.57.62.85.88,2.6,2.38,6.34,3.54,11.46,3.54h23.23c4.7,0,7.95-1.24,9.95-3.78,1.12-1.43,1.9-3.13,2.34-5.05.18.19.38.38.58.57.04.05.08.1.13.15,1.6,1.73,3.73,3.3,6.35,4.67,2.45,1.29,5.33,2.36,8.54,3.19,3.26.84,6.82,1.27,10.59,1.27,4.48,0,8.51-.65,11.98-1.92,3.6-1.32,6.65-3.22,9.08-5.65,2.42-2.42,4.26-5.29,5.49-8.54.14-.36.24-.73.36-1.1.3.32.62.64.94.94.32.34.66.68,1,1,.32.34.66.68,1,1,.32.34.66.68,1,1,.32.34.66.68,1,1,.32.34.66.68,1,1,.32.34.66.68,1,1,.32.34.66.68,1,1,.32.34.66.68,1,1,2.4,2.56,5.44,4.6,9.05,6.05,3.68,1.48,8.08,2.23,13.08,2.23s9.18-.66,12.83-1.95c3.68-1.31,6.89-3.09,9.56-5.31,2.64-2.2,4.84-4.75,6.54-7.58.18-.3.34-.61.51-.91.03.03.05.06.08.09.1.09.21.17.31.27.22.25.44.5.69.73.1.09.21.17.31.27.22.25.44.5.69.73.1.09.21.17.31.27.22.25.44.5.69.73.1.09.21.17.31.27.22.25.44.5.69.73.1.09.21.17.31.27.22.25.44.5.69.73.1.09.21.17.31.27.22.25.44.5.69.73.1.09.21.17.31.27.22.25.44.5.69.73.1.09.21.17.31.27.22.25.44.5.69.73.1.09.21.17.31.27.22.25.44.5.69.73.1.09.21.17.31.27.22.25.44.5.69.73.1.09.21.17.31.27.22.25.44.5.69.73,2.57,2.46,6.36,3.66,11.59,3.66h5.55c2.57,0,4.81-1.45,5.84-3.8.52-1.2.74-2.73.77-5.35.09.08.17.18.26.26.31.35.64.69,1,1,.31.35.64.69,1,1,.31.35.64.69,1,1,.31.35.64.69,1,1,.33.37.67.72,1.04,1.04,1.21,1.05,2.62,1.9,4.21,2.51,1.45.56,3.01.93,4.63,1.11,1.38.15,2.76.23,4.09.23,2.45,0,4.26-.24,5.69-.75,2.6-.94,3.85-2.55,4.44-3.73l.1-.2.08-.21c.56-1.42,1.16-3.01,1.79-4.7.06.06.13.1.19.16.23.26.46.52.72.76.09.08.19.16.28.24.23.26.46.52.72.76.09.08.19.16.28.24.23.26.46.52.72.76.09.08.19.16.28.24.23.26.46.52.72.76.09.08.19.16.28.24.23.26.46.52.72.76.09.08.19.16.28.24.23.26.46.52.72.76,2.57,2.46,6.36,3.66,11.59,3.66h5.55c2.65,0,4.19-1.14,5-2.1.85-.99,1.38-2.26,1.56-3.72.04-.27.13-.9.44-5.18,0-.07.01-.14.02-.21.23.25.46.47.68.68.05.04.1.08.15.12.29.32.57.62.85.88.05.04.1.08.15.12.29.32.57.62.85.88.05.04.1.08.15.12.29.32.57.62.85.88.05.04.1.08.15.12.29.32.57.62.85.88.05.04.1.08.15.12.29.32.57.62.85.88.05.04.1.08.15.12.29.32.57.62.85.88.05.04.1.08.15.12.29.32.57.62.85.88,2.6,2.38,6.34,3.54,11.46,3.54h23.23c4.7,0,7.95-1.24,9.95-3.78,1.6-2.04,2.52-4.62,2.72-7.64l.42-6.13v-.17c0-1.97-.85-3.73-2.35-4.92-.29-.37-.62-.7-1-1-.29-.37-.62-.7-1-1-.29-.37-.62-.7-1-1-.29-.37-.62-.7-1-1-.29-.37-.62-.7-1-1-.29-.37-.62-.7-1-1-.29-.37-.62-.7-1-1-.29-.37-.62-.7-1-1-.16-.2-.33-.39-.52-.57.71-.49,1.34-1.07,1.87-1.75,1.6-2.04,2.52-4.62,2.72-7.64l.42-6.13v-.17c0-2.05-.84-3.82-2.33-4.98-.29-.37-.62-.71-1-1-.29-.37-.62-.71-1-1-.29-.37-.62-.71-1-1-.29-.37-.62-.71-1-1-.29-.37-.62-.71-1-1-.19-.24-.4-.46-.63-.67h1.95c4.7,0,7.95-1.24,9.95-3.78,1.6-2.04,2.52-4.62,2.72-7.64l.41-6.13v-.17c0-2.05-.84-3.82-2.33-4.98Z"/>
      <path class="cls-5" d="M399.51,25.44c-.29-.37-.62-.71-1-1-.29-.37-.62-.71-1-1-.29-.37-.62-.71-1-1-.29-.37-.62-.71-1-1-.29-.37-.62-.71-1-1-.29-.37-.62-.71-1-1-.29-.37-.62-.71-1-1-.29-.37-.62-.71-1-1-.29-.37-.62-.71-1-1-.29-.37-.62-.71-1-1-.29-.37-.62-.71-1-1-.29-.37-.62-.71-1-1-.29-.37-.62-.71-1-1-.29-.37-.62-.71-1-1-.29-.37-.62-.71-1-1-.29-.37-.62-.71-1-1-.29-.37-.62-.71-1-1-.29-.37-.62-.71-1-1-.29-.37-.62-.71-1-1-.29-.37-.62-.71-1-1-.29-.37-.62-.71-1-1-.29-.37-.62-.71-1-1-.44-.55-.97-1.04-1.61-1.42-1.11-.66-2.38-1.01-3.68-1.01h-35.55c-3.83,0-6.62,2.74-6.62,6.51,0,.64-.04,2.04-.23,5.01-.06-.05-.11-.11-.17-.17-.06-.07-.11-.15-.17-.22-.26-.28-.54-.53-.83-.78-.06-.07-.11-.15-.17-.22-.26-.28-.54-.53-.83-.78-.06-.07-.11-.15-.17-.22-.26-.28-.54-.53-.83-.78-.06-.07-.11-.15-.17-.22-.26-.28-.54-.53-.83-.78-.06-.07-.11-.15-.17-.22-.26-.28-.54-.53-.83-.78-.06-.07-.11-.15-.17-.22-.26-.28-.54-.53-.83-.78-.06-.07-.11-.15-.17-.22-.26-.28-.54-.53-.83-.78-.06-.07-.11-.15-.17-.22-1.32-1.44-3.06-2.52-5.19-3.24-1.85-.61-4.06-.91-6.78-.91h-15.76c-2.91,0-4.61,1.19-5.51,2.19-.81.89-1.4,1.89-1.76,2.96l-.05.16-3.1,11.97c-.07-.07-.15-.14-.22-.2-.32-.35-.65-.68-1-1-.32-.35-.65-.68-1-1-.32-.35-.65-.68-1-1-.32-.35-.65-.68-1-1-.32-.35-.65-.68-1-1-.32-.35-.65-.68-1-1-.32-.35-.65-.68-1-1-.32-.35-.65-.68-1-1-.32-.35-.65-.68-1-1-.32-.35-.65-.68-1-1-.32-.35-.65-.68-1-1-.32-.35-.65-.68-1-1-1.24-1.36-2.68-2.46-4.31-3.28-2.38-1.19-5.3-1.79-8.7-1.79h-14.14c-1.23,0-2.45.35-3.63,1.04-1.93,1.13-3.08,3.18-3.08,5.48,0,1.2-.02,2.2-.05,2.98,0,.12,0,.25-.01.37-.06-.06-.1-.12-.16-.18-.16-.16-.36-.31-.53-.46-.16-.18-.3-.37-.47-.54-.16-.16-.36-.31-.53-.46-.16-.18-.3-.37-.47-.54-.16-.16-.36-.31-.53-.46-.16-.18-.3-.37-.47-.54-.16-.16-.36-.31-.53-.46-.16-.18-.3-.37-.47-.54-.16-.16-.36-.31-.53-.46-.16-.18-.3-.37-.47-.54-.16-.16-.36-.31-.53-.46-.16-.18-.3-.37-.47-.54-1.26-1.25-2.95-2.21-5.04-2.85-1.81-.56-4.06-.83-6.88-.83h-5.55c-3.58,0-5.18,2.21-5.71,3.17-.64,1.19-.91,2.62-.91,4.96,0,.53-.03,1.76-.19,4.56-.06,1.04-.13,2.18-.21,3.38-.28-.3-.56-.6-.87-.87-.31-.36-.64-.69-1-1-.31-.36-.64-.69-1-1-.31-.36-.64-.69-1-1-.31-.36-.64-.69-1-1-.31-.36-.64-.69-1-1-.31-.36-.64-.69-1-1-.31-.36-.64-.69-1-1-.31-.36-.64-.69-1-1-.31-.36-.64-.69-1-1-.31-.36-.64-.69-1-1-.31-.36-.64-.69-1-1-2.46-2.82-6.35-4.2-11.91-4.2h-5.56c-2.13,0-4.05.95-5.26,2.62-.89,1.23-1.33,2.77-1.45,5.14-.06,1.07-.18,2.66-.35,4.68-.18-.19-.36-.37-.55-.55-.31-.35-.66-.67-1-1-.31-.35-.66-.67-1-1-.31-.35-.66-.67-1-1-.31-.35-.66-.67-1-1-.31-.35-.66-.67-1-1-.31-.35-.66-.67-1-1-.46-.51-.95-1-1.47-1.47-4-3.6-9.86-5.43-17.44-5.43-3.64,0-7.34.48-10.99,1.42-3.88,1-7.42,2.67-10.51,4.96-1.36,1.01-2.62,2.15-3.77,3.41-.13-.12-.26-.24-.4-.36-.29-.37-.62-.71-1-1-.29-.37-.62-.71-1-1-.29-.37-.62-.71-1-1-.29-.37-.62-.71-1-1-.29-.37-.62-.71-1-1-.29-.37-.62-.71-1-1-.44-.55-.97-1.04-1.61-1.42-1.11-.66-2.38-1.01-3.68-1.01h-35.55c-3.83,0-6.62,2.74-6.62,6.51,0,.71-.05,2.34-.29,6.04-.08,1.23-.18,2.58-.28,4-.17-.17-.35-.34-.53-.51-.12-.13-.24-.27-.37-.4-.2-.21-.42-.4-.63-.6-.12-.13-.24-.27-.37-.4-.2-.21-.42-.4-.63-.6-.12-.13-.24-.27-.37-.4-.2-.21-.42-.4-.63-.6-.12-.13-.24-.27-.37-.4-.2-.21-.42-.4-.63-.6-.12-.13-.24-.27-.37-.4-.2-.21-.42-.4-.63-.6-.12-.13-.24-.27-.37-.4-.2-.21-.42-.4-.63-.6-.12-.13-.24-.27-.37-.4-.2-.21-.42-.4-.63-.6-.12-.13-.24-.27-.37-.4-.2-.21-.42-.4-.63-.6-.12-.13-.24-.27-.37-.4-.2-.21-.42-.4-.63-.6-.12-.13-.24-.27-.37-.4-2.45-2.5-5.63-4.44-9.45-5.76-3.61-1.26-7.9-1.89-12.75-1.89-1.51,0-3.22.05-5.08.16-1.8.1-3.72.22-5.76.36-1.99.13-4.06.25-6.21.35-2.11.1-4.19.15-6.18.15-3.01,0-5.43,2-6.17,5.1-.2.83-.44,2.27-.74,6.69l-.56,10c-.23,4.2-.62,9.73-1.15,16.43-.27,3.25-.52,6.44-.76,9.58-.24,3.13-.45,6-.66,8.63-.2,2.65-.36,4.99-.46,6.94-.11,2.01-.16,3.44-.16,4.35,0,4.37,1.32,7.84,3.91,10.33.1.09.21.17.31.27.22.25.44.5.69.73.1.09.21.17.31.27.22.25.44.5.69.73.1.09.21.17.31.27.22.25.44.5.69.73.1.09.21.17.31.27.22.25.44.5.69.73.1.09.21.17.31.27.22.25.44.5.69.73.1.09.21.17.31.27.22.25.44.5.69.73.1.09.21.17.31.27.22.25.44.5.69.73.1.09.21.17.31.27.22.25.44.5.69.73.1.09.21.17.31.27.22.25.44.5.69.73.1.09.21.17.31.27.22.25.44.5.69.73.1.09.21.17.31.27.22.25.44.5.69.73.1.09.21.17.31.27.22.25.44.5.69.73.1.09.21.17.31.27.22.25.44.5.69.73.1.09.21.17.31.27.22.25.44.5.69.73.1.09.21.17.31.27.22.25.44.5.69.73.1.09.21.17.31.27.22.25.44.5.69.73.1.09.21.17.31.27.22.25.44.5.69.73.1.09.21.17.31.27.22.25.44.5.69.73.1.09.21.17.31.27.22.25.44.5.69.73.1.09.21.17.31.27.22.25.44.5.69.73.1.09.21.17.31.27.22.25.44.5.69.73.1.09.21.17.31.27.22.25.44.5.69.73.1.09.21.17.31.27.22.25.44.5.69.73,2.57,2.46,6.36,3.66,11.59,3.66h5.05c2.66,0,4.19-1.14,5-2.1.85-.99,1.38-2.26,1.57-3.79l.04-.23v-.32s.02-.43.18-2.07c.08-.82.16-1.77.24-2.84.15.15.3.3.45.45.32.36.66.68,1,1,.32.36.66.68,1,1,.32.36.66.68,1,1,.32.36.66.68,1,1,.32.36.66.68,1,1,.32.36.66.68,1,1,.32.36.66.68,1,1,.49.54,1,1.05,1.52,1.51,2.48,2.22,5.57,3.39,8.94,3.39,2.56,0,4.94-.42,7.09-1.24,2.02-.77,3.8-1.74,5.27-2.85,1.56-1.18,2.75-2.39,3.64-3.7.2-.29.41-.62.62-.99.08.08.16.17.24.24.05.04.1.08.15.12.29.32.57.62.85.88.05.04.1.08.15.12.29.32.57.62.85.88.05.04.1.08.15.12.29.32.57.62.85.88.05.04.1.08.15.12.29.32.57.62.85.88,2.6,2.38,6.34,3.54,11.46,3.54h23.23c4.7,0,7.95-1.24,9.95-3.78,1.12-1.43,1.9-3.13,2.34-5.05.18.19.38.38.58.57.04.05.08.1.13.15,1.6,1.73,3.73,3.3,6.35,4.67,2.45,1.29,5.33,2.36,8.54,3.19,3.26.84,6.82,1.27,10.59,1.27,4.48,0,8.51-.65,11.98-1.92,3.6-1.32,6.65-3.22,9.08-5.65,2.42-2.42,4.26-5.29,5.49-8.54.14-.36.24-.73.36-1.1.3.32.62.64.94.94.32.34.66.68,1,1,.32.34.66.68,1,1,.32.34.66.68,1,1,.32.34.66.68,1,1,.32.34.66.68,1,1,.32.34.66.68,1,1,.32.34.66.68,1,1,.32.34.66.68,1,1,2.4,2.56,5.44,4.6,9.05,6.05,3.68,1.48,8.08,2.23,13.08,2.23s9.18-.66,12.83-1.95c3.68-1.31,6.89-3.09,9.56-5.31,2.64-2.2,4.84-4.75,6.54-7.58.18-.3.34-.61.51-.91.03.03.05.06.08.09.1.09.21.17.31.27.22.25.44.5.69.73.1.09.21.17.31.27.22.25.44.5.69.73.1.09.21.17.31.27.22.25.44.5.69.73.1.09.21.17.31.27.22.25.44.5.69.73.1.09.21.17.31.27.22.25.44.5.69.73.1.09.21.17.31.27.22.25.44.5.69.73.1.09.21.17.31.27.22.25.44.5.69.73.1.09.21.17.31.27.22.25.44.5.69.73.1.09.21.17.31.27.22.25.44.5.69.73.1.09.21.17.31.27.22.25.44.5.69.73.1.09.21.17.31.27.22.25.44.5.69.73,2.57,2.46,6.36,3.66,11.59,3.66h5.55c2.57,0,4.81-1.45,5.84-3.8.52-1.2.74-2.73.77-5.35.09.08.17.18.26.26.31.35.64.69,1,1,.31.35.64.69,1,1,.31.35.64.69,1,1,.31.35.64.69,1,1,.33.37.67.72,1.04,1.04,1.21,1.05,2.62,1.9,4.21,2.51,1.45.56,3.01.93,4.63,1.11,1.38.15,2.76.23,4.09.23,2.45,0,4.26-.24,5.69-.75,2.6-.94,3.85-2.55,4.44-3.73l.1-.2.08-.21c.56-1.42,1.16-3.01,1.79-4.7.06.06.13.1.19.16.23.26.46.52.72.76.09.08.19.16.28.24.23.26.46.52.72.76.09.08.19.16.28.24.23.26.46.52.72.76.09.08.19.16.28.24.23.26.46.52.72.76.09.08.19.16.28.24.23.26.46.52.72.76.09.08.19.16.28.24.23.26.46.52.72.76,2.57,2.46,6.36,3.66,11.59,3.66h5.55c2.65,0,4.19-1.14,5-2.1.85-.99,1.38-2.26,1.56-3.72.04-.27.13-.9.44-5.18,0-.07.01-.14.02-.21.23.25.46.47.68.68.05.04.1.08.15.12.29.32.57.62.85.88.05.04.1.08.15.12.29.32.57.62.85.88.05.04.1.08.15.12.29.32.57.62.85.88.05.04.1.08.15.12.29.32.57.62.85.88.05.04.1.08.15.12.29.32.57.62.85.88.05.04.1.08.15.12.29.32.57.62.85.88.05.04.1.08.15.12.29.32.57.62.85.88,2.6,2.38,6.34,3.54,11.46,3.54h23.23c4.7,0,7.95-1.24,9.95-3.78,1.6-2.04,2.52-4.62,2.72-7.64l.42-6.13v-.17c0-1.97-.85-3.73-2.35-4.92-.29-.37-.62-.7-1-1-.29-.37-.62-.7-1-1-.29-.37-.62-.7-1-1-.29-.37-.62-.7-1-1-.29-.37-.62-.7-1-1-.29-.37-.62-.7-1-1-.29-.37-.62-.7-1-1-.29-.37-.62-.7-1-1-.16-.2-.33-.39-.52-.57.71-.49,1.34-1.07,1.87-1.75,1.6-2.04,2.52-4.62,2.72-7.64l.42-6.13v-.17c0-2.05-.84-3.82-2.33-4.98-.29-.37-.62-.71-1-1-.29-.37-.62-.71-1-1-.29-.37-.62-.71-1-1-.29-.37-.62-.71-1-1-.29-.37-.62-.71-1-1-.19-.24-.4-.46-.63-.67h1.95c4.7,0,7.95-1.24,9.95-3.78,1.6-2.04,2.52-4.62,2.72-7.64l.41-6.13v-.17c0-2.05-.84-3.82-2.33-4.98Z"/>
      <g>
        <path class="cls-1" d="M62.56,63.04c.02-.3.04-.61.06-.93-.15.12-.3.24-.45.36l.4.57Z"/>
        <path class="cls-1" d="M118.15,44.55c.07.41.12.82.12,1.26v.17l-.29,4.28c.61-.12,1.12-.15,1.45-.15,2.07,0,4.1.76,6.04,2.26.19.14.4.31.6.46-.12-.12-.22-.26-.34-.38-.34-.32-.68-.65-1-1-.34-.32-.68-.65-1-1-.34-.32-.68-.65-1-1-.34-.32-.68-.65-1-1-.34-.32-.68-.65-1-1-.93-.87-1.79-1.83-2.58-2.88Z"/>
        <path class="cls-1" d="M167.19,46.41c.34.32.67.66,1,1,.07.07.16.13.23.2.04-.62.07-1.26.11-1.9-.52.16-1.07.29-1.63.4.1.1.19.2.28.3Z"/>
        <path class="cls-1" d="M112.26,35.15h-1.95c.23.21.44.43.63.67.38.29.71.63,1,1,.38.29.71.63,1,1,.38.29.71.63,1,1,.38.29.71.63,1,1,.24.19.47.39.67.61-.77-1.59-1.35-3.38-1.73-5.34-.52.04-1.06.06-1.62.06Z"/>
        <path class="cls-6" d="M386.51,12.44c-.29-.37-.62-.71-1-1-.29-.37-.62-.71-1-1-.29-.37-.62-.71-1-1-.29-.37-.62-.71-1-1-.29-.37-.62-.71-1-1-.29-.37-.62-.71-1-1-.29-.37-.62-.71-1-1-.29-.37-.62-.71-1-1-.29-.37-.62-.71-1-1-.44-.55-.97-1.04-1.61-1.42-1.11-.66-2.38-1.01-3.68-1.01h-35.55c-3.83,0-6.62,2.74-6.62,6.51,0,.64-.04,2.04-.23,5.01-.06-.05-.11-.11-.17-.17-.06-.07-.11-.15-.17-.22-.26-.28-.54-.53-.83-.78-.06-.07-.11-.15-.17-.22-.26-.28-.54-.53-.83-.78-.06-.07-.11-.15-.17-.22-.26-.28-.54-.53-.83-.78-.06-.07-.11-.15-.17-.22-.26-.28-.54-.53-.83-.78-.06-.07-.11-.15-.17-.22-.26-.28-.54-.53-.83-.78-.06-.07-.11-.15-.17-.22-.26-.28-.54-.53-.83-.78-.06-.07-.11-.15-.17-.22-.26-.28-.54-.53-.83-.78-.06-.07-.11-.15-.17-.22-1.32-1.44-3.06-2.52-5.19-3.24-1.85-.61-4.06-.91-6.78-.91h-15.76c-2.91,0-4.61,1.19-5.51,2.19-.81.89-1.4,1.89-1.76,2.96l-.05.16-3.26,12.58c-.07-.12-.14-.24-.21-.36-.82-1.32-1.77-2.48-2.85-3.46-.32-.35-.65-.68-1-1-.32-.35-.65-.68-1-1-.32-.35-.65-.68-1-1-.32-.35-.65-.68-1-1-.32-.35-.65-.68-1-1-.32-.35-.65-.68-1-1-.32-.35-.65-.68-1-1-.32-.35-.65-.68-1-1-.32-.35-.65-.68-1-1-1.24-1.36-2.68-2.46-4.31-3.28-2.38-1.19-5.3-1.79-8.7-1.79h-14.14c-1.23,0-2.45.35-3.63,1.04-1.93,1.13-3.08,3.18-3.08,5.48,0,1.2-.02,2.2-.05,2.98,0,.12,0,.25-.01.37-.06-.06-.1-.12-.16-.18-.16-.16-.36-.31-.53-.46-.16-.18-.3-.37-.47-.54-.16-.16-.36-.31-.53-.46-.16-.18-.3-.37-.47-.54-.16-.16-.36-.31-.53-.46-.16-.18-.3-.37-.47-.54-.16-.16-.36-.31-.53-.46-.16-.18-.3-.37-.47-.54-.16-.16-.36-.31-.53-.46-.16-.18-.3-.37-.47-.54-.16-.16-.36-.31-.53-.46-.16-.18-.3-.37-.47-.54-1.26-1.25-2.95-2.21-5.04-2.85-1.81-.56-4.06-.83-6.88-.83h-5.55c-3.58,0-5.18,2.21-5.71,3.17-.64,1.19-.91,2.62-.91,4.96,0,.53-.03,1.76-.19,4.56-.07,1.3-.17,2.74-.27,4.29-.44-.91-.95-1.75-1.55-2.5-.38-.47-.81-.89-1.26-1.28-.31-.36-.64-.69-1-1-.31-.36-.64-.69-1-1-.31-.36-.64-.69-1-1-.31-.36-.64-.69-1-1-.31-.36-.64-.69-1-1-.31-.36-.64-.69-1-1-.31-.36-.64-.69-1-1-.31-.36-.64-.69-1-1-.31-.36-.64-.69-1-1-2.46-2.82-6.35-4.2-11.91-4.2h-5.56c-2.13,0-4.05.95-5.26,2.62-.89,1.23-1.33,2.77-1.45,5.14-.06,1.07-.18,2.66-.35,4.68-.18-.19-.36-.37-.55-.55-.31-.35-.66-.67-1-1-.31-.35-.66-.67-1-1-.31-.35-.66-.67-1-1-.31-.35-.66-.67-1-1-.31-.35-.66-.67-1-1-.31-.35-.66-.67-1-1-.46-.51-.95-1-1.47-1.47-4-3.6-9.86-5.43-17.44-5.43-3.64,0-7.34.48-10.99,1.42-3.88,1-7.42,2.67-10.51,4.96-1.36,1.01-2.62,2.15-3.77,3.41-.13-.12-.26-.24-.4-.36-.29-.37-.62-.71-1-1-.29-.37-.62-.71-1-1-.29-.37-.62-.71-1-1-.29-.37-.62-.71-1-1-.29-.37-.62-.71-1-1-.29-.37-.62-.71-1-1-.44-.55-.97-1.04-1.61-1.42-1.11-.66-2.38-1.01-3.68-1.01h-35.55c-3.83,0-6.62,2.74-6.62,6.51,0,.71-.05,2.34-.29,6.04-.08,1.23-.18,2.58-.28,4-.17-.17-.35-.34-.53-.51-.12-.13-.24-.27-.37-.4-.2-.21-.42-.4-.63-.6-.12-.13-.24-.27-.37-.4-.2-.21-.42-.4-.63-.6-.12-.13-.24-.27-.37-.4-.2-.21-.42-.4-.63-.6-.12-.13-.24-.27-.37-.4-.2-.21-.42-.4-.63-.6-.12-.13-.24-.27-.37-.4-.2-.21-.42-.4-.63-.6-.12-.13-.24-.27-.37-.4-.2-.21-.42-.4-.63-.6-.12-.13-.24-.27-.37-.4-.2-.21-.42-.4-.63-.6-.12-.13-.24-.27-.37-.4-.2-.21-.42-.4-.63-.6-.12-.13-.24-.27-.37-.4-.2-.21-.42-.4-.63-.6-.12-.13-.24-.27-.37-.4-2.45-2.5-5.63-4.44-9.45-5.76-3.61-1.26-7.9-1.89-12.75-1.89-1.51,0-3.22.05-5.08.16-1.8.1-3.72.22-5.76.36-1.99.13-4.06.25-6.21.35-2.11.1-4.19.15-6.18.15-3.01,0-5.43,2-6.17,5.1-.2.83-.44,2.27-.74,6.69l-.56,10c-.23,4.2-.62,9.73-1.15,16.43-.27,3.25-.52,6.44-.76,9.58-.24,3.13-.45,6-.66,8.63-.2,2.65-.36,4.99-.46,6.94-.11,2.01-.16,3.44-.16,4.35,0,4.37,1.32,7.84,3.91,10.33.1.09.21.17.31.27.22.25.44.5.69.73.1.09.21.17.31.27.22.25.44.5.69.73.1.09.21.17.31.27.22.25.44.5.69.73.1.09.21.17.31.27.22.25.44.5.69.73.1.09.21.17.31.27.22.25.44.5.69.73.1.09.21.17.31.27.22.25.44.5.69.73.1.09.21.17.31.27.22.25.44.5.69.73.1.09.21.17.31.27.22.25.44.5.69.73.1.09.21.17.31.27.22.25.44.5.69.73.1.09.21.17.31.27.22.25.44.5.69.73,2.57,2.46,6.36,3.66,11.59,3.66h5.05c2.66,0,4.19-1.14,5-2.1.85-.99,1.38-2.26,1.57-3.79l.04-.23v-.32s.02-.43.18-2.07c.08-.82.16-1.77.24-2.84.15.15.3.3.45.45.32.36.66.68,1,1,.32.36.66.68,1,1,.32.36.66.68,1,1,.32.36.66.68,1,1,.32.36.66.68,1,1,.32.36.66.68,1,1,.32.36.66.68,1,1,.49.54,1,1.05,1.52,1.51,2.48,2.22,5.57,3.39,8.94,3.39,2.56,0,4.94-.42,7.09-1.24,2.02-.77,3.8-1.74,5.27-2.85,1.56-1.18,2.75-2.39,3.64-3.7.2-.29.41-.62.62-.99.08.08.16.17.24.24.05.04.1.08.15.12.29.32.57.62.85.88.05.04.1.08.15.12.29.32.57.62.85.88.05.04.1.08.15.12.29.32.57.62.85.88.05.04.1.08.15.12.29.32.57.62.85.88,2.6,2.38,6.34,3.54,11.46,3.54h23.23c4.7,0,7.95-1.24,9.95-3.78,1.12-1.43,1.9-3.13,2.34-5.05.18.19.38.38.58.57.04.05.08.1.13.15,1.6,1.73,3.73,3.3,6.35,4.67,2.45,1.29,5.33,2.36,8.54,3.19,3.26.84,6.82,1.27,10.59,1.27,4.48,0,8.51-.65,11.98-1.92,3.6-1.32,6.65-3.22,9.08-5.65,2.42-2.42,4.26-5.29,5.49-8.54.14-.36.24-.73.36-1.1.3.32.62.64.94.94.32.34.66.68,1,1,.32.34.66.68,1,1,.32.34.66.68,1,1,.32.34.66.68,1,1,.32.34.66.68,1,1,.32.34.66.68,1,1,.32.34.66.68,1,1,.32.34.66.68,1,1,2.4,2.56,5.44,4.6,9.05,6.05,3.68,1.48,8.08,2.23,13.08,2.23s9.18-.66,12.83-1.95c3.68-1.31,6.89-3.09,9.56-5.31,2.64-2.2,4.84-4.75,6.54-7.58.19-.32.37-.65.55-.98.32.4.67.79,1.04,1.15.1.09.21.17.31.27.22.25.44.5.69.73.1.09.21.17.31.27.22.25.44.5.69.73.1.09.21.17.31.27.22.25.44.5.69.73.1.09.21.17.31.27.22.25.44.5.69.73.1.09.21.17.31.27.22.25.44.5.69.73.1.09.21.17.31.27.22.25.44.5.69.73.1.09.21.17.31.27.22.25.44.5.69.73.1.09.21.17.31.27.22.25.44.5.69.73.1.09.21.17.31.27.22.25.44.5.69.73.1.09.21.17.31.27.22.25.44.5.69.73,2.57,2.46,6.36,3.66,11.59,3.66h5.55c2.57,0,4.81-1.45,5.84-3.8.52-1.2.74-2.73.77-5.35.09.08.17.18.26.26.31.35.64.69,1,1,.31.35.64.69,1,1,.31.35.64.69,1,1,.31.35.64.69,1,1,.33.37.67.72,1.04,1.04,1.21,1.05,2.62,1.9,4.21,2.51,1.45.56,3.01.93,4.63,1.11,1.38.15,2.76.23,4.09.23,2.45,0,4.26-.24,5.69-.75,2.6-.94,3.85-2.55,4.44-3.73l.1-.2.08-.21c.56-1.42,1.16-3.01,1.79-4.7.06.06.13.1.19.16.23.26.46.52.72.76.09.08.19.16.28.24.23.26.46.52.72.76.09.08.19.16.28.24.23.26.46.52.72.76.09.08.19.16.28.24.23.26.46.52.72.76.09.08.19.16.28.24.23.26.46.52.72.76.09.08.19.16.28.24.23.26.46.52.72.76,2.57,2.46,6.36,3.66,11.59,3.66h5.55c2.65,0,4.19-1.14,5-2.1.85-.99,1.38-2.26,1.56-3.72.04-.27.13-.9.44-5.18,0-.07.01-.14.02-.21.23.25.46.47.68.68.05.04.1.08.15.12.29.32.57.62.85.88.05.04.1.08.15.12.29.32.57.62.85.88.05.04.1.08.15.12.29.32.57.62.85.88.05.04.1.08.15.12.29.32.57.62.85.88.05.04.1.08.15.12.29.32.57.62.85.88.05.04.1.08.15.12.29.32.57.62.85.88.05.04.1.08.15.12.29.32.57.62.85.88,2.6,2.38,6.34,3.54,11.46,3.54h23.23c4.7,0,7.95-1.24,9.95-3.78,1.6-2.04,2.52-4.62,2.72-7.64l.42-6.13v-.17c0-1.97-.85-3.73-2.35-4.92-.29-.37-.62-.7-1-1-.29-.37-.62-.7-1-1-.29-.37-.62-.7-1-1-.29-.37-.62-.7-1-1-.29-.37-.62-.7-1-1-.29-.37-.62-.7-1-1-.29-.37-.62-.7-1-1-.29-.37-.62-.7-1-1-.16-.2-.33-.39-.52-.57.71-.49,1.34-1.07,1.87-1.75,1.6-2.04,2.52-4.62,2.72-7.64l.42-6.13v-.17c0-2.05-.84-3.82-2.33-4.98-.29-.37-.62-.71-1-1-.29-.37-.62-.71-1-1-.29-.37-.62-.71-1-1-.29-.37-.62-.71-1-1-.29-.37-.62-.71-1-1-.19-.24-.4-.46-.63-.67h1.95c4.7,0,7.95-1.24,9.95-3.78,1.6-2.04,2.52-4.62,2.72-7.64l.41-6.13v-.17c0-2.05-.84-3.82-2.33-4.98ZM62.56,63.04l-.4-.57c.16-.12.3-.24.45-.36-.02.32-.04.63-.06.93ZM121.73,48.43c.32.35.66.68,1,1,.32.35.66.68,1,1,.32.35.66.68,1,1,.32.35.66.68,1,1,.12.12.22.26.34.38-.19-.15-.41-.31-.6-.46-1.94-1.5-3.97-2.26-6.04-2.26-.33,0-.84.03-1.45.15l.29-4.28v-.17c0-.43-.05-.85-.12-1.26.79,1.05,1.65,2.01,2.58,2.88.32.35.66.68,1,1ZM114.94,39.82c-.29-.37-.62-.71-1-1-.29-.37-.62-.71-1-1-.29-.37-.62-.71-1-1-.29-.37-.62-.71-1-1-.19-.24-.4-.46-.63-.67h1.95c.56,0,1.1-.02,1.62-.06.38,1.96.96,3.75,1.73,5.34-.21-.22-.43-.42-.67-.61ZM168.42,47.61c-.07-.07-.16-.13-.23-.2-.33-.34-.66-.68-1-1-.1-.1-.19-.2-.28-.3.56-.11,1.1-.24,1.63-.4-.04.65-.08,1.28-.11,1.9Z"/>
      </g>
      <g>
        <path class="cls-2" d="M15.5,77.72c-3.84,0-6.55-.76-8.13-2.27-1.58-1.51-2.37-3.75-2.37-6.72,0-.81.05-2.17.15-4.09.1-1.92.25-4.19.45-6.82s.42-5.5.66-8.63c.24-3.13.49-6.31.76-9.54.54-6.8.92-12.32,1.16-16.56.24-4.24.42-7.58.56-10,.2-3.03.4-4.96.61-5.81.2-.84.64-1.26,1.31-1.26,2.09,0,4.22-.05,6.41-.15,2.19-.1,4.29-.22,6.31-.35,2.02-.13,3.92-.25,5.71-.35,1.78-.1,3.38-.15,4.8-.15,4.31,0,8.01.54,11.11,1.62,3.1,1.08,5.61,2.59,7.52,4.54,1.92,1.95,3.33,4.31,4.24,7.07.91,2.76,1.36,5.86,1.36,9.29,0,5.25-1.04,9.93-3.13,14.04-2.09,4.11-5.42,7.24-10,9.39l8.48,12.12c1.55,2.29,2.73,4.06,3.54,5.3.81,1.25,1.21,2.17,1.21,2.78,0,.47-.29,1.13-.86,1.97-.57.84-1.41,1.68-2.53,2.53-1.11.84-2.46,1.57-4.04,2.17-1.58.61-3.35.91-5.3.91-2.16,0-4.02-.71-5.61-2.12-1.58-1.41-3-3.28-4.24-5.61-1.25-2.32-2.32-5-3.23-8.03s-1.77-6.19-2.58-9.49c-2.42-.13-4.41-.37-5.96-.71-.2,2.96-.4,5.79-.61,8.48-.2,2.69-.37,5.1-.5,7.22-.14,2.12-.27,3.87-.4,5.25-.14,1.38-.2,2.21-.2,2.47-.07.54-.2.93-.4,1.16-.2.24-.61.35-1.21.35h-5.05ZM31.87,20.15c-.81,0-1.72.05-2.73.15-1.01.1-2.09.22-3.23.35-.14,2.36-.29,5.17-.45,8.43-.17,3.27-.39,6.75-.66,10.45,2.36.54,4.41.81,6.16.81,2.09,0,3.79-.4,5.1-1.21,1.31-.81,2.34-1.8,3.08-2.98.74-1.18,1.23-2.44,1.46-3.79.23-1.35.35-2.56.35-3.64,0-2.76-.67-4.88-2.02-6.36-1.35-1.48-3.7-2.22-7.07-2.22Z"/>
        <path class="cls-2" d="M77.82,77.72c-3.77,0-6.46-.74-8.08-2.22-1.62-1.48-2.42-3.6-2.42-6.36,0-1.35.1-3.65.3-6.92.2-3.26.47-6.98.81-11.16.34-4.17.67-8.58,1.01-13.23.34-4.65.67-9.02,1.01-13.13.34-4.11.61-7.71.81-10.81.2-3.1.3-5.22.3-6.36,0-1.01.54-1.51,1.62-1.51h35.55c.4,0,.77.1,1.11.3.34.2.5.57.5,1.11l-.4,5.96c-.14,2.02-.69,3.65-1.67,4.9-.98,1.25-2.98,1.87-6.01,1.87h-13.94l-1.01,14.24h14.34c.4,0,.77.1,1.11.3.34.2.51.57.51,1.11l-.4,5.96c-.14,2.02-.69,3.65-1.67,4.9-.98,1.25-2.98,1.87-6.01,1.87h-8.79l-1.11,15.05h22.22c.4,0,.77.12,1.11.35.34.24.5.59.5,1.06l-.4,5.96c-.14,2.02-.69,3.65-1.67,4.9-.98,1.25-2.98,1.87-6.01,1.87h-23.23Z"/>
        <path class="cls-2" d="M145.69,5c6.33,0,11.03,1.38,14.09,4.14,3.06,2.76,4.6,6.36,4.6,10.81,0,3.77-1.04,6.65-3.13,8.64-2.09,1.99-5.08,2.98-8.99,2.98-1.21,0-1.99-.12-2.32-.35-.34-.24-.5-.72-.5-1.46,0-.67-.05-1.55-.15-2.63-.1-1.08-.35-2.12-.76-3.13-.4-1.01-1.04-1.87-1.92-2.58-.88-.71-2.09-1.06-3.64-1.06-2.16,0-4.08.66-5.76,1.97-1.68,1.31-2.53,3.01-2.53,5.1,0,1.82.69,3.3,2.07,4.44,1.38,1.15,3.11,2.21,5.2,3.18,2.09.98,4.36,1.97,6.82,2.98,2.46,1.01,4.73,2.34,6.82,3.99,2.09,1.65,3.82,3.7,5.2,6.16,1.38,2.46,2.07,5.57,2.07,9.34,0,2.96-.49,5.74-1.46,8.33-.98,2.59-2.42,4.85-4.34,6.77s-4.34,3.42-7.27,4.49c-2.93,1.08-6.35,1.62-10.25,1.62-3.37,0-6.48-.37-9.34-1.11-2.86-.74-5.35-1.67-7.47-2.78-2.12-1.11-3.79-2.32-5-3.64-1.21-1.31-1.82-2.51-1.82-3.58,0-4.44.25-7.64.76-9.6.5-1.95,1.43-2.93,2.78-2.93.94,0,1.93.4,2.98,1.21,1.04.81,2.24,1.72,3.59,2.73,1.35,1.01,2.91,1.92,4.7,2.73,1.78.81,3.85,1.21,6.21,1.21.94,0,1.87-.08,2.78-.25.91-.17,1.72-.46,2.42-.86.71-.4,1.28-.94,1.72-1.62.44-.67.66-1.48.66-2.42,0-1.68-.64-3.03-1.92-4.04-1.28-1.01-2.9-1.94-4.85-2.78-1.95-.84-4.06-1.72-6.31-2.63-2.26-.91-4.36-2.15-6.31-3.74-1.95-1.58-3.57-3.62-4.85-6.11-1.28-2.49-1.92-5.69-1.92-9.59,0-4.38.82-8.08,2.47-11.11,1.65-3.03,3.77-5.5,6.36-7.42,2.59-1.92,5.52-3.3,8.79-4.14,3.26-.84,6.51-1.26,9.75-1.26Z"/>
        <path class="cls-2" d="M228.31,44.79c-.2,2.02-.5,4.26-.91,6.72-.4,2.46-1.03,4.95-1.87,7.47-.84,2.52-1.97,4.97-3.38,7.32-1.41,2.36-3.23,4.46-5.45,6.31-2.22,1.85-4.9,3.33-8.03,4.44-3.13,1.11-6.85,1.67-11.16,1.67s-8.11-.62-11.21-1.87c-3.1-1.25-5.62-2.96-7.58-5.15-1.95-2.19-3.37-4.73-4.24-7.62-.88-2.89-1.31-5.99-1.31-9.29,0-1.48.07-3.48.2-6.01.13-2.53.32-5.27.56-8.23.24-2.96.49-6.04.76-9.24.27-3.2.52-6.25.76-9.14.24-2.89.46-5.5.66-7.83.2-2.32.34-4.09.4-5.3.07-1.28.24-2.1.5-2.47.27-.37.67-.56,1.21-.56h5.56c4.11,0,6.87.88,8.28,2.63,1.41,1.75,2.12,4.34,2.12,7.78,0,.2-.05,1.09-.15,2.68-.1,1.58-.24,3.52-.4,5.81-.17,2.29-.34,4.78-.51,7.47-.17,2.69-.34,5.25-.5,7.68-.17,2.42-.3,4.54-.4,6.36-.1,1.82-.15,3.03-.15,3.64,0,1.15.05,2.46.15,3.94.1,1.48.37,2.9.81,4.24.44,1.35,1.14,2.47,2.12,3.38.98.91,2.37,1.36,4.19,1.36,2.29,0,4.16-.77,5.61-2.32,1.45-1.55,2.56-3.4,3.33-5.55.77-2.15,1.31-4.34,1.62-6.57.3-2.22.52-4.04.66-5.45.27-3.43.56-6.97.86-10.61s.57-7.04.81-10.2c.23-3.16.42-5.92.55-8.28.13-2.36.2-3.97.2-4.85,0-1.35.1-2.2.3-2.58.2-.37.64-.56,1.31-.56h5.55c2.29,0,4.09.2,5.4.61,1.31.4,2.3.94,2.98,1.62.67.67,1.09,1.45,1.26,2.32.17.88.25,1.79.25,2.73,0,.88-.05,2.53-.15,4.95-.1,2.42-.22,5.19-.35,8.28-.14,3.1-.3,6.3-.5,9.59-.2,3.3-.44,6.2-.71,8.69Z"/>
        <path class="cls-2" d="M303.15,23.89c-.54,1.62-1.23,3.72-2.07,6.31-.84,2.59-1.77,5.44-2.78,8.53-1.01,3.1-2.05,6.38-3.13,9.85-1.08,3.47-2.17,6.85-3.28,10.15-1.11,3.3-2.21,6.45-3.28,9.44-1.08,3-2.05,5.61-2.93,7.83-.27.54-.83.96-1.67,1.26-.84.3-2.17.45-3.99.45-1.15,0-2.32-.07-3.53-.2-1.21-.13-2.34-.4-3.38-.81-1.04-.4-1.95-.94-2.73-1.62-.77-.67-1.36-1.51-1.77-2.53-1.01-3.43-1.97-7.25-2.88-11.46-.91-4.21-1.8-8.5-2.68-12.88-.88-4.38-1.73-8.67-2.58-12.88-.84-4.21-1.7-8.03-2.58-11.46,0,.94-.03,2.56-.1,4.85-.07,2.29-.14,4.95-.2,7.98-.07,3.03-.15,6.3-.25,9.8-.1,3.5-.19,6.92-.25,10.25-.07,3.33-.14,6.43-.2,9.29-.07,2.86-.1,5.2-.1,7.02,0,2.02-.12,3.3-.35,3.84-.24.54-.66.81-1.26.81h-5.55c-3.84,0-6.55-.76-8.13-2.27-1.58-1.51-2.37-3.75-2.37-6.72,0-.81.05-2.17.15-4.09.1-1.92.25-4.19.45-6.82s.42-5.5.66-8.63c.24-3.13.49-6.31.76-9.54.34-4.38.62-8.03.86-10.96.24-2.93.42-5.37.56-7.32.13-1.95.25-3.53.35-4.75.1-1.21.17-2.29.2-3.23.03-.94.07-1.83.1-2.68.03-.84.05-1.9.05-3.18,0-.54.2-.92.61-1.16.4-.24.77-.35,1.11-.35h14.14c2.63,0,4.78.42,6.46,1.26,1.68.84,3.06,2.14,4.14,3.89,1.08,1.75,1.95,4.02,2.63,6.82.67,2.79,1.3,6.11,1.87,9.95.57,3.84,1.21,8.27,1.92,13.28.71,5.02,1.63,10.66,2.78,16.92,1.08-4.17,1.99-7.64,2.73-10.4.74-2.76,1.36-5.07,1.87-6.92.51-1.85.92-3.38,1.26-4.6.34-1.21.64-2.34.91-3.38.27-1.04.57-2.17.91-3.38.34-1.21.74-2.73,1.21-4.54.47-1.82,1.06-4.09,1.77-6.82.71-2.73,1.6-6.18,2.68-10.35.13-.4.37-.79.71-1.16.34-.37.94-.56,1.82-.56h15.76c2.15,0,3.89.22,5.2.66,1.31.44,2.34,1.06,3.08,1.87.74.81,1.25,1.8,1.52,2.98.27,1.18.4,2.54.4,4.09s-.08,4.06-.25,7.52c-.17,3.47-.4,7.37-.71,11.72-.3,4.34-.61,8.84-.91,13.48-.3,4.65-.61,8.96-.91,12.93-.3,3.97-.56,7.34-.76,10.1-.2,2.76-.34,4.38-.4,4.85-.07.54-.2.93-.4,1.16-.2.24-.61.35-1.21.35h-5.55c-3.84,0-6.55-.76-8.13-2.27-1.58-1.51-2.37-3.48-2.37-5.91,0-.74.08-2.09.25-4.04.17-1.95.39-4.24.66-6.87.27-2.63.57-5.5.91-8.64.34-3.13.64-6.24.91-9.34.27-3.1.52-6.11.76-9.04.23-2.93.42-5.5.55-7.73Z"/>
        <path class="cls-2" d="M341.33,77.72c-3.77,0-6.46-.74-8.08-2.22-1.62-1.48-2.42-3.6-2.42-6.36,0-1.35.1-3.65.3-6.92.2-3.26.47-6.98.81-11.16.34-4.17.67-8.58,1.01-13.23.34-4.65.67-9.02,1.01-13.13.34-4.11.61-7.71.81-10.81.2-3.1.3-5.22.3-6.36,0-1.01.54-1.51,1.62-1.51h35.55c.4,0,.77.1,1.11.3.34.2.5.57.5,1.11l-.4,5.96c-.14,2.02-.69,3.65-1.67,4.9-.98,1.25-2.98,1.87-6.01,1.87h-13.94l-1.01,14.24h14.34c.4,0,.77.1,1.11.3.34.2.51.57.51,1.11l-.4,5.96c-.14,2.02-.69,3.65-1.67,4.9-.98,1.25-2.98,1.87-6.01,1.87h-8.79l-1.11,15.05h22.22c.4,0,.77.12,1.11.35.34.24.5.59.5,1.06l-.4,5.96c-.14,2.02-.69,3.65-1.67,4.9-.98,1.25-2.98,1.87-6.01,1.87h-23.23Z"/>
      </g>
    </g>
  </g>
</svg>