<?xml version="1.0" encoding="UTF-8"?>
<svg id="Layer_2" data-name="Layer 2" xmlns="http://www.w3.org/2000/svg" viewBox="0 0 388.85 93.73">
  <defs>
    <style>
      .cls-1 {
        fill: none;
      }

      .cls-2 {
        fill: #f2f2f2;
      }

      .cls-3 {
        fill: #232b5f;
      }
    </style>
  </defs>
  <g id="Layer_10" data-name="Layer 10">
    <g>
      <g>
        <path class="cls-1" d="M112.26,35.15h-1.95c.23.21.44.43.63.67.38.29.71.63,1,1,.38.29.71.63,1,1,.38.29.71.63,1,1,.38.29.71.63,1,1,.24.19.47.39.67.61-.77-1.59-1.35-3.38-1.73-5.34-.52.04-1.06.06-1.62.06Z"/>
        <path class="cls-1" d="M118.15,44.55c.07.41.12.82.12,1.26v.17l-.29,4.28c.61-.12,1.12-.15,1.45-.15,2.07,0,4.1.76,6.04,2.26.19.14.4.31.6.46-.12-.12-.22-.26-.34-.38-.34-.32-.68-.65-1-1-.34-.32-.68-.65-1-1-.34-.32-.68-.65-1-1-.34-.32-.68-.65-1-1-.34-.32-.68-.65-1-1-.93-.87-1.79-1.83-2.58-2.88Z"/>
        <path class="cls-1" d="M62.56,63.04c.02-.3.04-.61.06-.93-.15.12-.3.24-.45.36l.4.57Z"/>
        <path class="cls-1" d="M167.19,46.41c.34.32.67.66,1,1,.07.07.16.13.23.2.04-.62.07-1.26.11-1.9-.52.16-1.07.29-1.63.4.1.1.19.2.28.3Z"/>
        <path class="cls-3" d="M386.51,12.44c-.29-.37-.62-.71-1-1-.29-.37-.62-.71-1-1-.29-.37-.62-.71-1-1-.29-.37-.62-.71-1-1-.29-.37-.62-.71-1-1-.29-.37-.62-.71-1-1-.29-.37-.62-.71-1-1-.29-.37-.62-.71-1-1-.29-.37-.62-.71-1-1-.44-.55-.97-1.04-1.61-1.42-1.11-.66-2.38-1.01-3.68-1.01h-35.55c-3.83,0-6.62,2.74-6.62,6.51,0,.64-.04,2.04-.23,5.01-.06-.05-.11-.11-.17-.17-.06-.07-.11-.15-.17-.22-.26-.28-.54-.53-.83-.78-.06-.07-.11-.15-.17-.22-.26-.28-.54-.53-.83-.78-.06-.07-.11-.15-.17-.22-.26-.28-.54-.53-.83-.78-.06-.07-.11-.15-.17-.22-.26-.28-.54-.53-.83-.78-.06-.07-.11-.15-.17-.22-.26-.28-.54-.53-.83-.78-.06-.07-.11-.15-.17-.22-.26-.28-.54-.53-.83-.78-.06-.07-.11-.15-.17-.22-.26-.28-.54-.53-.83-.78-.06-.07-.11-.15-.17-.22-1.32-1.44-3.06-2.52-5.19-3.24-1.85-.61-4.06-.91-6.78-.91h-15.76c-2.91,0-4.61,1.19-5.51,2.19-.81.89-1.4,1.89-1.76,2.96l-.05.16-3.26,12.58c-.07-.12-.14-.24-.21-.36-.82-1.32-1.77-2.48-2.85-3.46-.32-.35-.65-.68-1-1-.32-.35-.65-.68-1-1-.32-.35-.65-.68-1-1-.32-.35-.65-.68-1-1-.32-.35-.65-.68-1-1-.32-.35-.65-.68-1-1-.32-.35-.65-.68-1-1-.32-.35-.65-.68-1-1-.32-.35-.65-.68-1-1-1.24-1.36-2.68-2.46-4.31-3.28-2.38-1.19-5.3-1.79-8.7-1.79h-14.14c-1.23,0-2.45.35-3.63,1.04-1.93,1.13-3.08,3.18-3.08,5.48,0,1.2-.02,2.2-.05,2.98,0,.12,0,.25-.01.37-.06-.06-.1-.12-.16-.18-.16-.16-.36-.31-.53-.46-.16-.18-.3-.37-.47-.54-.16-.16-.36-.31-.53-.46-.16-.18-.3-.37-.47-.54-.16-.16-.36-.31-.53-.46-.16-.18-.3-.37-.47-.54-.16-.16-.36-.31-.53-.46-.16-.18-.3-.37-.47-.54-.16-.16-.36-.31-.53-.46-.16-.18-.3-.37-.47-.54-.16-.16-.36-.31-.53-.46-.16-.18-.3-.37-.47-.54-1.26-1.25-2.95-2.21-5.04-2.85-1.81-.56-4.06-.83-6.88-.83h-5.55c-3.58,0-5.18,2.21-5.71,3.17-.64,1.19-.91,2.62-.91,4.96,0,.53-.03,1.76-.19,4.56-.07,1.3-.17,2.74-.27,4.29-.44-.91-.95-1.75-1.55-2.5-.38-.47-.81-.89-1.26-1.28-.31-.36-.64-.69-1-1-.31-.36-.64-.69-1-1-.31-.36-.64-.69-1-1-.31-.36-.64-.69-1-1-.31-.36-.64-.69-1-1-.31-.36-.64-.69-1-1-.31-.36-.64-.69-1-1-.31-.36-.64-.69-1-1-.31-.36-.64-.69-1-1-2.46-2.82-6.35-4.2-11.91-4.2h-5.56c-2.13,0-4.05.95-5.26,2.62-.89,1.23-1.33,2.77-1.45,5.14-.06,1.07-.18,2.66-.35,4.68-.18-.19-.36-.37-.55-.55-.31-.35-.66-.67-1-1-.31-.35-.66-.67-1-1-.31-.35-.66-.67-1-1-.31-.35-.66-.67-1-1-.31-.35-.66-.67-1-1-.31-.35-.66-.67-1-1-.46-.51-.95-1-1.47-1.47-4-3.6-9.86-5.43-17.44-5.43-3.64,0-7.34.48-10.99,1.42-3.88,1-7.42,2.67-10.51,4.96-1.36,1.01-2.62,2.15-3.77,3.41-.13-.12-.26-.24-.4-.36-.29-.37-.62-.71-1-1-.29-.37-.62-.71-1-1-.29-.37-.62-.71-1-1-.29-.37-.62-.71-1-1-.29-.37-.62-.71-1-1-.29-.37-.62-.71-1-1-.44-.55-.97-1.04-1.61-1.42-1.11-.66-2.38-1.01-3.68-1.01h-35.55c-3.83,0-6.62,2.74-6.62,6.51,0,.71-.05,2.34-.29,6.04-.08,1.23-.18,2.58-.28,4-.17-.17-.35-.34-.53-.51-.12-.13-.24-.27-.37-.4-.2-.21-.42-.4-.63-.6-.12-.13-.24-.27-.37-.4-.2-.21-.42-.4-.63-.6-.12-.13-.24-.27-.37-.4-.2-.21-.42-.4-.63-.6-.12-.13-.24-.27-.37-.4-.2-.21-.42-.4-.63-.6-.12-.13-.24-.27-.37-.4-.2-.21-.42-.4-.63-.6-.12-.13-.24-.27-.37-.4-.2-.21-.42-.4-.63-.6-.12-.13-.24-.27-.37-.4-.2-.21-.42-.4-.63-.6-.12-.13-.24-.27-.37-.4-.2-.21-.42-.4-.63-.6-.12-.13-.24-.27-.37-.4-.2-.21-.42-.4-.63-.6-.12-.13-.24-.27-.37-.4-2.45-2.5-5.63-4.44-9.45-5.76-3.61-1.26-7.9-1.89-12.75-1.89-1.51,0-3.22.05-5.08.16-1.8.1-3.72.22-5.76.36-1.99.13-4.06.25-6.21.35-2.11.1-4.19.15-6.18.15-3.01,0-5.43,2-6.17,5.1-.2.83-.44,2.27-.74,6.69l-.56,10c-.23,4.2-.62,9.73-1.15,16.43-.27,3.25-.52,6.44-.76,9.58-.24,3.13-.45,6-.66,8.63-.2,2.65-.36,4.99-.46,6.94-.11,2.01-.16,3.44-.16,4.35,0,4.37,1.32,7.84,3.91,10.33.1.09.21.17.31.27.22.25.44.5.69.73.1.09.21.17.31.27.22.25.44.5.69.73.1.09.21.17.31.27.22.25.44.5.69.73.1.09.21.17.31.27.22.25.44.5.69.73.1.09.21.17.31.27.22.25.44.5.69.73.1.09.21.17.31.27.22.25.44.5.69.73.1.09.21.17.31.27.22.25.44.5.69.73.1.09.21.17.31.27.22.25.44.5.69.73.1.09.21.17.31.27.22.25.44.5.69.73.1.09.21.17.31.27.22.25.44.5.69.73,2.57,2.46,6.36,3.66,11.59,3.66h5.05c2.66,0,4.19-1.14,5-2.1.85-.99,1.38-2.26,1.57-3.79l.04-.23v-.32s.02-.43.18-2.07c.08-.82.16-1.77.24-2.84.15.15.3.3.45.45.32.36.66.68,1,1,.32.36.66.68,1,1,.32.36.66.68,1,1,.32.36.66.68,1,1,.32.36.66.68,1,1,.32.36.66.68,1,1,.32.36.66.68,1,1,.49.54,1,1.05,1.52,1.51,2.48,2.22,5.57,3.39,8.94,3.39,2.56,0,4.94-.42,7.09-1.24,2.02-.77,3.8-1.74,5.27-2.85,1.56-1.18,2.75-2.39,3.64-3.7.2-.29.41-.62.62-.99.08.08.16.17.24.24.05.04.1.08.15.12.29.32.57.62.85.88.05.04.1.08.15.12.29.32.57.62.85.88.05.04.1.08.15.12.29.32.57.62.85.88.05.04.1.08.15.12.29.32.57.62.85.88,2.6,2.38,6.34,3.54,11.46,3.54h23.23c4.7,0,7.95-1.24,9.95-3.78,1.12-1.43,1.9-3.13,2.34-5.05.18.19.38.38.58.57.04.05.08.1.13.15,1.6,1.73,3.73,3.3,6.35,4.67,2.45,1.29,5.33,2.36,8.54,3.19,3.26.84,6.82,1.27,10.59,1.27,4.48,0,8.51-.65,11.98-1.92,3.6-1.32,6.65-3.22,9.08-5.65,2.42-2.42,4.26-5.29,5.49-8.54.14-.36.24-.73.36-1.1.3.32.62.64.94.94.32.34.66.68,1,1,.32.34.66.68,1,1,.32.34.66.68,1,1,.32.34.66.68,1,1,.32.34.66.68,1,1,.32.34.66.68,1,1,.32.34.66.68,1,1,.32.34.66.68,1,1,2.4,2.56,5.44,4.6,9.05,6.05,3.68,1.48,8.08,2.23,13.08,2.23s9.18-.66,12.83-1.95c3.68-1.31,6.89-3.09,9.56-5.31,2.64-2.2,4.84-4.75,6.54-7.58.19-.32.37-.65.55-.98.32.4.67.79,1.04,1.15.1.09.21.17.31.27.22.25.44.5.69.73.1.09.21.17.31.27.22.25.44.5.69.73.1.09.21.17.31.27.22.25.44.5.69.73.1.09.21.17.31.27.22.25.44.5.69.73.1.09.21.17.31.27.22.25.44.5.69.73.1.09.21.17.31.27.22.25.44.5.69.73.1.09.21.17.31.27.22.25.44.5.69.73.1.09.21.17.31.27.22.25.44.5.69.73.1.09.21.17.31.27.22.25.44.5.69.73.1.09.21.17.31.27.22.25.44.5.69.73,2.57,2.46,6.36,3.66,11.59,3.66h5.55c2.57,0,4.81-1.45,5.84-3.8.52-1.2.74-2.73.77-5.35.09.08.17.18.26.26.31.35.64.69,1,1,.31.35.64.69,1,1,.31.35.64.69,1,1,.31.35.64.69,1,1,.33.37.67.72,1.04,1.04,1.21,1.05,2.62,1.9,4.21,2.51,1.45.56,3.01.93,4.63,1.11,1.38.15,2.76.23,4.09.23,2.45,0,4.26-.24,5.69-.75,2.6-.94,3.85-2.55,4.44-3.73l.1-.2.08-.21c.56-1.42,1.16-3.01,1.79-4.7.06.06.13.1.19.16.23.26.46.52.72.76.09.08.19.16.28.24.23.26.46.52.72.76.09.08.19.16.28.24.23.26.46.52.72.76.09.08.19.16.28.24.23.26.46.52.72.76.09.08.19.16.28.24.23.26.46.52.72.76.09.08.19.16.28.24.23.26.46.52.72.76,2.57,2.46,6.36,3.66,11.59,3.66h5.55c2.65,0,4.19-1.14,5-2.1.85-.99,1.38-2.26,1.56-3.72.04-.27.13-.9.44-5.18,0-.07.01-.14.02-.21.23.25.46.47.68.68.05.04.1.08.15.12.29.32.57.62.85.88.05.04.1.08.15.12.29.32.57.62.85.88.05.04.1.08.15.12.29.32.57.62.85.88.05.04.1.08.15.12.29.32.57.62.85.88.05.04.1.08.15.12.29.32.57.62.85.88.05.04.1.08.15.12.29.32.57.62.85.88.05.04.1.08.15.12.29.32.57.62.85.88,2.6,2.38,6.34,3.54,11.46,3.54h23.23c4.7,0,7.95-1.24,9.95-3.78,1.6-2.04,2.52-4.62,2.72-7.64l.42-6.13v-.17c0-1.97-.85-3.73-2.35-4.92-.29-.37-.62-.7-1-1-.29-.37-.62-.7-1-1-.29-.37-.62-.7-1-1-.29-.37-.62-.7-1-1-.29-.37-.62-.7-1-1-.29-.37-.62-.7-1-1-.29-.37-.62-.7-1-1-.29-.37-.62-.7-1-1-.16-.2-.33-.39-.52-.57.71-.49,1.34-1.07,1.87-1.75,1.6-2.04,2.52-4.62,2.72-7.64l.42-6.13v-.17c0-2.05-.84-3.82-2.33-4.98-.29-.37-.62-.71-1-1-.29-.37-.62-.71-1-1-.29-.37-.62-.71-1-1-.29-.37-.62-.71-1-1-.29-.37-.62-.71-1-1-.19-.24-.4-.46-.63-.67h1.95c4.7,0,7.95-1.24,9.95-3.78,1.6-2.04,2.52-4.62,2.72-7.64l.41-6.13v-.17c0-2.05-.84-3.82-2.33-4.98ZM62.56,63.04l-.4-.57c.16-.12.3-.24.45-.36-.02.32-.04.63-.06.93ZM121.73,48.43c.32.35.66.68,1,1,.32.35.66.68,1,1,.32.35.66.68,1,1,.32.35.66.68,1,1,.12.12.22.26.34.38-.19-.15-.41-.31-.6-.46-1.94-1.5-3.97-2.26-6.04-2.26-.33,0-.84.03-1.45.15l.29-4.28v-.17c0-.43-.05-.85-.12-1.26.79,1.05,1.65,2.01,2.58,2.88.32.35.66.68,1,1ZM114.94,39.82c-.29-.37-.62-.71-1-1-.29-.37-.62-.71-1-1-.29-.37-.62-.71-1-1-.29-.37-.62-.71-1-1-.19-.24-.4-.46-.63-.67h1.95c.56,0,1.1-.02,1.62-.06.38,1.96.96,3.75,1.73,5.34-.21-.22-.43-.42-.67-.61ZM168.42,47.61c-.07-.07-.16-.13-.23-.2-.33-.34-.66-.68-1-1-.1-.1-.19-.2-.28-.3.56-.11,1.1-.24,1.63-.4-.04.65-.08,1.28-.11,1.9Z"/>
      </g>
      <g>
        <path class="cls-1" d="M31.87,20.15c-.81,0-1.72.05-2.73.15-1.01.1-2.09.22-3.23.35-.14,2.36-.29,5.17-.45,8.43-.17,3.27-.39,6.75-.66,10.45,2.36.54,4.41.81,6.16.81,2.09,0,3.79-.4,5.1-1.21,1.31-.81,2.34-1.8,3.08-2.98.74-1.18,1.23-2.44,1.46-3.79.23-1.35.35-2.56.35-3.64,0-2.76-.67-4.88-2.02-6.36-1.35-1.48-3.7-2.22-7.07-2.22Z"/>
        <path class="cls-2" d="M53.48,63.08l-8.48-12.12c4.58-2.15,7.91-5.29,10-9.39,2.09-4.11,3.13-8.79,3.13-14.04,0-3.43-.46-6.53-1.36-9.29-.91-2.76-2.32-5.12-4.24-7.07-1.92-1.95-4.43-3.47-7.52-4.54-3.1-1.08-6.8-1.62-11.11-1.62-1.41,0-3.01.05-4.8.15-1.78.1-3.69.22-5.71.35-2.02.14-4.12.25-6.31.35-2.19.1-4.33.15-6.41.15-.67,0-1.11.42-1.31,1.26-.2.84-.4,2.78-.61,5.81-.14,2.42-.32,5.76-.56,10-.24,4.24-.62,9.76-1.16,16.56-.27,3.23-.52,6.41-.76,9.54-.24,3.13-.45,6.01-.66,8.63s-.35,4.9-.45,6.82c-.1,1.92-.15,3.28-.15,4.09,0,2.96.79,5.2,2.37,6.72,1.58,1.51,4.29,2.27,8.13,2.27h5.05c.61,0,1.01-.12,1.21-.35.2-.24.34-.62.4-1.16,0-.27.07-1.09.2-2.47.13-1.38.27-3.13.4-5.25.13-2.12.3-4.53.5-7.22.2-2.69.4-5.52.61-8.48,1.55.34,3.54.57,5.96.71.81,3.3,1.67,6.46,2.58,9.49s1.99,5.71,3.23,8.03c1.25,2.32,2.66,4.19,4.24,5.61,1.58,1.41,3.45,2.12,5.61,2.12,1.95,0,3.72-.3,5.3-.91,1.58-.61,2.93-1.33,4.04-2.17,1.11-.84,1.95-1.68,2.53-2.53.57-.84.86-1.5.86-1.97,0-.61-.4-1.53-1.21-2.78-.81-1.25-1.99-3.01-3.54-5.3ZM40.6,32.37c-.24,1.35-.72,2.61-1.46,3.79-.74,1.18-1.77,2.17-3.08,2.98-1.31.81-3.01,1.21-5.1,1.21-1.75,0-3.81-.27-6.16-.81.27-3.7.49-7.19.66-10.45.17-3.26.32-6.08.45-8.43,1.14-.13,2.22-.25,3.23-.35,1.01-.1,1.92-.15,2.73-.15,3.37,0,5.72.74,7.07,2.22,1.35,1.48,2.02,3.6,2.02,6.36,0,1.08-.12,2.29-.35,3.64Z"/>
        <path class="cls-2" d="M109.84,6.31c-.34-.2-.71-.3-1.11-.3h-35.55c-1.08,0-1.62.5-1.62,1.51,0,1.15-.1,3.27-.3,6.36-.2,3.1-.47,6.7-.81,10.81-.34,4.11-.67,8.48-1.01,13.13-.34,4.65-.67,9.06-1.01,13.23-.34,4.18-.61,7.9-.81,11.16-.2,3.27-.3,5.57-.3,6.92,0,2.76.81,4.88,2.42,6.36,1.62,1.48,4.31,2.22,8.08,2.22h23.23c3.03,0,5.03-.62,6.01-1.87.98-1.25,1.53-2.88,1.67-4.9l.4-5.96c0-.47-.17-.82-.5-1.06-.34-.24-.71-.35-1.11-.35h-22.22l1.11-15.05h8.79c3.03,0,5.03-.62,6.01-1.87.98-1.25,1.53-2.88,1.67-4.9l.4-5.96c0-.54-.17-.91-.51-1.11-.34-.2-.71-.3-1.11-.3h-14.34l1.01-14.24h13.94c3.03,0,5.03-.62,6.01-1.87.98-1.25,1.53-2.88,1.67-4.9l.4-5.96c0-.54-.17-.91-.5-1.11Z"/>
        <path class="cls-2" d="M137.21,22.32c1.68-1.31,3.6-1.97,5.76-1.97,1.55,0,2.76.35,3.64,1.06.87.71,1.51,1.57,1.92,2.58.4,1.01.66,2.05.76,3.13.1,1.08.15,1.95.15,2.63,0,.74.17,1.23.5,1.46.34.24,1.11.35,2.32.35,3.9,0,6.9-.99,8.99-2.98,2.09-1.99,3.13-4.86,3.13-8.64,0-4.44-1.53-8.04-4.6-10.81-3.06-2.76-7.76-4.14-14.09-4.14-3.23,0-6.48.42-9.75,1.26-3.27.84-6.2,2.22-8.79,4.14-2.59,1.92-4.71,4.39-6.36,7.42-1.65,3.03-2.47,6.73-2.47,11.11,0,3.91.64,7.1,1.92,9.59,1.28,2.49,2.89,4.53,4.85,6.11,1.95,1.58,4.06,2.83,6.31,3.74,2.25.91,4.36,1.79,6.31,2.63,1.95.84,3.57,1.77,4.85,2.78,1.28,1.01,1.92,2.36,1.92,4.04,0,.94-.22,1.75-.66,2.42-.44.67-1.01,1.21-1.72,1.62-.71.4-1.52.69-2.42.86-.91.17-1.83.25-2.78.25-2.36,0-4.43-.4-6.21-1.21-1.79-.81-3.35-1.72-4.7-2.73-1.35-1.01-2.54-1.92-3.59-2.73-1.04-.81-2.04-1.21-2.98-1.21-1.35,0-2.27.98-2.78,2.93-.5,1.95-.76,5.15-.76,9.6,0,1.08.61,2.27,1.82,3.58,1.21,1.31,2.88,2.53,5,3.64,2.12,1.11,4.61,2.04,7.47,2.78,2.86.74,5.97,1.11,9.34,1.11,3.9,0,7.32-.54,10.25-1.62,2.93-1.08,5.35-2.58,7.27-4.49s3.37-4.17,4.34-6.77c.97-2.59,1.46-5.37,1.46-8.33,0-3.77-.69-6.88-2.07-9.34-1.38-2.46-3.12-4.51-5.2-6.16-2.09-1.65-4.36-2.98-6.82-3.99-2.46-1.01-4.73-2-6.82-2.98-2.09-.97-3.82-2.04-5.2-3.18-1.38-1.14-2.07-2.63-2.07-4.44,0-2.09.84-3.79,2.53-5.1Z"/>
        <path class="cls-2" d="M228.51,8.23c-.67-.67-1.67-1.21-2.98-1.62-1.31-.4-3.12-.61-5.4-.61h-5.55c-.67,0-1.11.19-1.31.56-.2.37-.3,1.23-.3,2.58,0,.88-.07,2.49-.2,4.85-.14,2.36-.32,5.12-.55,8.28-.24,3.17-.51,6.57-.81,10.2s-.59,7.17-.86,10.61c-.14,1.41-.35,3.23-.66,5.45-.3,2.22-.84,4.41-1.62,6.57-.77,2.16-1.89,4.01-3.33,5.55-1.45,1.55-3.32,2.32-5.61,2.32-1.82,0-3.22-.45-4.19-1.36-.98-.91-1.68-2.04-2.12-3.38-.44-1.35-.71-2.76-.81-4.24-.1-1.48-.15-2.79-.15-3.94,0-.61.05-1.82.15-3.64.1-1.82.23-3.94.4-6.36.17-2.42.34-4.98.5-7.68.17-2.69.34-5.18.51-7.47.17-2.29.3-4.22.4-5.81.1-1.58.15-2.47.15-2.68,0-3.43-.71-6.03-2.12-7.78-1.41-1.75-4.17-2.63-8.28-2.63h-5.56c-.54,0-.94.19-1.21.56-.27.37-.44,1.2-.5,2.47-.07,1.21-.2,2.98-.4,5.3-.2,2.32-.42,4.93-.66,7.83-.24,2.9-.49,5.94-.76,9.14-.27,3.2-.52,6.28-.76,9.24-.24,2.96-.42,5.71-.56,8.23-.14,2.53-.2,4.53-.2,6.01,0,3.3.44,6.4,1.31,9.29.87,2.9,2.29,5.44,4.24,7.62,1.95,2.19,4.48,3.91,7.58,5.15,3.1,1.25,6.83,1.87,11.21,1.87s8.03-.56,11.16-1.67c3.13-1.11,5.81-2.59,8.03-4.44,2.22-1.85,4.04-3.96,5.45-6.31,1.41-2.36,2.54-4.8,3.38-7.32.84-2.53,1.46-5.02,1.87-7.47.4-2.46.71-4.7.91-6.72.27-2.49.5-5.39.71-8.69.2-3.3.37-6.5.5-9.59.13-3.1.25-5.86.35-8.28.1-2.42.15-4.07.15-4.95,0-.94-.08-1.85-.25-2.73-.17-.87-.59-1.65-1.26-2.32Z"/>
        <path class="cls-2" d="M318.8,8.54c-.74-.81-1.77-1.43-3.08-1.87-1.31-.44-3.05-.66-5.2-.66h-15.76c-.88,0-1.48.19-1.82.56-.34.37-.57.76-.71,1.16-1.08,4.18-1.97,7.63-2.68,10.35-.71,2.73-1.3,5-1.77,6.82-.47,1.82-.88,3.33-1.21,4.54-.34,1.21-.64,2.34-.91,3.38-.27,1.04-.57,2.17-.91,3.38-.34,1.21-.76,2.74-1.26,4.6-.5,1.85-1.13,4.16-1.87,6.92-.74,2.76-1.65,6.23-2.73,10.4-1.15-6.26-2.07-11.9-2.78-16.92-.71-5.01-1.35-9.44-1.92-13.28-.57-3.84-1.2-7.15-1.87-9.95-.67-2.79-1.55-5.07-2.63-6.82-1.08-1.75-2.46-3.05-4.14-3.89-1.68-.84-3.84-1.26-6.46-1.26h-14.14c-.34,0-.71.12-1.11.35-.4.24-.61.62-.61,1.16,0,1.28-.02,2.34-.05,3.18-.03.84-.07,1.73-.1,2.68-.04.94-.1,2.02-.2,3.23-.1,1.21-.22,2.79-.35,4.75-.14,1.95-.32,4.39-.56,7.32-.24,2.93-.52,6.58-.86,10.96-.27,3.23-.52,6.41-.76,9.54-.24,3.13-.45,6.01-.66,8.63s-.35,4.9-.45,6.82c-.1,1.92-.15,3.28-.15,4.09,0,2.96.79,5.2,2.37,6.72,1.58,1.51,4.29,2.27,8.13,2.27h5.55c.61,0,1.03-.27,1.26-.81.24-.54.35-1.82.35-3.84,0-1.82.03-4.16.1-7.02.07-2.86.13-5.96.2-9.29.07-3.33.15-6.75.25-10.25.1-3.5.18-6.77.25-9.8.07-3.03.13-5.69.2-7.98.07-2.29.1-3.9.1-4.85.88,3.43,1.73,7.26,2.58,11.46.84,4.21,1.7,8.5,2.58,12.88.87,4.38,1.77,8.67,2.68,12.88.91,4.21,1.87,8.03,2.88,11.46.4,1.01.99,1.85,1.77,2.53.77.67,1.68,1.21,2.73,1.62,1.04.4,2.17.67,3.38.81,1.21.14,2.39.2,3.53.2,1.82,0,3.15-.15,3.99-.45.84-.3,1.4-.72,1.67-1.26.87-2.22,1.85-4.83,2.93-7.83,1.08-3,2.17-6.14,3.28-9.44,1.11-3.3,2.2-6.68,3.28-10.15,1.08-3.47,2.12-6.75,3.13-9.85,1.01-3.1,1.93-5.94,2.78-8.53.84-2.59,1.53-4.7,2.07-6.31-.14,2.22-.32,4.8-.55,7.73-.24,2.93-.49,5.94-.76,9.04-.27,3.1-.57,6.21-.91,9.34-.34,3.13-.64,6.01-.91,8.64-.27,2.63-.49,4.92-.66,6.87-.17,1.95-.25,3.3-.25,4.04,0,2.42.79,4.39,2.37,5.91,1.58,1.51,4.29,2.27,8.13,2.27h5.55c.61,0,1.01-.12,1.21-.35.2-.24.34-.62.4-1.16.07-.47.2-2.09.4-4.85.2-2.76.46-6.13.76-10.1.3-3.97.61-8.28.91-12.93.3-4.65.61-9.14.91-13.48.3-4.34.54-8.25.71-11.72.17-3.47.25-5.97.25-7.52s-.14-2.91-.4-4.09c-.27-1.18-.78-2.17-1.52-2.98Z"/>
        <path class="cls-2" d="M365.77,20.15c3.03,0,5.03-.62,6.01-1.87.98-1.25,1.53-2.88,1.67-4.9l.4-5.96c0-.54-.17-.91-.5-1.11-.34-.2-.71-.3-1.11-.3h-35.55c-1.08,0-1.62.5-1.62,1.51,0,1.15-.1,3.27-.3,6.36-.2,3.1-.47,6.7-.81,10.81-.34,4.11-.67,8.48-1.01,13.13-.34,4.65-.67,9.06-1.01,13.23-.34,4.18-.61,7.9-.81,11.16-.2,3.27-.3,5.57-.3,6.92,0,2.76.81,4.88,2.42,6.36,1.62,1.48,4.31,2.22,8.08,2.22h23.23c3.03,0,5.03-.62,6.01-1.87.98-1.25,1.53-2.88,1.67-4.9l.4-5.96c0-.47-.17-.82-.5-1.06-.34-.24-.71-.35-1.11-.35h-22.22l1.11-15.05h8.79c3.03,0,5.03-.62,6.01-1.87.98-1.25,1.53-2.88,1.67-4.9l.4-5.96c0-.54-.17-.91-.51-1.11-.34-.2-.71-.3-1.11-.3h-14.34l1.01-14.24h13.94Z"/>
      </g>
    </g>
  </g>
</svg>